<svg width="442" height="296" viewBox="0 0 442 296" fill="none" xmlns="http://www.w3.org/2000/svg">
<path d="M0 32C0 14.3269 14.3269 0 32 0H410C427.673 0 442 14.3269 442 32V296H0V32Z" fill="#1E201E"/>
<rect x="174" y="23" width="94" height="8" rx="4" fill="#D9D9D9"/>
<path d="M26.4 64.8C23.9067 65.0667 21.7067 65.2 19.8 65.2C18.8933 65.2 18.1667 64.9267 17.62 64.38C17.0733 63.8333 16.8 63.1067 16.8 62.2V57.6C16.8 56.6 17.08 55.82 17.64 55.26C18.2133 54.6867 19 54.4 20 54.4H26.4V57.1H21.1C20.5667 57.1 20.3 57.3667 20.3 57.9V61.8C20.3 62 20.3667 62.1667 20.5 62.3C20.6333 62.4333 20.8 62.5 21 62.5C22.2 62.5 24 62.4 26.4 62.2V64.8ZM37.2961 57.1L31.7961 62.3H37.2961V65H27.3961V62.3L32.8961 57.1H27.3961V54.4H37.2961V57.1ZM41.4992 68.6C40.7926 68.6 39.9259 68.5333 38.8992 68.4V65.8H40.6992C41.2059 65.8 41.5326 65.66 41.6792 65.38C41.8392 65.1 41.8126 64.7067 41.5992 64.2L37.4992 54.4H41.1992L43.6992 61.2L45.7992 54.4H49.4992L45.4992 65.4C45.1126 66.4533 44.6126 67.2467 43.9992 67.78C43.3859 68.3267 42.5526 68.6 41.4992 68.6ZM62.0016 57.1C61.2949 57.1 60.4949 57.2333 59.6016 57.5V65H56.1016V54.4H59.2016L59.4016 55.4C60.0282 54.9867 60.6682 54.6867 61.3216 54.5C61.9882 54.3 62.5482 54.2 63.0016 54.2H63.9016C64.8082 54.2 65.5349 54.4733 66.0816 55.02C66.6282 55.5667 66.9016 56.2933 66.9016 57.2V65H63.4016V57.8C63.4016 57.6 63.3349 57.4333 63.2016 57.3C63.0682 57.1667 62.9016 57.1 62.7016 57.1H62.0016ZM72.8992 62.4C73.6059 62.4 74.4059 62.2667 75.2992 62V60.8H72.3992C72.1992 60.8 72.0326 60.8667 71.8992 61C71.7659 61.1333 71.6992 61.3 71.6992 61.5V61.7C71.6992 61.9 71.7659 62.0667 71.8992 62.2C72.0326 62.3333 72.1992 62.4 72.3992 62.4H72.8992ZM69.1992 54.6C71.6392 54.3333 73.8392 54.2 75.7992 54.2C76.7059 54.2 77.4326 54.4733 77.9792 55.02C78.5259 55.5667 78.7992 56.2933 78.7992 57.2V65H75.6992L75.4992 64C74.8726 64.4133 74.2259 64.72 73.5592 64.92C72.9059 65.1067 72.3526 65.2 71.8992 65.2H71.1992C70.2926 65.2 69.5659 64.9267 69.0192 64.38C68.4726 63.8333 68.1992 63.1067 68.1992 62.2V61.3C68.1992 60.3933 68.4726 59.6667 69.0192 59.12C69.5659 58.5733 70.2926 58.3 71.1992 58.3H75.2992V57.5C75.2992 57.3 75.2326 57.1333 75.0992 57C74.9659 56.8667 74.7992 56.8 74.5992 56.8C73.7326 56.8 72.7726 56.84 71.7192 56.92C70.6792 57 69.8392 57.06 69.1992 57.1V54.6ZM92.4898 57.1C91.7832 57.1 90.9832 57.2333 90.0898 57.5V62.3H93.0898C93.6232 62.3 93.8898 62.0333 93.8898 61.5V57.8C93.8898 57.6 93.8232 57.4333 93.6898 57.3C93.5565 57.1667 93.3898 57.1 93.1898 57.1H92.4898ZM90.0898 65V68.4H86.5898V54.4H89.6898L89.8898 55.4C90.5165 54.9867 91.1565 54.6867 91.8098 54.5C92.4765 54.3 93.0365 54.2 93.4898 54.2H94.3898C95.2965 54.2 96.0232 54.4733 96.5698 55.02C97.1165 55.5667 97.3898 56.2933 97.3898 57.2V61.8C97.3898 62.8 97.1032 63.5867 96.5298 64.16C95.9698 64.72 95.1898 65 94.1898 65H90.0898ZM103.288 56.7C102.754 56.7 102.488 56.9667 102.488 57.5V58.6H105.888V57.5C105.888 56.9667 105.621 56.7 105.088 56.7H103.288ZM108.988 64.8C106.414 65.0667 104.081 65.2 101.988 65.2C101.081 65.2 100.354 64.9267 99.8075 64.38C99.2608 63.8333 98.9875 63.1067 98.9875 62.2V57.4C98.9875 56.4 99.2675 55.62 99.8275 55.06C100.401 54.4867 101.188 54.2 102.188 54.2H106.188C107.188 54.2 107.968 54.4867 108.528 55.06C109.101 55.62 109.388 56.4 109.388 57.4V61.1H102.488V61.9C102.488 62.1 102.554 62.2667 102.688 62.4C102.821 62.5333 102.988 62.6 103.188 62.6C104.508 62.6 106.441 62.5 108.988 62.3V64.8ZM122.184 60.8L123.984 54.4H127.784L124.484 65H120.784L118.784 58.6L116.784 65H113.084L109.784 54.4H113.584L115.384 60.8L117.184 54.4H120.384L122.184 60.8ZM134.482 57.1C133.775 57.1 132.975 57.2333 132.082 57.5V65H128.582V54.4H131.682L131.882 55.4C132.509 54.9867 133.149 54.6867 133.802 54.5C134.469 54.3 135.029 54.2 135.482 54.2H136.382C137.289 54.2 138.015 54.4733 138.562 55.02C139.109 55.5667 139.382 56.2933 139.382 57.2V65H135.882V57.8C135.882 57.6 135.815 57.4333 135.682 57.3C135.549 57.1667 135.382 57.1 135.182 57.1H134.482ZM151.98 62C151.98 63 151.693 63.7867 151.12 64.36C150.56 64.92 149.78 65.2 148.78 65.2H144.18C143.18 65.2 142.393 64.92 141.82 64.36C141.26 63.7867 140.98 63 140.98 62V57.4C140.98 56.4 141.26 55.62 141.82 55.06C142.393 54.4867 143.18 54.2 144.18 54.2H148.78C149.78 54.2 150.56 54.4867 151.12 55.06C151.693 55.62 151.98 56.4 151.98 57.4V62ZM148.48 57.7C148.48 57.1667 148.213 56.9 147.68 56.9H145.28C144.746 56.9 144.48 57.1667 144.48 57.7V61.7C144.48 62.2333 144.746 62.5 145.28 62.5H147.68C148.213 62.5 148.48 62.2333 148.48 61.7V57.7ZM169.173 64.8C166.68 65.0667 164.48 65.2 162.573 65.2C161.667 65.2 160.94 64.9267 160.393 64.38C159.847 63.8333 159.573 63.1067 159.573 62.2V57.6C159.573 56.6 159.853 55.82 160.413 55.26C160.987 54.6867 161.773 54.4 162.773 54.4H169.173V57.1H163.873C163.34 57.1 163.073 57.3667 163.073 57.9V61.8C163.073 62 163.14 62.1667 163.273 62.3C163.407 62.4333 163.573 62.5 163.773 62.5C164.973 62.5 166.773 62.4 169.173 62.2V64.8ZM174.27 54.6C175.563 54.3333 176.696 54.2 177.67 54.2H178.57C179.476 54.2 180.203 54.4733 180.75 55.02C181.296 55.5667 181.57 56.2933 181.57 57.2V65H178.07V57.6C178.07 57.4 178.003 57.2333 177.87 57.1C177.736 56.9667 177.57 56.9 177.37 56.9H176.67C176.163 56.9 175.696 56.9267 175.27 56.98C174.856 57.0333 174.523 57.0733 174.27 57.1V65H170.77V51H174.27V54.6ZM192.767 64.8C190.274 65.0667 188.074 65.2 186.167 65.2C185.261 65.2 184.534 64.9267 183.987 64.38C183.441 63.8333 183.167 63.1067 183.167 62.2V57.6C183.167 56.6 183.447 55.82 184.007 55.26C184.581 54.6867 185.367 54.4 186.367 54.4H192.767V57.1H187.467C186.934 57.1 186.667 57.3667 186.667 57.9V61.8C186.667 62 186.734 62.1667 186.867 62.3C187.001 62.4333 187.167 62.5 187.367 62.5C188.567 62.5 190.367 62.4 192.767 62.2V64.8ZM198.463 56.7C197.93 56.7 197.663 56.9667 197.663 57.5V58.6H201.063V57.5C201.063 56.9667 200.797 56.7 200.263 56.7H198.463ZM204.163 64.8C201.59 65.0667 199.257 65.2 197.163 65.2C196.257 65.2 195.53 64.9267 194.983 64.38C194.437 63.8333 194.163 63.1067 194.163 62.2V57.4C194.163 56.4 194.443 55.62 195.003 55.06C195.577 54.4867 196.363 54.2 197.363 54.2H201.363C202.363 54.2 203.143 54.4867 203.703 55.06C204.277 55.62 204.563 56.4 204.563 57.4V61.1H197.663V61.9C197.663 62.1 197.73 62.2667 197.863 62.4C197.997 62.5333 198.163 62.6 198.363 62.6C199.683 62.6 201.617 62.5 204.163 62.3V64.8ZM205.955 62.2C208.662 62.4 210.795 62.5 212.355 62.5C212.555 62.5 212.722 62.4333 212.855 62.3C212.989 62.1667 213.055 62 213.055 61.8V61.1H208.755C207.849 61.1 207.122 60.8267 206.575 60.28C206.029 59.7333 205.755 59.0067 205.755 58.1V57.4C205.755 56.4933 206.029 55.7667 206.575 55.22C207.122 54.6733 207.849 54.4 208.755 54.4H215.555V57H209.955C209.755 57 209.589 57.0667 209.455 57.2C209.322 57.3333 209.255 57.5 209.255 57.7C209.255 57.9 209.322 58.0667 209.455 58.2C209.589 58.3333 209.755 58.4 209.955 58.4H213.555C214.462 58.4 215.189 58.6733 215.735 59.22C216.282 59.7667 216.555 60.4933 216.555 61.4V62.2C216.555 63.1067 216.282 63.8333 215.735 64.38C215.189 64.9267 214.462 65.2 213.555 65.2C211.195 65.2 208.662 65.0667 205.955 64.8V62.2ZM227.257 57.1L221.757 62.3H227.257V65H217.357V62.3L222.857 57.1H217.357V54.4H227.257V57.1ZM239.556 62.3C240.263 62.3 241.063 62.1667 241.956 61.9V54.4H245.456V65H242.356L242.156 64C241.53 64.4133 240.883 64.72 240.216 64.92C239.563 65.1067 239.01 65.2 238.556 65.2H237.656C236.75 65.2 236.023 64.9267 235.476 64.38C234.93 63.8333 234.656 63.1067 234.656 62.2V54.4H238.156V61.6C238.156 61.8 238.223 61.9667 238.356 62.1C238.49 62.2333 238.656 62.3 238.856 62.3H239.556ZM247.049 62.2C249.756 62.4 251.889 62.5 253.449 62.5C253.649 62.5 253.816 62.4333 253.949 62.3C254.083 62.1667 254.149 62 254.149 61.8V61.1H249.849C248.943 61.1 248.216 60.8267 247.669 60.28C247.123 59.7333 246.849 59.0067 246.849 58.1V57.4C246.849 56.4933 247.123 55.7667 247.669 55.22C248.216 54.6733 248.943 54.4 249.849 54.4H256.649V57H251.049C250.849 57 250.683 57.0667 250.549 57.2C250.416 57.3333 250.349 57.5 250.349 57.7C250.349 57.9 250.416 58.0667 250.549 58.2C250.683 58.3333 250.849 58.4 251.049 58.4H254.649C255.556 58.4 256.283 58.6733 256.829 59.22C257.376 59.7667 257.649 60.4933 257.649 61.4V62.2C257.649 63.1067 257.376 63.8333 256.829 64.38C256.283 64.9267 255.556 65.2 254.649 65.2C252.289 65.2 249.756 65.0667 247.049 64.8V62.2ZM263.951 62.3C264.657 62.3 265.457 62.1667 266.351 61.9V54.4H269.851V65H266.751L266.551 64C265.924 64.4133 265.277 64.72 264.611 64.92C263.957 65.1067 263.404 65.2 262.951 65.2H262.051C261.144 65.2 260.417 64.9267 259.871 64.38C259.324 63.8333 259.051 63.1067 259.051 62.2V54.4H262.551V61.6C262.551 61.8 262.617 61.9667 262.751 62.1C262.884 62.2333 263.051 62.3 263.251 62.3H263.951ZM277.744 57.1C277.037 57.1 276.237 57.2333 275.344 57.5V65H271.844V54.4H274.944L275.144 55.4C275.77 54.9867 276.41 54.6867 277.064 54.5C277.73 54.3 278.29 54.2 278.744 54.2H279.644C280.55 54.2 281.277 54.4733 281.824 55.02C282.37 55.5667 282.644 56.2933 282.644 57.2V65H279.144V57.8C279.144 57.6 279.077 57.4333 278.944 57.3C278.81 57.1667 278.644 57.1 278.444 57.1H277.744ZM288.641 62.4C289.348 62.4 290.148 62.2667 291.041 62V60.8H288.141C287.941 60.8 287.775 60.8667 287.641 61C287.508 61.1333 287.441 61.3 287.441 61.5V61.7C287.441 61.9 287.508 62.0667 287.641 62.2C287.775 62.3333 287.941 62.4 288.141 62.4H288.641ZM284.941 54.6C287.381 54.3333 289.581 54.2 291.541 54.2C292.448 54.2 293.175 54.4733 293.721 55.02C294.268 55.5667 294.541 56.2933 294.541 57.2V65H291.441L291.241 64C290.615 64.4133 289.968 64.72 289.301 64.92C288.648 65.1067 288.095 65.2 287.641 65.2H286.941C286.035 65.2 285.308 64.9267 284.761 64.38C284.215 63.8333 283.941 63.1067 283.941 62.2V61.3C283.941 60.3933 284.215 59.6667 284.761 59.12C285.308 58.5733 286.035 58.3 286.941 58.3H291.041V57.5C291.041 57.3 290.975 57.1333 290.841 57C290.708 56.8667 290.541 56.8 290.341 56.8C289.475 56.8 288.515 56.84 287.461 56.92C286.421 57 285.581 57.06 284.941 57.1V54.6ZM294.341 68.8C293.715 68.9333 293.048 69 292.341 69C291.635 69 291.108 68.84 290.761 68.52C290.415 68.2133 290.241 67.8267 290.241 67.36C290.241 66.6133 290.621 66 291.381 65.52C291.728 65.3067 292.115 65.1333 292.541 65H294.541C293.675 65.3333 293.001 65.7333 292.521 66.2C292.268 66.4267 292.141 66.7 292.141 67.02C292.141 67.34 292.361 67.5 292.801 67.5C293.255 67.5 293.768 67.4333 294.341 67.3V68.8ZM305.736 64.8C303.243 65.0667 301.043 65.2 299.136 65.2C298.229 65.2 297.503 64.9267 296.956 64.38C296.409 63.8333 296.136 63.1067 296.136 62.2V57.6C296.136 56.6 296.416 55.82 296.976 55.26C297.549 54.6867 298.336 54.4 299.336 54.4H305.736V57.1H300.436C299.903 57.1 299.636 57.3667 299.636 57.9V61.8C299.636 62 299.703 62.1667 299.836 62.3C299.969 62.4333 300.136 62.5 300.336 62.5C301.536 62.5 303.336 62.4 305.736 62.2V64.8ZM299.636 53.6L300.836 50.2H304.436L302.236 53.6H299.636ZM316.828 60.8V65H313.328V51H316.828V58.1H318.428L320.628 54.4H324.328L321.328 59.5L324.328 65H320.628L318.328 60.8H316.828ZM335.925 62C335.925 63 335.638 63.7867 335.065 64.36C334.505 64.92 333.725 65.2 332.725 65.2H328.125C327.125 65.2 326.338 64.92 325.765 64.36C325.205 63.7867 324.925 63 324.925 62V57.4C324.925 56.4 325.205 55.62 325.765 55.06C326.338 54.4867 327.125 54.2 328.125 54.2H332.725C333.725 54.2 334.505 54.4867 335.065 55.06C335.638 55.62 335.925 56.4 335.925 57.4V62ZM332.425 57.7C332.425 57.1667 332.158 56.9 331.625 56.9H329.225C328.692 56.9 328.425 57.1667 328.425 57.7V61.7C328.425 62.2333 328.692 62.5 329.225 62.5H331.625C332.158 62.5 332.425 62.2333 332.425 61.7V57.7ZM343.623 57.1C342.916 57.1 342.116 57.2333 341.223 57.5V65H337.723V54.4H340.823L341.023 55.4C341.649 54.9867 342.289 54.6867 342.943 54.5C343.609 54.3 344.169 54.2 344.623 54.2H345.523C346.429 54.2 347.156 54.4733 347.703 55.02C348.249 55.5667 348.523 56.2933 348.523 57.2V65H345.023V57.8C345.023 57.6 344.956 57.4333 344.823 57.3C344.689 57.1667 344.523 57.1 344.323 57.1H343.623ZM357.72 65C356.427 65.1333 355.16 65.2 353.92 65.2C353.014 65.2 352.287 64.9267 351.74 64.38C351.194 63.8333 350.92 63.1067 350.92 62.2V57.1H349.72V54.4H350.92L351.32 52H354.42V54.4H356.92V57.1H354.42V61.7C354.42 61.9 354.487 62.0667 354.62 62.2C354.754 62.3333 354.92 62.4 355.12 62.4H357.72V65ZM369.538 62C369.538 63 369.252 63.7867 368.678 64.36C368.118 64.92 367.338 65.2 366.338 65.2H361.738C360.738 65.2 359.952 64.92 359.378 64.36C358.818 63.7867 358.538 63 358.538 62V57.4C358.538 56.4 358.818 55.62 359.378 55.06C359.952 54.4867 360.738 54.2 361.738 54.2H366.338C367.338 54.2 368.118 54.4867 368.678 55.06C369.252 55.62 369.538 56.4 369.538 57.4V62ZM366.038 57.7C366.038 57.1667 365.772 56.9 365.238 56.9H362.838C362.305 56.9 362.038 57.1667 362.038 57.7V61.7C362.038 62.2333 362.305 62.5 362.838 62.5H365.238C365.772 62.5 366.038 62.2333 366.038 61.7V57.7ZM370.536 51.2C373.109 50.9333 375.509 50.8 377.736 50.8C379.043 50.8 380.003 51.1067 380.616 51.72C381.229 52.3333 381.536 53.2933 381.536 54.6V55.5C381.536 56.5 381.336 57.26 380.936 57.78C380.536 58.3133 379.836 58.7533 378.836 59.1L376.836 59.8V60.8H373.236V58L377.936 56.3V54.6C377.936 54.2933 377.843 54.0533 377.656 53.88C377.483 53.6933 377.176 53.6 376.736 53.6C375.936 53.6 374.896 53.64 373.616 53.72C372.349 53.8 371.323 53.86 370.536 53.9V51.2ZM373.236 62H376.836V65H373.236V62Z" fill="white"/>
<path d="M28 104.8C25.0267 105.067 22.56 105.2 20.6 105.2C19.2933 105.2 18.3333 104.893 17.72 104.28C17.1067 103.667 16.8 102.707 16.8 101.4V95C16.8 93.6 17.1133 92.5867 17.74 91.96C18.38 91.32 19.4 91 20.8 91H28V93.8H21.6C20.8 93.8 20.4 94.2 20.4 95V101.4C20.4 101.707 20.4867 101.953 20.66 102.14C20.8467 102.313 21.08 102.4 21.36 102.4C21.64 102.4 21.9467 102.4 22.28 102.4C22.6133 102.387 22.96 102.373 23.32 102.36C23.68 102.347 24.04 102.333 24.4 102.32C24.7733 102.307 25.2467 102.28 25.82 102.24C26.4067 102.2 27.1333 102.153 28 102.1V104.8ZM33.6023 102.4C34.309 102.4 35.109 102.267 36.0023 102V100.8H33.1023C32.9023 100.8 32.7357 100.867 32.6023 101C32.469 101.133 32.4023 101.3 32.4023 101.5V101.7C32.4023 101.9 32.469 102.067 32.6023 102.2C32.7357 102.333 32.9023 102.4 33.1023 102.4H33.6023ZM29.9023 94.6C32.3423 94.3333 34.5423 94.2 36.5023 94.2C37.409 94.2 38.1357 94.4733 38.6823 95.02C39.229 95.5667 39.5023 96.2933 39.5023 97.2V105H36.4023L36.2023 104C35.5757 104.413 34.929 104.72 34.2623 104.92C33.609 105.107 33.0557 105.2 32.6023 105.2H31.9023C30.9957 105.2 30.269 104.927 29.7223 104.38C29.1757 103.833 28.9023 103.107 28.9023 102.2V101.3C28.9023 100.393 29.1757 99.6667 29.7223 99.12C30.269 98.5733 30.9957 98.3 31.9023 98.3H36.0023V97.5C36.0023 97.3 35.9357 97.1333 35.8023 97C35.669 96.8667 35.5023 96.8 35.3023 96.8C34.4357 96.8 33.4757 96.84 32.4223 96.92C31.3823 97 30.5423 97.06 29.9023 97.1V94.6ZM47.2969 105C46.4035 105.133 45.5502 105.2 44.7369 105.2C43.9369 105.2 43.2635 104.927 42.7169 104.38C42.1702 103.833 41.8969 103.107 41.8969 102.2V100.44L40.6969 101.1V97.8L41.8969 97.14V91H45.3969V95.18L47.2969 94.1V97.4L45.3969 98.48V101.7C45.3969 101.9 45.4635 102.067 45.5969 102.2C45.7302 102.333 45.8969 102.4 46.0969 102.4H47.2969V105ZM51.4992 108.6C50.7926 108.6 49.9259 108.533 48.8992 108.4V105.8H50.6992C51.2059 105.8 51.5326 105.66 51.6792 105.38C51.8392 105.1 51.8126 104.707 51.5992 104.2L47.4992 94.4H51.1992L53.6992 101.2L55.7992 94.4H59.4992L55.4992 105.4C55.1126 106.453 54.6126 107.247 53.9992 107.78C53.3859 108.327 52.5526 108.6 51.4992 108.6ZM73.5016 105C72.2082 105.133 70.9416 105.2 69.7016 105.2C68.7949 105.2 68.0682 104.927 67.5216 104.38C66.9749 103.833 66.7016 103.107 66.7016 102.2V97.1H65.5016V94.4H66.7016L67.1016 92H70.2016V94.4H72.7016V97.1H70.2016V101.7C70.2016 101.9 70.2682 102.067 70.4016 102.2C70.5349 102.333 70.7016 102.4 70.9016 102.4H73.5016V105ZM85.7195 100.8L87.5195 94.4H91.3195L88.0195 105H84.3195L82.3195 98.6L80.3195 105H76.6195L73.3195 94.4H77.1195L78.9195 100.8L80.7195 94.4H83.9195L85.7195 100.8ZM102.722 102C102.722 103 102.435 103.787 101.862 104.36C101.302 104.92 100.522 105.2 99.5219 105.2H94.9219C93.9219 105.2 93.1352 104.92 92.5619 104.36C92.0019 103.787 91.7219 103 91.7219 102V97.4C91.7219 96.4 92.0019 95.62 92.5619 95.06C93.1352 94.4867 93.9219 94.2 94.9219 94.2H99.5219C100.522 94.2 101.302 94.4867 101.862 95.06C102.435 95.62 102.722 96.4 102.722 97.4V102ZM99.2219 97.7C99.2219 97.1667 98.9552 96.9 98.4219 96.9H96.0219C95.4885 96.9 95.2219 97.1667 95.2219 97.7V101.7C95.2219 102.233 95.4885 102.5 96.0219 102.5H98.4219C98.9552 102.5 99.2219 102.233 99.2219 101.7V97.7ZM95.8219 93.6L97.0219 90.2H100.622L98.4219 93.6H95.8219ZM105.52 108.6C104.28 108.6 103.013 108.533 101.72 108.4V105.8H104.32C104.52 105.8 104.686 105.733 104.82 105.6C104.953 105.467 105.02 105.3 105.02 105.1V94.8H108.52V105.6C108.52 106.507 108.246 107.233 107.7 107.78C107.153 108.327 106.426 108.6 105.52 108.6ZM105.02 90.8H108.52V93.6H105.02V90.8ZM122.412 97.1C121.705 97.1 120.905 97.2333 120.012 97.5V102.3H123.012C123.545 102.3 123.812 102.033 123.812 101.5V97.8C123.812 97.6 123.745 97.4333 123.612 97.3C123.478 97.1667 123.312 97.1 123.112 97.1H122.412ZM120.012 105V108.4H116.512V94.4H119.612L119.812 95.4C120.438 94.9867 121.078 94.6867 121.732 94.5C122.398 94.3 122.958 94.2 123.412 94.2H124.312C125.218 94.2 125.945 94.4733 126.492 95.02C127.038 95.5667 127.312 96.2933 127.312 97.2V101.8C127.312 102.8 127.025 103.587 126.452 104.16C125.892 104.72 125.112 105 124.112 105H120.012ZM139.909 102C139.909 103 139.623 103.787 139.049 104.36C138.489 104.92 137.709 105.2 136.709 105.2H132.109C131.109 105.2 130.323 104.92 129.749 104.36C129.189 103.787 128.909 103 128.909 102V97.4C128.909 96.4 129.189 95.62 129.749 95.06C130.323 94.4867 131.109 94.2 132.109 94.2H136.709C137.709 94.2 138.489 94.4867 139.049 95.06C139.623 95.62 139.909 96.4 139.909 97.4V102ZM136.409 97.7C136.409 97.1667 136.143 96.9 135.609 96.9H133.209C132.676 96.9 132.409 97.1667 132.409 97.7V101.7C132.409 102.233 132.676 102.5 133.209 102.5H135.609C136.143 102.5 136.409 102.233 136.409 101.7V97.7ZM141.307 102.2C144.014 102.4 146.147 102.5 147.707 102.5C147.907 102.5 148.074 102.433 148.207 102.3C148.34 102.167 148.407 102 148.407 101.8V101.1H144.107C143.2 101.1 142.474 100.827 141.927 100.28C141.38 99.7333 141.107 99.0067 141.107 98.1V97.4C141.107 96.4933 141.38 95.7667 141.927 95.22C142.474 94.6733 143.2 94.4 144.107 94.4H150.907V97H145.307C145.107 97 144.94 97.0667 144.807 97.2C144.674 97.3333 144.607 97.5 144.607 97.7C144.607 97.9 144.674 98.0667 144.807 98.2C144.94 98.3333 145.107 98.4 145.307 98.4H148.907C149.814 98.4 150.54 98.6733 151.087 99.22C151.634 99.7667 151.907 100.493 151.907 101.4V102.2C151.907 103.107 151.634 103.833 151.087 104.38C150.54 104.927 149.814 105.2 148.907 105.2C146.547 105.2 144.014 105.067 141.307 104.8V102.2ZM160.709 105C159.415 105.133 158.149 105.2 156.909 105.2C156.002 105.2 155.275 104.927 154.729 104.38C154.182 103.833 153.909 103.107 153.909 102.2V97.1H152.709V94.4H153.909L154.309 92H157.409V94.4H159.909V97.1H157.409V101.7C157.409 101.9 157.475 102.067 157.609 102.2C157.742 102.333 157.909 102.4 158.109 102.4H160.709V105ZM171.522 108.8C170.895 108.933 170.229 109 169.522 109C168.815 109 168.289 108.84 167.942 108.52C167.595 108.213 167.422 107.833 167.422 107.38C167.422 106.927 167.529 106.553 167.742 106.26C167.955 105.98 168.202 105.747 168.482 105.56C168.909 105.28 169.309 105.093 169.682 105C169.642 105 169.449 105.007 169.102 105.02C168.755 105.047 168.335 105.073 167.842 105.1C166.629 105.167 165.575 105.2 164.682 105.2C163.802 105.2 163.089 104.927 162.542 104.38C161.995 103.833 161.722 103.107 161.722 102.2V97.4C161.722 96.4 162.002 95.62 162.562 95.06C163.135 94.4867 163.922 94.2 164.922 94.2H168.922C169.922 94.2 170.702 94.4867 171.262 95.06C171.835 95.62 172.122 96.4 172.122 97.4V101.1H165.222V101.9C165.222 102.1 165.289 102.267 165.422 102.4C165.555 102.533 165.722 102.6 165.922 102.6C167.242 102.6 169.175 102.5 171.722 102.3V104.8C170.122 105.653 169.322 106.387 169.322 107C169.322 107.333 169.542 107.5 169.982 107.5C170.435 107.5 170.949 107.433 171.522 107.3V108.8ZM166.022 96.7C165.489 96.7 165.222 96.9667 165.222 97.5V98.6H168.622V97.5C168.622 96.9667 168.355 96.7 167.822 96.7H166.022ZM179.814 97.1C179.107 97.1 178.307 97.2333 177.414 97.5V102.3H180.414C180.947 102.3 181.214 102.033 181.214 101.5V97.8C181.214 97.6 181.147 97.4333 181.014 97.3C180.881 97.1667 180.714 97.1 180.514 97.1H179.814ZM177.414 105V108.4H173.914V94.4H177.014L177.214 95.4C177.841 94.9867 178.481 94.6867 179.134 94.5C179.801 94.3 180.361 94.2 180.814 94.2H181.714C182.621 94.2 183.347 94.4733 183.894 95.02C184.441 95.5667 184.714 96.2933 184.714 97.2V101.8C184.714 102.8 184.427 103.587 183.854 104.16C183.294 104.72 182.514 105 181.514 105H177.414ZM201.808 97.1L196.308 102.3H201.808V105H191.908V102.3L197.408 97.1H191.908V94.4H201.808V97.1ZM214.011 102C214.011 103 213.724 103.787 213.151 104.36C212.591 104.92 211.811 105.2 210.811 105.2H206.211C205.211 105.2 204.424 104.92 203.851 104.36C203.291 103.787 203.011 103 203.011 102V97.4C203.011 96.4 203.291 95.62 203.851 95.06C204.424 94.4867 205.211 94.2 206.211 94.2H210.811C211.811 94.2 212.591 94.4867 213.151 95.06C213.724 95.62 214.011 96.4 214.011 97.4V102ZM210.511 97.7C210.511 97.1667 210.244 96.9 209.711 96.9H207.311C206.778 96.9 206.511 97.1667 206.511 97.7V101.7C206.511 102.233 206.778 102.5 207.311 102.5H209.711C210.244 102.5 210.511 102.233 210.511 101.7V97.7ZM215.409 102.2C218.115 102.4 220.249 102.5 221.809 102.5C222.009 102.5 222.175 102.433 222.309 102.3C222.442 102.167 222.509 102 222.509 101.8V101.1H218.209C217.302 101.1 216.575 100.827 216.029 100.28C215.482 99.7333 215.209 99.0067 215.209 98.1V97.4C215.209 96.4933 215.482 95.7667 216.029 95.22C216.575 94.6733 217.302 94.4 218.209 94.4H225.009V97H219.409C219.209 97 219.042 97.0667 218.909 97.2C218.775 97.3333 218.709 97.5 218.709 97.7C218.709 97.9 218.775 98.0667 218.909 98.2C219.042 98.3333 219.209 98.4 219.409 98.4H223.009C223.915 98.4 224.642 98.6733 225.189 99.22C225.735 99.7667 226.009 100.493 226.009 101.4V102.2C226.009 103.107 225.735 103.833 225.189 104.38C224.642 104.927 223.915 105.2 223.009 105.2C220.649 105.2 218.115 105.067 215.409 104.8V102.2ZM234.81 105C233.517 105.133 232.25 105.2 231.01 105.2C230.103 105.2 229.377 104.927 228.83 104.38C228.283 103.833 228.01 103.107 228.01 102.2V97.1H226.81V94.4H228.01L228.41 92H231.51V94.4H234.01V97.1H231.51V101.7C231.51 101.9 231.577 102.067 231.71 102.2C231.843 102.333 232.01 102.4 232.21 102.4H234.81V105ZM240.028 102.4C240.735 102.4 241.535 102.267 242.428 102V100.8H239.528C239.328 100.8 239.161 100.867 239.028 101C238.895 101.133 238.828 101.3 238.828 101.5V101.7C238.828 101.9 238.895 102.067 239.028 102.2C239.161 102.333 239.328 102.4 239.528 102.4H240.028ZM236.328 94.6C238.768 94.3333 240.968 94.2 242.928 94.2C243.835 94.2 244.561 94.4733 245.108 95.02C245.655 95.5667 245.928 96.2933 245.928 97.2V105H242.828L242.628 104C242.001 104.413 241.355 104.72 240.688 104.92C240.035 105.107 239.481 105.2 239.028 105.2H238.328C237.421 105.2 236.695 104.927 236.148 104.38C235.601 103.833 235.328 103.107 235.328 102.2V101.3C235.328 100.393 235.601 99.6667 236.148 99.12C236.695 98.5733 237.421 98.3 238.328 98.3H242.428V97.5C242.428 97.3 242.361 97.1333 242.228 97C242.095 96.8667 241.928 96.8 241.728 96.8C240.861 96.8 239.901 96.84 238.848 96.92C237.808 97 236.968 97.06 236.328 97.1V94.6ZM253.623 97.1C252.916 97.1 252.116 97.2333 251.223 97.5V105H247.723V94.4H250.823L251.023 95.4C251.649 94.9867 252.289 94.6867 252.943 94.5C253.609 94.3 254.169 94.2 254.623 94.2H255.523C256.429 94.2 257.156 94.4733 257.703 95.02C258.249 95.5667 258.523 96.2933 258.523 97.2V105H255.023V97.8C255.023 97.6 254.956 97.4333 254.823 97.3C254.689 97.1667 254.523 97.1 254.323 97.1H253.623ZM264.72 94.8V105H261.22V97.5H259.72V94.8H264.72ZM261.22 90.8H264.72V93.6H261.22V90.8ZM270.827 96.7C270.293 96.7 270.027 96.9667 270.027 97.5V98.6H273.427V97.5C273.427 96.9667 273.16 96.7 272.627 96.7H270.827ZM276.527 104.8C273.953 105.067 271.62 105.2 269.527 105.2C268.62 105.2 267.893 104.927 267.347 104.38C266.8 103.833 266.527 103.107 266.527 102.2V97.4C266.527 96.4 266.807 95.62 267.367 95.06C267.94 94.4867 268.727 94.2 269.727 94.2H273.727C274.727 94.2 275.507 94.4867 276.067 95.06C276.64 95.62 276.927 96.4 276.927 97.4V101.1H270.027V101.9C270.027 102.1 270.093 102.267 270.227 102.4C270.36 102.533 270.527 102.6 270.727 102.6C272.047 102.6 273.98 102.5 276.527 102.3V104.8ZM291.815 97.6C291.815 97.4 291.748 97.2333 291.615 97.1C291.482 96.9667 291.315 96.9 291.115 96.9H290.615C290.055 96.9 289.568 96.9267 289.155 96.98C288.755 97.0333 288.442 97.0733 288.215 97.1V102.3H291.015C291.548 102.3 291.815 102.033 291.815 101.5V97.6ZM288.215 94.6C289.508 94.3333 290.642 94.2 291.615 94.2H292.315C293.222 94.2 293.948 94.4733 294.495 95.02C295.042 95.5667 295.315 96.2933 295.315 97.2V101.8C295.315 102.8 295.028 103.587 294.455 104.16C293.895 104.72 293.115 105 292.115 105H284.715V91H288.215V94.6ZM301.217 96.7C300.684 96.7 300.417 96.9667 300.417 97.5V98.6H303.817V97.5C303.817 96.9667 303.551 96.7 303.017 96.7H301.217ZM306.917 104.8C304.344 105.067 302.011 105.2 299.917 105.2C299.011 105.2 298.284 104.927 297.737 104.38C297.191 103.833 296.917 103.107 296.917 102.2V97.4C296.917 96.4 297.197 95.62 297.757 95.06C298.331 94.4867 299.117 94.2 300.117 94.2H304.117C305.117 94.2 305.897 94.4867 306.457 95.06C307.031 95.62 307.317 96.4 307.317 97.4V101.1H300.417V101.9C300.417 102.1 300.484 102.267 300.617 102.4C300.751 102.533 300.917 102.6 301.117 102.6C302.437 102.6 304.371 102.5 306.917 102.3V104.8ZM318.409 97.1L312.909 102.3H318.409V105H308.509V102.3L314.009 97.1H308.509V94.4H318.409V97.1ZM325.713 97.1C325.006 97.1 324.206 97.2333 323.313 97.5V102.3H326.313C326.846 102.3 327.113 102.033 327.113 101.5V97.8C327.113 97.6 327.046 97.4333 326.913 97.3C326.779 97.1667 326.613 97.1 326.413 97.1H325.713ZM323.313 105V108.4H319.813V94.4H322.913L323.113 95.4C323.739 94.9867 324.379 94.6867 325.033 94.5C325.699 94.3 326.259 94.2 326.713 94.2H327.613C328.519 94.2 329.246 94.4733 329.793 95.02C330.339 95.5667 330.613 96.2933 330.613 97.2V101.8C330.613 102.8 330.326 103.587 329.753 104.16C329.193 104.72 328.412 105 327.413 105H323.313ZM343.21 102C343.21 103 342.923 103.787 342.35 104.36C341.79 104.92 341.01 105.2 340.01 105.2H335.41C334.41 105.2 333.623 104.92 333.05 104.36C332.49 103.787 332.21 103 332.21 102V97.4C332.21 96.4 332.49 95.62 333.05 95.06C333.623 94.4867 334.41 94.2 335.41 94.2H340.01C341.01 94.2 341.79 94.4867 342.35 95.06C342.923 95.62 343.21 96.4 343.21 97.4V102ZM339.71 97.7C339.71 97.1667 339.443 96.9 338.91 96.9H336.51C335.977 96.9 335.71 97.1667 335.71 97.7V101.7C335.71 102.233 335.977 102.5 336.51 102.5H338.91C339.443 102.5 339.71 102.233 339.71 101.7V97.7ZM356.013 100.8L357.813 94.4H361.613L358.313 105H354.613L352.613 98.6L350.613 105H346.913L343.612 94.4H347.413L349.213 100.8L351.013 94.4H354.213L356.013 100.8ZM368.51 97.3C367.67 97.3 366.803 97.5 365.91 97.9V105H362.41V94.4H365.51L365.71 95.7C366.857 94.7 368.057 94.2 369.31 94.2H370.21V97.3H368.51ZM382.019 102C382.019 103 381.732 103.787 381.159 104.36C380.599 104.92 379.819 105.2 378.819 105.2H374.219C373.219 105.2 372.432 104.92 371.859 104.36C371.299 103.787 371.019 103 371.019 102V97.4C371.019 96.4 371.299 95.62 371.859 95.06C372.432 94.4867 373.219 94.2 374.219 94.2H378.819C379.819 94.2 380.599 94.4867 381.159 95.06C381.732 95.62 382.019 96.4 382.019 97.4V102ZM378.519 97.7C378.519 97.1667 378.252 96.9 377.719 96.9H375.319C374.785 96.9 374.519 97.1667 374.519 97.7V101.7C374.519 102.233 374.785 102.5 375.319 102.5H377.719C378.252 102.5 378.519 102.233 378.519 101.7V97.7ZM391.216 105C389.923 105.133 388.656 105.2 387.416 105.2C386.51 105.2 385.783 104.927 385.236 104.38C384.69 103.833 384.416 103.107 384.416 102.2V97.1H383.216V94.4H384.416L384.816 92H387.916V94.4H390.416V97.1H387.916V101.7C387.916 101.9 387.983 102.067 388.116 102.2C388.25 102.333 388.416 102.4 388.616 102.4H391.216V105ZM398.525 97.1C397.818 97.1 397.018 97.2333 396.125 97.5V105H392.625V94.4H395.725L395.925 95.4C396.552 94.9867 397.192 94.6867 397.845 94.5C398.512 94.3 399.072 94.2 399.525 94.2H400.425C401.332 94.2 402.058 94.4733 402.605 95.02C403.152 95.5667 403.425 96.2933 403.425 97.2V105H399.925V97.8C399.925 97.6 399.858 97.4333 399.725 97.3C399.592 97.1667 399.425 97.1 399.225 97.1H398.525ZM409.623 94.8V105H406.123V97.5H404.623V94.8H409.623ZM406.123 90.8H409.623V93.6H406.123V90.8ZM415.729 96.7C415.196 96.7 414.929 96.9667 414.929 97.5V98.6H418.329V97.5C418.329 96.9667 418.062 96.7 417.529 96.7H415.729ZM421.429 104.8C418.856 105.067 416.522 105.2 414.429 105.2C413.522 105.2 412.796 104.927 412.249 104.38C411.702 103.833 411.429 103.107 411.429 102.2V97.4C411.429 96.4 411.709 95.62 412.269 95.06C412.842 94.4867 413.629 94.2 414.629 94.2H418.629C419.629 94.2 420.409 94.4867 420.969 95.06C421.542 95.62 421.829 96.4 421.829 97.4V101.1H414.929V101.9C414.929 102.1 414.996 102.267 415.129 102.4C415.262 102.533 415.429 102.6 415.629 102.6C416.949 102.6 418.882 102.5 421.429 102.3V104.8ZM21.9 126.3C22.6067 126.3 23.4067 126.167 24.3 125.9V118.4H27.8V129H24.7L24.5 128C23.8733 128.413 23.2267 128.72 22.56 128.92C21.9067 129.107 21.3533 129.2 20.9 129.2H20C19.0933 129.2 18.3667 128.927 17.82 128.38C17.2733 127.833 17 127.107 17 126.2V118.4H20.5V125.6C20.5 125.8 20.5667 125.967 20.7 126.1C20.8333 126.233 21 126.3 21.2 126.3H21.9ZM29.393 126.2C32.0996 126.4 34.233 126.5 35.793 126.5C35.993 126.5 36.1596 126.433 36.293 126.3C36.4263 126.167 36.493 126 36.493 125.8V125.1H32.193C31.2863 125.1 30.5596 124.827 30.013 124.28C29.4663 123.733 29.193 123.007 29.193 122.1V121.4C29.193 120.493 29.4663 119.767 30.013 119.22C30.5596 118.673 31.2863 118.4 32.193 118.4H38.993V121H33.393C33.193 121 33.0263 121.067 32.893 121.2C32.7596 121.333 32.693 121.5 32.693 121.7C32.693 121.9 32.7596 122.067 32.893 122.2C33.0263 122.333 33.193 122.4 33.393 122.4H36.993C37.8996 122.4 38.6263 122.673 39.173 123.22C39.7196 123.767 39.993 124.493 39.993 125.4V126.2C39.993 127.107 39.7196 127.833 39.173 128.38C38.6263 128.927 37.8996 129.2 36.993 129.2C34.633 129.2 32.0996 129.067 29.393 128.8V126.2ZM46.2945 126.3C47.0012 126.3 47.8012 126.167 48.6945 125.9V118.4H52.1945V129H49.0945L48.8945 128C48.2679 128.413 47.6212 128.72 46.9545 128.92C46.3012 129.107 45.7479 129.2 45.2945 129.2H44.3945C43.4879 129.2 42.7612 128.927 42.2145 128.38C41.6679 127.833 41.3945 127.107 41.3945 126.2V118.4H44.8945V125.6C44.8945 125.8 44.9612 125.967 45.0945 126.1C45.2279 126.233 45.3945 126.3 45.5945 126.3H46.2945ZM60.0875 121.1C59.3808 121.1 58.5808 121.233 57.6875 121.5V129H54.1875V118.4H57.2875L57.4875 119.4C58.1142 118.987 58.7542 118.687 59.4075 118.5C60.0742 118.3 60.6342 118.2 61.0875 118.2H61.9875C62.8942 118.2 63.6208 118.473 64.1675 119.02C64.7142 119.567 64.9875 120.293 64.9875 121.2V129H61.4875V121.8C61.4875 121.6 61.4208 121.433 61.2875 121.3C61.1542 121.167 60.9875 121.1 60.7875 121.1H60.0875ZM71.1852 118.8V129H67.6852V121.5H66.1852V118.8H71.1852ZM67.6852 114.8H71.1852V117.6H67.6852V114.8ZM82.7914 132.8C82.1647 132.933 81.4981 133 80.7914 133C80.0847 133 79.5581 132.84 79.2114 132.52C78.8647 132.213 78.6914 131.833 78.6914 131.38C78.6914 130.927 78.7981 130.553 79.0114 130.26C79.2247 129.98 79.4714 129.747 79.7514 129.56C80.1781 129.28 80.5781 129.093 80.9514 129C80.9114 129 80.7181 129.007 80.3714 129.02C80.0247 129.047 79.6047 129.073 79.1114 129.1C77.8981 129.167 76.8447 129.2 75.9514 129.2C75.0714 129.2 74.3581 128.927 73.8114 128.38C73.2647 127.833 72.9914 127.107 72.9914 126.2V121.4C72.9914 120.4 73.2714 119.62 73.8314 119.06C74.4047 118.487 75.1914 118.2 76.1914 118.2H80.1914C81.1914 118.2 81.9714 118.487 82.5314 119.06C83.1047 119.62 83.3914 120.4 83.3914 121.4V125.1H76.4914V125.9C76.4914 126.1 76.5581 126.267 76.6914 126.4C76.8247 126.533 76.9914 126.6 77.1914 126.6C78.5114 126.6 80.4447 126.5 82.9914 126.3V128.8C81.3914 129.653 80.5914 130.387 80.5914 131C80.5914 131.333 80.8114 131.5 81.2514 131.5C81.7047 131.5 82.2181 131.433 82.7914 131.3V132.8ZM77.2914 120.7C76.7581 120.7 76.4914 120.967 76.4914 121.5V122.6H79.8914V121.5C79.8914 120.967 79.6247 120.7 79.0914 120.7H77.2914ZM92.5836 129C91.2903 129.133 90.0236 129.2 88.7836 129.2C87.8769 129.2 87.1503 128.927 86.6036 128.38C86.0569 127.833 85.7836 127.107 85.7836 126.2V121.1H84.5836V118.4H85.7836L86.1836 116H89.2836V118.4H91.7836V121.1H89.2836V125.7C89.2836 125.9 89.3503 126.067 89.4836 126.2C89.6169 126.333 89.7836 126.4 89.9836 126.4H92.5836V129ZM96.4016 132.6C95.6949 132.6 94.8282 132.533 93.8016 132.4V129.8H95.6016C96.1082 129.8 96.4349 129.66 96.5816 129.38C96.7416 129.1 96.7149 128.707 96.5016 128.2L92.4016 118.4H96.1016L98.6016 125.2L100.702 118.4H104.402L100.402 129.4C100.015 130.453 99.5149 131.247 98.9016 131.78C98.2882 132.327 97.4549 132.6 96.4016 132.6ZM105.008 126H108.608V129H105.008V126ZM105.408 124.8L105.008 120.6V115H108.608V120.6L108.208 124.8H105.408Z" fill="white"/>
<rect x="17" y="152" width="408" height="48" rx="19" stroke="white" stroke-width="2"/>
<path d="M41.403 182.931L36.3474 170H38.7224L41.0141 175.875C41.116 176.125 41.2086 176.384 41.2919 176.653C41.3845 176.912 41.4863 177.231 41.5974 177.611C41.7086 177.231 41.815 176.912 41.9169 176.653C42.0187 176.384 42.1206 176.125 42.2224 175.875L44.7224 169.583L47.2502 175.875C47.3521 176.125 47.4586 176.384 47.5697 176.653C47.6808 176.912 47.7873 177.231 47.8891 177.611C48.0002 177.231 48.1021 176.912 48.1947 176.653C48.2873 176.384 48.3798 176.125 48.4724 175.875L50.7502 170H53.0002L47.9447 182.931L45.2919 176.278C45.19 176.037 45.0882 175.782 44.9863 175.514C44.8845 175.245 44.7826 174.921 44.6808 174.542C44.5697 174.921 44.4632 175.245 44.3613 175.514C44.2595 175.773 44.1623 176.028 44.0697 176.278L41.403 182.931ZM53.2993 186.667V174.167H55.202V175.056C55.5354 174.722 55.9289 174.458 56.3826 174.264C56.8456 174.069 57.3456 173.972 57.8826 173.972C58.6604 173.972 59.3641 174.171 59.9937 174.569C60.6233 174.958 61.1233 175.481 61.4937 176.139C61.8733 176.796 62.0632 177.528 62.0632 178.333C62.0632 179.13 61.8733 179.861 61.4937 180.528C61.1233 181.185 60.6233 181.713 59.9937 182.111C59.3641 182.5 58.6604 182.694 57.8826 182.694C57.4104 182.694 56.9706 182.62 56.5632 182.472C56.165 182.324 55.8039 182.12 55.4798 181.861V186.667H53.2993ZM57.6187 180.764C58.0632 180.764 58.4613 180.653 58.8132 180.431C59.1743 180.208 59.4613 179.917 59.6743 179.556C59.8872 179.185 59.9937 178.778 59.9937 178.333C59.9937 177.889 59.8872 177.486 59.6743 177.125C59.4613 176.755 59.1743 176.458 58.8132 176.236C58.4613 176.014 58.0678 175.903 57.6326 175.903C57.1882 175.903 56.7854 176.014 56.4243 176.236C56.0724 176.458 55.79 176.755 55.577 177.125C55.3641 177.486 55.2576 177.889 55.2576 178.333C55.2576 178.778 55.3641 179.185 55.577 179.556C55.79 179.917 56.0724 180.208 56.4243 180.431C56.7854 180.653 57.1835 180.764 57.6187 180.764ZM63.6647 182.5V174.167H65.8453V182.5H63.6647ZM64.7619 172.889C64.4193 172.889 64.1277 172.773 63.8869 172.542C63.6555 172.301 63.5397 172.009 63.5397 171.667C63.5397 171.315 63.6555 171.023 63.8869 170.792C64.1277 170.56 64.4193 170.444 64.7619 170.444C65.1138 170.444 65.4055 170.56 65.6369 170.792C65.8684 171.023 65.9842 171.315 65.9842 171.667C65.9842 172.009 65.8684 172.301 65.6369 172.542C65.4055 172.773 65.1138 172.889 64.7619 172.889ZM70.492 182.75C69.9642 182.75 69.4225 182.662 68.867 182.486C68.3114 182.301 67.867 182.042 67.5336 181.708L68.0892 179.597C68.3577 179.986 68.7188 180.319 69.1725 180.597C69.6355 180.866 70.1123 181 70.6031 181C70.9735 181 71.242 180.926 71.4086 180.778C71.5846 180.62 71.6725 180.431 71.6725 180.208C71.6725 179.958 71.5846 179.778 71.4086 179.667C71.2327 179.546 71.0568 179.454 70.8809 179.389L69.7281 178.958C69.4873 178.856 69.2049 178.722 68.8809 178.556C68.5568 178.38 68.2744 178.134 68.0336 177.819C67.8022 177.495 67.6864 177.074 67.6864 176.556C67.6864 176.083 67.8022 175.648 68.0336 175.25C68.2651 174.852 68.5985 174.532 69.0336 174.292C69.4781 174.042 70.0105 173.917 70.6309 173.917C71.1864 173.917 71.7142 174.014 72.2142 174.208C72.7235 174.394 73.1077 174.625 73.367 174.903L72.8531 176.958C72.5568 176.551 72.2003 176.236 71.7836 176.014C71.367 175.782 70.9642 175.667 70.5753 175.667C70.2512 175.667 70.0105 175.741 69.8531 175.889C69.6957 176.028 69.617 176.194 69.617 176.389C69.617 176.537 69.6725 176.676 69.7836 176.806C69.8947 176.935 70.0753 177.046 70.3253 177.139L71.4086 177.556C71.6957 177.657 72.0105 177.801 72.3531 177.986C72.6957 178.162 72.9873 178.412 73.2281 178.736C73.4781 179.06 73.6031 179.505 73.6031 180.069C73.6031 180.866 73.3114 181.514 72.7281 182.014C72.154 182.505 71.4086 182.75 70.492 182.75ZM74.541 182.5L78.0549 176H74.8049V174.167H81.1521L77.6382 180.667H80.916V182.5H74.541ZM86.37 174.472C86.37 173.62 86.4765 172.819 86.6895 172.069C86.9024 171.319 87.2172 170.63 87.6339 170H89.87C89.4626 170.546 89.1293 171.19 88.87 171.931C88.6107 172.671 88.4811 173.519 88.4811 174.472H86.37ZM90.4256 174.472C90.4256 173.62 90.532 172.819 90.745 172.069C90.958 171.319 91.2728 170.63 91.6895 170H93.9256C93.5182 170.546 93.1848 171.19 92.9256 171.931C92.6663 172.671 92.5367 173.519 92.5367 174.472H90.4256ZM94.1895 182.5L97.7033 176H94.4533V174.167H100.801L97.2867 180.667H100.564V182.5H94.1895ZM105.502 186.917C104.853 186.917 104.242 186.819 103.668 186.625C103.103 186.44 102.608 186.185 102.182 185.861L102.724 183.653C103.02 184.051 103.404 184.375 103.877 184.625C104.358 184.884 104.9 185.014 105.502 185.014C106.372 185.014 107.057 184.759 107.557 184.25C108.057 183.75 108.307 183.102 108.307 182.306V181.611C107.974 181.944 107.58 182.208 107.127 182.403C106.673 182.597 106.173 182.694 105.627 182.694C104.867 182.694 104.173 182.5 103.543 182.111C102.914 181.713 102.409 181.185 102.029 180.528C101.659 179.861 101.474 179.13 101.474 178.333C101.474 177.537 101.659 176.81 102.029 176.153C102.409 175.486 102.914 174.958 103.543 174.569C104.173 174.171 104.867 173.972 105.627 173.972C106.173 173.972 106.677 174.069 107.14 174.264C107.603 174.458 107.997 174.731 108.321 175.083V174.167H110.224V182.583C110.224 183.491 110.006 184.269 109.571 184.917C109.136 185.565 108.557 186.06 107.835 186.403C107.113 186.745 106.335 186.917 105.502 186.917ZM105.89 180.764C106.335 180.764 106.733 180.653 107.085 180.431C107.446 180.208 107.733 179.917 107.946 179.556C108.159 179.185 108.265 178.778 108.265 178.333C108.265 177.889 108.159 177.486 107.946 177.125C107.733 176.755 107.446 176.458 107.085 176.236C106.733 176.014 106.339 175.903 105.904 175.903C105.46 175.903 105.057 176.014 104.696 176.236C104.344 176.458 104.062 176.755 103.849 177.125C103.636 177.486 103.529 177.889 103.529 178.333C103.529 178.778 103.636 179.185 103.849 179.556C104.062 179.917 104.344 180.208 104.696 180.431C105.057 180.653 105.455 180.764 105.89 180.764ZM115.978 182.694C115.219 182.694 114.524 182.5 113.895 182.111C113.265 181.713 112.76 181.185 112.381 180.528C112.01 179.861 111.825 179.13 111.825 178.333C111.825 177.537 112.01 176.81 112.381 176.153C112.76 175.486 113.265 174.958 113.895 174.569C114.524 174.171 115.219 173.972 115.978 173.972C116.524 173.972 117.029 174.069 117.492 174.264C117.955 174.458 118.348 174.731 118.673 175.083V174.167H120.575V182.5H118.673V181.583C118.348 181.926 117.955 182.199 117.492 182.403C117.029 182.597 116.524 182.694 115.978 182.694ZM116.242 180.764C116.686 180.764 117.085 180.653 117.436 180.431C117.798 180.208 118.085 179.917 118.298 179.556C118.51 179.185 118.617 178.778 118.617 178.333C118.617 177.889 118.51 177.486 118.298 177.125C118.085 176.755 117.798 176.458 117.436 176.236C117.085 176.014 116.691 175.903 116.256 175.903C115.811 175.903 115.409 176.014 115.048 176.236C114.696 176.458 114.413 176.755 114.2 177.125C113.987 177.486 113.881 177.889 113.881 178.333C113.881 178.778 113.987 179.185 114.2 179.556C114.413 179.917 114.696 180.208 115.048 180.431C115.409 180.653 115.807 180.764 116.242 180.764ZM126.344 182.694C125.575 182.694 124.876 182.5 124.246 182.111C123.617 181.713 123.112 181.185 122.732 180.528C122.362 179.861 122.177 179.13 122.177 178.333C122.177 177.537 122.362 176.81 122.732 176.153C123.112 175.486 123.617 174.958 124.246 174.569C124.876 174.171 125.575 173.972 126.344 173.972C126.816 173.972 127.251 174.046 127.649 174.194C128.056 174.343 128.422 174.546 128.746 174.806V169.167H130.927V182.5H129.024V181.611C128.7 181.944 128.306 182.208 127.844 182.403C127.381 182.597 126.881 182.694 126.344 182.694ZM126.594 180.764C127.038 180.764 127.436 180.653 127.788 180.431C128.149 180.208 128.436 179.917 128.649 179.556C128.862 179.185 128.969 178.778 128.969 178.333C128.969 177.889 128.862 177.486 128.649 177.125C128.436 176.755 128.149 176.458 127.788 176.236C127.436 176.014 127.043 175.903 126.607 175.903C126.163 175.903 125.76 176.014 125.399 176.236C125.047 176.458 124.765 176.755 124.552 177.125C124.339 177.486 124.232 177.889 124.232 178.333C124.232 178.778 124.339 179.185 124.552 179.556C124.765 179.917 125.047 180.208 125.399 180.431C125.76 180.653 126.158 180.764 126.594 180.764ZM132.334 182.5L135.848 176H132.598V174.167H138.945L135.431 180.667H138.709V182.5H132.334ZM143.771 182.694C143.012 182.694 142.317 182.5 141.688 182.111C141.058 181.713 140.553 181.185 140.174 180.528C139.803 179.861 139.618 179.13 139.618 178.333C139.618 177.537 139.803 176.81 140.174 176.153C140.553 175.486 141.058 174.958 141.688 174.569C142.317 174.171 143.012 173.972 143.771 173.972C144.317 173.972 144.822 174.069 145.285 174.264C145.748 174.458 146.141 174.731 146.465 175.083V174.167H148.368V182.5H146.465V181.583C146.141 181.926 145.748 182.199 145.285 182.403C144.822 182.597 144.317 182.694 143.771 182.694ZM144.035 180.764C144.479 180.764 144.878 180.653 145.229 180.431C145.59 180.208 145.878 179.917 146.09 179.556C146.303 179.185 146.41 178.778 146.41 178.333C146.41 177.889 146.303 177.486 146.09 177.125C145.878 176.755 145.59 176.458 145.229 176.236C144.878 176.014 144.484 175.903 144.049 175.903C143.604 175.903 143.202 176.014 142.84 176.236C142.489 176.458 142.206 176.755 141.993 177.125C141.78 177.486 141.674 177.889 141.674 178.333C141.674 178.778 141.78 179.185 141.993 179.556C142.206 179.917 142.489 180.208 142.84 180.431C143.202 180.653 143.6 180.764 144.035 180.764ZM150.428 182.5V174.167H152.387V175.153C152.692 174.745 153.067 174.44 153.512 174.236C153.956 174.023 154.424 173.917 154.914 173.917C155.424 173.917 155.9 174.028 156.345 174.25C156.789 174.463 157.16 174.778 157.456 175.194C157.78 174.778 158.187 174.463 158.678 174.25C159.169 174.028 159.697 173.917 160.262 173.917C160.863 173.917 161.424 174.056 161.942 174.333C162.461 174.611 162.882 175.014 163.206 175.542C163.53 176.069 163.692 176.704 163.692 177.444V182.5H161.498V177.75C161.498 177.222 161.345 176.782 161.039 176.431C160.743 176.079 160.34 175.903 159.831 175.903C159.544 175.903 159.271 175.968 159.012 176.097C158.752 176.227 158.544 176.426 158.387 176.694C158.229 176.963 158.15 177.306 158.15 177.722V182.5H155.956V177.75C155.956 177.398 155.887 177.083 155.748 176.806C155.609 176.519 155.414 176.296 155.164 176.139C154.914 175.972 154.623 175.889 154.289 175.889C154.012 175.889 153.743 175.958 153.484 176.097C153.224 176.227 153.012 176.426 152.845 176.694C152.687 176.963 152.609 177.306 152.609 177.722V182.5H150.428ZM172.308 182.75C171.781 182.75 171.239 182.662 170.683 182.486C170.128 182.301 169.683 182.042 169.35 181.708L169.906 179.597C170.174 179.986 170.535 180.319 170.989 180.597C171.452 180.866 171.929 181 172.419 181C172.79 181 173.058 180.926 173.225 180.778C173.401 180.62 173.489 180.431 173.489 180.208C173.489 179.958 173.401 179.778 173.225 179.667C173.049 179.546 172.873 179.454 172.697 179.389L171.544 178.958C171.304 178.856 171.021 178.722 170.697 178.556C170.373 178.38 170.091 178.134 169.85 177.819C169.619 177.495 169.503 177.074 169.503 176.556C169.503 176.083 169.619 175.648 169.85 175.25C170.082 174.852 170.415 174.532 170.85 174.292C171.294 174.042 171.827 173.917 172.447 173.917C173.003 173.917 173.531 174.014 174.031 174.208C174.54 174.394 174.924 174.625 175.183 174.903L174.669 176.958C174.373 176.551 174.017 176.236 173.6 176.014C173.183 175.782 172.781 175.667 172.392 175.667C172.068 175.667 171.827 175.741 171.669 175.889C171.512 176.028 171.433 176.194 171.433 176.389C171.433 176.537 171.489 176.676 171.6 176.806C171.711 176.935 171.892 177.046 172.142 177.139L173.225 177.556C173.512 177.657 173.827 177.801 174.169 177.986C174.512 178.162 174.804 178.412 175.044 178.736C175.294 179.06 175.419 179.505 175.419 180.069C175.419 180.866 175.128 181.514 174.544 182.014C173.97 182.505 173.225 182.75 172.308 182.75ZM177.024 182.5V174.167H179.205V182.5H177.024ZM178.121 172.889C177.779 172.889 177.487 172.773 177.246 172.542C177.015 172.301 176.899 172.009 176.899 171.667C176.899 171.315 177.015 171.023 177.246 170.792C177.487 170.56 177.779 170.444 178.121 170.444C178.473 170.444 178.765 170.56 178.996 170.792C179.228 171.023 179.344 171.315 179.344 171.667C179.344 172.009 179.228 172.301 178.996 172.542C178.765 172.773 178.473 172.889 178.121 172.889ZM187.865 186.889C187.115 186.889 186.481 186.704 185.962 186.333C185.453 185.963 185.199 185.394 185.199 184.625C185.199 184.338 185.259 184.032 185.379 183.708C185.499 183.394 185.699 183.065 185.976 182.722C185.893 182.731 185.81 182.736 185.726 182.736C185.652 182.745 185.574 182.75 185.49 182.75C184.574 182.75 183.759 182.556 183.046 182.167C182.342 181.778 181.791 181.245 181.393 180.569C181.004 179.884 180.81 179.111 180.81 178.25C180.81 177.426 180.999 176.69 181.379 176.042C181.768 175.384 182.291 174.866 182.949 174.486C183.606 174.106 184.333 173.917 185.129 173.917C185.944 173.917 186.671 174.106 187.31 174.486C187.958 174.856 188.472 175.361 188.851 176C189.231 176.639 189.421 177.366 189.421 178.181V178.972H184.24C184.009 178.972 183.782 178.958 183.56 178.931C183.337 178.903 183.115 178.87 182.893 178.833C183.004 179.435 183.296 179.931 183.768 180.319C184.24 180.708 184.833 180.903 185.546 180.903C186.074 180.903 186.55 180.801 186.976 180.597C187.412 180.384 187.768 180.125 188.046 179.819L188.532 181.778C187.995 182.38 187.624 182.852 187.421 183.194C187.217 183.537 187.115 183.866 187.115 184.181C187.115 184.542 187.222 184.806 187.435 184.972C187.657 185.148 187.93 185.236 188.254 185.236L187.865 186.889ZM182.837 177.486C183.31 177.394 183.777 177.347 184.24 177.347H186.032C186.282 177.347 186.518 177.356 186.74 177.375C186.962 177.394 187.175 177.421 187.379 177.458C187.24 176.921 186.967 176.491 186.56 176.167C186.162 175.843 185.68 175.681 185.115 175.681C184.56 175.681 184.078 175.847 183.671 176.181C183.263 176.514 182.986 176.949 182.837 177.486ZM188.528 174.472C188.926 173.917 189.254 173.273 189.514 172.542C189.773 171.801 189.903 170.954 189.903 170H192.028C192.028 170.852 191.921 171.653 191.708 172.403C191.495 173.153 191.18 173.843 190.764 174.472H188.528ZM192.583 174.472C192.981 173.917 193.31 173.273 193.569 172.542C193.828 171.801 193.958 170.954 193.958 170H196.083C196.083 170.852 195.977 171.653 195.764 172.403C195.551 173.153 195.236 173.843 194.819 174.472H192.583Z" fill="#B5B5B5"/>
<mask id="path-7-inside-1_4513_1328" fill="white">
<path d="M16 225C16 220.582 19.5817 217 24 217H205C209.418 217 213 220.582 213 225V249C213 253.418 209.418 257 205 257H24C19.5817 257 16 253.418 16 249V225Z"/>
</mask>
<path d="M16 225C16 220.582 19.5817 217 24 217H205C209.418 217 213 220.582 213 225V249C213 253.418 209.418 257 205 257H24C19.5817 257 16 253.418 16 249V225Z" fill="#2C2C2C"/>
<path d="M24 217V218H205V217V216H24V217ZM213 225H212V249H213H214V225H213ZM205 257V256H24V257V258H205V257ZM16 249H17V225H16H15V249H16ZM24 257V256C20.134 256 17 252.866 17 249H16H15C15 253.971 19.0294 258 24 258V257ZM213 249H212C212 252.866 208.866 256 205 256V257V258C209.971 258 214 253.971 214 249H213ZM205 217V218C208.866 218 212 221.134 212 225H213H214C214 220.029 209.971 216 205 216V217ZM24 217V216C19.0294 216 15 220.029 15 225H16H17C17 221.134 20.134 218 24 218V217Z" fill="#2C2C2C" mask="url(#path-7-inside-1_4513_1328)"/>
<path d="M80.8864 243H79.4091L83.6818 231.364H85.1364L89.4091 243H87.9318L84.4545 233.205H84.3636L80.8864 243ZM81.4318 238.455H87.3864V239.705H81.4318V238.455ZM92.3807 237.75V243H91.0398V234.273H92.3352V235.636H92.4489C92.6534 235.193 92.964 234.837 93.3807 234.568C93.7973 234.295 94.3352 234.159 94.9943 234.159C95.5852 234.159 96.1023 234.28 96.5455 234.523C96.9886 234.761 97.3333 235.125 97.5795 235.614C97.8258 236.098 97.9489 236.712 97.9489 237.455V243H96.608V237.545C96.608 236.86 96.4299 236.326 96.0739 235.943C95.7178 235.557 95.2292 235.364 94.608 235.364C94.1799 235.364 93.7973 235.456 93.4602 235.642C93.1269 235.828 92.8636 236.098 92.6705 236.455C92.4773 236.811 92.3807 237.242 92.3807 237.75ZM105.899 239.432V234.273H107.24V243H105.899V241.523H105.808C105.604 241.966 105.286 242.343 104.854 242.653C104.422 242.96 103.876 243.114 103.217 243.114C102.672 243.114 102.187 242.994 101.763 242.756C101.339 242.513 101.005 242.15 100.763 241.665C100.52 241.176 100.399 240.561 100.399 239.818V234.273H101.74V239.727C101.74 240.364 101.918 240.871 102.274 241.25C102.634 241.629 103.092 241.818 103.649 241.818C103.982 241.818 104.321 241.733 104.666 241.562C105.015 241.392 105.306 241.131 105.541 240.778C105.78 240.426 105.899 239.977 105.899 239.432ZM111.037 231.364V243H109.696V231.364H111.037ZM118.993 239.432V234.273H120.334V243H118.993V241.523H118.902C118.697 241.966 118.379 242.343 117.947 242.653C117.516 242.96 116.97 243.114 116.311 243.114C115.766 243.114 115.281 242.994 114.857 242.756C114.432 242.513 114.099 242.15 113.857 241.665C113.614 241.176 113.493 240.561 113.493 239.818V234.273H114.834V239.727C114.834 240.364 115.012 240.871 115.368 241.25C115.728 241.629 116.186 241.818 116.743 241.818C117.076 241.818 117.415 241.733 117.76 241.562C118.108 241.392 118.4 241.131 118.635 240.778C118.874 240.426 118.993 239.977 118.993 239.432ZM122.79 234.273H124.131V243.636C124.131 244.174 124.038 244.64 123.852 245.034C123.67 245.428 123.394 245.733 123.023 245.949C122.655 246.165 122.191 246.273 121.631 246.273C121.585 246.273 121.54 246.273 121.494 246.273C121.449 246.273 121.403 246.273 121.358 246.273V245.023C121.403 245.023 121.445 245.023 121.483 245.023C121.521 245.023 121.562 245.023 121.608 245.023C122.017 245.023 122.316 244.902 122.506 244.659C122.695 244.42 122.79 244.08 122.79 243.636V234.273ZM123.449 232.818C123.188 232.818 122.962 232.729 122.773 232.551C122.587 232.373 122.494 232.159 122.494 231.909C122.494 231.659 122.587 231.445 122.773 231.267C122.962 231.089 123.188 231 123.449 231C123.71 231 123.934 231.089 124.119 231.267C124.309 231.445 124.403 231.659 124.403 231.909C124.403 232.159 124.309 232.373 124.119 232.551C123.934 232.729 123.71 232.818 123.449 232.818Z" fill="#F5F5F5"/>
<path d="M146 233L138 241M138 233L146 241" stroke="#F5F5F5" stroke-width="1.6" stroke-linecap="round" stroke-linejoin="round"/>
<path d="M229 225C229 220.582 232.582 217 237 217H418C422.418 217 426 220.582 426 225V249C426 253.418 422.418 257 418 257H237C232.582 257 229 253.418 229 249V225Z" fill="#D6484A"/>
<path d="M305.045 231.364H306.455V239.068C306.455 239.864 306.267 240.574 305.892 241.199C305.521 241.82 304.996 242.311 304.318 242.67C303.64 243.027 302.845 243.205 301.932 243.205C301.019 243.205 300.223 243.027 299.545 242.67C298.867 242.311 298.341 241.82 297.966 241.199C297.595 240.574 297.409 239.864 297.409 239.068V231.364H298.818V238.955C298.818 239.523 298.943 240.028 299.193 240.472C299.443 240.911 299.799 241.258 300.261 241.511C300.727 241.761 301.284 241.886 301.932 241.886C302.58 241.886 303.136 241.761 303.602 241.511C304.068 241.258 304.424 240.911 304.67 240.472C304.92 240.028 305.045 239.523 305.045 238.955V231.364ZM315.268 236.227L314.064 236.568C313.988 236.367 313.876 236.172 313.729 235.983C313.585 235.79 313.388 235.631 313.138 235.506C312.888 235.381 312.568 235.318 312.178 235.318C311.643 235.318 311.198 235.441 310.842 235.688C310.49 235.93 310.314 236.239 310.314 236.614C310.314 236.947 310.435 237.21 310.678 237.403C310.92 237.597 311.299 237.758 311.814 237.886L313.109 238.205C313.89 238.394 314.471 238.684 314.854 239.074C315.236 239.46 315.428 239.958 315.428 240.568C315.428 241.068 315.284 241.515 314.996 241.909C314.712 242.303 314.314 242.614 313.803 242.841C313.291 243.068 312.696 243.182 312.018 243.182C311.128 243.182 310.392 242.989 309.808 242.602C309.225 242.216 308.856 241.652 308.7 240.909L309.973 240.591C310.094 241.061 310.323 241.413 310.661 241.648C311.001 241.883 311.446 242 311.996 242C312.621 242 313.117 241.867 313.484 241.602C313.856 241.333 314.041 241.011 314.041 240.636C314.041 240.333 313.935 240.08 313.723 239.875C313.511 239.667 313.185 239.511 312.746 239.409L311.291 239.068C310.492 238.879 309.905 238.585 309.53 238.188C309.159 237.786 308.973 237.284 308.973 236.682C308.973 236.189 309.111 235.754 309.388 235.375C309.668 234.996 310.049 234.699 310.53 234.483C311.015 234.267 311.564 234.159 312.178 234.159C313.041 234.159 313.719 234.348 314.212 234.727C314.708 235.106 315.06 235.606 315.268 236.227ZM322.946 239.432V234.273H324.287V243H322.946V241.523H322.855C322.651 241.966 322.332 242.343 321.901 242.653C321.469 242.96 320.923 243.114 320.264 243.114C319.719 243.114 319.234 242.994 318.81 242.756C318.385 242.513 318.052 242.15 317.81 241.665C317.567 241.176 317.446 240.561 317.446 239.818V234.273H318.787V239.727C318.787 240.364 318.965 240.871 319.321 241.25C319.681 241.629 320.139 241.818 320.696 241.818C321.029 241.818 321.368 241.733 321.713 241.562C322.062 241.392 322.353 241.131 322.588 240.778C322.827 240.426 322.946 239.977 322.946 239.432ZM328.084 237.75V243H326.743V234.273H328.038V235.636H328.152C328.357 235.193 328.667 234.837 329.084 234.568C329.5 234.295 330.038 234.159 330.697 234.159C331.288 234.159 331.805 234.28 332.249 234.523C332.692 234.761 333.036 235.125 333.283 235.614C333.529 236.098 333.652 236.712 333.652 237.455V243H332.311V237.545C332.311 236.86 332.133 236.326 331.777 235.943C331.421 235.557 330.932 235.364 330.311 235.364C329.883 235.364 329.5 235.456 329.163 235.642C328.83 235.828 328.567 236.098 328.374 236.455C328.18 236.811 328.084 237.242 328.084 237.75ZM329.584 233.091L330.97 230.455H332.538L330.766 233.091H329.584Z" fill="#FEE9E7"/>
<path d="M345 233H346.333M346.333 233H357M346.333 233V242.333C346.333 242.687 346.474 243.026 346.724 243.276C346.974 243.526 347.313 243.667 347.667 243.667H354.333C354.687 243.667 355.026 243.526 355.276 243.276C355.526 243.026 355.667 242.687 355.667 242.333V233M348.333 233V231.667C348.333 231.313 348.474 230.974 348.724 230.724C348.974 230.474 349.313 230.333 349.667 230.333H352.333C352.687 230.333 353.026 230.474 353.276 230.724C353.526 230.974 353.667 231.313 353.667 231.667V233" stroke="#FEE9E7" stroke-width="1.6" stroke-linecap="round" stroke-linejoin="round"/>
<rect x="154" y="285" width="134" height="4" rx="2" fill="white"/>
</svg>
