<svg width="44" height="44" viewBox="0 0 44 44" fill="none" xmlns="http://www.w3.org/2000/svg">
<g clip-path="url(#clip0_4309_972)">
<rect width="44" height="44" rx="12" fill="#FDDFBD"/>
<rect width="44" height="44" fill="#FDDFBD"/>
<path d="M44.0001 5.84374C36.4375 19.25 52.2501 38.8137 22.3438 39.1875C-7.56247 39.5613 7.21878 18.5625 7.20003e-05 5.84374C-7.35508 -7.11543 5.72205e-05 44 5.72205e-05 44L44.0001 44C44.0001 44 51.3213 -7.13464 44.0001 5.84374Z" fill="#D9D9D9"/>
<path d="M44 5.8437C36.4375 19.25 52.2501 38.8136 22.3438 39.1875C-7.56255 39.5613 7.2187 18.5625 -2.32977e-06 5.8437" stroke="black" stroke-width="0.6875"/>
<path d="M25.0563 36.2555C20.3884 37.5171 17.6517 33.0461 18.5586 33.3558C21.6649 34.742 23.5193 33.099 24.1899 32.4481C24.869 31.991 26.4992 31.7873 27.0608 33.2542C27.6225 34.7211 25.9585 35.8662 25.0563 36.2555Z" fill="white" stroke="black" stroke-width="0.740426"/>
<path d="M0 14.0938C0 14.0938 13.0751 9.96875 22 9.96875C30.9249 9.96875 44 14.0938 44 14.0938V0H0V14.0938Z" fill="#C7253A"/>
<path d="M0 14.0938C0 14.0938 13.0751 9.96875 22 9.96875C30.9249 9.96875 44 14.0938 44 14.0938" stroke="black" stroke-width="0.6875"/>
<path d="M22 30.6348C23.2764 29.3584 24.2408 27.1461 24.2975 26.125C27.304 27.9403 34.3722 31.1113 37.5716 28.933C41.5708 26.2101 31.9556 38.8035 22 30.6348Z" fill="#D9D9D9" stroke="black" stroke-width="0.726074" stroke-linecap="round"/>
<path d="M22 30.6348C20.7236 29.3584 19.7592 27.1461 19.7025 26.125C16.696 27.9403 9.62783 31.1113 6.42844 28.933C2.4292 26.2101 12.0444 38.8035 22 30.6348Z" fill="#D9D9D9" stroke="black" stroke-width="0.726074" stroke-linecap="round"/>
<path d="M22 19.5938C22.5544 19.5938 23.1103 19.8496 23.6475 20.3174C24.1842 20.7848 24.6796 21.4453 25.1025 22.2021C25.952 23.7221 26.4688 25.5554 26.4688 26.8125C26.4688 29.2805 24.468 31.2812 22 31.2812C19.532 31.2812 17.5312 29.2805 17.5312 26.8125C17.5312 25.5554 18.048 23.7221 18.8975 22.2021C19.3204 21.4453 19.8158 20.7848 20.3525 20.3174C20.8897 19.8496 21.4456 19.5938 22 19.5938Z" fill="#EA8283" stroke="black" stroke-width="0.6875"/>
<path d="M12.7188 13.4795C15.7156 13.4795 18.1455 15.9094 18.1455 18.9062C18.1455 21.9031 15.7156 24.333 12.7188 24.333C9.72187 24.333 7.29199 21.9031 7.29199 18.9062C7.29199 15.9094 9.72187 13.4795 12.7188 13.4795Z" fill="white" stroke="black" stroke-width="0.834822"/>
<circle cx="14.3884" cy="20.5759" r="1.66964" fill="black"/>
<path d="M12.7188 13.4795C15.2514 13.4795 17.3783 15.2152 17.9766 17.5615C17.8243 17.4172 17.6542 17.2658 17.4619 17.1162C16.4602 16.3371 14.9114 15.5674 12.7188 15.5674C10.5261 15.5674 8.97725 16.3371 7.97559 17.1162C7.7831 17.2659 7.61235 17.417 7.45996 17.5615C8.05818 15.215 10.186 13.4795 12.7188 13.4795Z" fill="#FDDFBD" stroke="black" stroke-width="0.834822"/>
<circle cx="31.085" cy="18.9062" r="5.42634" fill="white" stroke="black" stroke-width="0.834822"/>
<circle cx="29.4148" cy="20.5759" r="1.66964" fill="black"/>
<path d="M31.085 13.4795C33.6176 13.4795 35.7445 15.2152 36.3428 17.5615C36.1905 17.4172 36.0204 17.2658 35.8281 17.1162C34.8265 16.3371 33.2776 15.5674 31.085 15.5674C28.8923 15.5674 27.3435 16.3371 26.3418 17.1162C26.1493 17.2659 25.9786 17.417 25.8262 17.5615C26.4244 15.215 28.5522 13.4795 31.085 13.4795Z" fill="#FDDFBD" stroke="black" stroke-width="0.834822"/>
<path d="M7.90521 11.4049C8.25028 12.6198 14.7679 13.0778 15.1129 10.8737C15.5537 8.05683 7.10614 9.55607 7.90521 11.4049Z" fill="#DDD3D2" stroke="black" stroke-width="0.752629" stroke-linecap="round"/>
<path d="M35.8379 11.4049C35.4929 12.6198 28.9752 13.0778 28.6303 10.8737C28.1894 8.05683 36.637 9.55607 35.8379 11.4049Z" fill="#DDD3D2" stroke="black" stroke-width="0.752629" stroke-linecap="round"/>
</g>
<defs>
<clipPath id="clip0_4309_972">
<rect width="44" height="44" rx="12" fill="white"/>
</clipPath>
</defs>
</svg>
