<svg width="100" height="120" viewBox="0 0 100 120" fill="none" xmlns="http://www.w3.org/2000/svg">
<rect width="100" height="120" fill="#2A2D2A"/>
<path d="M46.5771 91.8277C47.4192 92.6682 47.1899 94.4794 39.5354 95.0006C36.8088 95.2702 31.9153 94.4489 34.1543 89.0064C34.1543 88.9627 35.2308 89.6639 36.5175 89.699C36.5282 89.1559 36.9569 88.1108 38.5865 88.2748L39.2535 88.8865C39.5566 88.1752 40.0772 86.6508 40.146 85.3857C37.2565 83.3503 35.7972 80.482 35.3627 78.8193C34.9209 79.5511 35.1786 82.3765 35.3627 83.6978C29.3675 81.411 30.2352 75.5416 30.2352 75.5416C29.9742 76.2225 29.2371 78.1633 29.0519 78.8193C27.8687 76.9899 27.3323 77.4015 26.7643 73.8647C26.3839 71.4962 28.1091 69.1714 29.8779 67.5233L26.2792 65.4301C24.4549 64.3531 19.9387 62.2065 21.5826 60.8203C21.6861 60.6415 22.1954 60.5406 23.4039 61.567C23.6424 61.7696 21.6837 59.798 22.4342 59.0597C22.6504 58.8471 23.3634 58.7209 24.5704 59.7436C24.0409 59.1725 23.1409 57.9714 23.8388 57.3707C24.8406 56.5084 26.5812 58.2112 27.3263 59.1704C27.327 59.2466 27.929 57.412 28.4935 57.4071C28.7301 57.4051 29.3584 57.0948 30.425 61.5832L33.8965 63.5911C34.4008 63.547 34.8883 63.4576 35.3548 63.3381C36.1293 62.548 36.9437 61.6681 37.4926 61.0587C37.6318 60.8974 37.7756 60.7122 37.922 60.5068C37.514 59.7959 37.2816 58.9777 37.2816 58.1071C37.2816 55.8379 38.8603 53.925 41.0143 53.3379C41.0749 53.0336 41.1199 52.7416 41.147 52.4664C41.2181 52.0788 41.2972 51.6738 41.3845 51.2537C40.2598 51.6043 39.3326 51.4484 39.3326 50.2464C39.3326 49.0818 40.8017 47.9579 42.3005 47.4463C44.8396 38.1074 50.3829 25.4333 59.1327 24.7202C61.7885 24.4916 67.5418 26.6411 69.3088 37.0688L62.6036 33.8673L63.1558 55.2105L63.3667 58.2384C63.3667 58.6089 61.8995 59.365 62.0651 60.0124L62.0835 60.0678C62.2511 60.566 62.5392 61.0237 62.9075 61.4601C61.9346 57.7937 64.3477 57.9321 65.6825 58.4632C66.5976 58.8674 67.5811 60.4425 64.7376 63.1584C65.2033 63.5356 65.6902 63.9167 66.1678 64.3161L69.575 62.3454C70.6416 57.857 71.2699 58.1673 71.5065 58.1693C72.071 58.1742 72.673 60.0088 72.6737 59.9326C73.4188 58.9734 75.1594 57.2706 76.1612 58.1329C76.8591 58.7336 75.9591 59.9347 75.4296 60.5058C76.6366 59.4831 77.3496 59.6093 77.5657 59.822C78.3163 60.5602 76.3576 62.5318 76.5961 62.3292C77.8046 61.3028 78.3138 61.4038 78.4174 61.5825C80.0613 62.9687 75.5451 65.1153 73.7208 66.1923L69.3843 68.7857C69.4052 68.8767 69.4241 68.9689 69.4409 69.0624C70.0357 72.3816 69.2831 76.5834 67.7054 77.5235C67.8947 75.3892 66.9428 73.4327 66.4432 72.7213C66.4432 73.1114 67.0331 76.8776 65.6544 79.5054C64.339 82.0125 61.0861 83.3876 59.738 83.6978C60.1167 83.2709 59.9747 79.2005 59.738 78.2858C59.738 78.2858 59.373 79.5488 58.5092 81.1091C58.5118 81.156 58.5092 81.2074 58.5013 81.2637C58.312 82.6053 59.9962 88.2729 60.3644 89.1368L61.0314 88.5251C62.661 88.3611 63.0897 89.4062 63.1004 89.9493C64.3871 89.9142 65.4636 89.213 65.4636 89.2567C67.7026 94.6992 62.8091 95.5205 60.0825 95.2509C52.428 94.7297 52.1987 92.9184 53.0408 92.0779C53.1772 90.711 52.3003 88.5313 51.8448 87.6123L51.9574 86.9053C50.6128 87.4103 49.1397 87.7032 47.6078 87.7118C47.1354 88.7549 46.4558 90.6125 46.5771 91.8277Z" fill="#434642"/>
<path d="M46.5771 91.8277L46.3255 91.8528L46.3345 91.9427L46.3985 92.0066L46.5771 91.8277ZM39.5354 95.0006L39.5182 94.7483L39.5105 94.749L39.5354 95.0006ZM34.1543 89.0064L34.388 89.1026L34.407 89.0564V89.0064H34.1543ZM36.5175 89.699L36.5106 89.9517L36.7652 89.9586L36.7702 89.704L36.5175 89.699ZM38.5865 88.2748L38.7573 88.0885L38.6954 88.0318L38.6118 88.0233L38.5865 88.2748ZM39.2535 88.8865L39.0827 89.0728L39.346 89.3142L39.4861 88.9856L39.2535 88.8865ZM53.0408 92.0779L53.2194 92.2568L53.2834 92.193L53.2923 92.103L53.0408 92.0779ZM60.0825 95.2509L60.1074 94.9992L60.0997 94.9987L60.0825 95.2509ZM65.4636 89.2567H65.2109V89.3067L65.2299 89.3529L65.4636 89.2567ZM63.1004 89.9493L62.8477 89.9542L62.8527 90.2089L63.1073 90.2019L63.1004 89.9493ZM61.0314 88.5251L61.0061 88.2736L60.9225 88.2821L60.8606 88.3388L61.0314 88.5251ZM60.3644 89.1368L60.1318 89.2359L60.2719 89.5645L60.5352 89.3231L60.3644 89.1368ZM58.5013 81.2637L58.251 81.2284L58.5013 81.2637ZM51.8448 87.6123L51.5952 87.5725L51.5825 87.6522L51.6184 87.7245L51.8448 87.6123ZM26.2792 65.4301L26.1507 65.6477L26.1521 65.6486L26.2792 65.4301ZM21.5826 60.8203L21.7455 61.0135L21.7792 60.9851L21.8013 60.947L21.5826 60.8203ZM23.4039 61.567L23.5675 61.3743L23.5675 61.3743L23.4039 61.567ZM22.4342 59.0597L22.257 58.8795L22.4342 59.0597ZM24.8886 60.0297L25.0869 59.873L25.0757 59.8588L25.0627 59.8464L24.8886 60.0297ZM23.8388 57.3707L24.0036 57.5623L23.8388 57.3707ZM27.3263 59.1704L27.579 59.1681L27.5783 59.0827L27.5259 59.0153L27.3263 59.1704ZM28.4935 57.4071L28.4913 57.1544H28.4913L28.4935 57.4071ZM30.425 61.5832L30.1791 61.6416L30.2043 61.7475L30.2985 61.802L30.425 61.5832ZM73.7208 66.1923L73.5923 65.9746L73.5911 65.9754L73.7208 66.1923ZM78.4174 61.5825L78.1987 61.7092L78.2208 61.7473L78.2544 61.7757L78.4174 61.5825ZM76.5961 62.3292L76.4325 62.1366V62.1366L76.5961 62.3292ZM77.5657 59.822L77.3885 60.0022L77.5657 59.822ZM75.1113 60.792L74.9373 60.6086L74.9242 60.6211L74.9131 60.6352L75.1113 60.792ZM76.1612 58.1329L76.3261 57.9413L76.1612 58.1329ZM72.6737 59.9326L72.4741 59.7775L72.4217 59.8449L72.4209 59.9303L72.6737 59.9326ZM71.5065 58.1693L71.5087 57.9166L71.5065 58.1693ZM69.575 62.3454L69.7015 62.5642L69.7957 62.5097L69.8209 62.4039L69.575 62.3454ZM26.7643 73.8647L26.5147 73.9047L26.7643 73.8647ZM29.0519 78.8193L28.8397 78.9566L29.1433 79.4261L29.2952 78.888L29.0519 78.8193ZM30.2352 75.5416L30.4852 75.5786L29.9992 75.4512L30.2352 75.5416ZM35.3627 83.6978L35.2726 83.934L35.672 84.0863L35.613 83.6629L35.3627 83.6978ZM35.3627 78.8193L35.6073 78.7554L35.4558 78.176L35.1463 78.6887L35.3627 78.8193ZM59.738 78.2858L59.9827 78.2224L59.7515 77.3288L59.4952 78.2156L59.738 78.2858ZM59.738 83.6978L59.549 83.5301L59.0245 84.1213L59.7947 83.9441L59.738 83.6978ZM66.4432 72.7213L66.6501 72.576L66.1905 71.9215V72.7213H66.4432ZM67.7054 77.5235L67.4536 77.5012L67.4099 77.9938L67.8348 77.7406L67.7054 77.5235ZM69.4409 69.0624L69.6897 69.0178L69.4409 69.0624ZM63.1558 55.2105L62.9029 55.2171L62.9037 55.2281L63.1558 55.2105ZM63.3667 58.2384H63.6195V58.2296L63.6189 58.2208L63.3667 58.2384ZM65.6544 79.5054L65.8782 79.6228L65.6544 79.5054ZM62.6036 33.8673L62.7126 33.6391L62.7053 33.6359L62.6036 33.8673ZM59.2343 32.1114C59.1065 32.0552 58.9574 32.1134 58.9013 32.2412C58.8451 32.369 58.9032 32.5181 59.0311 32.5742L59.1327 32.3428L59.2343 32.1114ZM69.3088 37.0688L69.1999 37.2969C69.2851 37.3376 69.3858 37.3274 69.4611 37.2705C69.5364 37.2137 69.5738 37.1196 69.558 37.0266L69.3088 37.0688ZM59.1327 24.7202L59.1532 24.9722L59.1544 24.9721L59.1327 24.7202ZM33.8965 63.5911L33.77 63.8099L33.8391 63.8499L33.9186 63.8429L33.8965 63.5911ZM69.3843 68.7857L69.2545 68.5688L69.0967 68.6632L69.1379 68.8424L69.3843 68.7857ZM66.1678 64.3161L66.0057 64.51L66.1413 64.6234L66.2944 64.5349L66.1678 64.3161ZM47.6078 87.7118L47.6064 87.459L47.4444 87.4599L47.3775 87.6075L47.6078 87.7118ZM51.9574 86.9053L52.207 86.945L52.2753 86.5158L51.8685 86.6686L51.9574 86.9053ZM58.5092 81.1091L58.288 80.9867L58.2528 81.0504L58.2568 81.123L58.5092 81.1091ZM64.7376 63.1584L64.563 62.9756L64.3553 63.174L64.5785 63.3548L64.7376 63.1584ZM65.6825 58.4632L65.7847 58.2318L65.7759 58.2283L65.6825 58.4632ZM62.9075 61.4601L62.7144 61.6231L63.1518 61.3953L62.9075 61.4601ZM39.3326 50.2464H39.5853H39.3326ZM42.3005 47.4463L42.3821 47.6855L42.5092 47.6422L42.5444 47.5126L42.3005 47.4463ZM41.147 52.4664L40.8984 52.4208L40.8965 52.4312L40.8955 52.4416L41.147 52.4664ZM41.3845 51.2537L41.6319 51.3051L41.7193 50.8846L41.3092 51.0124L41.3845 51.2537ZM41.0143 53.3379L41.0808 53.5818L41.2317 53.5407L41.2622 53.3873L41.0143 53.3379ZM37.4926 61.0587L37.6804 61.2279L37.684 61.2238L37.4926 61.0587ZM37.922 60.5068L38.1278 60.6536L38.222 60.5216L38.1413 60.381L37.922 60.5068ZM35.3548 63.3381L35.4176 63.5829L35.4859 63.5654L35.5353 63.515L35.3548 63.3381ZM29.8779 67.5233L30.0503 67.7082L30.2994 67.476L30.005 67.3048L29.8779 67.5233ZM40.146 85.3857L40.3984 85.3994L40.406 85.2597L40.2916 85.1791L40.146 85.3857ZM46.5771 91.8277L46.3985 92.0066C46.5767 92.1844 46.6717 92.387 46.6565 92.5854C46.6417 92.779 46.5163 93.0397 46.0996 93.3254C45.2519 93.9065 43.3428 94.488 39.5182 94.7484L39.5354 95.0006L39.5526 95.2528C43.3825 94.992 45.4153 94.4073 46.3854 93.7424C46.8775 93.405 47.13 93.0227 47.1605 92.624C47.1907 92.2301 46.9985 91.8911 46.7556 91.6487L46.5771 91.8277ZM39.5354 95.0006L39.5105 94.749C38.1687 94.8817 36.3346 94.739 35.1225 93.9349C34.526 93.5393 34.084 92.9869 33.9138 92.2221C33.7422 91.4508 33.8404 90.4337 34.388 89.1026L34.1543 89.0064L33.9205 88.9103C33.3486 90.3004 33.2189 91.4268 33.4203 92.3319C33.6232 93.2433 34.1551 93.8999 34.843 94.3562C36.1995 95.256 38.1755 95.389 39.5603 95.2521L39.5354 95.0006ZM34.1543 89.0064H34.407C34.407 89.0825 34.3707 89.1684 34.2886 89.2196C34.2272 89.2577 34.169 89.2576 34.1519 89.2572C34.1287 89.2567 34.1112 89.2529 34.1041 89.2513C34.0955 89.2493 34.0893 89.2473 34.0865 89.2463C34.0791 89.2439 34.0792 89.2433 34.0953 89.2509C34.1241 89.2644 34.1657 89.2856 34.2301 89.3176C34.3537 89.379 34.5349 89.4669 34.7584 89.5574C35.2034 89.7377 35.8256 89.933 36.5106 89.9517L36.5175 89.699L36.5243 89.4463C35.9227 89.4299 35.3633 89.2571 34.9483 89.0889C34.7419 89.0053 34.5736 88.9238 34.455 88.8649C34.3984 88.8368 34.3459 88.8101 34.3108 88.7936C34.2949 88.7861 34.2707 88.7749 34.2468 88.7669C34.2401 88.7647 34.2059 88.7527 34.1629 88.7518C34.1437 88.7514 34.0839 88.7515 34.0215 88.7903C33.9383 88.8421 33.9015 88.929 33.9015 89.0064H34.1543ZM36.5175 89.699L36.7702 89.704C36.7745 89.4858 36.8653 89.1558 37.1226 88.9015C37.3712 88.6557 37.8061 88.4503 38.5612 88.5263L38.5865 88.2748L38.6118 88.0233C37.7373 87.9353 37.1431 88.1704 36.7672 88.542C36.4 88.9049 36.2711 89.369 36.2647 89.694L36.5175 89.699ZM38.5865 88.2748L38.4157 88.4611L39.0827 89.0728L39.2535 88.8865L39.4244 88.7002L38.7573 88.0885L38.5865 88.2748ZM53.0408 92.0779L52.8623 91.899C52.6194 92.1414 52.4272 92.4804 52.4574 92.8743C52.4879 93.273 52.7404 93.6553 53.2325 93.9926C54.2026 94.6576 56.2354 95.2423 60.0653 95.503L60.0825 95.2509L60.0997 94.9987C56.2751 94.7383 54.366 94.1567 53.5183 93.5757C53.1016 93.29 52.9762 93.0293 52.9614 92.8357C52.9462 92.6373 53.0412 92.4347 53.2194 92.2568L53.0408 92.0779ZM60.0825 95.2509L60.0576 95.5024C61.4424 95.6393 63.4184 95.5062 64.7749 94.6065C65.4628 94.1501 65.9947 93.4936 66.1976 92.5822C66.399 91.6771 66.2693 90.5507 65.6974 89.1606L65.4636 89.2567L65.2299 89.3529C65.7775 90.684 65.8757 91.7011 65.7041 92.4724C65.5339 93.2372 65.0919 93.7896 64.4954 94.1852C63.2833 94.9893 61.4492 95.132 60.1074 94.9993L60.0825 95.2509ZM65.4636 89.2567H65.7164C65.7164 89.1793 65.6796 89.0924 65.5964 89.0406C65.534 89.0018 65.4742 89.0017 65.455 89.0021C65.412 89.003 65.3778 89.015 65.3711 89.0172C65.3472 89.0252 65.323 89.0364 65.3071 89.0439C65.272 89.0604 65.2195 89.0871 65.1628 89.1152C65.0443 89.1741 64.876 89.2555 64.6696 89.3392C64.2546 89.5073 63.6952 89.6802 63.0935 89.6966L63.1004 89.9493L63.1073 90.2019C63.7923 90.1833 64.4145 89.988 64.8594 89.8077C65.083 89.7171 65.2642 89.6293 65.3878 89.5679C65.4522 89.5359 65.4938 89.5147 65.5226 89.5011C65.5387 89.4936 65.5388 89.4941 65.5314 89.4966C65.5286 89.4976 65.5224 89.4996 65.5138 89.5016C65.5067 89.5032 65.4892 89.507 65.466 89.5075C65.4489 89.5079 65.3907 89.508 65.3293 89.4698C65.2472 89.4187 65.2109 89.3328 65.2109 89.2567H65.4636ZM63.1004 89.9493L63.3531 89.9443C63.3468 89.6193 63.2178 89.1552 62.8507 88.7923C62.4748 88.4207 61.8806 88.1856 61.0061 88.2736L61.0314 88.5251L61.0567 88.7766C61.8118 88.7006 62.2467 88.906 62.4953 89.1518C62.7526 89.4061 62.8434 89.7361 62.8477 89.9542L63.1004 89.9493ZM61.0314 88.5251L60.8606 88.3388L60.1935 88.9505L60.3644 89.1368L60.5352 89.3231L61.2022 88.7114L61.0314 88.5251ZM60.3644 89.1368L60.5969 89.0377C60.421 88.6249 59.9119 87.0086 59.4683 85.3153C59.2474 84.472 59.0447 83.6172 58.9092 82.8919C58.7712 82.153 58.7109 81.5872 58.7516 81.299L58.5013 81.2637L58.251 81.2284C58.197 81.611 58.2763 82.2567 58.4123 82.9848C58.5509 83.7265 58.7568 84.5941 58.9793 85.4434C59.4225 87.1353 59.9396 88.7848 60.1318 89.2359L60.3644 89.1368ZM51.8448 87.6123L51.6184 87.7245C51.8409 88.1735 52.1688 88.9358 52.4235 89.7524C52.6806 90.5765 52.8522 91.4225 52.7893 92.0528L53.0408 92.0779L53.2923 92.103C53.3658 91.3665 53.1673 90.4391 52.9061 89.6019C52.6426 88.7571 52.3043 87.9701 52.0713 87.5L51.8448 87.6123ZM26.2792 65.4301L26.4077 65.2124C25.4727 64.6604 23.9184 63.8723 22.7798 63.0373C22.2082 62.6181 21.7814 62.2143 21.5893 61.8548C21.4959 61.68 21.4681 61.5344 21.4873 61.4113C21.5061 61.2913 21.5751 61.1572 21.7455 61.0135L21.5826 60.8203L21.4197 60.627C21.1791 60.8299 21.0296 61.0662 20.9879 61.3331C20.9466 61.5969 21.0161 61.8548 21.1434 62.093C21.3928 62.5596 21.9008 63.0196 22.4808 63.4449C23.6455 64.299 25.2614 65.1227 26.1507 65.6477L26.2792 65.4301ZM21.5826 60.8203L21.8013 60.947C21.7644 61.0107 21.7573 60.9149 22.0114 60.9853C22.2514 61.0518 22.6477 61.2564 23.2402 61.7597L23.4039 61.567L23.5675 61.3743C22.9515 60.8512 22.489 60.5931 22.1464 60.4981C21.8178 60.4071 21.5043 60.4512 21.3639 60.6936L21.5826 60.8203ZM23.4039 61.567L23.2402 61.7597C23.2473 61.7657 23.2631 61.7791 23.2806 61.7906C23.2857 61.794 23.2951 61.8 23.3072 61.8062C23.3145 61.8099 23.3449 61.8256 23.3874 61.8317C23.4263 61.8373 23.574 61.8425 23.6489 61.6969C23.6765 61.6431 23.6779 61.5937 23.6766 61.5677C23.6751 61.5402 23.6695 61.5188 23.6659 61.5069C23.6543 61.4687 23.6353 61.4409 23.6344 61.4395C23.6288 61.4308 23.6234 61.4234 23.6198 61.4185C23.6124 61.4086 23.6038 61.3979 23.5959 61.3882C23.5682 61.3541 23.5053 61.28 23.4425 61.2038C23.3065 61.0387 23.1142 60.7964 22.9386 60.5278C22.7607 60.2557 22.6113 59.9736 22.5472 59.7277C22.4828 59.4801 22.518 59.3319 22.6115 59.2399L22.4342 59.0597L22.257 58.8795C21.9752 59.1567 21.9738 59.5318 22.058 59.8551C22.1427 60.1802 22.3273 60.5167 22.5155 60.8045C22.7059 61.0958 22.9116 61.3545 23.0524 61.5253C23.1279 61.6169 23.173 61.6694 23.2038 61.7072C23.207 61.7111 23.2094 61.7142 23.2113 61.7166C23.2122 61.7177 23.213 61.7186 23.2135 61.7193C23.2137 61.7197 23.2139 61.7199 23.2141 61.7201C23.2142 61.7203 23.2143 61.7204 23.2143 61.7204C23.2143 61.7204 23.2142 61.7202 23.214 61.72C23.2138 61.7198 23.2136 61.7194 23.2132 61.7189C23.2125 61.7179 23.2111 61.7159 23.2093 61.713C23.2077 61.7105 23.2043 61.7052 23.2004 61.698C23.1976 61.6926 23.189 61.6764 23.1822 61.6538C23.1787 61.6423 23.1731 61.6212 23.1717 61.5941C23.1704 61.5684 23.1718 61.5193 23.1993 61.4657C23.274 61.3205 23.4212 61.3258 23.4594 61.3313C23.5012 61.3373 23.5308 61.3527 23.5369 61.3558C23.5478 61.3614 23.5558 61.3665 23.5593 61.3688C23.5701 61.376 23.5753 61.381 23.5675 61.3743L23.4039 61.567ZM22.4342 59.0597L22.6115 59.2399C22.6415 59.2104 22.7785 59.127 23.0822 59.1865C23.3822 59.2452 23.8237 59.4422 24.407 59.9365L24.5704 59.7436L24.7338 59.5508C24.11 59.0223 23.5916 58.7711 23.1793 58.6904C22.7707 58.6104 22.4431 58.6965 22.257 58.8795L22.4342 59.0597ZM24.5704 59.7436L24.407 59.9365C24.5057 60.0201 24.6082 60.112 24.7146 60.213L24.8886 60.0297L25.0627 59.8464C24.9498 59.7392 24.8401 59.6409 24.7338 59.5508L24.5704 59.7436ZM24.8886 60.0297L24.6904 60.1865C24.7007 60.1996 24.6867 60.1847 24.6743 60.1566C24.6705 60.1481 24.661 60.1257 24.6563 60.0948C24.6526 60.0698 24.6443 59.99 24.7006 59.9114C24.7653 59.8213 24.8592 59.8066 24.9045 59.8066C24.947 59.8066 24.9784 59.8176 24.9889 59.8214C25.0251 59.8347 25.0461 59.8533 25.0328 59.8433C25.0293 59.8407 25.0215 59.8344 25.0089 59.8235C24.9581 59.7795 24.8671 59.6919 24.7558 59.5718L24.5704 59.7436L24.385 59.9155C24.5042 60.0441 24.6087 60.1455 24.6775 60.2053C24.6949 60.2203 24.7123 60.2348 24.7286 60.247C24.735 60.2519 24.7705 60.2798 24.8151 60.2961C24.8277 60.3007 24.8608 60.3121 24.9046 60.3121C24.9513 60.3121 25.0462 60.297 25.1114 60.2061C25.1683 60.1267 25.1602 60.0457 25.1562 60.0192C25.1513 59.9867 25.1411 59.9624 25.1363 59.9515C25.1196 59.9138 25.0947 59.8829 25.0869 59.873L24.8886 60.0297ZM24.5704 59.7436L24.7558 59.5718C24.4979 59.2936 24.1617 58.8738 23.9742 58.4633C23.8805 58.258 23.8328 58.0738 23.8369 57.9213C23.8407 57.7788 23.8888 57.6611 24.0036 57.5623L23.8388 57.3707L23.6739 57.1791C23.4398 57.3806 23.3387 57.6384 23.3315 57.9078C23.3246 58.1674 23.4041 58.4318 23.5144 58.6732C23.7349 59.1562 24.1134 59.6225 24.385 59.9155L24.5704 59.7436ZM23.8388 57.3707L24.0036 57.5623C24.1862 57.4052 24.4023 57.359 24.6594 57.4024C24.9255 57.4474 25.2259 57.5883 25.5381 57.7975C26.1614 58.215 26.7637 58.8582 27.1267 59.3254L27.3263 59.1704L27.5259 59.0153C27.1438 58.5234 26.5033 57.8356 25.8195 57.3775C25.4782 57.1488 25.1091 56.9657 24.7437 56.904C24.3694 56.8407 23.9923 56.9051 23.6739 57.1791L23.8388 57.3707ZM27.3263 59.1704L27.0735 59.1727C27.0736 59.1816 27.0742 59.2012 27.0793 59.2251C27.0826 59.2403 27.0969 59.3057 27.1576 59.3603C27.193 59.3923 27.2403 59.4165 27.2955 59.4235C27.3479 59.43 27.3914 59.4191 27.4204 59.4076C27.4718 59.3873 27.5026 59.3553 27.5112 59.3463C27.5328 59.3236 27.5456 59.3015 27.5482 59.297C27.5533 59.2883 27.5572 59.2805 27.5598 59.2754C27.5689 59.257 27.5789 59.2332 27.5873 59.2128C27.6048 59.1701 27.6329 59.099 27.6639 59.0226C27.7284 58.8632 27.8187 58.6474 27.9253 58.4307C28.033 58.2116 28.1519 58.0029 28.2712 57.8523C28.3308 57.7771 28.384 57.7248 28.4285 57.6929C28.4734 57.6607 28.4945 57.6599 28.4956 57.6599L28.4935 57.4071L28.4913 57.1544C28.3513 57.1556 28.2302 57.2131 28.1341 57.2819C28.0376 57.351 27.9512 57.4422 27.8749 57.5385C27.7226 57.7308 27.5851 57.977 27.4717 58.2076C27.3571 58.4406 27.2615 58.6695 27.1953 58.8328C27.1609 58.9178 27.1374 58.9775 27.1197 59.0206C27.1156 59.0306 27.1124 59.0383 27.1098 59.0441C27.1071 59.0505 27.1063 59.0521 27.1068 59.0509C27.1071 59.0504 27.109 59.0465 27.1124 59.0408C27.1133 59.0393 27.1246 59.0192 27.145 58.9977C27.153 58.9894 27.1833 58.9578 27.2343 58.9376C27.263 58.9262 27.3063 58.9153 27.3585 58.9219C27.4135 58.9288 27.4607 58.953 27.496 58.9848C27.5563 59.0391 27.5704 59.104 27.5735 59.1185C27.5785 59.1417 27.579 59.1603 27.579 59.1681L27.3263 59.1704ZM28.4935 57.4071L28.4956 57.6599C28.6102 57.6589 28.6061 57.6454 28.6565 57.6643C28.6967 57.6794 28.7933 57.7334 28.9372 57.9508C29.2302 58.3933 29.6461 59.3986 30.1791 61.6416L30.425 61.5832L30.6709 61.5247C30.1373 59.2794 29.7057 58.1957 29.3587 57.6717C29.1827 57.4059 29.0112 57.2574 28.8337 57.1909C28.6664 57.1283 28.495 57.1543 28.4913 57.1544L28.4935 57.4071ZM73.7208 66.1923L73.8493 66.41C74.7386 65.885 76.3545 65.0613 77.5192 64.2072C78.0991 63.7818 78.6072 63.3218 78.8565 62.8553C78.9839 62.617 79.0534 62.3591 79.0121 62.0953C78.9703 61.8284 78.8209 61.5921 78.5803 61.3893L78.4174 61.5825L78.2544 61.7757C78.4248 61.9194 78.4939 62.0535 78.5127 62.1735C78.5319 62.2966 78.5041 62.4422 78.4107 62.617C78.2186 62.9765 77.7918 63.3803 77.2202 63.7995C76.0816 64.6345 74.5273 65.4226 73.5923 65.9746L73.7208 66.1923ZM78.4174 61.5825L78.6361 61.4558C78.4957 61.2134 78.1822 61.1693 77.8536 61.2604C77.511 61.3553 77.0485 61.6134 76.4325 62.1366L76.5961 62.3292L76.7598 62.5219C77.3523 62.0187 77.7486 61.814 77.9886 61.7475C78.2427 61.6771 78.2355 61.7729 78.1987 61.7092L78.4174 61.5825ZM76.5961 62.3292L76.4325 62.1366C76.4247 62.1432 76.4299 62.1382 76.4407 62.1311C76.4442 62.1288 76.4521 62.1236 76.4631 62.118C76.4692 62.1149 76.4988 62.0996 76.5406 62.0935C76.5788 62.088 76.726 62.0827 76.8007 62.2279C76.8282 62.2815 76.8296 62.3307 76.8283 62.3563C76.8268 62.3835 76.8213 62.4045 76.8178 62.416C76.8109 62.4386 76.8024 62.4548 76.7995 62.4602C76.7957 62.4674 76.7923 62.4727 76.7907 62.4753C76.7889 62.4781 76.7874 62.4802 76.7868 62.4811C76.7864 62.4816 76.7861 62.482 76.786 62.4822C76.7858 62.4825 76.7857 62.4826 76.7857 62.4826C76.7857 62.4826 76.7858 62.4825 76.7859 62.4823C76.786 62.4821 76.7862 62.4819 76.7865 62.4815C76.787 62.4809 76.7877 62.4799 76.7887 62.4788C76.7906 62.4764 76.793 62.4733 76.7962 62.4695C76.827 62.4316 76.8721 62.3791 76.9476 62.2875C77.0883 62.1167 77.2941 61.858 77.4845 61.5667C77.6726 61.279 77.8573 60.9425 77.9419 60.6173C78.0262 60.294 78.0248 59.9189 77.743 59.6418L77.5657 59.822L77.3885 60.0022C77.482 60.0941 77.5172 60.2423 77.4527 60.4899C77.3887 60.7358 77.2393 61.018 77.0614 61.2901C76.8858 61.5587 76.6935 61.801 76.5575 61.966C76.4946 62.0422 76.4318 62.1163 76.404 62.1504C76.3962 62.1601 76.3876 62.1708 76.3802 62.1808C76.3766 62.1856 76.3712 62.193 76.3656 62.2018C76.3647 62.2031 76.3457 62.2309 76.3341 62.2691C76.3305 62.281 76.3249 62.3025 76.3234 62.3299C76.3221 62.3559 76.3235 62.4053 76.3511 62.4591C76.426 62.6047 76.5737 62.5995 76.6126 62.5939C76.655 62.5878 76.6855 62.5721 76.6928 62.5684C76.7049 62.5622 76.7143 62.5562 76.7194 62.5528C76.7369 62.5413 76.7527 62.5279 76.7598 62.5219L76.5961 62.3292ZM77.5657 59.822L77.743 59.6418C77.5568 59.4587 77.2292 59.3726 76.8207 59.4526C76.4084 59.5333 75.89 59.7845 75.2662 60.313L75.4296 60.5058L75.593 60.6987C76.1763 60.2045 76.6178 60.0074 76.9178 59.9487C77.2215 59.8893 77.3585 59.9726 77.3885 60.0022L77.5657 59.822ZM75.4296 60.5058L75.2662 60.313C75.1598 60.4031 75.0502 60.5015 74.9373 60.6086L75.1113 60.792L75.2854 60.9753C75.3918 60.8743 75.4943 60.7823 75.593 60.6987L75.4296 60.5058ZM75.1113 60.792L74.9131 60.6352C74.9052 60.6451 74.8804 60.676 74.8637 60.7137C74.8588 60.7246 74.8487 60.7489 74.8438 60.7814C74.8398 60.808 74.8317 60.889 74.8886 60.9683C74.9538 61.0592 75.0487 61.0743 75.0954 61.0743C75.1392 61.0743 75.1723 61.063 75.1849 61.0583C75.2295 61.042 75.2649 61.0141 75.2714 61.0093C75.2877 60.997 75.3051 60.9826 75.3224 60.9675C75.3913 60.9077 75.4957 60.8063 75.615 60.6777L75.4296 60.5058L75.2442 60.334C75.1329 60.4541 75.0418 60.5417 74.9911 60.5857C74.9785 60.5967 74.9707 60.6029 74.9672 60.6055C74.9539 60.6156 74.9749 60.5969 75.0111 60.5836C75.0216 60.5798 75.053 60.5688 75.0954 60.5688C75.1408 60.5688 75.2347 60.5836 75.2994 60.6737C75.3557 60.7522 75.3474 60.832 75.3437 60.857C75.339 60.8879 75.3295 60.9103 75.3257 60.9188C75.3133 60.9469 75.2993 60.9618 75.3096 60.9487L75.1113 60.792ZM75.4296 60.5058L75.615 60.6777C75.8866 60.3847 76.2651 59.9184 76.4856 59.4354C76.5958 59.194 76.6754 58.9296 76.6685 58.6701C76.6613 58.4006 76.5602 58.1428 76.3261 57.9413L76.1612 58.1329L75.9963 58.3245C76.1112 58.4234 76.1593 58.541 76.1631 58.6835C76.1672 58.836 76.1195 59.0202 76.0257 59.2255C75.8383 59.636 75.5021 60.0559 75.2442 60.334L75.4296 60.5058ZM76.1612 58.1329L76.3261 57.9413C76.0077 57.6673 75.6306 57.6029 75.2563 57.6662C74.8909 57.728 74.5218 57.911 74.1805 58.1397C73.4967 58.5978 72.8562 59.2856 72.4741 59.7775L72.6737 59.9326L72.8733 60.0876C73.2363 59.6204 73.8386 58.9772 74.4618 58.5597C74.7741 58.3505 75.0745 58.2096 75.3405 58.1647C75.5976 58.1212 75.8138 58.1674 75.9963 58.3245L76.1612 58.1329ZM72.6737 59.9326L72.4209 59.9303C72.421 59.9225 72.4215 59.9039 72.4265 59.8807C72.4296 59.8663 72.4437 59.8013 72.504 59.747C72.5393 59.7152 72.5864 59.691 72.6415 59.6841C72.6937 59.6776 72.737 59.6885 72.7657 59.6998C72.8167 59.72 72.847 59.7516 72.8549 59.76C72.8754 59.7815 72.8867 59.8015 72.8876 59.803C72.8909 59.8087 72.8929 59.8127 72.8931 59.8131C72.8937 59.8143 72.8929 59.8127 72.8901 59.8063C72.8876 59.8005 72.8844 59.7928 72.8803 59.7828C72.8626 59.7398 72.8391 59.68 72.8047 59.595C72.7385 59.4317 72.6429 59.2028 72.5283 58.9698C72.4149 58.7392 72.2774 58.4931 72.1251 58.3007C72.0488 58.2044 71.9623 58.1132 71.8659 58.0441C71.7698 57.9753 71.6487 57.9178 71.5087 57.9166L71.5065 58.1693L71.5044 58.4221C71.5055 58.4221 71.5266 58.423 71.5715 58.4551C71.616 58.487 71.6692 58.5393 71.7288 58.6145C71.848 58.7651 71.9669 58.9738 72.0747 59.1929C72.1813 59.4097 72.2716 59.6255 72.3361 59.7848C72.3671 59.8612 72.3951 59.9323 72.4127 59.975C72.4211 59.9955 72.4311 60.0193 72.4402 60.0377C72.4427 60.0428 72.4467 60.0505 72.4518 60.0592C72.4544 60.0637 72.4672 60.0858 72.4888 60.1085C72.4974 60.1175 72.5281 60.1495 72.5796 60.1699C72.6086 60.1813 72.6521 60.1923 72.7044 60.1857C72.7597 60.1788 72.807 60.1545 72.8424 60.1226C72.903 60.0679 72.9174 60.0025 72.9206 59.9874C72.9258 59.9634 72.9264 59.9439 72.9264 59.9349L72.6737 59.9326ZM71.5065 58.1693L71.5087 57.9166C71.505 57.9166 71.3335 57.8905 71.1662 57.9531C70.9888 58.0196 70.8173 58.1681 70.6413 58.4339C70.2943 58.9579 69.8627 60.0416 69.3291 62.287L69.575 62.3454L69.8209 62.4039C70.3539 60.1608 70.7697 59.1555 71.0627 58.713C71.2067 58.4957 71.3033 58.4416 71.3435 58.4265C71.3939 58.4077 71.3898 58.4211 71.5044 58.4221L71.5065 58.1693ZM26.7643 73.8647L26.5147 73.9047C26.8001 75.6822 27.0825 76.5041 27.4627 77.1157C27.65 77.4171 27.8582 77.6621 28.08 77.9314C28.3033 78.2025 28.5516 78.5112 28.8397 78.9566L29.0519 78.8193L29.2642 78.6821C28.9606 78.2128 28.6982 77.8869 28.4703 77.6101C28.241 77.3316 28.0577 77.1154 27.892 76.8489C27.5662 76.3247 27.2964 75.584 27.0138 73.8246L26.7643 73.8647ZM30.2352 75.5416C29.9852 75.5047 29.9851 75.5048 29.9851 75.505C29.9851 75.5051 29.9851 75.5053 29.985 75.5054C29.985 75.5058 29.9849 75.5062 29.9848 75.5068C29.9847 75.5078 29.9845 75.5093 29.9842 75.511C29.9838 75.5146 29.9831 75.5195 29.9823 75.5258C29.9806 75.5384 29.9784 75.5566 29.9757 75.5799C29.9705 75.6265 29.9638 75.694 29.9575 75.7799C29.945 75.9518 29.9342 76.1979 29.9406 76.4998C29.9533 77.1028 30.0344 77.9318 30.3089 78.8356C30.8604 80.6515 32.191 82.7585 35.2726 83.934L35.3627 83.6978L35.4528 83.4616C32.5392 82.3503 31.306 80.3792 30.7926 78.6887C30.5346 77.8394 30.458 77.0581 30.446 76.4891C30.44 76.205 30.4502 75.9747 30.4617 75.8167C30.4675 75.7377 30.4736 75.6768 30.4781 75.6363C30.4804 75.6161 30.4823 75.601 30.4835 75.5913C30.4842 75.5864 30.4846 75.5829 30.4849 75.5808C30.4851 75.5797 30.4852 75.579 30.4852 75.5786C30.4853 75.5784 30.4853 75.5784 30.4853 75.5783C30.4853 75.5783 30.4853 75.5784 30.4853 75.5784C30.4853 75.5785 30.4852 75.5786 30.2352 75.5416ZM35.3627 83.6978L35.613 83.6629C35.5219 83.0085 35.4125 81.981 35.3806 81.0291C35.3647 80.5527 35.3684 80.1012 35.4022 79.7272C35.4371 79.3409 35.5012 79.079 35.5791 78.95L35.3627 78.8193L35.1463 78.6887C35.0034 78.9255 34.934 79.2912 34.8987 79.6818C34.8623 80.0847 34.8591 80.5593 34.8754 81.046C34.908 82.02 35.0195 83.0658 35.1124 83.7327L35.3627 83.6978ZM59.738 78.2858L59.4933 78.3491C59.5463 78.5539 59.5984 78.9596 59.6392 79.4771C59.6794 79.9882 59.7073 80.5908 59.7161 81.1785C59.7249 81.7671 59.7145 82.3358 59.6791 82.7807C59.6614 83.0037 59.6378 83.1896 59.609 83.3289C59.5945 83.3986 59.5798 83.4516 59.5659 83.4893C59.5506 83.5308 59.5422 83.5377 59.549 83.5301L59.738 83.6978L59.9271 83.8655C59.9813 83.8045 60.0161 83.7296 60.0402 83.6641C60.0657 83.5949 60.0865 83.5157 60.104 83.4315C60.1389 83.2629 60.1645 83.0536 60.183 82.8207C60.2201 82.3538 60.2305 81.7677 60.2215 81.1709C60.2126 80.5734 60.1842 79.9601 60.1431 79.4374C60.1025 78.9211 60.0481 78.475 59.9827 78.2224L59.738 78.2858ZM66.4432 72.7213L66.2364 72.8665C66.7138 73.5464 67.6361 75.4443 67.4536 77.5012L67.7054 77.5235L67.9572 77.5458C68.1534 75.334 67.1719 73.319 66.6501 72.576L66.4432 72.7213ZM67.7054 77.5235L67.8348 77.7406C68.289 77.47 68.6594 76.9817 68.9528 76.3828C69.2483 75.7797 69.4774 75.0402 69.6359 74.2338C69.9526 72.6218 69.9929 70.7099 69.6897 69.0178L69.4409 69.0624L69.1921 69.107C69.4837 70.7341 69.4451 72.5826 69.1398 74.1364C68.9873 74.9129 68.7696 75.6076 68.4988 76.1604C68.2259 76.7174 67.9106 77.107 67.576 77.3064L67.7054 77.5235ZM63.1558 55.2105L62.9037 55.2281L63.1146 58.256L63.3667 58.2384L63.6189 58.2208L63.408 55.193L63.1558 55.2105ZM62.0835 60.0678L62.3234 59.9884L62.3051 59.9329L62.0651 60.0124L61.8252 60.0918L61.8435 60.1472L62.0835 60.0678ZM63.3667 58.2384H63.114C63.114 58.2069 63.1266 58.2067 63.0963 58.2504C63.0698 58.2887 63.026 58.3383 62.9626 58.4009C62.8309 58.5307 62.6694 58.6649 62.4833 58.8349C62.3085 58.9947 62.1217 59.1781 61.9897 59.3718C61.8601 59.5621 61.752 59.8084 61.8202 60.075L62.0651 60.0124L62.31 59.9497C62.2954 59.8926 62.3086 59.8017 62.4075 59.6565C62.5041 59.5148 62.6531 59.3646 62.8243 59.2081C62.9843 59.0619 63.1793 58.8972 63.3176 58.7608C63.3891 58.6903 63.4587 58.615 63.5117 58.5385C63.561 58.4674 63.6195 58.3625 63.6195 58.2384H63.3667ZM62.0651 60.0124L61.8202 60.075C61.8279 60.1049 61.8376 60.1344 61.8495 60.1634L62.0835 60.0678L62.3174 59.9722C62.3143 59.9645 62.3118 59.957 62.31 59.9497L62.0651 60.0124ZM59.738 83.6978L59.7947 83.9441C60.4964 83.7827 61.6716 83.3507 62.8397 82.6415C64.0067 81.9329 65.191 80.9326 65.8782 79.6228L65.6544 79.5054L65.4306 79.3879C64.8024 80.5852 63.7026 81.5261 62.5773 82.2094C61.453 82.8921 60.3278 83.3027 59.6814 83.4515L59.738 83.6978ZM65.6544 79.5054L65.8782 79.6228C66.5946 78.2574 66.7934 76.6123 66.8185 75.2789C66.8312 74.6092 66.8 74.0113 66.7659 73.5574C66.7489 73.3304 66.731 73.139 66.7176 72.9937C66.7034 72.8404 66.696 72.755 66.696 72.7213H66.4432H66.1905C66.1905 72.785 66.2015 72.9027 66.2142 73.0402C66.2277 73.1858 66.2451 73.3732 66.2618 73.5953C66.2952 74.0393 66.3253 74.6204 66.3131 75.2694C66.2885 76.5737 66.0929 78.1256 65.4306 79.3879L65.6544 79.5054ZM29.0519 78.8193L29.2952 78.888C29.4764 78.2461 30.2078 76.3195 30.4712 75.6321L30.2352 75.5416L29.9992 75.4512C29.7407 76.1256 28.9978 78.0806 28.8087 78.7507L29.0519 78.8193ZM63.1558 55.2105L63.4085 55.204L62.8563 33.8608L62.6036 33.8673L62.3509 33.8739L62.9031 55.2171L63.1558 55.2105ZM62.6036 33.8673L62.7053 33.6359L59.2343 32.1114L59.1327 32.3428L59.0311 32.5742L62.502 34.0987L62.6036 33.8673ZM62.6036 33.8673L62.4947 34.0954L69.1999 37.2969L69.3088 37.0688L69.4177 36.8407L62.7125 33.6392L62.6036 33.8673ZM59.1327 24.7202L59.1544 24.9721C61.6442 24.7577 67.3082 26.7755 69.0596 37.111L69.3088 37.0688L69.558 37.0266C67.7754 26.5068 61.9327 24.2254 59.111 24.4684L59.1327 24.7202ZM33.8965 63.5911L34.0231 63.3723L30.5516 61.3644L30.425 61.5832L30.2985 61.802L33.77 63.8099L33.8965 63.5911ZM69.4409 69.0624L69.6897 69.0178C69.6722 68.9203 69.6524 68.824 69.6306 68.729L69.3843 68.7857L69.1379 68.8424C69.158 68.9294 69.176 69.0176 69.1921 69.107L69.4409 69.0624ZM73.7208 66.1923L73.5911 65.9754L69.2545 68.5688L69.3843 68.7857L69.514 69.0027L73.8505 66.4092L73.7208 66.1923ZM66.1678 64.3161L66.2944 64.5349L69.7015 62.5642L69.575 62.3454L69.4484 62.1266L66.0413 64.0973L66.1678 64.3161ZM47.6078 87.7118L47.3775 87.6075C47.1375 88.1374 46.8447 88.8744 46.6268 89.6356C46.4106 90.3907 46.26 91.1964 46.3255 91.8528L46.5771 91.8277L46.8286 91.8026C46.7728 91.2438 46.9014 90.5131 47.1128 89.7748C47.3224 89.0427 47.6056 88.3293 47.838 87.8161L47.6078 87.7118ZM47.6078 87.7118L47.6092 87.9646C49.1724 87.9558 50.675 87.657 52.0463 87.1419L51.9574 86.9053L51.8685 86.6686C50.5505 87.1637 49.107 87.4507 47.6064 87.459L47.6078 87.7118ZM51.9574 86.9053L51.7078 86.8655L51.5952 87.5725L51.8448 87.6123L52.0944 87.652L52.207 86.945L51.9574 86.9053ZM58.5092 81.1091L58.7303 81.2315C59.1687 80.4396 59.4806 79.7232 59.683 79.2042C59.7843 78.9445 59.8583 78.734 59.9072 78.5876C59.9317 78.5144 59.9499 78.4573 59.9621 78.418C59.9682 78.3984 59.9727 78.3833 59.9759 78.3728C59.9774 78.3676 59.9786 78.3636 59.9795 78.3608C59.9799 78.3594 59.9802 78.3582 59.9804 78.3574C59.9806 78.357 59.9806 78.3567 59.9807 78.3565C59.9808 78.3563 59.9808 78.3562 59.9808 78.3561C59.9808 78.3561 59.9808 78.356 59.9808 78.356C59.9809 78.356 59.9809 78.3559 59.738 78.2858C59.4952 78.2156 59.4952 78.2155 59.4952 78.2155C59.4952 78.2155 59.4952 78.2155 59.4952 78.2155C59.4952 78.2155 59.4952 78.2155 59.4952 78.2155C59.4952 78.2156 59.4952 78.2157 59.4951 78.2159C59.495 78.2163 59.4948 78.2171 59.4945 78.2181C59.4939 78.2201 59.4929 78.2234 59.4916 78.2278C59.4889 78.2366 59.4849 78.2502 59.4793 78.2681C59.4681 78.3041 59.451 78.3578 59.4278 78.4274C59.3812 78.5666 59.31 78.7693 59.2121 79.0205C59.016 79.5231 58.7134 80.2183 58.288 80.9867L58.5092 81.1091ZM58.5013 81.2637L58.7516 81.299C58.7614 81.2292 58.7652 81.161 58.7616 81.0952L58.5092 81.1091L58.2568 81.123C58.2583 81.1509 58.257 81.1857 58.251 81.2284L58.5013 81.2637ZM66.1678 64.3161L66.33 64.1222C65.8507 63.7214 65.3576 63.3354 64.8967 62.962L64.7376 63.1584L64.5785 63.3548C65.0489 63.7359 65.5298 64.112 66.0057 64.51L66.1678 64.3161ZM65.6825 58.4632L65.5803 58.6944C65.962 58.863 66.3627 59.2768 66.3668 59.9455C66.371 60.6273 65.9639 61.6375 64.563 62.9756L64.7376 63.1584L64.9122 63.3412C66.3547 61.9633 66.8777 60.828 66.8723 59.9424C66.8668 59.0435 66.3181 58.4676 65.7846 58.232L65.6825 58.4632ZM62.9075 61.4601L63.1007 61.2971C62.7461 60.8769 62.4776 60.4466 62.323 59.9872L62.0835 60.0678L61.8439 60.1484C62.0245 60.6853 62.3323 61.1704 62.7144 61.6231L62.9075 61.4601ZM65.6825 58.4632L65.7759 58.2283C65.4235 58.0881 64.9973 57.9725 64.5682 57.9398C64.1413 57.9073 63.6902 57.9554 63.3076 58.1662C62.915 58.3825 62.6211 58.7559 62.4962 59.3154C62.3737 59.8647 62.4146 60.588 62.6632 61.525L62.9075 61.4601L63.1518 61.3953C62.914 60.4991 62.8916 59.8648 62.9896 59.4254C63.0854 58.9963 63.2957 58.75 63.5516 58.609C63.8175 58.4625 64.1592 58.4156 64.5298 58.4438C64.8981 58.4719 65.274 58.5727 65.589 58.698L65.6825 58.4632ZM39.3326 50.2464H39.5853C39.5853 49.7703 39.8897 49.2615 40.4219 48.7908C40.9477 48.3258 41.6592 47.9323 42.3821 47.6855L42.3005 47.4463L42.2189 47.2071C41.443 47.4719 40.6705 47.8961 40.087 48.4121C39.51 48.9224 39.0798 49.5579 39.0798 50.2464H39.3326ZM42.3005 47.4463L42.5444 47.5126C43.8104 42.8562 45.8228 37.3793 48.6012 32.9836C51.3856 28.5785 54.9002 25.3188 59.1532 24.9722L59.1327 24.7202L59.1122 24.4683C54.6154 24.8348 50.9835 28.2686 48.1739 32.7135C45.3584 37.1679 43.3297 42.6976 42.0566 47.38L42.3005 47.4463ZM41.147 52.4664L41.3956 52.512C41.4663 52.1264 41.5451 51.7233 41.6319 51.3051L41.3845 51.2537L41.137 51.2023C41.0493 51.6243 40.9698 52.0312 40.8984 52.4208L41.147 52.4664ZM41.3845 51.2537L41.3092 51.0124C40.7629 51.1827 40.3192 51.2103 40.0287 51.0968C39.8913 51.0432 39.7866 50.9578 39.713 50.8323C39.6374 50.7033 39.5853 50.5157 39.5853 50.2464H39.3326H39.0798C39.0798 50.578 39.1437 50.8607 39.277 51.0881C39.4124 51.3189 39.6098 51.476 39.8448 51.5677C40.2991 51.7451 40.8814 51.6753 41.4597 51.495L41.3845 51.2537ZM41.0143 53.3379L40.9478 53.0941C38.6918 53.7089 37.0288 55.7158 37.0288 58.1071H37.2816H37.5343C37.5343 55.9599 39.0288 54.141 41.0808 53.5818L41.0143 53.3379ZM41.0143 53.3379L41.2622 53.3873C41.3241 53.0763 41.3705 52.776 41.3986 52.4912L41.147 52.4664L40.8955 52.4416C40.8693 52.7072 40.8256 52.9909 40.7664 53.2886L41.0143 53.3379ZM37.4926 61.0587L37.684 61.2238C37.8292 61.0554 37.9778 60.8639 38.1278 60.6536L37.922 60.5068L37.7163 60.36C37.5733 60.5604 37.4343 60.7393 37.3012 60.8937L37.4926 61.0587ZM37.2816 58.1071H37.0288C37.0288 59.0234 37.2735 59.8847 37.7028 60.6327L37.922 60.5068L38.1413 60.381C37.7544 59.707 37.5343 58.9321 37.5343 58.1071H37.2816ZM35.3548 63.3381L35.2921 63.0932C34.8372 63.2098 34.3634 63.2965 33.8745 63.3393L33.8965 63.5911L33.9186 63.8429C34.4383 63.7974 34.9394 63.7054 35.4176 63.5829L35.3548 63.3381ZM37.4926 61.0587L37.3048 60.8896C36.7576 61.497 35.9457 62.3743 35.1743 63.1611L35.3548 63.3381L35.5353 63.515C36.313 62.7218 37.1298 61.8391 37.6804 61.2279L37.4926 61.0587ZM29.8779 67.5233L29.7056 67.3384C28.8097 68.1731 27.9165 69.1867 27.2945 70.3006C26.6725 71.4145 26.3126 72.6461 26.5147 73.9047L26.7643 73.8647L27.0138 73.8246C26.8356 72.7147 27.1481 71.5997 27.7359 70.5471C28.3236 69.4945 29.1773 68.5216 30.0503 67.7082L29.8779 67.5233ZM26.2792 65.4301L26.1521 65.6486L29.7509 67.7418L29.8779 67.5233L30.005 67.3048L26.4063 65.2116L26.2792 65.4301ZM35.3627 78.8193L35.1182 78.8832C35.5657 80.5959 37.0559 83.5181 40.0004 85.5923L40.146 85.3857L40.2916 85.1791C37.4571 83.1824 36.0287 80.3681 35.6073 78.7554L35.3627 78.8193ZM39.2535 88.8865L39.4861 88.9856C39.7938 88.2634 40.3273 86.7075 40.3984 85.3994L40.146 85.3857L39.8936 85.372C39.8272 86.5942 39.3195 88.087 39.021 88.7874L39.2535 88.8865Z" fill="#434642"/>
<path d="M52.0772 71.1363C52.0772 71.4137 52.0665 71.7017 52.0452 72.0003C52.0452 72.2777 52.0452 72.5657 52.0452 72.8643C51.1919 72.8643 50.3172 72.8643 49.4212 72.8643C48.5252 72.8643 47.6399 72.8643 46.7652 72.8643C46.7439 71.9897 46.7225 71.1043 46.7012 70.2083C46.6799 69.3123 46.6585 68.4377 46.6372 67.5843C48.6852 67.4137 50.1572 67.179 51.0532 66.8803C51.9705 66.5603 52.4292 66.1123 52.4292 65.5363C52.4292 65.0457 52.1625 64.6617 51.6292 64.3843C51.0959 64.0857 50.3812 63.9043 49.4852 63.8403C48.6105 63.755 47.6292 63.8083 46.5412 64.0003C45.4745 64.171 44.3972 64.4697 43.3092 64.8963C43.3092 64.0003 43.3092 63.1043 43.3092 62.2083C43.3092 61.291 43.3092 60.3843 43.3092 59.4883C46.1679 58.763 48.6852 58.507 50.8612 58.7203C53.0585 58.9337 54.7652 59.5737 55.9812 60.6403C57.2185 61.6857 57.8372 63.115 57.8372 64.9283C57.8372 66.059 57.5919 67.0297 57.1012 67.8403C56.6105 68.6297 55.9279 69.291 55.0532 69.8243C54.1999 70.3577 53.2079 70.795 52.0772 71.1363ZM49.4212 81.2163C48.8025 81.2163 48.2265 81.067 47.6932 80.7683C47.1812 80.4697 46.7759 80.0643 46.4772 79.5523C46.1785 79.0403 46.0292 78.4857 46.0292 77.8883C46.0292 77.291 46.1785 76.747 46.4772 76.2563C46.7759 75.7443 47.1812 75.339 47.6932 75.0403C48.2265 74.7417 48.8025 74.5923 49.4212 74.5923C50.0399 74.5923 50.5945 74.7417 51.0852 75.0403C51.5972 75.339 52.0025 75.7443 52.3012 76.2563C52.6212 76.747 52.7812 77.291 52.7812 77.8883C52.7812 78.4857 52.6212 79.0403 52.3012 79.5523C52.0025 80.0643 51.5972 80.4697 51.0852 80.7683C50.5945 81.067 50.0399 81.2163 49.4212 81.2163Z" fill="#2A2D2A"/>
</svg>
