<svg width="100" height="120" viewBox="0 0 100 120" fill="none" xmlns="http://www.w3.org/2000/svg">
<rect width="100" height="120" fill="#2A2D2A"/>
<path d="M64.7571 62.0727C67.6601 59.3285 66.5452 57.8294 65.6249 57.4229C64.2838 56.8893 61.8542 56.7521 62.8639 60.4719L64.7571 62.0727Z" fill="#434642" stroke="#444743" stroke-width="0.505525" stroke-linecap="round"/>
<path d="M39.4778 93.9603C47.1323 93.4391 47.3616 91.6279 46.5195 90.7874C46.3831 89.4205 47.26 87.2407 47.7155 86.3217L47.5577 85.3307L44.2446 84.4923C42.7721 83.6284 39.8744 82.236 40.0637 83.5776C40.253 84.9191 39.5641 86.9823 39.196 87.8462L38.5289 87.2345C36.8994 87.0705 36.4706 88.1156 36.4599 88.6587C35.1732 88.6236 34.0967 87.9224 34.0967 87.9662C31.8577 93.4086 36.7512 94.2299 39.4778 93.9603Z" fill="#434642" stroke="#444743" stroke-width="0.505525" stroke-linecap="round"/>
<path d="M36.4597 88.6588C36.9892 88.757 38.0625 90.4821 38.5329 91.3324C38.8328 91.8982 39.4009 93.2126 39.2747 93.9443L41.5623 93.7157C41.6255 92.4961 41.0445 90.9111 40.7461 90.2711C39.8269 88.4561 38.8663 87.3336 38.4377 87.1723C37.7935 87.1498 36.496 87.4155 36.4597 88.6588Z" fill="#434642" stroke="#444743" stroke-width="0.505525" stroke-linecap="round"/>
<path d="M41.0894 93.7918C36.167 94.5845 34.2002 92.9025 33.832 91.9624C37.8709 93.7918 44.0344 91.9624 46.6113 90.819C47.1635 92.0386 47.2424 92.8008 41.0894 93.7918Z" fill="#434642" stroke="#444743" stroke-width="0.505525"/>
<path d="M60.025 94.2106C52.3705 93.6895 52.1412 91.8782 52.9833 91.0377C53.1198 89.6708 52.2428 87.491 51.7873 86.572L51.9451 85.5811L54.2629 81.1381C55.7354 80.2743 58.6331 78.8819 58.4438 80.2234C58.2545 81.565 59.9387 87.2326 60.3069 88.0965L60.9739 87.4849C62.6035 87.3208 63.0323 88.3659 63.043 88.909C64.3296 88.8739 65.4062 88.1728 65.4062 88.2165C67.6451 93.6589 62.7516 94.4802 60.025 94.2106Z" fill="#434642" stroke="#444743" stroke-width="0.505525" stroke-linecap="round"/>
<path d="M63.0432 88.909C62.5137 89.0071 61.4404 90.7323 60.97 91.5826C60.6702 92.1483 60.102 93.4628 60.2282 94.1945L57.9406 93.9659C57.8775 92.7462 58.4584 91.1613 58.7568 90.5213C59.676 88.7063 60.6366 87.5838 61.0652 87.4225C61.7094 87.4 63.0069 87.6657 63.0432 88.909Z" fill="#434642" stroke="#444743" stroke-width="0.505525" stroke-linecap="round"/>
<path d="M58.4138 94.0421C63.3362 94.8349 65.303 93.1528 65.6711 92.2127C61.6323 94.0421 55.4687 92.2127 52.8918 91.0693C52.3396 92.2889 52.2608 93.0512 58.4138 94.0421Z" fill="#434642" stroke="#444743" stroke-width="0.505525"/>
<path d="M26.2217 64.3898C24.3974 63.3128 19.8811 61.1662 21.5251 59.78C21.6286 59.6013 22.1378 59.5004 23.3463 60.5267C23.5848 60.7293 21.6261 58.7577 22.3767 58.0195C22.5929 57.8068 23.3058 57.6806 24.5129 58.7033C23.9834 58.1322 23.0833 56.9311 23.7812 56.3304C24.7831 55.4681 26.5237 57.1709 27.2688 58.1301C27.2695 58.2063 27.8715 56.3717 28.4359 56.3669C28.6726 56.3648 29.3008 56.0545 30.3675 60.5429L37.3818 64.6L33.2009 68.5637L26.2217 64.3898Z" fill="#434642" stroke="#444743" stroke-width="0.505525" stroke-linecap="round"/>
<path d="M73.6634 65.152C75.4876 64.075 80.0039 61.9284 78.3599 60.5422C78.2564 60.3635 77.7472 60.2626 76.5387 61.2889C76.3002 61.4915 78.2589 59.5199 77.5083 58.7817C77.2921 58.569 76.5792 58.4428 75.3722 59.4656C75.9016 58.8944 76.8017 57.6933 76.1038 57.0926C75.1019 56.2303 73.3613 57.9331 72.6163 58.8923C72.6156 58.9685 72.0135 57.1339 71.4491 57.1291C71.2124 57.127 70.5842 56.8168 69.5175 61.3051L62.5032 65.3622L66.6841 69.3259L73.6634 65.152Z" fill="#434642" stroke="#444743" stroke-width="0.505525" stroke-linecap="round"/>
<path d="M37.4352 60.0185C36.1993 61.3905 33.6172 64.1347 33.1754 64.1347C32.6232 64.1347 25.9969 68.4033 26.7069 72.8244C27.2748 76.3613 27.8113 75.9496 28.9945 77.7791C29.1797 77.123 29.7591 75.5634 30.02 74.8825L30.1778 74.5014C30.1778 74.5014 29.3101 80.3707 35.3053 82.6575C35.1212 81.3363 34.8635 78.5108 35.3053 77.7791C35.9627 80.2945 38.9655 85.5693 45.7181 86.545C49.8202 87.1378 53.7063 85.5886 56.1308 83.1911C58.6951 80.6554 59.6806 77.2455 59.6806 77.2455C59.9173 78.1602 60.0593 82.2306 59.6806 82.6575C61.0287 82.3474 64.2816 80.9722 65.597 78.4651C66.9757 75.8373 66.3858 72.0711 66.3858 71.681C66.8854 72.3924 67.8373 74.3489 67.648 76.4832C69.2257 75.5431 69.9783 71.3413 69.3834 68.0222C68.5927 63.6105 63.0518 62.0762 62.0261 59.0275C62.0198 59.009 62.0137 58.9905 62.0077 58.9721C61.8421 58.3247 63.3093 57.5686 63.3093 57.1981L63.1516 54.454C62.9149 51.2525 41.3794 48.5084 41.0639 51.7099C40.801 54.3768 38.8814 58.3415 37.4352 60.0185Z" fill="#434642"/>
<path d="M30.1778 74.5014C30.1778 74.5014 29.3101 80.3707 35.3053 82.6575C35.1212 81.3363 34.8635 78.5108 35.3053 77.7791C35.9627 80.2945 38.9655 85.5693 45.7181 86.545C49.8202 87.1378 53.7063 85.5886 56.1308 83.1911C58.6951 80.6554 59.6806 77.2455 59.6806 77.2455C59.9173 78.1602 60.0593 82.2306 59.6806 82.6575C61.0287 82.3474 64.2816 80.9722 65.597 78.4651C66.9757 75.8373 66.3858 72.0711 66.3858 71.681C66.8854 72.3924 67.8373 74.3489 67.648 76.4832C69.2257 75.5431 69.9783 71.3413 69.3834 68.0222C68.5927 63.6105 63.0518 62.0762 62.0261 59.0275M30.1778 74.5014C30.1778 74.5014 29.9797 74.73 30.02 74.8825M30.1778 74.5014L30.02 74.8825M61.8894 56.9694C61.7404 57.4397 61.7523 57.9753 61.8894 58.5535C61.9262 58.7086 61.972 58.8667 62.0261 59.0275M62.0261 59.0275C61.7567 58.3684 63.3093 57.5792 63.3093 57.1981L63.1516 54.454C62.9149 51.2525 41.3794 48.5084 41.0639 51.7099C40.801 54.3768 38.8814 58.3415 37.4352 60.0185C36.1993 61.3905 33.6172 64.1347 33.1754 64.1347C32.6232 64.1347 25.9969 68.4033 26.7069 72.8244C27.2748 76.3613 27.8113 75.9496 28.9945 77.7791C29.1797 77.123 29.7591 75.5634 30.02 74.8825" stroke="#444743" stroke-width="0.505525" stroke-linecap="round"/>
<path d="M44.1912 72.8455C57.3807 73.7602 59.2582 59.5568 58.5482 52.3408L44.1912 47.3861C38.6956 55.4914 31.0017 71.9308 44.1912 72.8455Z" fill="#434642" stroke="#444743" stroke-width="0.505525" stroke-linecap="round"/>
<path d="M63.0982 54.1702C48.8989 48.9869 44.2184 50.5622 41.0894 51.4261C42.7196 42.5331 48.5992 24.5337 59.075 23.68C61.7308 23.4513 67.4841 25.6008 69.2512 36.0285L62.546 32.827L63.0982 54.1702Z" fill="#434642"/>
<path d="M62.546 32.827L63.0982 54.1702C48.8989 48.9869 44.2184 50.5622 41.0894 51.4261C42.7196 42.5331 48.5992 24.5337 59.075 23.68C61.7308 23.4513 67.4841 25.6008 69.2512 36.0285L62.546 32.827ZM62.546 32.827C62.546 32.827 60.4305 31.8979 59.075 31.3025" stroke="#444743" stroke-width="0.505525" stroke-linecap="round" stroke-linejoin="round"/>
<path d="M47.2537 64.4991C48.437 63.3557 49.331 61.3738 49.3836 60.4591C52.1708 62.0853 58.7235 64.9259 61.6896 62.9746C65.3971 60.5353 56.4832 71.8167 47.2537 64.4991Z" fill="#434642" stroke="#444743" stroke-width="0.505525" stroke-linecap="round"/>
<path d="M40.4696 60.764C39.9061 62.6696 42.0472 65.2115 41.6528 65.3375C34.2061 67.7157 28.7158 62.2122 30.2146 61.9836C36.1309 64.499 41.2584 58.0961 40.4696 60.764Z" fill="#434642" stroke="#444743" stroke-width="0.505525" stroke-linecap="round"/>
<ellipse cx="5.1275" cy="4.95467" rx="5.1275" ry="4.95467" transform="matrix(-1 0 0 1 47.479 52.1121)" fill="#434642" stroke="#444743" stroke-width="0.505525"/>
<path d="M43.5352 55.5168C42.8644 55.5168 42.3232 56.0417 42.3232 56.6857C42.3233 57.3297 42.8644 57.8547 43.5352 57.8547C44.2057 57.8544 44.746 57.3296 44.7461 56.6857C44.7461 56.0418 44.2058 55.517 43.5352 55.5168Z" fill="#434642" stroke="#444743" stroke-width="0.101105"/>
<path d="M41.8462 65.5279C44.8497 68.5447 48.2885 64.1812 49.498 61.1068C48.5797 60.2447 46.7921 58.3403 46.9726 57.6051C46.9731 57.6035 46.9735 57.602 46.9737 57.6004C46.9733 57.602 46.9729 57.6035 46.9726 57.6051C46.8198 58.0677 35.8714 59.5266 41.8462 65.5279Z" fill="#434642" stroke="#444743" stroke-width="0.505525" stroke-linecap="round"/>
<ellipse cx="5.1275" cy="4.95467" rx="5.1275" ry="4.95467" transform="matrix(-1 0 0 1 57.103 52.4171)" fill="#434642" stroke="#444743" stroke-width="0.505525"/>
<path d="M52.0552 56.1267C51.3844 56.1267 50.8433 56.6516 50.8433 57.2957C50.8433 57.9396 51.3844 58.4646 52.0552 58.4646C52.7257 58.4644 53.266 57.9395 53.2661 57.2957C53.2661 56.6518 52.7258 56.1269 52.0552 56.1267Z" fill="#434642" stroke="#444743" stroke-width="0.101105"/>
<path d="M44.9547 71.3322C40.1585 71.2102 40.0638 68.3848 40.616 66.9873C41.128 65.6914 42.5881 68.0544 44.9547 68.1307C47.6367 68.1307 48.3467 65.4628 49.6089 66.8348C51.5021 69.2741 47.216 71.2305 44.9547 71.3322Z" fill="#434642" stroke="#444743" stroke-width="0.505525" stroke-linecap="round" stroke-linejoin="round"/>
<path d="M44.1657 69.6076C43.0613 68.7691 41.4573 69.0486 40.9314 69.3027C40.9314 69.5313 41.878 70.9034 44.639 71.0559C46.8477 71.1778 48.4517 70.0903 48.9776 69.5313C47.5893 68.6776 45.1912 69.2264 44.1657 69.6076Z" fill="#434642" stroke="#444743" stroke-width="0.20221" stroke-linecap="round" stroke-linejoin="round"/>
<path d="M49.5824 46.6907C49.3455 47.7579 54.3019 50.7488 55.4988 49.2062C57.0284 47.2347 49.7266 44.9556 49.5824 46.6907Z" fill="#434642" stroke="#444743" stroke-width="0.505525" stroke-linecap="round"/>
<path d="M45.1913 46.6906C46.0191 48.0808 39.275 52.4478 39.275 49.2061C39.275 47.0899 44.1258 45.108 45.1913 46.6906Z" fill="#434642" stroke="#444743" stroke-width="0.505525" stroke-linecap="round"/>
<path d="M51.0196 71.432C51.0196 71.7093 51.0089 71.9973 50.9876 72.296C50.9876 72.5733 50.9876 72.8613 50.9876 73.16C50.1343 73.16 49.2596 73.16 48.3636 73.16C47.4676 73.16 46.5823 73.16 45.7076 73.16C45.6863 72.2853 45.6649 71.4 45.6436 70.504C45.6223 69.608 45.6009 68.7333 45.5796 67.88C47.6276 67.7093 49.0996 67.4747 49.9956 67.176C50.9129 66.856 51.3716 66.408 51.3716 65.832C51.3716 65.3413 51.1049 64.9573 50.5716 64.68C50.0383 64.3813 49.3236 64.2 48.4276 64.136C47.5529 64.0507 46.5716 64.104 45.4836 64.296C44.4169 64.4667 43.3396 64.7653 42.2516 65.192C42.2516 64.296 42.2516 63.4 42.2516 62.504C42.2516 61.5867 42.2516 60.68 42.2516 59.784C45.1103 59.0587 47.6276 58.8027 49.8036 59.016C52.0009 59.2293 53.7076 59.8693 54.9236 60.936C56.1609 61.9813 56.7796 63.4107 56.7796 65.224C56.7796 66.3547 56.5343 67.3253 56.0436 68.136C55.5529 68.9253 54.8703 69.5867 53.9956 70.12C53.1423 70.6533 52.1503 71.0907 51.0196 71.432ZM48.3636 81.512C47.7449 81.512 47.1689 81.3627 46.6356 81.064C46.1236 80.7653 45.7183 80.36 45.4196 79.848C45.1209 79.336 44.9716 78.7813 44.9716 78.184C44.9716 77.5867 45.1209 77.0427 45.4196 76.552C45.7183 76.04 46.1236 75.6347 46.6356 75.336C47.1689 75.0373 47.7449 74.888 48.3636 74.888C48.9823 74.888 49.5369 75.0373 50.0276 75.336C50.5396 75.6347 50.9449 76.04 51.2436 76.552C51.5636 77.0427 51.7236 77.5867 51.7236 78.184C51.7236 78.7813 51.5636 79.336 51.2436 79.848C50.9449 80.36 50.5396 80.7653 50.0276 81.064C49.5369 81.3627 48.9823 81.512 48.3636 81.512Z" fill="#2A2D2A"/>
</svg>
