<svg width="48" height="48" viewBox="0 0 48 48" fill="none" xmlns="http://www.w3.org/2000/svg">
<path fill-rule="evenodd" clip-rule="evenodd" d="M44 24.5C44 35.2696 35.2696 44 24.5 44C13.5 43 5.5 35.5 5 24.5C5 13.7304 13.7304 5 24.5 5C34 5.5 43.5 14 44 24.5ZM33.1781 25.8148L33.4304 24.3254C33.7829 22.2444 31.0896 21.1071 29.8439 22.811L28.9524 24.0304C28.5052 24.6421 27.7508 24.9485 27.0038 24.8219L25.5144 24.5696C23.4334 24.2171 22.2961 26.9104 24 28.1561L25.2195 29.0476C25.8311 29.4948 26.1376 30.2492 26.011 30.9962L25.7587 32.4856C25.4061 34.5666 28.0994 35.7039 29.3451 34L30.2366 32.7805C30.6838 32.1689 31.4382 31.8625 32.1852 31.989L33.6746 32.2413C35.7556 32.5939 36.8929 29.9006 35.189 28.6549L33.9696 27.7634C33.3579 27.3162 33.0515 26.5618 33.1781 25.8148Z" fill="#7A28D3"/>
<path d="M33.4304 24.3254L33.1781 25.8148C33.0515 26.5618 33.3579 27.3162 33.9696 27.7634L35.189 28.6549C36.8929 29.9006 35.7556 32.5939 33.6746 32.2413L32.1852 31.989C31.4382 31.8625 30.6838 32.1689 30.2366 32.7805L29.3451 34C28.0994 35.7039 25.4061 34.5666 25.7587 32.4856L26.011 30.9962C26.1376 30.2492 25.8311 29.4948 25.2195 29.0476L24 28.1561C22.2961 26.9104 23.4334 24.2171 25.5144 24.5696L27.0038 24.8219C27.7508 24.9485 28.5052 24.6421 28.9524 24.0304L29.8439 22.811C31.0896 21.1071 33.7829 22.2444 33.4304 24.3254Z" fill="#473060"/>
<path d="M24.4678 6C33.4781 6.4857 42.5136 14.5921 42.999 24.5264C42.9848 34.7165 34.7327 42.9748 24.5449 42.999C14.017 42.0233 6.48369 34.895 6 24.4766C6.01264 14.2808 14.2731 6.01738 24.4678 6ZM34.416 24.4922C34.9281 21.4684 31.153 19.7728 29.2178 21.9932L29.0371 22.2207L28.1455 23.4404C27.9219 23.7462 27.5444 23.8992 27.1709 23.8359L25.6816 23.584L25.3926 23.5469C22.4574 23.3053 20.9344 27.1529 23.4102 28.9629L24.6289 29.8545C24.8966 30.0502 25.048 30.3639 25.0391 30.6895L25.0254 30.8291L24.7725 32.3184C24.2436 35.4399 28.2838 37.1456 30.1523 34.5898L31.0439 33.3711C31.2675 33.0653 31.645 32.9113 32.0186 32.9746L33.5078 33.2275C36.6291 33.7561 38.3349 29.7161 35.7793 27.8477L34.5596 26.9561C34.2922 26.7605 34.1416 26.4474 34.1504 26.1221L34.1641 25.9814L34.416 24.4922ZM30.6514 23.4014C31.2742 22.5495 32.6205 23.1178 32.4443 24.1582L32.1924 25.6475C32.0025 26.768 32.4624 27.8996 33.3799 28.5703L34.5986 29.4619C35.4505 30.0847 34.8822 31.4319 33.8418 31.2559L32.3525 31.0029L32.1426 30.9746C31.1625 30.8788 30.1963 31.2714 29.5605 32.0234L29.4297 32.1904L28.5381 33.4102C27.9152 34.2619 26.5679 33.6928 26.7441 32.6523L26.9971 31.1631C27.1868 30.0426 26.727 28.911 25.8096 28.2402L24.5898 27.3486C23.7383 26.7257 24.3073 25.3794 25.3477 25.5557L26.8369 25.8076C27.8875 25.9856 28.9478 25.593 29.6289 24.7871L29.7598 24.6201L30.6514 23.4014Z" stroke="black" stroke-width="2"/>
</svg>
