<svg width="30" height="33" viewBox="0 0 30 33" fill="none" xmlns="http://www.w3.org/2000/svg">
<path d="M3.16667 1.5H4.83333C5.27536 1.5 5.69928 1.67559 6.01184 1.98816C6.3244 2.30072 6.5 2.72464 6.5 3.16667V6.5H11.5V3.16667C11.5 2.72464 11.6756 2.30072 11.9882 1.98816C12.3007 1.67559 12.7246 1.5 13.1667 1.5H16.5C16.942 1.5 17.3659 1.67559 17.6785 1.98816C17.9911 2.30072 18.1667 2.72464 18.1667 3.16667V6.5H23.1667V3.16667C23.1667 2.72464 23.3423 2.30072 23.6548 1.98816C23.9674 1.67559 24.3913 1.5 24.8333 1.5H26.5C26.942 1.5 27.366 1.67559 27.6785 1.98816C27.9911 2.30072 28.1667 2.72464 28.1667 3.16667V10.49C28.1668 11.1484 27.972 11.7922 27.6067 12.34L25.3933 15.66C25.028 16.2078 24.8332 16.8516 24.8333 17.51V29.8333C24.8333 30.2754 24.6577 30.6993 24.3452 31.0118C24.0326 31.3244 23.6087 31.5 23.1667 31.5H6.5C6.05797 31.5 5.63405 31.3244 5.32149 31.0118C5.00893 30.6993 4.83333 30.2754 4.83333 29.8333V17.51C4.83348 16.8516 4.63862 16.2078 4.27333 15.66L2.06 12.34C1.69471 11.7922 1.49985 11.1484 1.5 10.49V3.16667C1.5 2.72464 1.6756 2.30072 1.98816 1.98816C2.30072 1.67559 2.72464 1.5 3.16667 1.5Z" stroke="white" stroke-width="3" stroke-linecap="round" stroke-linejoin="round"/>
<path d="M11.5 31.4997V23.1663C11.5 22.2823 11.8512 21.4344 12.4763 20.8093C13.1014 20.1842 13.9493 19.833 14.8333 19.833C15.7174 19.833 16.5652 20.1842 17.1904 20.8093C17.8155 21.4344 18.1667 22.2823 18.1667 23.1663V31.4997" stroke="white" stroke-width="3" stroke-linecap="round" stroke-linejoin="round"/>
</svg>
