<svg width="15" height="15" viewBox="0 0 15 15" fill="none" xmlns="http://www.w3.org/2000/svg">
<g clip-path="url(#clip0_3481_1174)">
<path d="M7.84461 11.516C9.08406 11.516 10.2727 11.0236 11.1492 10.1472C12.0256 9.27079 12.518 8.08211 12.518 6.84266C12.518 5.60321 12.0256 4.41453 11.1492 3.53811C10.2727 2.66168 9.08406 2.16931 7.84461 2.16931C6.60517 2.16931 5.41648 2.66168 4.54006 3.53811C3.66364 4.41453 3.17127 5.60321 3.17127 6.84266C3.17127 8.08211 3.66364 9.27079 4.54006 10.1472C5.41648 11.0236 6.60517 11.516 7.84461 11.516ZM7.84461 1.00098C8.61175 1.00098 9.37138 1.15208 10.0801 1.44565C10.7889 1.73922 11.4329 2.16952 11.9753 2.71197C12.5178 3.25442 12.9481 3.8984 13.2416 4.60714C13.5352 5.31589 13.6863 6.07552 13.6863 6.84266C13.6863 8.39197 13.0708 9.87783 11.9753 10.9734C10.8798 12.0689 9.39393 12.6843 7.84461 12.6843C4.61416 12.6843 2.00293 10.0556 2.00293 6.84266C2.00293 5.29335 2.61839 3.80749 3.71392 2.71197C4.80945 1.61644 6.2953 1.00098 7.84461 1.00098ZM8.1367 3.92182V6.9887L10.7655 8.54843L10.3273 9.26696L7.26045 7.42683V3.92182H8.1367Z" fill="white"/>
</g>
<defs>
<clipPath id="clip0_3481_1174">
<rect width="14.02" height="14.02" fill="white"/>
</clipPath>
</defs>
</svg>
