<svg width="22" height="22" viewBox="0 0 22 22" fill="none" xmlns="http://www.w3.org/2000/svg">
<path d="M10.96 7.24512C11.0609 7.40202 11.1531 7.5349 11.2549 7.64941L12.9619 9.56934C13.0565 9.67575 13.1661 9.77001 13.3037 9.88379L13.6895 10.2031L13.3701 10.5879L5.10156 20.5518C4.07848 21.7846 2.31865 21.8219 1.25488 20.625C0.224663 19.4656 0.251122 17.596 1.31934 16.4736L10.1777 7.16992L10.6162 6.70996L10.96 7.24512ZM7.5 2.49805C9.86869 -0.166077 13.7362 -0.166271 16.1045 2.49805L17.6758 4.26562C18.3138 4.98344 18.5412 5.95369 18.4053 6.85449L18.8721 7.37988L18.8916 7.35938C19.3074 6.89156 20.0089 6.89172 20.4248 7.35938L21.2109 8.24316C21.5961 8.67649 21.5963 9.3577 21.2119 9.79102L18.0684 13.3271C17.6525 13.7946 16.952 13.7946 16.5361 13.3271L15.75 12.4434C15.3646 12.0098 15.3646 11.3281 15.75 10.8945L15.8467 10.7842L15.334 10.208C14.4994 10.3426 13.6278 10.0558 13 9.34961L11.2939 7.43066C10.7905 6.86475 10.5166 6.10776 10.5166 5.33008V4.89062L7.62891 3.2666L7.08789 2.96191L7.5 2.49805Z" stroke="white"/>
</svg>
