<svg width="21" height="21" viewBox="0 0 21 21" fill="none" xmlns="http://www.w3.org/2000/svg">
<path fill-rule="evenodd" clip-rule="evenodd" d="M19.2641 0.293287C19.1712 0.20031 19.0609 0.126551 18.9395 0.0762271C18.8181 0.0259028 18.688 0 18.5566 0C18.4252 0 18.295 0.0259028 18.1736 0.0762271C18.0522 0.126551 17.942 0.20031 17.8491 0.293287L16.9771 1.16529C16.417 0.897895 15.7879 0.810761 15.1763 0.915892C14.5646 1.02102 14.0007 1.31324 13.5621 1.75229L2.95508 12.3583L8.61208 18.0153L19.2201 7.41029C19.659 6.97157 19.951 6.40755 20.0559 5.79594C20.1609 5.18433 20.0736 4.55522 19.8061 3.99529L20.6791 3.12229C20.8666 2.93476 20.9719 2.68045 20.9719 2.41529C20.9719 2.15012 20.8666 1.89581 20.6791 1.70829L19.2641 0.293287ZM14.9961 8.80329L8.61208 15.1873L5.78408 12.3583L12.1671 5.97529L14.9961 8.80329ZM16.8141 6.98529L17.8041 5.99529C17.8971 5.90241 17.9708 5.79212 18.0211 5.67073C18.0715 5.54933 18.0974 5.4192 18.0974 5.28779C18.0974 5.15637 18.0715 5.02624 18.0211 4.90485C17.9708 4.78345 17.8971 4.67316 17.8041 4.58029L16.3911 3.16629C16.2982 3.07331 16.1879 2.99955 16.0665 2.94923C15.9451 2.8989 15.815 2.873 15.6836 2.873C15.5522 2.873 15.422 2.8989 15.3006 2.94923C15.1792 2.99955 15.069 3.07331 14.9761 3.16629L13.9861 4.15629L16.8141 6.98529Z" fill="white"/>
<path d="M0 20.9499L2.122 13.1719L7.778 18.8289L0 20.9499Z" fill="white"/>
</svg>
