<svg width="20" height="20" viewBox="0 0 20 20" fill="none" xmlns="http://www.w3.org/2000/svg">
<path d="M6.25 16.2497C6.25 15.445 6.52378 14.631 7.19243 14.1833C7.99434 13.6464 8.96033 13.333 10 13.333C11.0397 13.333 12.0057 13.6464 12.8076 14.1833C13.4762 14.631 13.75 15.445 13.75 16.2497" stroke="white" stroke-width="1.5" stroke-linecap="round" stroke-linejoin="round"/>
<path d="M9.99984 11.2497C11.1504 11.2497 12.0832 10.3169 12.0832 9.16634C12.0832 8.01575 11.1504 7.08301 9.99984 7.08301C8.84924 7.08301 7.9165 8.01575 7.9165 9.16634C7.9165 10.3169 8.84924 11.2497 9.99984 11.2497Z" stroke="white" stroke-width="1.5" stroke-linecap="round" stroke-linejoin="round"/>
<path d="M14.5835 9.16699C15.5086 9.16699 16.3681 9.48108 17.0813 10.019C17.6859 10.475 17.9168 11.2462 17.9168 12.0035V12.0837" stroke="white" stroke-width="1.5" stroke-linecap="round" stroke-linejoin="round"/>
<path d="M14.5832 7.08333C15.5036 7.08333 16.2498 6.33714 16.2498 5.41667C16.2498 4.49619 15.5036 3.75 14.5832 3.75C13.6627 3.75 12.9165 4.49619 12.9165 5.41667C12.9165 6.33714 13.6627 7.08333 14.5832 7.08333Z" stroke="white" stroke-width="1.5" stroke-linecap="round" stroke-linejoin="round"/>
<path d="M5.41683 9.16699C4.49172 9.16699 3.63221 9.48108 2.91896 10.019C2.31438 10.475 2.0835 11.2462 2.0835 12.0035V12.0837" stroke="white" stroke-width="1.5" stroke-linecap="round" stroke-linejoin="round"/>
<path d="M5.41667 7.08333C6.33714 7.08333 7.08333 6.33714 7.08333 5.41667C7.08333 4.49619 6.33714 3.75 5.41667 3.75C4.49619 3.75 3.75 4.49619 3.75 5.41667C3.75 6.33714 4.49619 7.08333 5.41667 7.08333Z" stroke="white" stroke-width="1.5" stroke-linecap="round" stroke-linejoin="round"/>
</svg>
