<svg width="24" height="33" viewBox="0 0 24 33" fill="none" xmlns="http://www.w3.org/2000/svg">
<path d="M12 16.5004C15.8745 16.5004 19.3545 17.0794 21.75 18.0004C21.75 16.5304 21.333 15.0905 20.5485 13.8486L13.1505 2.1343C13.0279 1.94004 12.8581 1.78 12.6569 1.66908C12.4557 1.55817 12.2297 1.5 12 1.5C11.7703 1.5 11.5443 1.55817 11.3431 1.66908C11.1419 1.78 10.9721 1.94004 10.8495 2.1343L3.4515 13.8486C2.66787 15.0917 2.25138 16.5309 2.25 18.0004C4.6455 17.0794 8.1255 16.5004 12 16.5004Z" stroke="white" stroke-width="3" stroke-linecap="round" stroke-linejoin="round"/>
<path d="M18 17.251C18 17.251 18.75 18.4509 18.75 20.2508C18.75 20.2508 18.75 23.2506 16.5 23.2506C14.25 23.2506 14.25 21.0008 12 21.0008C9.75 21.0008 9.75 23.2506 7.5 23.2506C5.25 23.2506 5.25 20.2508 5.25 20.2508C5.25 18.4509 6 17.251 6 17.251" stroke="white" stroke-width="3" stroke-linecap="round" stroke-linejoin="round"/>
<path d="M21.75 18.001C21.75 18.001 22.5 19.3509 22.5 21.7508C22.5 24.7506 20.607 26.4455 18 27.7504C15.885 28.8078 14.142 30.2402 13.2975 30.9902C12.939 31.3097 12.48 31.5002 12 31.5002C11.52 31.5002 11.061 31.3097 10.7025 30.9902C9.858 30.2402 8.1165 28.8078 6 27.7504C3.393 26.4455 1.5 24.7506 1.5 21.7508C1.5 19.3509 2.25 18.001 2.25 18.001" stroke="white" stroke-width="3" stroke-linecap="round" stroke-linejoin="round"/>
</svg>
