<svg width="124" height="32" viewBox="0 0 124 32" fill="none" xmlns="http://www.w3.org/2000/svg">
<rect width="124" height="32" rx="16" fill="#0E9D69"/>
<path d="M18.5 7.00006C17.7544 6.9962 17.0195 7.17852 16.3622 7.53049C15.7048 7.88245 15.1457 8.39293 14.7355 9.01564C14.3254 9.63834 14.0771 10.3536 14.0133 11.0965C13.9494 11.8394 14.0721 12.5865 14.37 13.2701C13.5 14.1201 13 15.2801 13 16.5001C13 19.0001 15 21.0001 17.5 21.0001C18 21.0001 18.5 20.8901 19 20.7201V25.0001H21V19.7701C21.5 19.9101 22 20.0001 22.5 20.0001C23.2223 20.0001 23.9375 19.8578 24.6048 19.5814C25.272 19.305 25.8784 18.8999 26.3891 18.3891C26.8998 17.8784 27.3049 17.2721 27.5813 16.6048C27.8577 15.9375 28 15.2223 28 14.5001C28 13.7778 27.8577 13.0626 27.5813 12.3953C27.3049 11.728 26.8998 11.1217 26.3891 10.611C25.8784 10.1003 25.272 9.69512 24.6048 9.41872C23.9375 9.14232 23.2223 9.00006 22.5 9.00006H22.24C21.41 7.76006 20 7.00006 18.5 7.00006ZM18.5 9.00006C19.82 9.00006 20.91 10.0301 21 11.3501C21.46 11.1201 22 11.0001 22.5 11.0001C23.4283 11.0001 24.3185 11.3688 24.9749 12.0252C25.6313 12.6816 26 13.5718 26 14.5001C26 15.4283 25.6313 16.3186 24.9749 16.9749C24.3185 17.6313 23.4283 18.0001 22.5 18.0001C21.54 18.0001 20.63 17.6101 19.96 16.9101C19.865 17.4938 19.5653 18.0247 19.1145 18.4077C18.6638 18.7906 18.0915 19.0006 17.5 19.0001C16.837 19.0001 16.2011 18.7367 15.7322 18.2678C15.2634 17.799 15 17.1631 15 16.5001C15 15.1201 15.8 14.5401 17 13.7901C16.2 12.7601 16 12.1601 16 11.5001C16 10.837 16.2634 10.2011 16.7322 9.73229C17.2011 9.26345 17.837 9.00006 18.5 9.00006Z" fill="white"/>
<path d="M45.4391 18.54H50.5491V20.5H42.9191V10.7H45.4391V18.54ZM54.2624 14.69C53.889 14.69 53.7024 14.8767 53.7024 15.25V16.02H56.0824V15.25C56.0824 14.8767 55.8957 14.69 55.5224 14.69H54.2624ZM58.2524 20.36C56.451 20.5467 54.8177 20.64 53.3524 20.64C52.7177 20.64 52.209 20.4487 51.8264 20.066C51.4437 19.6833 51.2524 19.1747 51.2524 18.54V15.18C51.2524 14.48 51.4484 13.934 51.8404 13.542C52.2417 13.1407 52.7924 12.94 53.4924 12.94H56.2924C56.9924 12.94 57.5384 13.1407 57.9304 13.542C58.3317 13.934 58.5324 14.48 58.5324 15.18V17.77H53.7024V18.33C53.7024 18.47 53.749 18.5867 53.8424 18.68C53.9357 18.7733 54.0524 18.82 54.1924 18.82C55.1164 18.82 56.4697 18.75 58.2524 18.61V20.36ZM59.5069 18.54C61.4016 18.68 62.8949 18.75 63.9869 18.75C64.1269 18.75 64.2436 18.7033 64.3369 18.61C64.4302 18.5167 64.4769 18.4 64.4769 18.26V17.77H61.4669C60.8322 17.77 60.3236 17.5787 59.9409 17.196C59.5582 16.8133 59.3669 16.3047 59.3669 15.67V15.18C59.3669 14.5453 59.5582 14.0367 59.9409 13.654C60.3236 13.2713 60.8322 13.08 61.4669 13.08H66.2269V14.9H62.3069C62.1669 14.9 62.0502 14.9467 61.9569 15.04C61.8636 15.1333 61.8169 15.25 61.8169 15.39C61.8169 15.53 61.8636 15.6467 61.9569 15.74C62.0502 15.8333 62.1669 15.88 62.3069 15.88H64.8269C65.4616 15.88 65.9702 16.0713 66.3529 16.454C66.7356 16.8367 66.9269 17.3453 66.9269 17.98V18.54C66.9269 19.1747 66.7356 19.6833 66.3529 20.066C65.9702 20.4487 65.4616 20.64 64.8269 20.64C63.1749 20.64 61.4016 20.5467 59.5069 20.36V18.54ZM62.0269 12.506L62.8669 10.126H65.3869L63.8469 12.506H62.0269ZM72.038 14.97C71.5433 14.97 70.9833 15.0633 70.358 15.25V20.5H67.908V13.08H70.078L70.218 13.78C70.6567 13.4907 71.1047 13.2807 71.562 13.15C72.0287 13.01 72.4207 12.94 72.738 12.94H73.368C74.0027 12.94 74.5113 13.1313 74.894 13.514C75.2767 13.8967 75.468 14.4053 75.468 15.04V20.5H73.018V15.46C73.018 15.32 72.9713 15.2033 72.878 15.11C72.7847 15.0167 72.668 14.97 72.528 14.97H72.038ZM78.6864 23.02C78.1917 23.02 77.585 22.9733 76.8664 22.88V21.06H78.1264C78.481 21.06 78.7097 20.962 78.8124 20.766C78.9244 20.57 78.9057 20.2947 78.7564 19.94L75.8864 13.08H78.4764L80.2264 17.84L81.6964 13.08H84.2864L81.4864 20.78C81.2157 21.5173 80.8657 22.0727 80.4364 22.446C80.007 22.8287 79.4237 23.02 78.6864 23.02ZM89.048 10.7H94.928C95.908 10.7 96.6173 10.924 97.056 11.372C97.504 11.8107 97.728 12.52 97.728 13.5V14.76C97.728 15.5347 97.5973 16.1367 97.336 16.566C97.084 16.9953 96.678 17.28 96.118 17.42L97.868 20.5H95.138L93.528 17.56H91.568V20.5H89.048V10.7ZM95.208 13.5C95.208 12.94 94.928 12.66 94.368 12.66H91.568V15.6H94.368C94.928 15.6 95.208 15.32 95.208 14.76V13.5ZM106.544 18.4C106.544 19.1 106.344 19.6507 105.942 20.052C105.55 20.444 105.004 20.64 104.304 20.64H101.084C100.384 20.64 99.8335 20.444 99.4322 20.052C99.0402 19.6507 98.8442 19.1 98.8442 18.4V15.18C98.8442 14.48 99.0402 13.934 99.4322 13.542C99.8335 13.1407 100.384 12.94 101.084 12.94H104.304C105.004 12.94 105.55 13.1407 105.942 13.542C106.344 13.934 106.544 14.48 106.544 15.18V18.4ZM104.094 15.39C104.094 15.0167 103.908 14.83 103.534 14.83H101.854C101.481 14.83 101.294 15.0167 101.294 15.39V18.19C101.294 18.5633 101.481 18.75 101.854 18.75H103.534C103.908 18.75 104.094 18.5633 104.094 18.19V15.39ZM101.714 12.52L102.554 10.14H105.074L103.534 12.52H101.714ZM113.053 20.5L112.913 19.8C112.474 20.0893 112.021 20.304 111.555 20.444C111.097 20.5747 110.71 20.64 110.393 20.64H109.763C109.128 20.64 108.619 20.4487 108.237 20.066C107.854 19.6833 107.663 19.1747 107.663 18.54V15.32C107.663 14.62 107.859 14.074 108.251 13.682C108.652 13.2807 109.203 13.08 109.903 13.08H112.773V10.7H115.223V20.5H113.053ZM111.093 18.61C111.587 18.61 112.147 18.5167 112.773 18.33V14.97H110.673C110.299 14.97 110.113 15.1567 110.113 15.53V18.12C110.113 18.26 110.159 18.3767 110.253 18.47C110.346 18.5633 110.463 18.61 110.603 18.61H111.093Z" fill="white"/>
</svg>
