<svg width="38" height="38" viewBox="0 0 38 38" fill="none" xmlns="http://www.w3.org/2000/svg">
<circle cx="19" cy="19" r="19" fill="#0E9D69"/>
<path d="M19 32C16.1042 31.2708 13.7133 29.6092 11.8275 27.015C9.94167 24.4208 8.99917 21.5408 9 18.375V10.75L19 7L29 10.75V18.375C29 21.5417 28.0575 24.4221 26.1725 27.0163C24.2875 29.6104 21.8967 31.2717 19 32ZM19 29.375C21.1667 28.6875 22.9583 27.3125 24.375 25.25C25.7917 23.1875 26.5 20.8958 26.5 18.375V12.4688L19 9.65625L11.5 12.4688V18.375C11.5 20.8958 12.2083 23.1875 13.625 25.25C15.0417 27.3125 16.8333 28.6875 19 29.375Z" fill="white"/>
</svg>
