<svg width="20" height="20" viewBox="0 0 20 20" fill="none" xmlns="http://www.w3.org/2000/svg">
<path d="M12.0832 7.50033C12.0832 8.65091 11.1504 9.58366 9.99984 9.58366C8.84925 9.58366 7.9165 8.65091 7.9165 7.50033C7.9165 6.34973 8.84925 5.41699 9.99984 5.41699C11.1504 5.41699 12.0832 6.34973 12.0832 7.50033Z" stroke="white" stroke-width="1.25"/>
<path d="M11.0477 14.5783C10.7666 14.849 10.3909 15.0003 10 15.0003C9.609 15.0003 9.23334 14.849 8.95225 14.5783C6.37842 12.0843 2.92916 9.29824 4.61126 5.25343C5.52075 3.06643 7.70395 1.66699 10 1.66699C12.296 1.66699 14.4792 3.06643 15.3887 5.25343C17.0687 9.29316 13.6278 12.0929 11.0477 14.5783Z" stroke="white" stroke-width="1.25"/>
<path d="M15 16.667C15 17.5875 12.7614 18.3337 10 18.3337C7.23857 18.3337 5 17.5875 5 16.667" stroke="white" stroke-width="1.25" stroke-linecap="round"/>
</svg>
