<svg width="27" height="32" viewBox="0 0 27 32" fill="none" xmlns="http://www.w3.org/2000/svg">
<path d="M2 2H19.4821C20.7467 2 21.9594 2.43283 22.8535 3.20328C23.7477 3.97373 24.25 5.01869 24.25 6.10827V25.2802C24.25 25.6434 24.0826 25.9917 23.7845 26.2485C23.4865 26.5053 23.0822 26.6496 22.6607 26.6496H17.8929" stroke="white" stroke-width="4" stroke-linecap="round" stroke-linejoin="round"/>
<path d="M13.125 15.6942V18.4331M2 2L14.0595 4.07878C15.1402 4.26491 16.1127 4.76789 16.8116 5.50215C17.5105 6.23642 17.8926 7.15663 17.8929 8.10626V27.7178C17.8927 27.9203 17.8404 28.1203 17.7398 28.3033C17.6392 28.4863 17.4927 28.6478 17.3109 28.7762C17.1291 28.9045 16.9165 28.9966 16.6884 29.0456C16.4604 29.0947 16.2226 29.0995 15.9921 29.0598L4.55557 27.0906C3.83474 26.9664 3.18613 26.6308 2.72017 26.141C2.25421 25.6511 1.99971 25.0372 2 24.4038V2Z" stroke="white" stroke-width="4" stroke-linecap="round" stroke-linejoin="round"/>
</svg>
