<svg width="40" height="40" viewBox="0 0 40 40" fill="none" xmlns="http://www.w3.org/2000/svg">
<path d="M19.9997 20.0003C18.533 20.0003 17.333 18.8003 17.333 17.3337C17.333 15.867 18.533 14.667 19.9997 14.667C21.4663 14.667 22.6663 15.867 22.6663 17.3337C22.6663 18.8003 21.4663 20.0003 19.9997 20.0003ZM27.9997 17.6003C27.9997 12.7603 24.4663 9.33366 19.9997 9.33366C15.533 9.33366 11.9997 12.7603 11.9997 17.6003C11.9997 20.7203 14.5997 24.8537 19.9997 29.787C25.3997 24.8537 27.9997 20.7203 27.9997 17.6003ZM19.9997 6.66699C25.5997 6.66699 30.6663 10.9603 30.6663 17.6003C30.6663 22.027 27.1063 27.267 19.9997 33.3337C12.893 27.267 9.33301 22.027 9.33301 17.6003C9.33301 10.9603 14.3997 6.66699 19.9997 6.66699Z" fill="white"/>
</svg>
