<svg width="48" height="48" viewBox="0 0 48 48" fill="none" xmlns="http://www.w3.org/2000/svg">
<path fill-rule="evenodd" clip-rule="evenodd" d="M27.5207 42.4281L37.8548 37.8467C39.2842 37.213 39.4631 35.2377 38.4116 34.0804C35.9804 31.4048 34.6629 27.4929 38.9083 22.2516C39.3938 21.6523 39.5529 20.8407 39.2442 20.1339C37.76 16.7352 33.1671 6.8666 28.8858 4.43059C28.1361 4.00406 27.2863 4.45206 26.7592 5.13467C24.1996 8.44889 19.2983 10.1996 16.7617 10.9186C15.8345 11.1815 15.1483 12.0191 15.0525 12.9781C14.7768 15.7393 13.739 21.6475 9.83962 28.3804C9.83962 28.3804 13.0428 28.4856 18.1112 26.9298C19.8994 26.3808 23.2005 28.5923 23.6238 30.4144C24.8406 35.6524 27.5207 42.4281 27.5207 42.4281Z" fill="#A3A3A3"/>
<path d="M23.6238 30.4144C23.2005 28.5923 19.8994 26.3808 18.1112 26.9298C13.0428 28.4856 9.83962 28.3804 9.83962 28.3804C10.6509 34.7414 12.6098 38.488 13.4972 39.9123C13.7705 40.3509 14.2336 40.6151 14.7456 40.685L27.5207 42.4281C27.5207 42.4281 24.8406 35.6524 23.6238 30.4144Z" fill="#656565"/>
<path d="M27.5207 42.4281C27.5207 42.4281 24.8406 35.6524 23.6238 30.4144C23.2005 28.5923 19.8994 26.3808 18.1112 26.9298C13.0428 28.4856 9.83962 28.3804 9.83962 28.3804M27.5207 42.4281L14.7456 40.685M27.5207 42.4281L37.8548 37.8467M9.83962 28.3804C10.6509 34.7414 12.6098 38.488 13.4972 39.9123M9.83962 28.3804C13.739 21.6475 14.7768 15.7393 15.0525 12.9781M14.7456 40.685C14.2336 40.6151 13.7705 40.3509 13.4972 39.9123M14.7456 40.685C14.2355 40.6154 13.7695 40.3493 13.4972 39.9123M15.0525 12.9781C15.1483 12.0191 15.8345 11.1815 16.7617 10.9186M15.0525 12.9781C15.1481 12.0209 15.8362 11.181 16.7617 10.9186M16.7617 10.9186C19.2983 10.1996 24.1996 8.44889 26.7592 5.13467M26.7592 5.13467C27.2863 4.45206 28.1361 4.00406 28.8858 4.43059M26.7592 5.13467C27.2849 4.45387 28.1381 4.0052 28.8858 4.43059M28.8858 4.43059C33.1671 6.8666 37.76 16.7352 39.2442 20.1339M39.2442 20.1339C39.5529 20.8407 39.3938 21.6523 38.9083 22.2516M39.2442 20.1339C39.5516 20.8377 39.3918 21.6548 38.9083 22.2516M38.9083 22.2516C34.6629 27.4929 35.9804 31.4048 38.4116 34.0804M38.4116 34.0804C39.4631 35.2377 39.2842 37.213 37.8548 37.8467M38.4116 34.0804C39.4631 35.2377 39.2842 37.213 37.8548 37.8467" stroke="black" stroke-width="2"/>
</svg>
