<svg width="48" height="48" viewBox="0 0 48 48" fill="none" xmlns="http://www.w3.org/2000/svg">
<path d="M38.0242 35.3028C40.6712 33.483 44.444 31.0363 42.5668 20.0487C42.5395 19.8886 42.4932 19.7254 42.4165 19.5822C41.6174 18.0916 40.1879 18.3673 39.5241 18.4954L39.5 18.5C36.5732 20.5561 34.4582 35.0264 37.3122 35.4524C37.5657 35.4008 37.8036 35.3508 38.0242 35.3028Z" fill="#DDA46B"/>
<path d="M25.6466 16.6898C26.1972 14.5845 28.2041 11.2013 33.1456 10.1116C34.4278 9.70962 36.1417 10.1733 32.7396 15.2434C29.8137 19.6039 27.3028 19.1134 26.0242 18.0142C25.6469 17.6898 25.5207 17.1712 25.6466 16.6898Z" fill="#52A94D"/>
<path d="M21.9036 18.7742C19.9994 17.908 17.1964 15.5434 17.9112 11.3335C17.9733 10.2412 19.0528 9.01391 22.874 12.8432C26.2921 16.2687 24.6476 18.124 23.0239 18.8028C22.6642 18.9532 22.2585 18.9356 21.9036 18.7742Z" fill="#52A94D"/>
<path d="M10.3009 18.8297C9.44275 18.8356 8.49659 19.4252 7.52416 20.8028C3.29421 26.7952 5.22514 32.9688 7.22621 36.1757C7.66686 36.8818 8.54697 37.1266 9.36261 36.9605C11.4549 36.5344 15.1181 36.1734 19.5242 36.8028C24.802 37.5568 33.159 36.2974 37.3122 35.4524C34.4582 35.0264 36.5732 20.5561 39.5 18.5C34.2518 19.5033 18.6708 19.3629 10.3009 18.8297Z" fill="#875E35"/>
<path d="M38.0242 35.3028C40.6712 33.483 44.444 31.0363 42.5668 20.0487C42.5395 19.8886 42.4932 19.7254 42.4165 19.5822C41.6174 18.0916 40.1879 18.3673 39.5241 18.4954M38.0242 35.3028C37.7559 35.437 37.5192 35.4833 37.3122 35.4524M38.0242 35.3028C37.8036 35.3508 37.5657 35.4008 37.3122 35.4524M39.5 18.5C34.2518 19.5033 18.6708 19.3629 10.3009 18.8297C9.44275 18.8356 8.49659 19.4252 7.52416 20.8028C3.29421 26.7952 5.22514 32.9689 7.22621 36.1757C7.66686 36.8818 8.54697 37.1266 9.36261 36.9605C11.4549 36.5344 15.1181 36.1734 19.5242 36.8028C24.802 37.5568 33.159 36.2974 37.3122 35.4524M39.5 18.5C36.5732 20.5561 34.4582 35.0264 37.3122 35.4524M39.5 18.5L39.5241 18.4954M39.5 18.5C39.5079 18.4985 39.516 18.4969 39.5241 18.4954M6.52416 24.8028C11.0242 25.1361 24.0242 25.6028 26.0242 24.8028M6.52416 33.8028C11.0242 34.1362 13.5242 33.3028 16.0242 33.3028M16.5242 29.8028C20.9088 30.6073 32.6011 30.3358 35.5242 29.2698M21.9036 18.7742C19.9994 17.908 17.1964 15.5434 17.9112 11.3335C17.9733 10.2412 19.0528 9.01391 22.874 12.8432C26.2921 16.2687 24.6476 18.124 23.0239 18.8028C22.6642 18.9532 22.2585 18.9356 21.9036 18.7742ZM25.6466 16.6898C26.1972 14.5845 28.2041 11.2013 33.1456 10.1116C34.4278 9.70962 36.1417 10.1733 32.7396 15.2434C29.8137 19.6039 27.3028 19.1134 26.0242 18.0142C25.6469 17.6898 25.5207 17.1712 25.6466 16.6898Z" stroke="black" stroke-width="2" stroke-linecap="round"/>
</svg>
