<svg width="28" height="28" viewBox="0 0 28 28" fill="none" xmlns="http://www.w3.org/2000/svg">
<rect width="28" height="28" rx="14" fill="#00C6DA"/>
<path d="M14 18.3C12.6053 18.3 11.3914 19.3542 10.7647 20.9094C10.4654 21.6521 10.8949 22.4667 11.4656 22.4667H16.5343C17.1051 22.4667 17.5346 21.6521 17.2353 20.9094C16.6086 19.3542 15.3947 18.3 14 18.3Z" stroke="currentColor" stroke-width="1.5625" stroke-linecap="round"/>
<path d="M19.4167 8.30005H20.4185C21.4192 8.30005 21.9196 8.30005 22.1807 8.61452C22.4417 8.92898 22.3332 9.40099 22.1161 10.345L21.7904 11.7609C21.3007 13.8905 19.5091 15.474 17.3333 15.8" stroke="currentColor" stroke-width="1.5625" stroke-linecap="round" stroke-linejoin="round"/>
<path d="M8.58334 8.30005H7.5815C6.58077 8.30005 6.08041 8.30005 5.81937 8.61452C5.55833 8.92898 5.66687 9.40099 5.88396 10.345L6.20957 11.7609C6.69929 13.8905 8.49094 15.474 10.6667 15.8" stroke="currentColor" stroke-width="1.5625" stroke-linecap="round" stroke-linejoin="round"/>
<path d="M14 18.3C16.5173 18.3 18.6375 14.415 19.2747 9.12579C19.451 7.66303 19.5392 6.93166 19.0723 6.36585C18.6056 5.80005 17.8519 5.80005 16.3445 5.80005H11.6555C10.1481 5.80005 9.39444 5.80005 8.92764 6.36585C8.46084 6.93166 8.54895 7.66303 8.7252 9.12579C9.3625 14.415 11.4827 18.3 14 18.3Z" stroke="currentColor" stroke-width="1.5625" stroke-linecap="round"/>
</svg>
