<svg width="15" height="15" viewBox="0 0 15 15" fill="none" xmlns="http://www.w3.org/2000/svg">
<path d="M5.3125 9.0625H9.68751M7.50001 11.25V6.875" stroke="#D6484A" stroke-width="1.5" stroke-linecap="round"/>
<path d="M4.375 3.75031C3.6121 3.75259 3.18989 3.77084 2.84295 3.91646C2.357 4.12043 1.96125 4.4972 1.73007 4.97599C1.54136 5.36679 1.51049 5.86749 1.44872 6.86887L1.35195 8.43806C1.19837 10.9283 1.12157 12.1734 1.8523 12.9617C2.58303 13.75 3.81408 13.75 6.2762 13.75H8.72382C11.1859 13.75 12.4169 13.75 13.1477 12.9617C13.8784 12.1734 13.8016 10.9283 13.6481 8.43806L13.5513 6.86887C13.4895 5.86749 13.4586 5.36679 13.2699 4.97599C13.0388 4.4972 12.643 4.12043 12.1571 3.91646C11.8101 3.77084 11.3879 3.75259 10.625 3.75031" stroke="#D6484A" stroke-width="1.5" stroke-linecap="round"/>
<path d="M10.625 4.375L10.0714 2.99089C9.83251 2.39372 9.62464 1.71631 9.01039 1.41222C8.68276 1.25 8.28851 1.25 7.50001 1.25C6.71151 1.25 6.31726 1.25 5.9896 1.41222C5.37538 1.71631 5.16751 2.39372 4.92864 2.99089L4.375 4.375" stroke="#D6484A" stroke-width="1.5" stroke-linecap="round" stroke-linejoin="round"/>
<path d="M7.5 3.75H7.50637" stroke="#D6484A" stroke-width="2" stroke-linecap="round" stroke-linejoin="round"/>
</svg>
