<svg width="25" height="25" viewBox="0 0 25 25" fill="none" xmlns="http://www.w3.org/2000/svg">
<path d="M5.68007 16.0666C4.42249 16.8037 1.12521 18.3088 3.13348 20.1922C4.1145 21.1122 5.2071 21.7702 6.58077 21.7702H14.4192C15.7929 21.7702 16.8855 21.1122 17.8665 20.1922C19.8748 18.3088 16.5775 16.8037 15.3199 16.0666C12.3709 14.3381 8.62906 14.3381 5.68007 16.0666Z" stroke="currentColor" stroke-width="1.5" stroke-linecap="round" stroke-linejoin="round"/>
<path d="M14.5 7.77026C14.5 9.9794 12.7091 11.7703 10.5 11.7703C8.29086 11.7703 6.5 9.9794 6.5 7.77026C6.5 5.56112 8.29086 3.77026 10.5 3.77026C12.7091 3.77026 14.5 5.56112 14.5 7.77026Z" stroke="currentColor" stroke-width="1.5"/>
<path d="M20 4.77026V9.77026M22.5 7.27026H17.5" stroke="currentColor" stroke-width="1.5" stroke-linecap="round" stroke-linejoin="round"/>
</svg>
