<svg width="28" height="28" viewBox="0 0 28 28" fill="none" xmlns="http://www.w3.org/2000/svg">
<rect width="28" height="28" rx="14" fill="#D6484A"/>
<path d="M20.6667 11.5C20.004 8.17875 16.9273 5.66663 13.2328 5.66663C9.05458 5.66663 5.66667 8.8793 5.66667 12.8416C5.66667 14.7455 6.44849 16.4753 7.72379 17.759C8.00458 18.0416 8.19204 18.4278 8.11638 18.8252C7.99152 19.475 7.70855 20.0812 7.29421 20.5864C8.38436 20.7874 9.51789 20.6064 10.49 20.0939C10.8337 19.9128 11.0055 19.8222 11.1267 19.8038C11.2116 19.791 11.3222 19.803 11.5 19.8335" stroke="currentColor" stroke-width="1.25" stroke-linecap="round" stroke-linejoin="round"/>
<path d="M13.1667 17.5514C13.1667 19.9728 15.219 21.9361 17.75 21.9361C18.0476 21.9365 18.3443 21.909 18.6367 21.8541C18.8471 21.8145 18.9523 21.7948 19.0258 21.806C19.0992 21.8172 19.2033 21.8726 19.4115 21.9833C20.0003 22.2965 20.687 22.407 21.3474 22.2842C21.0964 21.9755 20.925 21.6051 20.8493 21.208C20.8035 20.9651 20.9171 20.7291 21.0872 20.5564C21.8598 19.7719 22.3333 18.7148 22.3333 17.5514C22.3333 15.13 20.281 13.1666 17.75 13.1666C15.219 13.1666 13.1667 15.13 13.1667 17.5514Z" stroke="currentColor" stroke-width="1.25" stroke-linejoin="round"/>
</svg>
