<svg width="16" height="16" viewBox="0 0 16 16" fill="none" xmlns="http://www.w3.org/2000/svg">
<path fill-rule="evenodd" clip-rule="evenodd" d="M14.6665 8.16669C14.6665 11.7565 11.7564 14.6667 8.1665 14.6667C4.49984 14.3334 1.83317 11.8334 1.6665 8.16669C1.6665 4.57684 4.57665 1.66669 8.1665 1.66669C11.3332 1.83335 14.4998 4.66669 14.6665 8.16669ZM11.0592 8.60494L11.1433 8.10848C11.2608 7.41482 10.363 7.03572 9.94781 7.60367L9.65064 8.01016C9.50159 8.21404 9.25011 8.31619 9.0011 8.274L8.50465 8.1899C7.81098 8.07238 7.43188 8.97016 7.99984 9.38538L8.40632 9.68255C8.61021 9.83161 8.71235 10.0831 8.67017 10.3321L8.58606 10.8285C8.46854 11.5222 9.36632 11.9013 9.78154 11.3334L10.0787 10.9269C10.2278 10.723 10.4792 10.6208 10.7283 10.663L11.2247 10.7471C11.9184 10.8646 12.2975 9.96687 11.7295 9.55165L11.323 9.25448C11.1192 9.10542 11.017 8.85395 11.0592 8.60494Z" fill="#7A28D3"/>
<path d="M11.1433 8.10848L11.0592 8.60494C11.017 8.85395 11.1192 9.10542 11.323 9.25448L11.7295 9.55165C12.2975 9.96687 11.9184 10.8646 11.2247 10.7471L10.7283 10.663C10.4792 10.6208 10.2278 10.723 10.0787 10.9269L9.78154 11.3334C9.36632 11.9013 8.46854 11.5222 8.58606 10.8285L8.67017 10.3321C8.71235 10.0831 8.61021 9.83161 8.40632 9.68255L7.99984 9.38538C7.43188 8.97016 7.81098 8.07238 8.50465 8.1899L9.0011 8.274C9.25011 8.31619 9.50159 8.21404 9.65064 8.01016L9.94781 7.60367C10.363 7.03572 11.2608 7.41482 11.1433 8.10848Z" fill="#473060"/>
<path d="M8.15283 1.99969C11.1593 2.1601 14.1755 4.86669 14.3335 8.18231C14.3251 11.5754 11.576 14.3238 8.18311 14.3327C4.78026 14.018 2.3154 11.7756 2.021 8.4743L1.99951 8.15204C2.0074 4.75757 4.75824 2.00706 8.15283 1.99969ZM11.4722 8.16376C11.6425 7.15607 10.3838 6.59076 9.73877 7.33075L9.6792 7.40692L9.38135 7.81317C9.30688 7.91504 9.18154 7.96598 9.05713 7.94501L8.56006 7.86102C7.51981 7.68506 6.95159 9.03117 7.80322 9.65399L8.20947 9.95184C8.31132 10.0263 8.36227 10.1517 8.34131 10.2761L8.25732 10.7731C8.08134 11.8134 9.42749 12.3817 10.0503 11.53L10.3481 11.1237C10.4226 11.0219 10.5479 10.9709 10.6724 10.9919L11.1694 11.0759C12.2096 11.2517 12.7778 9.90571 11.9263 9.2829L11.52 8.98505L11.4536 8.92059C11.416 8.87219 11.3921 8.81451 11.3853 8.7536L11.3882 8.66083L11.4722 8.16376ZM10.2173 7.80048C10.412 7.53436 10.8184 7.68426 10.8198 7.98993L10.8149 8.05243L10.731 8.5495C10.6678 8.92292 10.8208 9.29957 11.1265 9.52313L11.5327 9.82098C11.8165 10.0285 11.6273 10.477 11.2808 10.4186L10.7837 10.3347L10.644 10.321C10.3649 10.3134 10.0946 10.4226 9.8999 10.6227L9.81006 10.7302L9.51221 11.1364C9.31749 11.4028 8.911 11.2528 8.90967 10.947L8.91455 10.8845L8.99854 10.3874C9.05376 10.0608 8.94359 9.73159 8.71045 9.50458L8.60303 9.41376L8.19678 9.11591L8.14893 9.07489C7.93685 8.85482 8.12367 8.46342 8.44873 8.51825L8.9458 8.60223C9.3192 8.66538 9.69591 8.51245 9.91943 8.20673L10.2173 7.80048Z" stroke="black" stroke-width="0.666667"/>
</svg>
