<svg width="16" height="16" viewBox="0 0 16 16" fill="none" xmlns="http://www.w3.org/2000/svg">
<path d="M4.66683 4.00037C3.85307 4.00281 3.40271 4.02227 3.03265 4.1776C2.51429 4.39517 2.09217 4.79705 1.84557 5.30777C1.64428 5.72462 1.61135 6.2587 1.54547 7.32687L1.44224 9.00067C1.27842 11.6569 1.19651 12.9851 1.97595 13.8259C2.75539 14.6667 4.06851 14.6667 6.69477 14.6667H9.30557C11.9318 14.6667 13.2449 14.6667 14.0244 13.8259C14.8038 12.9851 14.7219 11.6569 14.5581 9.00067L14.4548 7.32687C14.389 6.2587 14.356 5.72462 14.1548 5.30777C13.9082 4.79705 13.486 4.39517 12.9677 4.1776C12.5976 4.02227 12.1472 4.00281 11.3335 4.00037" stroke="currentColor" stroke-width="1.5" stroke-linecap="round"/>
<path d="M11.3334 4.66667L10.7429 3.19029C10.4881 2.55331 10.2663 1.83073 9.61115 1.50637C9.26168 1.33333 8.84115 1.33333 8.00008 1.33333C7.15901 1.33333 6.73848 1.33333 6.38898 1.50637C5.73381 1.83073 5.51209 2.55331 5.2573 3.19029L4.66675 4.66667" stroke="currentColor" stroke-width="1.5" stroke-linecap="round" stroke-linejoin="round"/>
<path d="M10.3334 9.33333C10.3334 10.622 9.28875 11.6667 8.00008 11.6667C6.71141 11.6667 5.66675 10.622 5.66675 9.33333C5.66675 8.04467 6.71141 7 8.00008 7C9.28875 7 10.3334 8.04467 10.3334 9.33333Z" stroke="currentColor" stroke-width="1.5"/>
<path d="M7.99976 4H8.00613" stroke="currentColor" stroke-width="2" stroke-linecap="round" stroke-linejoin="round"/>
</svg>
