<svg width="37" height="58" viewBox="0 0 37 58" fill="none" xmlns="http://www.w3.org/2000/svg">
<path d="M21.9202 31.84C21.9202 32.5333 21.8935 33.2533 21.8402 34C21.8402 34.6933 21.8402 35.4133 21.8402 36.16C19.7069 36.16 17.5202 36.16 15.2802 36.16C13.0402 36.16 10.8269 36.16 8.6402 36.16C8.58686 33.9733 8.53353 31.76 8.4802 29.52C8.42686 27.28 8.37353 25.0933 8.3202 22.96C13.4402 22.5333 17.1202 21.9467 19.3602 21.2C21.6535 20.4 22.8002 19.28 22.8002 17.84C22.8002 16.6133 22.1335 15.6533 20.8002 14.96C19.4669 14.2133 17.6802 13.76 15.4402 13.6C13.2535 13.3867 10.8002 13.52 8.0802 14C5.41353 14.4267 2.7202 15.1733 0.000195324 16.24C0.000195324 14 0.000195324 11.76 0.000195324 9.52001C0.000195324 7.22667 0.000195324 4.96001 0.000195324 2.72001C7.14686 0.906674 13.4402 0.266674 18.8802 0.800007C24.3735 1.33334 28.6402 2.93334 31.6802 5.60001C34.7735 8.21334 36.3202 11.7867 36.3202 16.32C36.3202 19.1467 35.7069 21.5733 34.4802 23.6C33.2535 25.5733 31.5469 27.2267 29.3602 28.56C27.2269 29.8933 24.7469 30.9867 21.9202 31.84ZM15.2802 57.04C13.7335 57.04 12.2935 56.6667 10.9602 55.92C9.6802 55.1733 8.66686 54.16 7.9202 52.88C7.17353 51.6 6.8002 50.2133 6.8002 48.72C6.8002 47.2267 7.17353 45.8667 7.9202 44.64C8.66686 43.36 9.6802 42.3467 10.9602 41.6C12.2935 40.8533 13.7335 40.48 15.2802 40.48C16.8269 40.48 18.2135 40.8533 19.4402 41.6C20.7202 42.3467 21.7335 43.36 22.4802 44.64C23.2802 45.8667 23.6802 47.2267 23.6802 48.72C23.6802 50.2133 23.2802 51.6 22.4802 52.88C21.7335 54.16 20.7202 55.1733 19.4402 55.92C18.2135 56.6667 16.8269 57.04 15.2802 57.04Z" fill="#434642"/>
</svg>
