<svg width="232" height="11" viewBox="0 0 232 11" fill="none" xmlns="http://www.w3.org/2000/svg">
<path opacity="0.5" d="M5.96484 5.7L0.264844 3.4V0.399999L9.26484 4.4V7L0.264844 11V8L5.96484 5.7ZM28.1523 5.7L22.4523 3.4V0.399999L31.4523 4.4V7L22.4523 11V8L28.1523 5.7ZM50.3398 5.7L44.6398 3.4V0.399999L53.6398 4.4V7L44.6398 11V8L50.3398 5.7ZM72.5273 5.7L66.8273 3.4V0.399999L75.8273 4.4V7L66.8273 11V8L72.5273 5.7ZM94.7148 5.7L89.0148 3.4V0.399999L98.0148 4.4V7L89.0148 11V8L94.7148 5.7ZM116.902 5.7L111.202 3.4V0.399999L120.202 4.4V7L111.202 11V8L116.902 5.7ZM139.09 5.7L133.39 3.4V0.399999L142.39 4.4V7L133.39 11V8L139.09 5.7ZM161.277 5.7L155.577 3.4V0.399999L164.577 4.4V7L155.577 11V8L161.277 5.7ZM183.465 5.7L177.765 3.4V0.399999L186.765 4.4V7L177.765 11V8L183.465 5.7ZM205.652 5.7L199.952 3.4V0.399999L208.952 4.4V7L199.952 11V8L205.652 5.7ZM227.84 5.7L222.14 3.4V0.399999L231.14 4.4V7L222.14 11V8L227.84 5.7Z" fill="white"/>
</svg>
