<svg width="28" height="28" viewBox="0 0 28 28" fill="none" xmlns="http://www.w3.org/2000/svg">
<rect width="28" height="28" rx="14" fill="#00C6DA"/>
<path d="M17.8439 17.4039C15.6497 18.6398 14.3977 21.2008 14 21.9167V10.6667C14.3454 10.045 15.335 8.26374 17.0264 7.05309C17.739 6.54308 18.0952 6.28807 18.5477 6.52059C19 6.75311 19 7.26638 19 8.29291V15.6595C19 16.214 19 16.4913 18.8862 16.6861C18.7722 16.8809 18.4628 17.0553 17.8439 17.4039Z" stroke="white" stroke-width="1.25" stroke-linecap="round" stroke-linejoin="round"/>
<path d="M14 10.5046C13.4276 9.90336 11.7681 8.47533 8.9838 7.97465C7.57325 7.721 6.86798 7.59418 6.26732 8.08028C5.66667 8.56638 5.66667 9.35573 5.66667 10.9344V16.6081C5.66667 18.0516 5.66667 18.7733 6.05217 19.2239C6.43767 19.6746 7.28638 19.8272 8.9838 20.1324C10.4969 20.4045 11.6779 20.8381 12.5327 21.2738C13.3737 21.7023 13.7942 21.9167 14 21.9167C14.2058 21.9167 14.6263 21.7023 15.4673 21.2738C16.3222 20.8381 17.5031 20.4045 19.0162 20.1324C20.7137 19.8272 21.5623 19.6746 21.9478 19.2239C22.3333 18.7733 22.3333 18.0516 22.3333 16.6081V10.9344C22.3333 9.35573 22.3333 8.56638 21.7327 8.08028C21.132 7.59418 19.8333 7.97465 19 8.58333" stroke="white" stroke-width="1.25" stroke-linecap="round" stroke-linejoin="round"/>
</svg>
