<svg width="28" height="29" viewBox="0 0 28 29" fill="none" xmlns="http://www.w3.org/2000/svg">
<rect y="0.666626" width="28" height="28" rx="14" fill="#68D472"/>
<path d="M21.3116 20.1334C21.936 20.1334 22.4327 19.7405 22.8786 19.191C23.7915 18.0663 22.2927 17.1674 21.721 16.7273C21.1399 16.2798 20.4911 16.0263 19.8333 15.9668M18.9999 14.3001C20.1505 14.3001 21.0833 13.3673 21.0833 12.2168C21.0833 11.0662 20.1505 10.1334 18.9999 10.1334" stroke="currentColor" stroke-width="1.5625" stroke-linecap="round"/>
<path d="M6.68825 20.1334C6.06383 20.1334 5.56718 19.7405 5.12123 19.191C4.20836 18.0663 5.70718 17.1674 6.27882 16.7273C6.85993 16.2798 7.50877 16.0263 8.16662 15.9668M8.58328 14.3001C7.43269 14.3001 6.49995 13.3673 6.49995 12.2168C6.49995 11.0662 7.43269 10.1334 8.58328 10.1334" stroke="currentColor" stroke-width="1.5625" stroke-linecap="round"/>
<path d="M10.7364 17.726C9.88492 18.2525 7.65239 19.3276 9.01216 20.6729C9.67639 21.33 10.4162 21.8 11.3463 21.8H16.6536C17.5837 21.8 18.3234 21.33 18.9877 20.6729C20.3474 19.3276 18.1149 18.2525 17.2634 17.726C15.2667 16.4914 12.7331 16.4914 10.7364 17.726Z" stroke="currentColor" stroke-width="1.5625" stroke-linecap="round" stroke-linejoin="round"/>
<path d="M16.9166 11.3835C16.9166 12.9943 15.6108 14.3001 13.9999 14.3001C12.3891 14.3001 11.0832 12.9943 11.0832 11.3835C11.0832 9.77263 12.3891 8.4668 13.9999 8.4668C15.6108 8.4668 16.9166 9.77263 16.9166 11.3835Z" stroke="currentColor" stroke-width="1.5625"/>
</svg>
