<svg width="20" height="20" viewBox="0 0 20 20" fill="none" xmlns="http://www.w3.org/2000/svg">
<path d="M15.5988 8.92927C15.4382 9.0816 15.2235 9.16669 15.0001 9.16669C14.7767 9.16669 14.562 9.0816 14.4014 8.92927C12.9306 7.52643 10.9596 5.95928 11.9209 3.68406C12.4405 2.45387 13.6881 1.66669 15.0001 1.66669C16.3121 1.66669 17.5596 2.45387 18.0794 3.68406C19.0394 5.95641 17.0732 7.53126 15.5988 8.92927Z" stroke="currentColor" stroke-width="1.5"/>
<path d="M15 5H15.0075" stroke="currentColor" stroke-width="2" stroke-linecap="round" stroke-linejoin="round"/>
<path d="M4.16669 18.3333C5.5474 18.3333 6.66669 17.214 6.66669 15.8333C6.66669 14.4526 5.5474 13.3333 4.16669 13.3333C2.78598 13.3333 1.66669 14.4526 1.66669 15.8333C1.66669 17.214 2.78598 18.3333 4.16669 18.3333Z" stroke="currentColor" stroke-width="1.5" stroke-linecap="round" stroke-linejoin="round"/>
<path d="M9.16667 5.83331H7.91667C6.30583 5.83331 5 6.9526 5 8.33331C5 9.71406 6.30583 10.8333 7.91667 10.8333H10.4167C12.0275 10.8333 13.3333 11.9526 13.3333 13.3333C13.3333 14.7141 12.0275 15.8333 10.4167 15.8333H9.16667" stroke="currentColor" stroke-width="1.5" stroke-linecap="round" stroke-linejoin="round"/>
</svg>
