<svg width="20" height="20" viewBox="0 0 20 20" fill="none" xmlns="http://www.w3.org/2000/svg">
<path d="M6.25 16.25C6.25 15.4453 6.52378 14.6313 7.19243 14.1836C7.99434 13.6467 8.96033 13.3333 10 13.3333C11.0397 13.3333 12.0057 13.6467 12.8076 14.1836C13.4762 14.6313 13.75 15.4453 13.75 16.25" stroke="currentColor" stroke-width="1.5" stroke-linecap="round" stroke-linejoin="round"/>
<path d="M10 11.25C11.1506 11.25 12.0834 10.3172 12.0834 9.16665C12.0834 8.01605 11.1506 7.08331 10 7.08331C8.84943 7.08331 7.91669 8.01605 7.91669 9.16665C7.91669 10.3172 8.84943 11.25 10 11.25Z" stroke="currentColor" stroke-width="1.5" stroke-linecap="round" stroke-linejoin="round"/>
<path d="M14.5833 9.16669C15.5084 9.16669 16.3679 9.48077 17.0811 10.0187C17.6857 10.4747 17.9166 11.2459 17.9166 12.0032V12.0834" stroke="currentColor" stroke-width="1.5" stroke-linecap="round" stroke-linejoin="round"/>
<path d="M14.5834 7.08333C15.5038 7.08333 16.25 6.33714 16.25 5.41667C16.25 4.49619 15.5038 3.75 14.5834 3.75C13.6629 3.75 12.9167 4.49619 12.9167 5.41667C12.9167 6.33714 13.6629 7.08333 14.5834 7.08333Z" stroke="currentColor" stroke-width="1.5" stroke-linecap="round" stroke-linejoin="round"/>
<path d="M5.41665 9.16669C4.49154 9.16669 3.63203 9.48077 2.91878 10.0187C2.3142 10.4747 2.08331 11.2459 2.08331 12.0032V12.0834" stroke="currentColor" stroke-width="1.5" stroke-linecap="round" stroke-linejoin="round"/>
<path d="M5.41667 7.08333C6.33714 7.08333 7.08333 6.33714 7.08333 5.41667C7.08333 4.49619 6.33714 3.75 5.41667 3.75C4.49619 3.75 3.75 4.49619 3.75 5.41667C3.75 6.33714 4.49619 7.08333 5.41667 7.08333Z" stroke="currentColor" stroke-width="1.5" stroke-linecap="round" stroke-linejoin="round"/>
</svg>
