<svg width="23" height="32" viewBox="0 0 23 32" fill="none" xmlns="http://www.w3.org/2000/svg">
<path d="M11.5 16.0004C15.3745 16.0004 18.8545 16.5794 21.25 17.5004C21.25 16.0304 20.833 14.5905 20.0485 13.3486L12.6505 1.6343C12.5279 1.44004 12.3581 1.28 12.1569 1.16908C11.9557 1.05817 11.7297 1 11.5 1C11.2703 1 11.0443 1.05817 10.8431 1.16908C10.6419 1.28 10.4721 1.44004 10.3495 1.6343L2.9515 13.3486C2.16787 14.5917 1.75138 16.0309 1.75 17.5004C4.1455 16.5794 7.6255 16.0004 11.5 16.0004Z" stroke="white" stroke-width="2" stroke-linecap="round" stroke-linejoin="round"/>
<path d="M17.5 16.751C17.5 16.751 18.25 17.9509 18.25 19.7508C18.25 19.7508 18.25 22.7506 16 22.7506C13.75 22.7506 13.75 20.5008 11.5 20.5008C9.25 20.5008 9.25 22.7506 7 22.7506C4.75 22.7506 4.75 19.7508 4.75 19.7508C4.75 17.9509 5.5 16.751 5.5 16.751" stroke="white" stroke-width="2" stroke-linecap="round" stroke-linejoin="round"/>
<path d="M21.25 17.501C21.25 17.501 22 18.8509 22 21.2508C22 24.2506 20.107 25.9455 17.5 27.2504C15.385 28.3078 13.642 29.7402 12.7975 30.4902C12.439 30.8097 11.98 31.0002 11.5 31.0002C11.02 31.0002 10.561 30.8097 10.2025 30.4902C9.358 29.7402 7.6165 28.3078 5.5 27.2504C2.893 25.9455 1 24.2506 1 21.2508C1 18.8509 1.75 17.501 1.75 17.501" stroke="white" stroke-width="2" stroke-linecap="round" stroke-linejoin="round"/>
</svg>
