<svg width="20" height="20" viewBox="0 0 20 20" fill="none" xmlns="http://www.w3.org/2000/svg">
<path d="M12.0834 7.50002C12.0834 8.6506 11.1506 9.58335 10 9.58335C8.84944 9.58335 7.91669 8.6506 7.91669 7.50002C7.91669 6.34943 8.84944 5.41669 10 5.41669C11.1506 5.41669 12.0834 6.34943 12.0834 7.50002Z" stroke="currentColor" stroke-width="1.25"/>
<path d="M11.0479 14.578C10.7668 14.8487 10.3911 15 10.0002 15C9.60919 15 9.23352 14.8487 8.95244 14.578C6.3786 12.084 2.92935 9.29794 4.61145 5.25313C5.52094 3.06612 7.70414 1.66669 10.0002 1.66669C12.2962 1.66669 14.4794 3.06613 15.3889 5.25313C17.0689 9.29285 13.628 12.0926 11.0479 14.578Z" stroke="currentColor" stroke-width="1.25"/>
<path d="M15 16.6667C15 17.5872 12.7614 18.3334 10 18.3334C7.23857 18.3334 5 17.5872 5 16.6667" stroke="currentColor" stroke-width="1.25" stroke-linecap="round"/>
</svg>
