<svg width="28" height="29" viewBox="0 0 28 29" fill="none" xmlns="http://www.w3.org/2000/svg">
<rect y="0.5" width="28" height="28" rx="14" fill="#D6484A"/>
<path d="M21.9533 13.6042C22.2067 13.9594 22.3333 14.1371 22.3333 14.4C22.3333 14.6629 22.2067 14.8406 21.9533 15.1958C20.8149 16.7922 17.9077 20.2333 14 20.2333C10.0923 20.2333 7.18509 16.7922 6.04671 15.1958C5.79335 14.8406 5.66667 14.6629 5.66667 14.4C5.66667 14.1371 5.79335 13.9594 6.04671 13.6042C7.18509 12.0079 10.0923 8.56665 14 8.56665C17.9077 8.56665 20.8149 12.0079 21.9533 13.6042Z" stroke="white" stroke-width="1.5625"/>
<path d="M16.5 14.4C16.5 13.0193 15.3807 11.9 14 11.9C12.6192 11.9 11.5 13.0193 11.5 14.4C11.5 15.7808 12.6192 16.9 14 16.9C15.3807 16.9 16.5 15.7808 16.5 14.4Z" stroke="white" stroke-width="1.5625"/>
</svg>
