<svg width="30" height="30" viewBox="0 0 30 30" fill="none" xmlns="http://www.w3.org/2000/svg">
<g clip-path="url(#clip0_2431_2056)">
<path d="M15 8.125C16.725 8.125 18.125 9.525 18.125 11.25C18.125 12.175 17.7125 12.9875 17.0875 13.5625L21.625 18.1C22.85 15.775 23.75 13.35 23.75 11.25C23.75 6.4125 19.8375 2.5 15 2.5C12.525 2.5 10.3 3.5375 8.7 5.1875L12.6875 9.175C13.2625 8.525 14.075 8.125 15 8.125ZM20.4625 20.125L14.675 14.3375L14.5375 14.2L4.0875 3.75L2.5 5.3375L6.475 9.3125C6.3375 9.9375 6.25 10.5875 6.25 11.25C6.25 17.8125 15 27.5 15 27.5C15 27.5 17.0875 25.1875 19.225 22.0625L23.4125 26.25L25 24.6625L20.4625 20.125Z" fill="black"/>
</g>
<defs>
<clipPath id="clip0_2431_2056">
<rect width="30" height="30" fill="white"/>
</clipPath>
</defs>
</svg>
