<svg width="40" height="40" viewBox="0 0 40 40" fill="none" xmlns="http://www.w3.org/2000/svg">
<path d="M20 27.5V24.1667" stroke="white" stroke-opacity="0.5" stroke-width="1.5" stroke-linecap="round"/>
<path d="M7.11304 31.4078C7.48784 34.1917 9.79357 36.3725 12.5995 36.5015C14.9605 36.61 17.3589 36.6667 20 36.6667C22.6412 36.6667 25.0395 36.61 27.4005 36.5015C30.2065 36.3725 32.5122 34.1917 32.887 31.4078C33.1317 29.5912 33.3334 27.7293 33.3334 25.8333C33.3334 23.9373 33.1317 22.0755 32.887 20.2588C32.5122 17.475 30.2065 15.2941 27.4005 15.1651C25.0395 15.0566 22.6412 15 20 15C17.3589 15 14.9605 15.0566 12.5995 15.1651C9.79357 15.2941 7.48784 17.475 7.11304 20.2588C6.86844 22.0755 6.66669 23.9373 6.66669 25.8333C6.66669 27.7293 6.86844 29.5912 7.11304 31.4078Z" stroke="white" stroke-opacity="0.5" stroke-width="1.5"/>
<path d="M12.5 15V10.8333C12.5 6.69118 15.8579 3.33331 20 3.33331C23.2655 3.33331 25.8333 5.83331 26.6667 8.33331" stroke="white" stroke-opacity="0.5" stroke-width="1.5" stroke-linecap="round" stroke-linejoin="round"/>
</svg>
