<svg width="16" height="16" viewBox="0 0 16 16" fill="none" xmlns="http://www.w3.org/2000/svg">
<path d="M1.6665 5.45793C1.73588 4.05811 1.94342 3.18536 2.56426 2.56451C3.18512 1.94366 4.05787 1.73612 5.45768 1.66675M14.3332 5.45793C14.2638 4.05811 14.0562 3.18536 13.4354 2.56451C12.8146 1.94366 11.9418 1.73612 10.542 1.66675M10.542 14.3334C11.9418 14.264 12.8146 14.0565 13.4354 13.4357C14.0562 12.8148 14.2638 11.942 14.3332 10.5422M5.45768 14.3334C4.05787 14.264 3.18512 14.0565 2.56426 13.4357C1.94342 12.8148 1.73588 11.942 1.6665 10.5422" stroke="#D6484A" stroke-width="1.5" stroke-linecap="round" stroke-linejoin="round"/>
<path d="M6.33333 7.03633C6.33333 6.4752 6.2452 5.60891 6.58401 5.10379C7.33233 3.98811 8.92 4.13632 9.48 5.22531C9.75486 5.75979 9.65126 6.50703 9.664 7.03633M6.33333 7.03633C5.46844 7.03633 5.29228 7.53147 5.16001 7.9198C5.03791 8.35667 4.91361 9.3998 5.10401 10.5428C5.24646 11.2709 5.80319 11.5912 6.28198 11.6318C6.73986 11.6706 8.67313 11.6558 9.2328 11.6558C10.1001 11.6558 10.6416 11.4651 10.896 10.5913C11.0181 9.91173 11.0515 8.69647 10.848 7.9198C10.5784 7.14307 10.0349 7.03633 9.664 7.03633M6.33333 7.03633C7.24906 7 9.14046 7.0072 9.664 7.03633" stroke="#D6484A" stroke-width="1.5" stroke-linecap="round"/>
</svg>
