<svg width="25" height="26" viewBox="0 0 25 26" fill="none" xmlns="http://www.w3.org/2000/svg">
<path d="M12.5 16.125L15.625 13M15.625 13L12.5 9.87496M15.625 13H4.16667M9.375 8.05057V8.00016C9.375 6.83339 9.375 6.24956 9.60207 5.80391C9.80181 5.41191 10.1203 5.09343 10.5123 4.8937C10.9579 4.66663 11.5418 4.66663 12.7085 4.66663H17.5002C18.667 4.66663 19.2496 4.66663 19.6952 4.8937C20.0872 5.09343 20.4068 5.41191 20.6065 5.80391C20.8333 6.24913 20.8333 6.83224 20.8333 7.99674V18.0037C20.8333 19.1682 20.8333 19.7505 20.6065 20.1957C20.4068 20.5877 20.0872 20.9067 19.6952 21.1064C19.25 21.3333 18.6677 21.3333 17.5032 21.3333H12.7051C11.5406 21.3333 10.9575 21.3333 10.5123 21.1064C10.1203 20.9067 9.80181 20.5874 9.60207 20.1954C9.375 19.7497 9.375 19.1667 9.375 18V17.9479" stroke="currentColor" stroke-width="2" stroke-linecap="round" stroke-linejoin="round"/>
</svg>
