<svg width="100" height="63" viewBox="0 0 100 63" fill="none" xmlns="http://www.w3.org/2000/svg">
<path d="M58.9604 31.1487C61.5812 30.827 67.7947 30.6355 66.6786 28.1826C66.6567 27.9217 66.1374 27.5441 64.2358 28.1214C63.8605 28.2353 67.1053 26.9412 66.6515 25.6987C66.5208 25.3408 65.7857 24.8298 63.8878 25.4035C64.7851 25.0093 66.4321 24.0712 65.9648 23.0156C65.2939 21.5004 62.4045 22.3845 60.943 23.0156L56.3315 24.5542L58.9604 31.1487Z" fill="#FDDFBD" stroke="currentColor" stroke-width="0.974322" stroke-linecap="round"/>
<path d="M55.937 24.4781C57.2026 24.5293 59.4967 31.6128 58.7675 32.0259L51.0081 35.0803L49.0527 26.1127L55.937 24.4781Z" fill="#B4D9E9" stroke="currentColor" stroke-width="0.974322" stroke-linecap="round"/>
<path d="M96.3805 27.335C90.2136 31.0375 86.7753 46.112 85.9881 52.9973C77.1951 47.5135 59.6571 36.7547 58.7433 36.8948C58.7329 36.8999 58.7225 36.905 58.7121 36.9101C53.1579 39.6455 45.536 42.9269 45.8091 42.4366C51.6229 16.945 81.9458 21.7474 96.3805 27.335Z" fill="#C7253A"/>
<path d="M64.3489 33.5815C64.3048 34.0065 61.8354 35.372 58.7121 36.9101M58.7121 36.9101C53.1579 39.6455 45.536 42.9269 45.8091 42.4366C51.6229 16.945 81.9458 21.7474 96.3805 27.335C90.2136 31.0375 86.7753 46.112 85.9881 52.9973C77.0534 47.4251 59.0896 36.4066 58.7121 36.9101Z" stroke="currentColor" stroke-width="0.974322" stroke-linecap="round"/>
<path d="M58.6172 24.0639C58.4613 26.0126 59.7864 27.1817 60.9556 26.4023C60.9556 26.4023 61.6376 26.11 61.6376 24.8434C61.6376 23.613 61.5402 23.2845 61.5402 23.2845C61.4302 22.4438 58.8043 21.7255 58.6172 24.0639Z" fill="#FDDFBD" stroke="currentColor" stroke-width="0.779458"/>
<path d="M38.4698 36.9043L42.2697 46.1604C41.0031 48.0116 34.0854 51.1294 34.2802 50.9345L31.3573 46.0629C36.112 42.8671 38.0801 38.6256 38.4698 36.9043Z" fill="#385A80" stroke="currentColor" stroke-width="0.974322" stroke-linecap="round"/>
<path d="M42.8543 45.9655C42.8543 45.8681 36.9109 50.4279 33.4033 51.1294C33.277 51.1547 34.3387 53.1365 35.352 54.1498C34.5076 55.384 35.1766 57.6184 44.608 56.6831C47.9857 56.4557 53.7667 54.4032 49.8694 48.0116C49.8694 47.9142 48.7002 49.0639 47.1413 49.3757C47.0114 48.6936 46.2644 47.466 44.3157 48.0116L42.8543 45.9655Z" fill="#51323B"/>
<path d="M35.352 54.1498C34.3387 53.1365 33.277 51.1547 33.4033 51.1294C36.9109 50.4279 42.8543 45.8681 42.8543 45.9655L44.3157 48.0116M35.352 54.1498C37.4552 53.5328 41.7907 52.0843 42.3067 51.2269M35.352 54.1498C34.5076 55.384 35.1766 57.6184 44.608 56.6831C47.9857 56.4557 53.7667 54.4032 49.8694 48.0116C49.8694 47.9142 48.7002 49.0639 47.1413 49.3757C47.0114 48.6936 46.2644 47.466 44.3157 48.0116M44.3157 48.0116C43.6829 48.6191 42.6042 49.9369 42.3067 51.2269M42.2697 52.2986C42.2009 51.9548 42.2225 51.5919 42.3067 51.2269" stroke="currentColor" stroke-width="0.974322" stroke-linecap="round"/>
<path d="M47.1413 49.3756C46.5177 49.6095 45.5824 52.0063 45.1927 53.1755C44.5106 53.4353 42.8463 53.6826 42.2697 52.2986C41.7825 51.1294 43.926 48.2064 44.4132 47.9141C45.1927 47.7517 46.8295 47.8167 47.1413 49.3756Z" fill="#F9E083" stroke="currentColor" stroke-width="0.974322" stroke-linecap="round"/>
<path d="M32.0393 40.9965L35.8392 50.2525C34.5726 52.1037 27.6549 55.2216 27.8497 55.0267L24.9268 50.1551C29.6815 46.9593 31.6496 42.7178 32.0393 40.9965Z" fill="#385A80" stroke="currentColor" stroke-width="0.974322" stroke-linecap="round"/>
<path d="M36.4238 50.0577C36.4238 49.9603 30.4804 54.5201 26.9728 55.2216C26.8465 55.2469 27.9082 57.2287 28.9215 58.242C28.0771 59.4761 28.7461 61.7106 38.1775 60.7752C41.5552 60.5479 47.3362 58.4953 43.4389 52.1038C43.4389 52.0063 42.2697 53.156 40.7108 53.4678C40.5809 52.7858 39.8339 51.5581 37.8852 52.1038L36.4238 50.0577Z" fill="#51323B"/>
<path d="M28.9215 58.242C27.9082 57.2287 26.8465 55.2469 26.9728 55.2216C30.4804 54.5201 36.4238 49.9603 36.4238 50.0577L37.8852 52.1038M28.9215 58.242C31.0247 57.6249 35.3602 56.1764 35.8762 55.319M28.9215 58.242C28.0771 59.4761 28.7461 61.7106 38.1775 60.7752C41.5552 60.5479 47.3362 58.4953 43.4389 52.1038C43.4389 52.0063 42.2697 53.156 40.7108 53.4678C40.5809 52.7858 39.8339 51.5581 37.8852 52.1038M37.8852 52.1038C37.2524 52.7113 36.1737 54.0291 35.8762 55.319M35.8392 56.3908C35.7704 56.0469 35.792 55.6841 35.8762 55.319" stroke="currentColor" stroke-width="0.974322" stroke-linecap="round"/>
<path d="M40.7108 53.4678C40.0872 53.7016 39.1518 56.0985 38.7621 57.2676C38.0801 57.5275 36.4158 57.7747 35.8391 56.3907C35.352 55.2216 37.4955 52.2986 37.9827 52.0063C38.7621 51.8439 40.399 51.9089 40.7108 53.4678Z" fill="#F9E083" stroke="currentColor" stroke-width="0.974322" stroke-linecap="round"/>
<path d="M57.6682 36.6501C60.2645 37.1316 66.2479 38.8177 65.9212 36.1427C65.9787 35.8873 65.597 35.371 63.6099 35.3497C63.2177 35.3454 66.7015 35.0871 66.6424 33.7656C66.6253 33.385 66.078 32.6766 64.0954 32.6529C65.0697 32.5468 66.9226 32.1475 66.7944 31.0003C66.6103 29.3534 63.5565 29.5361 62.0526 29.8333C61.9869 29.9052 63.0007 27.6637 62.4861 27.1932C62.2704 26.996 61.9581 26.1824 57.1444 29.5703L57.6682 36.6501Z" fill="#FDDFBD" stroke="currentColor" stroke-width="0.974322" stroke-linecap="round"/>
<path d="M56.791 29.3792C57.9826 29.8086 58.0401 37.2541 57.2203 37.4287L48.9016 38.0081L49.7338 28.8676L56.791 29.3792Z" fill="#B4D9E9" stroke="currentColor" stroke-width="0.974322" stroke-linecap="round"/>
<path d="M7.09665 19.0742C3.51115 15.5666 4.88819 13.6505 6.0249 13.1308C7.68125 12.4488 10.6822 12.2734 9.43502 17.0281L7.09665 19.0742Z" fill="#FDDFBD" stroke="currentColor" stroke-width="0.974322" stroke-linecap="round"/>
<path d="M40.7108 16.3461C42.2372 18.0999 45.4265 21.6074 45.9721 21.6074C46.6541 21.6074 54.8384 27.0636 53.9616 32.7147C53.26 37.2355 52.5975 36.7094 51.136 39.0478C50.9073 38.2093 50.1917 36.2157 49.8694 35.3454L49.6745 34.8582C49.6745 34.8582 50.7463 42.3605 43.3414 45.2835C43.5688 43.5946 43.8871 39.9831 43.3414 39.0478C42.5295 42.2631 38.8206 49.0054 30.4804 50.2525C25.4137 51.0101 20.6139 49.03 17.6193 45.9655C14.4522 42.7243 13.2349 38.3658 13.2349 38.3658C12.9426 39.5349 12.7672 44.7378 13.2349 45.2835C11.5699 44.887 7.55213 43.1293 5.92745 39.9247C4.2246 36.5658 4.95313 31.7518 4.95313 31.2532C4.33606 32.1626 3.16038 34.6633 3.39421 37.3914C1.44557 36.1898 0.515945 30.819 1.2507 26.5765C2.22733 20.9374 9.0711 18.9762 10.338 15.0795C10.3457 15.0558 10.3533 15.0322 10.3607 15.0086C10.5652 14.1811 8.75299 13.2147 8.75299 12.7411L8.94785 9.23352C9.24015 5.14137 35.8391 1.63381 36.2289 5.72596C36.5535 9.13483 38.9245 14.2026 40.7108 16.3461Z" fill="#D9D9D9"/>
<path d="M49.6745 34.8582C49.6745 34.8582 50.7463 42.3605 43.3414 45.2834C43.5688 43.5946 43.8871 39.9831 43.3414 39.0478C42.5295 42.263 38.8206 49.0054 30.4804 50.2525C25.4137 51.0101 20.6139 49.03 17.6193 45.9655C14.4522 42.7243 13.2349 38.3658 13.2349 38.3658C12.9426 39.5349 12.7672 44.7378 13.2349 45.2834C11.5699 44.887 7.55213 43.1293 5.92745 39.9247C4.2246 36.5658 4.95313 31.7518 4.95313 31.2532C4.33606 32.1626 3.16038 34.6633 3.39421 37.3914C1.44557 36.1898 0.515945 30.819 1.2507 26.5765C2.22733 20.9374 9.0711 18.9762 10.338 15.0795M49.6745 34.8582C49.6745 34.8582 49.9192 35.1505 49.8694 35.3454M49.6745 34.8582L49.8694 35.3454M10.5068 12.4488C10.6908 13.0499 10.6761 13.7345 10.5068 14.4735C10.4614 14.6718 10.4048 14.8739 10.338 15.0795M10.338 15.0795C10.6707 14.237 8.75299 13.2282 8.75299 12.7411L8.94785 9.23352C9.24015 5.14137 35.8391 1.63381 36.2289 5.72596C36.5535 9.13483 38.9245 14.2026 40.7108 16.3461C42.2372 18.0999 45.4265 21.6074 45.9721 21.6074C46.6541 21.6074 54.8384 27.0636 53.9616 32.7147C53.26 37.2355 52.5975 36.7094 51.136 39.0478C50.9073 38.2093 50.1917 36.2157 49.8694 35.3454" stroke="currentColor" stroke-width="0.974322" stroke-linecap="round"/>
<path d="M31.8445 33.7865C15.5538 34.9557 13.2986 15.4343 14.1755 6.21074C12.3828 6.21074 9.92098 7.83461 8.91418 8.64655C12.5841 4.06723 22.6521 -3.24019 33.5645 4.16466C40.3523 14.525 48.1352 32.6173 31.8445 33.7865Z" fill="#FDDFBD" stroke="currentColor" stroke-width="0.974322" stroke-linecap="round"/>
<path d="M28.824 23.2638C27.3625 21.8023 26.2583 19.269 26.1933 18.0999C22.7507 20.1784 14.6573 23.8094 10.9939 21.3151C6.41457 18.1973 17.4244 32.6173 28.824 23.2638Z" fill="#D9D9D9" stroke="currentColor" stroke-width="0.974322" stroke-linecap="round"/>
<path d="M37.2032 18.4896C37.8991 20.9254 35.2545 24.1745 35.7417 24.3356C44.9393 27.3754 51.7206 20.3408 49.8694 20.0485C42.5619 23.2638 36.2288 15.0795 37.2032 18.4896Z" fill="#D9D9D9" stroke="currentColor" stroke-width="0.974322" stroke-linecap="round"/>
<circle cx="35.352" cy="12.8385" r="6.3331" fill="white" stroke="currentColor" stroke-width="0.974322"/>
<circle cx="38.3724" cy="12.936" r="1.55892" fill="black"/>
<path d="M35.352 24.2381C31.6423 28.0942 27.395 22.5168 25.9011 18.587C27.0353 17.4852 29.2433 15.051 29.0204 14.1112C29.0197 14.1092 29.0192 14.1072 29.0189 14.1052C29.0194 14.1072 29.0199 14.1092 29.0204 14.1112C29.209 14.7024 42.7316 16.5672 35.352 24.2381Z" fill="#EA8283" stroke="currentColor" stroke-width="0.974322" stroke-linecap="round"/>
<circle cx="22.8807" cy="12.8385" r="6.3331" fill="white" stroke="currentColor" stroke-width="0.974322"/>
<circle cx="26.0959" cy="12.936" r="1.55892" fill="black"/>
<path d="M21.0121 6.38245C20.7195 7.74652 24.416 10.9877 28.3195 9.59772C31.2866 8.54117 20.9669 4.58567 21.0121 6.38245Z" fill="#DDD3D2" stroke="currentColor" stroke-width="0.974322" stroke-linecap="round"/>
<path d="M37.6082 6.38245C37.9008 7.74652 34.2043 10.9877 30.3008 9.59772C27.3337 8.54117 37.6534 4.58567 37.6082 6.38245Z" fill="#DDD3D2" stroke="currentColor" stroke-width="0.974322" stroke-linecap="round"/>
<path d="M26.0959 29.1008C28.3044 27.5743 33.5203 25.4958 36.716 29.3931" stroke="currentColor" stroke-width="0.974322" stroke-linecap="round"/>
</svg>
