<svg width="28" height="28" viewBox="0 0 28 28" fill="none" xmlns="http://www.w3.org/2000/svg">
<rect width="28" height="28" rx="14" fill="#68D472"/>
<path d="M16.9167 14C16.9167 15.6109 15.6108 16.9167 14 16.9167C12.3892 16.9167 11.0833 15.6109 11.0833 14C11.0833 12.3892 12.3892 11.0834 14 11.0834C15.6108 11.0834 16.9167 12.3892 16.9167 14Z" stroke="currentColor" stroke-width="1.25"/>
<path d="M21.5092 15.7471C21.9441 15.6298 22.1616 15.5712 22.2474 15.459C22.3333 15.3469 22.3333 15.1665 22.3333 14.8058V13.1943C22.3333 12.8336 22.3333 12.6532 22.2474 12.5411C22.1615 12.4289 21.9441 12.3703 21.5092 12.253C19.8838 11.8147 18.8666 10.1154 19.2861 8.50074C19.4014 8.05667 19.4591 7.83465 19.404 7.70442C19.3489 7.5742 19.1909 7.48446 18.8748 7.30498L17.4375 6.48896C17.1273 6.31284 16.9723 6.22478 16.8331 6.24353C16.6938 6.26228 16.5368 6.41896 16.2227 6.73229C15.0067 7.94541 12.9947 7.94536 11.7786 6.73221C11.4645 6.41887 11.3075 6.26221 11.1683 6.24345C11.0291 6.2247 10.874 6.31276 10.5638 6.48887L9.12653 7.30491C8.81044 7.48437 8.65239 7.57411 8.59732 7.70431C8.54223 7.83451 8.59989 8.05657 8.71521 8.50068C9.13448 10.1154 8.11643 11.8147 6.49085 12.253C6.05593 12.3703 5.83848 12.4289 5.75257 12.541C5.66667 12.6532 5.66667 12.8336 5.66667 13.1943V14.8058C5.66667 15.1665 5.66667 15.3469 5.75257 15.459C5.83846 15.5712 6.05593 15.6298 6.49085 15.7471C8.11617 16.1854 9.1334 17.8847 8.71393 19.4993C8.59858 19.9434 8.54089 20.1654 8.59597 20.2957C8.65105 20.4259 8.8091 20.5157 9.12521 20.6951L10.5625 21.5112C10.8727 21.6873 11.0278 21.7753 11.167 21.7566C11.3062 21.7378 11.4632 21.5811 11.7773 21.2678C12.9939 20.0537 15.0073 20.0536 16.2241 21.2677C16.5381 21.5811 16.6951 21.7378 16.8343 21.7565C16.9735 21.7753 17.1287 21.6872 17.4388 21.5111L18.8761 20.695C19.1923 20.5156 19.3503 20.4258 19.4053 20.2956C19.4604 20.1653 19.4028 19.9433 19.2873 19.4993C18.8677 17.8847 19.8841 16.1855 21.5092 15.7471Z" stroke="currentColor" stroke-width="1.25" stroke-linecap="round"/>
</svg>
