<svg width="25" height="25" viewBox="0 0 25 25" color="currentColor" fill="none" xmlns="http://www.w3.org/2000/svg">
<path d="M21.6394 18.75C22.4199 18.75 23.0408 18.2589 23.5982 17.572C24.7393 16.166 22.8658 15.0425 22.1512 14.4923C21.4248 13.9329 20.6138 13.616 19.7915 13.5417M18.7498 11.4583C20.188 11.4583 21.354 10.2924 21.354 8.85417C21.354 7.41593 20.188 6.25 18.7498 6.25" stroke="currentColor" stroke-width="1.5625" stroke-linecap="round"/>
<path d="M3.36022 18.75C2.57968 18.75 1.95887 18.2589 1.40144 17.572C0.260349 16.166 2.13387 15.0425 2.84842 14.4923C3.57481 13.9329 4.38586 13.616 5.20817 13.5417M5.72901 11.4583C4.29077 11.4583 3.12484 10.2924 3.12484 8.85417C3.12484 7.41593 4.29077 6.25 5.72901 6.25" stroke="currentColor" stroke-width="1.5625" stroke-linecap="round"/>
<path d="M8.42047 15.7408C7.35611 16.3989 4.56544 17.7428 6.26515 19.4244C7.09544 20.2458 8.02017 20.8333 9.18278 20.8333H15.8169C16.9795 20.8333 17.9042 20.2458 18.7346 19.4244C20.4342 17.7428 17.6436 16.3989 16.5792 15.7408C14.0833 14.1975 10.9163 14.1975 8.42047 15.7408Z" stroke="currentColor" stroke-width="1.5625" stroke-linecap="round" stroke-linejoin="round"/>
<path d="M16.1457 7.81252C16.1457 9.82606 14.5134 11.4584 12.4999 11.4584C10.4863 11.4584 8.854 9.82606 8.854 7.81252C8.854 5.79898 10.4863 4.16669 12.4999 4.16669C14.5134 4.16669 16.1457 5.79898 16.1457 7.81252Z" stroke="currentColor" stroke-width="1.5625"/>
</svg>
