<svg width="26" height="26" viewBox="0 0 26 26" color="currentColor" fill="none" xmlns="http://www.w3.org/2000/svg">
<path d="M15.9375 10.3959H15.9465" stroke="currentColor" stroke-width="2.08333" stroke-linecap="round" stroke-linejoin="round"/>
<path d="M15.9376 6.75C17.9106 6.75 19.5834 8.43041 19.5834 10.4691C19.5834 12.5402 17.8834 13.9936 16.3131 14.982C16.1986 15.0484 16.0692 15.0833 15.9376 15.0833C15.8059 15.0833 15.6765 15.0484 15.5621 14.982C13.9947 13.984 12.2917 12.5474 12.2917 10.4691C12.2917 8.43041 13.9646 6.75 15.9376 6.75Z" stroke="currentColor" stroke-width="1.5625"/>
<path d="M3.4375 13C3.4375 8.33502 3.4375 6.00255 4.88671 4.55333C6.33593 3.10413 8.6684 3.10413 13.3333 3.10413C17.9982 3.10413 20.3307 3.10413 21.78 4.55333C23.2292 6.00255 23.2292 8.33502 23.2292 13C23.2292 17.6649 23.2292 19.9974 21.78 21.4466C20.3307 22.8958 17.9982 22.8958 13.3333 22.8958C8.6684 22.8958 6.33593 22.8958 4.88671 21.4466C3.4375 19.9974 3.4375 17.6649 3.4375 13Z" stroke="currentColor" stroke-width="1.5625"/>
<path d="M18.5417 22.375L3.95837 7.79163" stroke="currentColor" stroke-width="1.5625" stroke-linecap="round" stroke-linejoin="round"/>
<path d="M11.25 15.0834L5 21.3334" stroke="currentColor" stroke-width="1.5625" stroke-linecap="round" stroke-linejoin="round"/>
</svg>
