<svg width="26" height="25" viewBox="0 0 26 25" color="currentColor" fill="none" xmlns="http://www.w3.org/2000/svg">
<path d="M6.91663 18.7234C7.05069 20.0864 7.35367 21.0037 8.03841 21.6884C9.26658 22.9167 11.2433 22.9167 15.1967 22.9167C19.1502 22.9167 21.1269 22.9167 22.3551 21.6884C23.5833 20.4603 23.5833 18.4835 23.5833 14.5301C23.5833 10.5767 23.5833 8.59996 22.3551 7.37178C21.6704 6.68704 20.753 6.38406 19.3901 6.25" stroke="currentColor" stroke-width="1.5625"/>
<path d="M2.74994 10.4166C2.74994 6.48827 2.74994 4.52409 3.97032 3.3037C5.19072 2.08331 7.1549 2.08331 11.0833 2.08331C15.0116 2.08331 16.9759 2.08331 18.1962 3.3037C19.4166 4.52409 19.4166 6.48827 19.4166 10.4166C19.4166 14.345 19.4166 16.3092 18.1962 17.5296C16.9759 18.75 15.0116 18.75 11.0833 18.75C7.1549 18.75 5.19072 18.75 3.97032 17.5296C2.74994 16.3092 2.74994 14.345 2.74994 10.4166Z" stroke="currentColor" stroke-width="1.5625"/>
<path d="M2.74994 11.5818C3.39475 11.4998 4.04665 11.4594 4.69964 11.4607C7.46207 11.4097 10.1569 12.1628 12.3032 13.5859C14.2937 14.9056 15.6923 16.7219 16.2916 18.75" stroke="currentColor" stroke-width="1.5625" stroke-linejoin="round"/>
<path d="M14.2081 7.29169H14.2171" stroke="currentColor" stroke-width="2.08333" stroke-linecap="round" stroke-linejoin="round"/>
</svg>
