<svg width="16" height="16" viewBox="0 0 16 16" fill="none" xmlns="http://www.w3.org/2000/svg">
<path d="M4.00016 4C3.57334 4.01703 3.31159 4.05968 3.05426 4.16645C2.52932 4.38424 2.10182 4.78655 1.85208 5.29781C1.64824 5.71511 1.61488 6.24975 1.54816 7.31907L1.44362 8.9946C1.27772 11.6537 1.19477 12.9833 1.98412 13.825C2.77348 14.6667 4.1033 14.6667 6.76296 14.6667H9.40696C11.8686 14.6667 13.191 14.6667 14.0002 13.9993" stroke="currentColor" stroke-width="1.5" stroke-linecap="round"/>
<path d="M11.3335 4.66667L11.0608 4.00033M11.0608 4.00033L10.7292 3.19029C10.4664 2.54805 10.2359 1.82797 9.57123 1.50637C9.21356 1.33333 8.78323 1.33333 7.92263 1.33333C7.06203 1.33333 6.63169 1.33333 6.27406 1.50637C5.78478 1.7431 5.54204 2.18147 5.3335 2.66667M11.0608 4.00033H11.3335C12.1472 4.00277 12.5976 4.02223 12.9677 4.17756C13.486 4.39513 13.9082 4.79701 14.1548 5.30772C14.356 5.72458 14.389 6.25866 14.4548 7.3268L14.5581 9.0006C14.6256 10.0952 14.6792 10.9643 14.6644 11.6667" stroke="currentColor" stroke-width="1.5" stroke-linecap="round"/>
<path d="M6.99982 7.22453C6.21152 7.59907 5.6665 8.40253 5.6665 9.33333C5.6665 10.622 6.71116 11.6667 7.99982 11.6667C8.93062 11.6667 9.73416 11.1217 10.1086 10.3333" stroke="currentColor" stroke-width="1.5"/>
<path d="M1.3335 1.33333L14.6668 14.6667" stroke="currentColor" stroke-width="1.5" stroke-linecap="round"/>
<path d="M7.99951 4H8.00514" stroke="currentColor" stroke-width="2" stroke-linecap="round" stroke-linejoin="round"/>
</svg>
