<svg width="28" height="28" viewBox="0 0 28 28" fill="none" xmlns="http://www.w3.org/2000/svg">
<rect width="28" height="28" rx="14" fill="#D6484A"/>
<path d="M6.10827 15.995C5.93106 17.1225 6.72333 17.9051 7.69337 18.2951C11.4123 19.7905 16.5877 19.7905 20.3066 18.2951C21.2767 17.9051 22.0689 17.1225 21.8918 15.995C21.7828 15.302 21.2443 14.725 20.8453 14.1616C20.3227 13.4145 20.2708 12.5997 20.2708 11.7328C20.2708 8.38254 17.4632 5.66663 14 5.66663C10.5368 5.66663 7.72927 8.38254 7.72927 11.7328C7.72919 12.5997 7.67727 13.4145 7.15467 14.1616C6.7557 14.725 6.21717 15.302 6.10827 15.995Z" stroke="currentColor" stroke-width="1.25" stroke-linecap="round" stroke-linejoin="round"/>
<path d="M11.5 21.5C12.1634 22.0183 13.0396 22.3333 14 22.3333C14.9604 22.3333 15.8366 22.0183 16.5 21.5" stroke="currentColor" stroke-width="1.25" stroke-linecap="round" stroke-linejoin="round"/>
</svg>
