<svg width="28" height="28" viewBox="0 0 28 28" fill="none" xmlns="http://www.w3.org/2000/svg">
<rect width="28" height="28" rx="14" fill="#FFBB30"/>
<path d="M14 17.75V16.0834" stroke="currentColor" stroke-width="1.25" stroke-linecap="round"/>
<path d="M7.5565 19.7039C7.7439 21.0958 8.89677 22.1862 10.2997 22.2507C11.4802 22.305 12.6794 22.3333 14 22.3333C15.3206 22.3333 16.5197 22.305 17.7002 22.2507C19.1032 22.1862 20.2561 21.0958 20.4435 19.7039C20.5658 18.7956 20.6667 17.8647 20.6667 16.9167C20.6667 15.9687 20.5658 15.0378 20.4435 14.1294C20.2561 12.7375 19.1032 11.6471 17.7002 11.5826C16.5197 11.5283 15.3206 11.5 14 11.5C12.6794 11.5 11.4802 11.5283 10.2997 11.5826C8.89677 11.6471 7.7439 12.7375 7.5565 14.1294C7.4342 15.0378 7.33332 15.9687 7.33332 16.9167C7.33332 17.8647 7.4342 18.7956 7.5565 19.7039Z" stroke="currentColor" stroke-width="1.25"/>
<path d="M10.25 11.5V9.41663C10.25 7.34556 11.9289 5.66663 14 5.66663C16.0711 5.66663 17.75 7.34556 17.75 9.41663V11.5" stroke="currentColor" stroke-width="1.25" stroke-linecap="round" stroke-linejoin="round"/>
</svg>
