<svg width="28" height="29" viewBox="0 0 28 29" fill="none" xmlns="http://www.w3.org/2000/svg">
<rect y="0.333252" width="28" height="28" rx="14" fill="#9747FF"/>
<path d="M5.67355 17.3076C5.85929 14.3967 6.40615 12.2666 6.86955 11.0292C7.1035 10.4046 7.60682 9.93937 8.25122 9.78348C11.8346 8.91658 16.1655 8.91658 19.7488 9.78348C20.3933 9.93937 20.8966 10.4046 21.1305 11.0292C21.5939 12.2666 22.1408 14.3967 22.3265 17.3076C22.4376 19.0491 21.179 20.0086 19.7858 20.7104C18.8983 21.1574 18.2159 19.8381 17.7629 18.8169C17.5154 18.259 16.9723 17.913 16.3568 17.913H11.6433C11.0278 17.913 10.4847 18.259 10.2371 18.8169C9.78408 19.8381 9.10167 21.1574 8.21427 20.7104C6.83513 20.0156 5.56154 19.0631 5.67355 17.3076Z" stroke="currentColor" stroke-width="1.5625" stroke-linecap="round" stroke-linejoin="round"/>
<path d="M8.16667 7.88334L9.80238 7.46667M19.8333 7.88334L18.1667 7.46667" stroke="currentColor" stroke-width="1.5625" stroke-linecap="round" stroke-linejoin="round"/>
<path d="M11.5 14.9667L10.25 13.7167M10.25 13.7167L9 12.4667M10.25 13.7167L9 14.9667M10.25 13.7167L11.5 12.4667" stroke="currentColor" stroke-width="1.5625" stroke-linecap="round"/>
<path d="M17.3234 12.4667H17.3306" stroke="currentColor" stroke-width="2.08333" stroke-linecap="round" stroke-linejoin="round"/>
<path d="M18.9901 14.9667H18.9973" stroke="currentColor" stroke-width="2.08333" stroke-linecap="round" stroke-linejoin="round"/>
</svg>
