<svg width="31" height="30" viewBox="0 0 31 30" fill="none" xmlns="http://www.w3.org/2000/svg">
<path d="M19.4584 1.24969L20.2057 2.64691C20.7111 3.59152 20.9638 4.06384 20.7968 4.26611C20.6296 4.46839 20.0794 4.30503 18.9789 3.9783C17.8786 3.65164 16.7105 3.47589 15.5 3.47589C8.94161 3.47589 3.625 8.63527 3.625 14.9997C3.625 17.0986 4.20328 19.0666 5.21366 20.7616M11.5417 28.7497L10.7942 27.3525C10.2889 26.4079 10.0362 25.9355 10.2032 25.7332C10.3703 25.531 10.9206 25.6944 12.0211 26.0211C13.1214 26.3478 14.2895 26.5235 15.5 26.5235C22.0584 26.5235 27.375 21.3641 27.375 14.9997C27.375 12.9007 26.7967 10.9328 25.7864 9.23779" stroke="white" stroke-width="1.875" stroke-linecap="round" stroke-linejoin="round"/>
</svg>
