<svg width="28" height="28" viewBox="0 0 28 28" fill="none" xmlns="http://www.w3.org/2000/svg">
<rect width="28" height="28" rx="14" fill="#00C6DA"/>
<path d="M12.1142 12.65C11.2143 12.65 10.7643 13.3 10.6643 13.7C10.5643 14.1 10.5643 15.55 10.6243 16.15C10.8243 16.9 11.3243 17.21 11.8143 17.31C12.2643 17.35 14.1642 17.335 14.7142 17.335C15.5142 17.35 16.1142 17.05 16.3642 16.15C16.4142 15.85 16.4642 14.2 16.3392 13.7C16.0742 12.9 15.4142 12.65 14.9142 12.65H12.1142Z" stroke="currentColor" stroke-width="1.25" stroke-linecap="round"/>
<path d="M12.0417 12.2988C12.0417 12.2488 12.0485 11.961 12.0497 11.5988C12.0508 11.2679 12.0217 10.9488 12.1797 10.6568C12.7717 9.47883 14.4717 9.59883 14.8917 10.7988C14.9644 10.9964 14.9688 11.3096 14.9667 11.5988C14.9639 11.9684 14.9717 12.2988 14.9717 12.2988" stroke="currentColor" stroke-width="1.25" stroke-linecap="round"/>
<path d="M21 13.3194V10.9002C21 9.53353 21 8.85019 20.6632 8.40437C20.3265 7.95853 19.5651 7.74209 18.0423 7.30921C17.0018 7.01346 16.0847 6.65715 15.3519 6.33187C14.3528 5.88838 13.8533 5.66663 13.5 5.66663C13.1467 5.66663 12.6472 5.88838 11.6481 6.33187C10.9153 6.65715 9.9982 7.01345 8.95778 7.30921C7.43494 7.74209 6.67352 7.95853 6.33676 8.40437C6 8.85019 6 9.53353 6 10.9002V13.3194C6 18.007 10.219 20.8195 12.3283 21.9328C12.8342 22.1998 13.0872 22.3333 13.5 22.3333C13.9128 22.3333 14.1657 22.1998 14.6717 21.9328C16.781 20.8195 21 18.007 21 13.3194Z" stroke="currentColor" stroke-width="1.25" stroke-linecap="round"/>
</svg>
