<svg width="28" height="29" viewBox="0 0 28 29" fill="none" xmlns="http://www.w3.org/2000/svg">
<rect y="0.666626" width="28" height="28" rx="14" fill="#D6484A"/>
<path d="M16.9167 15C16.9167 16.6109 15.6108 17.9167 14 17.9167C12.3892 17.9167 11.0833 16.6109 11.0833 15C11.0833 13.3892 12.3892 12.0834 14 12.0834C15.6108 12.0834 16.9167 13.3892 16.9167 15Z" stroke="currentColor" stroke-width="1.5625"/>
<path d="M21.5092 16.7471C21.9441 16.6298 22.1616 16.5712 22.2474 16.459C22.3333 16.3469 22.3333 16.1665 22.3333 15.8058V14.1943C22.3333 13.8336 22.3333 13.6532 22.2474 13.5411C22.1615 13.4289 21.9441 13.3703 21.5092 13.253C19.8838 12.8147 18.8666 11.1154 19.2861 9.50074C19.4014 9.05667 19.4591 8.83465 19.404 8.70442C19.3489 8.5742 19.1909 8.48446 18.8748 8.30498L17.4375 7.48896C17.1273 7.31284 16.9723 7.22478 16.8331 7.24353C16.6938 7.26228 16.5368 7.41896 16.2227 7.73229C15.0067 8.94541 12.9947 8.94537 11.7786 7.73221C11.4645 7.41887 11.3075 7.26221 11.1683 7.24345C11.0291 7.2247 10.874 7.31276 10.5638 7.48887L9.12654 8.30491C8.81045 8.48437 8.6524 8.57411 8.59732 8.70431C8.54224 8.83451 8.5999 9.05657 8.71521 9.50068C9.13448 11.1154 8.11644 12.8147 6.49086 13.253C6.05594 13.3703 5.83848 13.4289 5.75257 13.541C5.66667 13.6532 5.66667 13.8336 5.66667 14.1943V15.8058C5.66667 16.1665 5.66667 16.3469 5.75257 16.459C5.83846 16.5712 6.05593 16.6298 6.49086 16.7471C8.11617 17.1854 9.13341 18.8847 8.71394 20.4993C8.59858 20.9434 8.5409 21.1654 8.59597 21.2957C8.65106 21.4259 8.80911 21.5157 9.12521 21.6951L10.5625 22.5112C10.8727 22.6873 11.0278 22.7753 11.167 22.7566C11.3062 22.7378 11.4632 22.5811 11.7773 22.2678C12.9939 21.0537 15.0073 21.0536 16.2241 22.2677C16.5381 22.5811 16.6951 22.7378 16.8343 22.7565C16.9735 22.7753 17.1287 22.6872 17.4388 22.5111L18.8761 21.695C19.1923 21.5156 19.3503 21.4258 19.4053 21.2956C19.4604 21.1653 19.4028 20.9433 19.2873 20.4993C18.8677 18.8847 19.8841 17.1855 21.5092 16.7471Z" stroke="currentColor" stroke-width="1.5625" stroke-linecap="round"/>
</svg>
