<svg width="25" height="25" viewBox="0 0 25 25" fill="none" xmlns="http://www.w3.org/2000/svg">
<path d="M21.875 6.77081C21.875 8.4967 20.4759 9.89581 18.75 9.89581C17.0241 9.89581 15.625 8.4967 15.625 6.77081C15.625 5.04493 17.0241 3.64581 18.75 3.64581C20.4759 3.64581 21.875 5.04493 21.875 6.77081Z" stroke="currentColor" stroke-width="1.5625"/>
<path d="M9.375 12.5C9.375 14.2259 7.97589 15.625 6.25 15.625C4.52411 15.625 3.125 14.2259 3.125 12.5C3.125 10.7741 4.52411 9.375 6.25 9.375C7.97589 9.375 9.375 10.7741 9.375 12.5Z" stroke="currentColor" stroke-width="1.5625"/>
<path d="M21.875 18.2292C21.875 19.9551 20.4759 21.3542 18.75 21.3542C17.0241 21.3542 15.625 19.9551 15.625 18.2292C15.625 16.5032 17.0241 15.1042 18.75 15.1042C20.4759 15.1042 21.875 16.5032 21.875 18.2292Z" stroke="currentColor" stroke-width="1.5625"/>
<path d="M9.09221 11.1974L15.863 8.07294M9.09221 13.8021L15.863 16.9266" stroke="currentColor" stroke-width="1.5625"/>
</svg>
