<svg width="16" height="16" viewBox="0 0 16 16" fill="none" xmlns="http://www.w3.org/2000/svg">
<path fill-rule="evenodd" clip-rule="evenodd" d="M9.17372 14.1427L12.6184 12.6156C13.0949 12.4044 13.1545 11.7459 12.804 11.3602C11.9936 10.4683 11.5545 9.16435 12.9696 7.41725C13.1314 7.21747 13.1844 6.94694 13.0816 6.71133C12.5868 5.57845 11.0558 2.28891 9.62875 1.4769C9.37888 1.33473 9.09561 1.48406 8.91988 1.7116C8.0667 2.81634 6.43293 3.39989 5.58739 3.63959C5.27833 3.7272 5.04959 4.00642 5.01767 4.32606C4.92577 5.24646 4.57983 7.21588 3.28004 9.46018C3.28004 9.46018 4.34776 9.49525 6.03723 8.97663C6.63331 8.79365 7.73365 9.5308 7.87475 10.1382C8.28036 11.8842 9.17372 14.1427 9.17372 14.1427Z" fill="#A3A3A3"/>
<path d="M7.87475 10.1382C7.73365 9.5308 6.63331 8.79365 6.03723 8.97663C4.34776 9.49525 3.28004 9.46018 3.28004 9.46018C3.55046 11.5805 4.20342 12.8294 4.49923 13.3041C4.59033 13.4503 4.74468 13.5384 4.91537 13.5617L9.17372 14.1427C9.17372 14.1427 8.28036 11.8842 7.87475 10.1382Z" fill="#656565"/>
<path d="M9.17372 14.1427C9.17372 14.1427 8.28036 11.8842 7.87475 10.1382C7.73365 9.5308 6.63331 8.79365 6.03723 8.97663C4.34776 9.49525 3.28004 9.46018 3.28004 9.46018M9.17372 14.1427L4.91537 13.5617M9.17372 14.1427L12.6184 12.6156M3.28004 9.46018C3.55046 11.5805 4.20341 12.8294 4.49923 13.3041M3.28004 9.46018C4.57983 7.21588 4.92577 5.24646 5.01767 4.32606M4.91537 13.5617C4.74468 13.5384 4.59033 13.4503 4.49923 13.3041M4.91537 13.5617C4.74532 13.5385 4.58999 13.4498 4.49923 13.3041M5.01767 4.32606C5.04959 4.00642 5.27833 3.7272 5.58739 3.63959M5.01767 4.32606C5.04953 4.00701 5.27891 3.72703 5.58739 3.63959M5.58739 3.63959C6.43293 3.39989 8.0667 2.81634 8.91988 1.7116M8.91988 1.7116C9.09561 1.48406 9.37888 1.33473 9.62875 1.4769M8.91988 1.7116C9.09514 1.48467 9.37954 1.33511 9.62875 1.4769M9.62875 1.4769C11.0558 2.28891 12.5868 5.57845 13.0816 6.71133M13.0816 6.71133C13.1844 6.94694 13.1314 7.21747 12.9696 7.41725M13.0816 6.71133C13.184 6.94594 13.1307 7.21831 12.9696 7.41725M12.9696 7.41725C11.5545 9.16435 11.9936 10.4683 12.804 11.3602M12.804 11.3602C13.1545 11.7459 13.0949 12.4044 12.6184 12.6156M12.804 11.3602C13.1545 11.7459 13.0949 12.4044 12.6184 12.6156" stroke="black" stroke-width="0.666667"/>
</svg>
