<svg width="16" height="16" viewBox="0 0 16 16" fill="none" xmlns="http://www.w3.org/2000/svg">
<path d="M12.6746 11.7676C13.5569 11.161 14.8145 10.3454 14.1888 6.68287C14.1797 6.62951 14.1642 6.57511 14.1387 6.5274C13.8723 6.0305 13.3958 6.12242 13.1745 6.1651L13.1665 6.16665C12.1909 6.85203 11.4859 11.6754 12.4372 11.8175C12.5218 11.8003 12.601 11.7836 12.6746 11.7676Z" fill="#DDA46B"/>
<path d="M8.54869 5.56325C8.73222 4.86147 9.40121 3.73374 11.0484 3.3705C11.4758 3.23652 12.0471 3.39107 10.913 5.0811C9.93773 6.53461 9.10076 6.37111 8.67456 6.0047C8.5488 5.89658 8.50673 5.7237 8.54869 5.56325Z" fill="#52A94D"/>
<path d="M7.30103 6.25803C6.66629 5.96932 5.73197 5.18112 5.97025 3.77783C5.99094 3.41372 6.35078 3.00461 7.62451 4.28106C8.76388 5.42287 8.2157 6.0413 7.67448 6.26759C7.55457 6.31773 7.41933 6.31184 7.30103 6.25803Z" fill="#52A94D"/>
<path d="M3.43348 6.27654C3.14742 6.27851 2.83203 6.47504 2.50789 6.93425C1.09791 8.93172 1.74155 10.9896 2.40857 12.0585C2.55546 12.2939 2.84883 12.3755 3.12071 12.3201C3.81815 12.1781 5.03921 12.0578 6.50789 12.2676C8.26716 12.5189 11.0528 12.0991 12.4372 11.8175C11.4859 11.6754 12.1909 6.85203 13.1665 6.16665C11.4171 6.50108 6.22342 6.45427 3.43348 6.27654Z" fill="#875E35"/>
<path d="M12.6746 11.7676C13.5569 11.161 14.8145 10.3454 14.1888 6.68287C14.1797 6.62951 14.1642 6.57511 14.1387 6.5274C13.8723 6.03051 13.3958 6.12242 13.1745 6.1651M12.6746 11.7676C12.5851 11.8123 12.5063 11.8278 12.4372 11.8175M12.6746 11.7676C12.601 11.7836 12.5218 11.8003 12.4372 11.8175M13.1665 6.16665C11.4171 6.50108 6.22342 6.45427 3.43348 6.27654C3.14742 6.27851 2.83203 6.47504 2.50789 6.93425C1.09791 8.93172 1.74155 10.9896 2.40857 12.0585C2.55546 12.2939 2.84883 12.3755 3.12071 12.3201C3.81815 12.1781 5.03921 12.0578 6.50789 12.2676C8.26716 12.5189 11.0528 12.0991 12.4372 11.8175M13.1665 6.16665C12.1909 6.85203 11.4859 11.6754 12.4372 11.8175M13.1665 6.16665L13.1745 6.1651M13.1665 6.16665C13.1691 6.16614 13.1718 6.16562 13.1745 6.1651M2.17456 8.26758C3.67456 8.3787 8.00789 8.53425 8.67456 8.26758M2.17456 11.2676C3.67456 11.3787 4.50789 11.1009 5.34122 11.1009M5.50789 9.93426C6.96943 10.2024 10.8669 10.1119 11.8412 9.75659M7.30103 6.25803C6.66629 5.96932 5.73197 5.18112 5.97025 3.77783C5.99095 3.41372 6.35078 3.00461 7.6245 4.28106C8.76388 5.42287 8.2157 6.0413 7.67448 6.26759C7.55457 6.31773 7.41933 6.31184 7.30103 6.25803ZM8.54869 5.56325C8.73222 4.86147 9.40121 3.73374 11.0484 3.3705C11.4758 3.23652 12.0471 3.39107 10.913 5.0811C9.93772 6.53461 9.10076 6.37111 8.67456 6.0047C8.5488 5.89658 8.50673 5.7237 8.54869 5.56325Z" stroke="black" stroke-width="0.666667" stroke-linecap="round"/>
</svg>
