<svg width="19" height="21" viewBox="0 0 19 21" fill="none" xmlns="http://www.w3.org/2000/svg">
<path d="M8.5 13V21H0.5C0.5 18.8783 1.34285 16.8434 2.84315 15.3431C4.34344 13.8429 6.37827 13 8.5 13ZM8.5 12C5.185 12 2.5 9.315 2.5 6C2.5 2.685 5.185 0 8.5 0C11.815 0 14.5 2.685 14.5 6C14.5 9.315 11.815 12 8.5 12ZM17.5 16H18.5V21H10.5V16H11.5V15C11.5 14.2043 11.8161 13.4413 12.3787 12.8787C12.9413 12.3161 13.7043 12 14.5 12C15.2956 12 16.0587 12.3161 16.6213 12.8787C17.1839 13.4413 17.5 14.2043 17.5 15V16ZM15.5 16V15C15.5 14.7348 15.3946 14.4804 15.2071 14.2929C15.0196 14.1054 14.7652 14 14.5 14C14.2348 14 13.9804 14.1054 13.7929 14.2929C13.6054 14.4804 13.5 14.7348 13.5 15V16H15.5Z" fill="#DADADA"/>
</svg>
