<svg width="27" height="28" viewBox="0 0 27 28" fill="none" xmlns="http://www.w3.org/2000/svg">
<path d="M0.427143 24.2653C4.70114 21.8078 14.8741 24.7773 19.2594 26.6027C18.9089 19.5084 18.3169 5.41847 18.7056 4.91805C18.7121 4.91354 18.7187 4.90904 18.7252 4.90453C22.3613 3.21899 26.246 1.219 25.8613 1.219C8.65844 -3.80295 1.89633 13.7584 0.427143 24.2653Z" fill="#C7253A"/>
<path d="M14.8519 7.16933C15.1211 7.2847 16.7624 6.26156 18.7252 4.90453M18.7252 4.90453C22.3613 3.21899 26.246 1.219 25.8613 1.219C8.65844 -3.80295 1.89633 13.7584 0.427143 24.2653C4.70114 21.8078 14.8741 24.7773 19.2594 26.6027C18.9033 19.3941 18.2978 4.96256 18.7252 4.90453Z" stroke="black" stroke-width="0.67091" stroke-linecap="round"/>
</svg>
