<svg width="22" height="21" viewBox="0 0 22 21" fill="none" xmlns="http://www.w3.org/2000/svg">
<path d="M13.4423 0.500035C13.0238 0.497563 12.6109 0.626719 12.1667 0.751075C10.951 1.23067 9.56406 2.01783 8.47166 2.98985C7.55635 3.80429 6.86587 4.74109 6.60044 5.71354C9.36155 5.95579 11.8888 5.92366 13.708 5.13312C13.7281 5.07328 13.743 5.01823 13.7496 4.97041C13.7684 4.83227 13.7557 4.71999 13.6777 4.54201C13.5217 4.18606 13.0546 3.61885 12.1669 2.69237L11.5461 2.04468C12.2859 2.04849 13.0854 2.15506 13.767 1.7211C14.2264 2.61845 14.9909 3.44164 16.0587 3.82388L16.3757 3.88577L16.3518 4.22608C16.3156 4.74066 16.5485 5.46393 16.9514 6.06308C17.3542 6.66228 17.9162 7.12637 18.4249 7.24089C18.8187 7.32955 19.005 7.24897 19.116 7.11596C19.227 6.98296 19.302 6.70435 19.2282 6.2654C19.1616 5.86908 18.9503 5.36948 18.6414 4.96361C18.3583 4.59934 17.868 4.2268 17.3377 4.11575C17.1135 3.60854 16.9728 3.11891 16.6149 2.58337C16.3786 2.2297 16.0712 1.97072 15.8193 1.73456C15.5517 1.48385 15.2954 1.31966 14.938 1.27992L14.771 1.26138C14.5041 0.841632 14.2668 0.676205 13.7334 0.524421C13.6371 0.508532 13.5398 0.50038 13.4423 0.500035ZM1.90962 3.7182L2.02033 4.62463L1.56164 4.56587C1.30936 4.53355 1.10703 4.59668 0.846723 4.75008C0.740146 4.81287 0.621712 4.90001 0.5 4.99028C0.819775 5.14919 1.08498 5.3527 1.34224 5.56794L1.68029 5.85083L0.635725 6.82228C1.27379 6.86882 1.93773 6.82813 2.51171 6.63066L3.24625 5.04628C3.11637 4.3859 2.89342 4.13553 2.59862 3.96672C2.41138 3.85953 2.1697 3.78989 1.90962 3.7182ZM3.86424 5.51603L3.75107 5.68393L3.20089 6.87072C3.64081 7.11306 3.98448 7.43641 4.27178 7.79027C4.30739 7.75956 4.34319 7.72928 4.3789 7.69881L5.42706 6.28313C4.96873 5.97366 4.47065 5.70527 3.86424 5.51603ZM13.6787 5.95741C12.1061 6.55874 10.2066 6.67678 8.15651 6.58156L9.45304 7.27331C9.36052 7.5764 9.18496 7.91871 9.06127 8.06303C8.50472 8.7409 7.86831 9.51503 7.36731 10.2898C6.95637 10.9254 6.65231 11.5576 6.53792 12.0994C8.96731 11.5427 9.98224 10.3842 10.7043 9.49526C10.7618 9.30012 10.7589 9.16364 10.718 9.14406C10.581 9.07832 10.1704 8.88565 10.0297 8.97312C9.96863 9.01561 9.85321 9.13835 9.66871 9.3014L9.43844 9.00953L9.20813 8.71761C9.35845 8.5847 9.46346 8.45682 9.63503 8.33751C9.68296 8.30469 9.73393 8.27714 9.78714 8.25527C9.87225 7.4346 10.5891 6.96846 11.5155 6.61987C11.8183 7.00221 11.4399 7.7212 11.0363 8.45264C11.0979 8.49166 11.1552 8.53801 11.2069 8.59078C12.238 8.30295 13.2989 7.87617 14.359 7.32883L13.6787 5.95741ZM6.22313 6.44095L4.98171 8.11784C5.70179 8.57467 6.5213 8.8471 7.40935 8.95714C7.64532 8.64283 7.88663 8.33903 8.12099 8.05044C7.79708 7.71682 7.56228 7.31552 7.80889 6.56378C7.28827 6.53393 6.75884 6.49176 6.22313 6.44095ZM14.8503 7.92351C13.7205 8.52071 12.5747 8.99594 11.4495 9.31776C11.4238 9.52635 11.4432 9.75271 11.3375 9.88363C11.1867 10.07 11.0154 10.2783 10.8158 10.4967C11.6735 10.4127 12.4573 10.2109 13.1988 9.66221L13.9841 9.08098L13.3023 11.9897L13.2069 12.0702C12.8938 12.3343 12.5468 12.686 11.9572 12.9C11.3676 13.114 10.5661 13.1847 9.30842 13.0072C8.75465 12.9291 8.33899 12.6975 8.01297 12.4325C7.48489 12.6423 6.88222 12.82 6.18909 12.9468L5.77737 13.0221L5.76866 12.5798C5.75074 11.6632 6.20292 10.744 6.77429 9.86034C6.81696 9.79436 6.86052 9.72866 6.90463 9.66316C6.00764 9.49854 5.16989 9.16911 4.41851 8.64982C4.39655 8.66936 4.374 8.68866 4.35217 8.70824C3.84264 9.16597 3.38063 9.64034 3.03027 10.0403C3.12063 10.0259 3.21104 10.0056 3.30051 9.99591C3.71873 9.95061 4.12451 9.94547 4.48156 10.1419L4.93338 10.3906L4.56052 10.7578C4.10336 11.2079 3.71648 11.7567 3.47656 12.2798C3.38437 12.4808 3.31323 12.6919 3.2644 12.9094C3.30513 12.876 3.32934 12.8557 3.37124 12.8223C3.64431 12.6047 3.93229 12.3889 4.24824 12.2723L4.95728 12.0107L4.705 12.7592C4.52338 13.2982 4.33106 13.7386 4.25027 14.1258C4.20172 14.3585 4.19166 14.5699 4.23194 14.7948L5.11595 13.9823L5.20649 14.6781C5.30009 15.3975 5.28226 15.7957 5.44763 16.2636L6.74788 14.7387L6.50774 16.0731C6.35212 16.9378 6.43251 17.6477 6.66754 18.2873L7.86957 16.4932L8.06377 17.2841C8.22536 17.942 8.45082 18.3576 8.69106 18.5897C8.83509 18.7288 8.98752 18.8083 9.16026 18.8476C9.14669 18.6331 9.15047 18.4106 9.20337 18.1869C9.25026 17.9882 9.33905 17.784 9.50217 17.6249C9.66534 17.4659 9.89655 17.3725 10.1455 17.3639C10.4951 17.3517 10.8042 17.5124 11.0283 17.7303C11.2525 17.9483 11.4138 18.2185 11.5551 18.4925C11.6901 18.7542 11.8125 19.0219 11.9238 19.254C12.1287 18.6698 12.2864 18.0071 12.243 17.5923L12.1901 17.0866L12.6633 17.1761C12.8276 17.2069 12.9886 17.2551 13.1439 17.3198C13.6589 16.583 14.3425 16.2433 15.0553 16.2087C15.1668 16.2033 15.2785 16.2052 15.3899 16.2142L15.4221 16.2169L15.4533 16.2255C15.6334 16.2753 15.7894 16.3483 15.9241 16.4353C16.0303 15.4221 15.8828 14.4472 15.5009 13.5062L15.29 12.9868L15.8241 12.9759C16.0201 12.9719 16.2151 12.9975 16.4012 13.0583C16.2053 12.3571 15.8667 11.7107 15.2729 11.0001L14.706 10.3217L15.5605 10.3684C15.9163 10.3878 16.2196 10.4922 16.4987 10.6423C16.1227 9.65479 15.5099 8.6955 14.8503 7.92351ZM17.1989 9.18974C17.0433 9.19036 16.869 9.21294 16.6711 9.25843C17.0519 9.95931 17.3489 10.7135 17.4991 11.4839L17.5451 11.7197C17.7354 11.826 17.9032 11.963 18.0554 12.1168C18.5293 11.6638 19.0366 11.3775 19.5435 11.1768C18.9722 10.4418 18.5329 9.83229 18.1252 9.52164C17.8762 9.33192 17.6273 9.21332 17.3032 9.19269C17.2685 9.19052 17.2337 9.18954 17.1989 9.18974ZM12.8547 10.7408C12.0713 11.117 11.2566 11.2398 10.448 11.288C10.2834 11.2978 10.1188 11.3046 9.95413 11.3103C9.62761 11.5734 9.24847 11.8319 8.80271 12.0685C8.97023 12.1554 9.16291 12.2194 9.40332 12.2533C10.5964 12.4216 11.2781 12.3424 11.7241 12.1805C12.1259 12.0347 12.3668 11.8111 12.6638 11.555L12.8547 10.7408ZM20.2298 11.7407C19.5689 11.944 18.9637 12.2221 18.4002 12.8192C18.1845 13.1322 18.1133 13.6727 18.1897 14.241C18.2258 14.5088 18.2955 14.7768 18.3799 15.0217C18.4115 14.9311 18.441 14.8445 18.474 14.7537C18.6161 14.3632 18.7318 13.9943 19.0227 13.7289L19.3473 13.4328L20.0435 14.6722C20.2955 14.3098 20.408 13.941 20.3592 13.5284L20.274 12.8074L21.5 13.4865C21.4309 13.2206 21.3555 12.9597 21.2525 12.7253C21.0485 12.2605 20.7795 11.9125 20.2298 11.7407ZM4.78499 16.5514C4.75926 16.5629 4.73235 16.5754 4.70343 16.5901C4.52387 16.6812 4.29635 16.8286 4.08885 17.0091C3.74096 17.3118 3.48168 17.6808 3.44885 18.0359C3.92685 18.29 4.50878 18.3484 5.23636 18.1802L5.77405 17.6676C5.74441 17.4731 5.72621 17.2769 5.71957 17.08L5.30036 17.5717L5.05087 17.1301C4.93491 16.9247 4.84967 16.7343 4.78499 16.5514ZM15.0804 16.9641C14.627 16.9733 14.2474 17.1315 13.8977 17.5431C14.2002 17.7009 14.4483 17.9354 14.6034 18.2387L16.0437 17.7717C15.9565 17.6062 15.8897 17.4576 15.8131 17.343C15.6988 17.1721 15.5836 17.0558 15.2999 16.9714C15.2251 16.9663 15.1514 16.9627 15.0804 16.9641ZM16.5459 18.4045L14.7692 18.9804L14.8032 19.7341C15.7064 20.248 16.3469 20.3484 16.8545 20.3032C17.2707 20.2662 17.6105 20.1273 17.954 19.9952C17.87 19.7588 17.6938 19.513 17.4419 19.2504C17.1806 18.978 16.8562 18.7025 16.5459 18.4045ZM3.10199 18.7028C2.36364 18.926 2.04229 19.1686 1.803 19.4372C1.64113 19.6188 1.50639 19.841 1.32975 20.0852C1.84252 20.2982 2.41636 20.4604 2.96335 20.4935C3.63555 20.5341 4.24308 20.3889 4.71125 19.9554L4.91358 19.0059C4.24232 19.0848 3.63088 18.9893 3.10199 18.7028Z" fill="#DADADA"/>
</svg>
