<svg width="26" height="21" viewBox="0 0 26 21" fill="none" xmlns="http://www.w3.org/2000/svg">
<path d="M1.99984 20.5961C1.99984 20.819 2.22389 21 2.49994 21H9.99948V16.1531H16.0007V21H23.5002C23.6329 21 23.7601 20.9574 23.8539 20.8817C23.9476 20.806 24.0003 20.7032 24.0003 20.5961V11.3062H1.99984V20.5961ZM25.8647 9.012L24.0003 7.68718V1.61563C24.0003 1.18714 23.7896 0.776198 23.4144 0.473208C23.0393 0.170218 22.5305 0 21.9999 0C21.4694 0 20.9606 0.170218 20.5854 0.473208C20.2103 0.776198 19.9995 1.18714 19.9995 1.61563V4.8469L13.3642 0.145407C13.2734 0.0675264 13.148 0.0219164 13.0156 0.0185846C12.8833 0.0152528 12.7546 0.0544713 12.658 0.127635L12.636 0.145407L0.133461 8.97161C0.06766 9.0289 0.023848 9.10038 0.00733636 9.17737C-0.00917527 9.25437 0.00232237 9.33358 0.0404359 9.40541C0.0785493 9.47724 0.141642 9.53859 0.222065 9.58204C0.302488 9.62548 0.396789 9.64915 0.493535 9.65018L4.00025 9.6938H25.4986C25.5963 9.694 25.6919 9.6711 25.7736 9.62794C25.8553 9.58478 25.9196 9.52324 25.9585 9.45091C25.9975 9.37858 26.0093 9.29863 25.9927 9.22092C25.976 9.14321 25.9315 9.06953 25.8647 9.012Z" fill="#DADADA"/>
</svg>
