<svg width="47" height="51" viewBox="0 0 47 51" fill="none" xmlns="http://www.w3.org/2000/svg">
<path d="M41.125 21.25C41.125 36.125 23.5 48.875 23.5 48.875C23.5 48.875 5.875 36.125 5.875 21.25C5.875 16.1777 7.73191 11.3132 11.0372 7.72658C14.3426 4.13995 18.8256 2.125 23.5 2.125C28.1744 2.125 32.6574 4.13995 35.9628 7.72658C39.2681 11.3132 41.125 16.1777 41.125 21.25Z" stroke="#EA3E37" stroke-width="4" stroke-linecap="round" stroke-linejoin="round"/>
<path d="M23.5 27.625C26.7447 27.625 29.375 24.7708 29.375 21.25C29.375 17.7292 26.7447 14.875 23.5 14.875C20.2553 14.875 17.625 17.7292 17.625 21.25C17.625 24.7708 20.2553 27.625 23.5 27.625Z" stroke="#EA3E37" stroke-width="4" stroke-linecap="round" stroke-linejoin="round"/>
</svg>
