<svg width="66" height="56" viewBox="0 0 66 56" fill="none" xmlns="http://www.w3.org/2000/svg">
<path d="M36.7292 25.8413C38.6831 24.214 37.9326 23.325 37.3132 23.0839C36.4106 22.7675 34.7752 22.6862 35.4549 24.892L36.7292 25.8413Z" fill="#FDDFBD" stroke="black" stroke-width="0.505525" stroke-linecap="round"/>
<path d="M19.7141 44.7516C24.8662 44.4425 25.0206 43.3684 24.4537 42.87C24.3619 42.0594 24.9521 40.7668 25.2587 40.2219L25.1525 39.6342L22.9225 39.137C21.9314 38.6247 19.981 37.799 20.1085 38.5946C20.2359 39.3901 19.7722 40.6136 19.5244 41.1259L19.0754 40.7632C17.9786 40.6659 17.69 41.2857 17.6828 41.6077C16.8168 41.5869 16.0922 41.1711 16.0922 41.197C14.5852 44.4244 17.8789 44.9115 19.7141 44.7516Z" fill="#FDDFBD" stroke="black" stroke-width="0.505525" stroke-linecap="round"/>
<path d="M17.6831 41.6072C18.0395 41.6655 18.7619 42.6885 19.0785 43.1927C19.2803 43.5282 19.6627 44.3077 19.5778 44.7416L21.1175 44.606C21.16 43.8828 20.769 42.9429 20.5681 42.5634C19.9494 41.487 19.3029 40.8214 19.0144 40.7258C18.5808 40.7124 17.7075 40.87 17.6831 41.6072Z" fill="#6ABDF0" stroke="black" stroke-width="0.505525" stroke-linecap="round"/>
<path d="M20.7991 44.6506C17.4859 45.1207 16.1621 44.1232 15.9143 43.5657C18.6328 44.6506 22.7813 43.5657 24.5158 42.8877C24.8874 43.6109 24.9405 44.063 20.7991 44.6506Z" fill="#6ABDF0" stroke="black" stroke-width="0.505525"/>
<path d="M33.544 44.8988C28.3919 44.5898 28.2376 43.5157 28.8044 43.0172C28.8962 42.2067 28.306 40.9141 27.9994 40.3691L28.1056 39.7814L29.6657 37.1468C30.6568 36.6345 32.6072 35.8088 32.4797 36.6043C32.3523 37.3999 33.4859 40.7608 33.7337 41.2731L34.1827 40.9104C35.2795 40.8131 35.5681 41.4329 35.5753 41.7549C36.4413 41.7341 37.1659 41.3183 37.1659 41.3443C38.6729 44.5716 35.3792 45.0587 33.544 44.8988Z" fill="#FDDFBD" stroke="black" stroke-width="0.505525" stroke-linecap="round"/>
<path d="M35.5756 41.7557C35.2192 41.8139 34.4968 42.8369 34.1802 43.3412C33.9784 43.6766 33.5959 44.4561 33.6809 44.89L32.1411 44.7544C32.0987 44.0312 32.4897 43.0913 32.6905 42.7118C33.3092 41.6355 33.9558 40.9698 34.2443 40.8742C34.6779 40.8608 35.5512 41.0184 35.5756 41.7557Z" fill="#6ABDF0" stroke="black" stroke-width="0.505525" stroke-linecap="round"/>
<path d="M32.4596 44.799C35.7727 45.2691 37.0966 44.2717 37.3444 43.7142C34.6259 44.799 30.4774 43.7142 28.7429 43.0361C28.3712 43.7594 28.3181 44.2114 32.4596 44.799Z" fill="#6ABDF0" stroke="black" stroke-width="0.505525"/>
<path d="M10.7918 27.2153C9.56391 26.5766 6.52412 25.3036 7.63062 24.4816C7.70032 24.3756 8.04306 24.3158 8.85647 24.9244C9.01701 25.0446 7.69866 23.8754 8.20384 23.4376C8.34935 23.3115 8.82921 23.2367 9.64164 23.8432C9.28527 23.5045 8.67944 22.7922 9.14919 22.436C9.82352 21.9247 10.9951 22.9344 11.4966 23.5032C11.497 23.5484 11.9023 22.4605 12.2822 22.4576C12.4414 22.4564 12.8643 22.2724 13.5822 24.934L18.3034 27.3399L15.4894 29.6904L10.7918 27.2153Z" fill="#FDDFBD" stroke="black" stroke-width="0.505525" stroke-linecap="round"/>
<path d="M42.7237 27.6674C43.9516 27.0287 46.9914 25.7558 45.8849 24.9338C45.8152 24.8278 45.4724 24.7679 44.659 25.3766C44.4985 25.4967 45.8168 24.3275 45.3117 23.8898C45.1661 23.7637 44.6863 23.6888 43.8739 24.2953C44.2302 23.9566 44.8361 23.2444 44.3663 22.8882C43.692 22.3768 42.5204 23.3866 42.0189 23.9554C42.0185 24.0006 41.6132 22.9126 41.2333 22.9098C41.0741 22.9086 40.6512 22.7246 39.9333 25.3862L35.2121 27.7921L38.0261 30.1426L42.7237 27.6674Z" fill="#FDDFBD" stroke="black" stroke-width="0.505525" stroke-linecap="round"/>
<path d="M18.3393 24.6229C17.5074 25.4366 15.7695 27.0638 15.4721 27.0638C15.1005 27.0638 10.6404 29.5952 11.1183 32.2169C11.5006 34.3143 11.8616 34.0702 12.6581 35.155C12.7827 34.766 13.1727 33.8411 13.3483 33.4373L13.4545 33.2113C13.4545 33.2113 12.8704 36.6919 16.9057 38.048C16.7818 37.2645 16.6084 35.589 16.9057 35.155C17.3482 36.6467 19.3693 39.7747 23.9143 40.3533C26.6754 40.7048 29.291 39.7861 30.9229 38.3644C32.6488 36.8607 33.3122 34.8386 33.3122 34.8386C33.4715 35.381 33.567 37.7948 33.3122 38.048C34.2195 37.8641 36.409 37.0486 37.2944 35.5618C38.2223 34.0036 37.8253 31.7702 37.8253 31.5389C38.1616 31.9607 38.8023 33.1209 38.6748 34.3866C39.7367 33.8291 40.2433 31.3374 39.8429 29.3691C39.3107 26.753 35.5812 25.8431 34.8908 24.0353C34.8866 24.0243 34.8825 24.0133 34.8785 24.0024C34.767 23.6185 35.7546 23.1701 35.7546 22.9504L35.6484 21.3232C35.4891 19.4247 20.9941 17.7974 20.7817 19.6959C20.6047 21.2774 19.3127 23.6285 18.3393 24.6229Z" fill="#D9D9D9"/>
<path d="M13.4545 33.2113C13.4545 33.2113 12.8704 36.6919 16.9057 38.048C16.7818 37.2645 16.6084 35.589 16.9057 35.155C17.3482 36.6467 19.3693 39.7747 23.9143 40.3533C26.6754 40.7048 29.291 39.7861 30.9229 38.3644C32.6488 36.8607 33.3122 34.8386 33.3122 34.8386C33.4715 35.381 33.567 37.7948 33.3122 38.048C34.2195 37.8641 36.409 37.0486 37.2944 35.5618C38.2223 34.0036 37.8253 31.7702 37.8253 31.5389C38.1616 31.9607 38.8023 33.1209 38.6748 34.3866C39.7367 33.8291 40.2433 31.3374 39.8429 29.3691C39.3107 26.753 35.5812 25.8431 34.8908 24.0353M13.4545 33.2113C13.4545 33.2113 13.3212 33.3469 13.3483 33.4373M13.4545 33.2113L13.3483 33.4373M34.7989 22.8148C34.6986 23.0937 34.7066 23.4113 34.7989 23.7542C34.8236 23.8462 34.8544 23.9399 34.8908 24.0353M34.8908 24.0353C34.7096 23.6444 35.7546 23.1764 35.7546 22.9504L35.6484 21.3232C35.4891 19.4247 20.9941 17.7974 20.7817 19.6959C20.6047 21.2774 19.3127 23.6285 18.3393 24.6229C17.5074 25.4366 15.7695 27.0638 15.4721 27.0638C15.1005 27.0638 10.6404 29.5952 11.1183 32.2169C11.5006 34.3143 11.8616 34.0702 12.6581 35.155C12.7827 34.766 13.1727 33.8411 13.3483 33.4373" stroke="black" stroke-width="0.505525" stroke-linecap="round"/>
<path d="M22.8866 32.2294C31.7642 32.7718 33.0279 24.3491 32.55 20.07L22.8866 17.1318C19.1877 21.9383 14.0091 31.687 22.8866 32.2294Z" fill="#FDDFBD" stroke="black" stroke-width="0.505525" stroke-linecap="round"/>
<path d="M35.6128 21.1548C26.0556 18.081 22.9053 19.0152 20.7992 19.5275C21.8965 14.2539 25.8539 3.58014 32.905 3.07387C34.6925 2.93827 38.5649 4.21297 39.7543 10.3966L35.2412 8.49814L35.6128 21.1548Z" fill="#C7253A"/>
<path d="M35.2412 8.49814L35.6128 21.1548C26.0556 18.081 22.9053 19.0152 20.7992 19.5275C21.8965 14.2539 25.8539 3.58014 32.905 3.07387C34.6925 2.93827 38.5649 4.21297 39.7543 10.3966L35.2412 8.49814ZM35.2412 8.49814C35.2412 8.49814 33.8173 7.94715 32.905 7.5941" stroke="black" stroke-width="0.505525" stroke-linecap="round" stroke-linejoin="round"/>
<path d="M24.9479 27.2785C25.7443 26.6005 26.3461 25.4252 26.3815 24.8828C28.2575 25.8471 32.668 27.5317 34.6644 26.3745C37.1599 24.928 31.1601 31.6179 24.9479 27.2785Z" fill="#D9D9D9" stroke="black" stroke-width="0.505525" stroke-linecap="round"/>
<path d="M20.3816 25.0636C20.0023 26.1937 21.4435 27.7011 21.178 27.7758C16.1658 29.1861 12.4704 25.9225 13.4792 25.7869C17.4613 27.2785 20.9125 23.4816 20.3816 25.0636Z" fill="#D9D9D9" stroke="black" stroke-width="0.505525" stroke-linecap="round"/>
<ellipse cx="3.4512" cy="2.93814" rx="3.4512" ry="2.93814" transform="matrix(-1 0 0 1 25.0997 19.9336)" fill="white" stroke="black" stroke-width="0.505525"/>
<ellipse cx="0.849527" cy="0.723235" rx="0.849527" ry="0.723235" transform="matrix(-1 0 0 1 23.2944 21.9219)" fill="black"/>
<path d="M21.3085 27.8895C23.3301 29.6785 25.6446 27.0909 26.4587 25.2678C25.8406 24.7566 24.6374 23.6273 24.7589 23.1913C24.7592 23.1903 24.7595 23.1894 24.7597 23.1885C24.7594 23.1894 24.7591 23.1903 24.7589 23.1913C24.6561 23.4656 17.287 24.3307 21.3085 27.8895Z" fill="#EA8283" stroke="black" stroke-width="0.505525" stroke-linecap="round"/>
<ellipse cx="3.4512" cy="2.93814" rx="3.4512" ry="2.93814" transform="matrix(-1 0 0 1 31.5772 20.1162)" fill="white" stroke="black" stroke-width="0.505525"/>
<ellipse cx="0.849527" cy="0.723235" rx="0.849527" ry="0.723235" transform="matrix(-1 0 0 1 29.0289 22.2861)" fill="black"/>
<path d="M23.4007 31.3322C20.1725 31.2598 20.1087 29.5843 20.4804 28.7556C20.825 27.9872 21.8078 29.3885 23.4007 29.4337C25.2059 29.4337 25.6838 27.8516 26.5333 28.6652C27.8076 30.1117 24.9227 31.2719 23.4007 31.3322Z" fill="#512D3E" stroke="black" stroke-width="0.505525" stroke-linecap="round" stroke-linejoin="round"/>
<path d="M22.8698 30.31C22.1264 29.8127 21.0468 29.9785 20.6929 30.1292C20.6929 30.2648 21.33 31.0784 23.1884 31.1688C24.675 31.2411 25.7546 30.5962 26.1086 30.2648C25.1741 29.7585 23.56 30.084 22.8698 30.31Z" fill="#E13A50" stroke="black" stroke-width="0.20221" stroke-linecap="round" stroke-linejoin="round"/>
<path d="M26.5155 16.7202C26.356 17.353 29.6921 19.1266 30.4976 18.2118C31.5272 17.0427 26.6125 15.6912 26.5155 16.7202Z" fill="#DDD3D2" stroke="black" stroke-width="0.505525" stroke-linecap="round"/>
<path d="M23.5599 16.7198C24.117 17.5442 19.5778 20.1339 19.5778 18.2115C19.5777 16.9566 22.8428 15.7813 23.5599 16.7198Z" fill="#DDD3D2" stroke="black" stroke-width="0.505525" stroke-linecap="round"/>
<path d="M26.0022 36.8762C26.2571 35.1405 27.9844 33.5011 28.8163 32.8984C29.7366 33.5162 31.5985 35.1766 31.6834 36.8762C29.687 37.8164 27.0641 37.268 26.0022 36.8762Z" fill="#6ABDF0" stroke="black" stroke-width="0.505525"/>
<path d="M18.6221 36.8762C18.8769 35.1405 20.6043 33.5011 21.4361 32.8984C22.3564 33.5162 24.2183 35.1766 24.3033 36.8762C22.3069 37.8164 19.684 37.268 18.6221 36.8762Z" fill="#6ABDF0" stroke="black" stroke-width="0.505525"/>
<path d="M24.2501 36.875H26.0554" stroke="black" stroke-width="0.505525"/>
<path d="M21.3829 32.9434C21.3829 32.7626 21.3829 32.3558 21.3829 31.9941" stroke="black" stroke-width="0.505525"/>
<path d="M28.8689 32.8973C28.8927 31.933 28.9082 31.3061 28.9224 30.7275" stroke="black" stroke-width="0.505525"/>
<path d="M18.6219 36.875C18.4803 36.935 18.091 37.0009 17.6662 36.7852" stroke="black" stroke-width="0.505525"/>
<path d="M31.6302 36.875C31.7895 36.9339 32.1612 37.0164 32.3736 36.875" stroke="black" stroke-width="0.505525"/>
<path d="M28.7781 34.0745C28.6499 34.0768 28.1969 34.158 28.4753 34.5684C28.5244 34.5475 28.675 34.5113 28.8846 34.5336L28.9664 34.4571C29.0843 34.1399 28.89 34.0699 28.7781 34.0745Z" fill="white" stroke="black" stroke-width="0.0779385"/>
<path d="M29.4528 34.3846C29.5128 34.4807 29.5524 34.7049 29.2312 34.8321L29.0811 34.7642C29.0812 34.6919 28.9505 34.5904 28.8852 34.5488C29.1798 34.201 29.4032 34.2994 29.4528 34.3846Z" fill="white" stroke="black" stroke-width="0.0779385"/>
<path d="M27.9215 34.3877C27.8638 34.4849 27.8293 34.7096 28.1534 34.8315L28.3686 34.7706C28.3549 34.7312 28.3554 34.6343 28.4665 34.5621L28.4068 34.4268C28.1329 34.1892 27.9692 34.3017 27.9215 34.3877Z" fill="white" stroke="black" stroke-width="0.0779385"/>
<path d="M28.1468 35.2315C28.2682 35.2667 28.6063 35.2025 28.688 34.8616C28.5047 34.8838 28.4097 34.8012 28.3852 34.7571C27.7388 34.9447 28.0398 35.2034 28.1468 35.2315Z" fill="white" stroke="black" stroke-width="0.0779385"/>
<path d="M29.0485 35.2365C29.1703 35.2024 29.5969 34.9374 29.0654 34.7572C29.049 34.7873 28.9507 34.8532 28.6889 34.8756L28.6307 35.0073C28.704 35.299 28.9431 35.2688 29.0485 35.2365Z" fill="white" stroke="black" stroke-width="0.0779385"/>
<path d="M28.688 34.8834C28.5493 34.877 28.4623 34.8456 28.3606 34.7654C28.3415 34.6543 28.4244 34.4544 28.909 34.5433C29.0236 34.6474 29.0727 34.6672 29.0727 34.7654C29.0727 34.8695 28.8475 34.8908 28.688 34.8834Z" fill="#FCD25A" stroke="black" stroke-width="0.0779385"/>
<path d="M21.3443 34.0745C21.216 34.0768 20.7631 34.158 21.0414 34.5684C21.0905 34.5475 21.2412 34.5113 21.4507 34.5336L21.5326 34.4571C21.6504 34.1399 21.4562 34.0699 21.3443 34.0745Z" fill="white" stroke="black" stroke-width="0.0779385"/>
<path d="M22.0191 34.3846C22.0791 34.4807 22.1187 34.7049 21.7975 34.8321L21.6474 34.7642C21.6475 34.6919 21.5168 34.5904 21.4515 34.5488C21.7461 34.201 21.9695 34.2994 22.0191 34.3846Z" fill="white" stroke="black" stroke-width="0.0779385"/>
<path d="M20.4879 34.3877C20.4302 34.4849 20.3957 34.7096 20.7198 34.8315L20.935 34.7706C20.9213 34.7312 20.9218 34.6343 21.0329 34.5621L20.9732 34.4268C20.6994 34.1892 20.5356 34.3017 20.4879 34.3877Z" fill="white" stroke="black" stroke-width="0.0779385"/>
<path d="M20.7131 35.2315C20.8345 35.2667 21.1727 35.2025 21.2543 34.8616C21.071 34.8838 20.9761 34.8012 20.9515 34.7571C20.3052 34.9447 20.6062 35.2034 20.7131 35.2315Z" fill="white" stroke="black" stroke-width="0.0779385"/>
<path d="M21.615 35.2365C21.7368 35.2024 22.1634 34.9374 21.6318 34.7572C21.6154 34.7873 21.5172 34.8532 21.2554 34.8756L21.1972 35.0073C21.2705 35.299 21.5096 35.2688 21.615 35.2365Z" fill="white" stroke="black" stroke-width="0.0779385"/>
<path d="M21.2544 34.8834C21.1156 34.877 21.0287 34.8456 20.9269 34.7654C20.9078 34.6543 20.9908 34.4544 21.4754 34.5433C21.59 34.6474 21.6391 34.6672 21.6391 34.7654C21.6391 34.8695 21.4139 34.8908 21.2544 34.8834Z" fill="#FCD25A" stroke="black" stroke-width="0.0779385"/>
<path d="M30.0886 36.7858C30.2169 36.7835 30.6698 36.7024 30.3915 36.292C30.3424 36.3129 30.1918 36.349 29.9822 36.3268L29.9004 36.4033C29.7825 36.7204 29.9768 36.7905 30.0886 36.7858Z" fill="white" stroke="black" stroke-width="0.0779385"/>
<path d="M29.4138 36.4748C29.3539 36.3786 29.3142 36.1545 29.6354 36.0272L29.7855 36.0952C29.7854 36.1675 29.9161 36.2689 29.9815 36.3106C29.6868 36.6584 29.4635 36.56 29.4138 36.4748Z" fill="white" stroke="black" stroke-width="0.0779385"/>
<path d="M30.9453 36.4707C31.003 36.3735 31.0375 36.1488 30.7134 36.0269L30.4982 36.0878C30.5118 36.1272 30.5114 36.2241 30.4003 36.2963L30.46 36.4316C30.7338 36.6692 30.8976 36.5567 30.9453 36.4707Z" fill="white" stroke="black" stroke-width="0.0779385"/>
<path d="M30.7196 35.6288C30.5981 35.5937 30.26 35.6578 30.1784 35.9987C30.3616 35.9765 30.4566 36.0591 30.4812 36.1032C31.1275 35.9156 30.8265 35.657 30.7196 35.6288Z" fill="white" stroke="black" stroke-width="0.0779385"/>
<path d="M29.8182 35.6238C29.6964 35.6579 29.2698 35.9229 29.8013 36.1031C29.8177 36.073 29.916 36.0072 30.1778 35.9847L30.236 35.853C30.1627 35.5613 29.9236 35.5915 29.8182 35.6238Z" fill="white" stroke="black" stroke-width="0.0779385"/>
<path d="M30.1784 35.9769C30.3171 35.9834 30.4041 36.0147 30.5058 36.0949C30.5249 36.206 30.442 36.4059 29.9574 36.3171C29.8428 36.2129 29.7937 36.1931 29.7937 36.0949C29.7937 35.9908 30.0189 35.9695 30.1784 35.9769Z" fill="#FCD25A" stroke="black" stroke-width="0.0779385"/>
<path d="M22.655 36.7858C22.7833 36.7835 23.2362 36.7024 22.9579 36.292C22.9088 36.3129 22.7582 36.349 22.5486 36.3268L22.4668 36.4033C22.3489 36.7204 22.5432 36.7905 22.655 36.7858Z" fill="white" stroke="black" stroke-width="0.0779385"/>
<path d="M21.9805 36.4748C21.9205 36.3786 21.8809 36.1545 22.2021 36.0272L22.3521 36.0952C22.3521 36.1675 22.4828 36.2689 22.5481 36.3106C22.2535 36.6584 22.0301 36.56 21.9805 36.4748Z" fill="white" stroke="black" stroke-width="0.0779385"/>
<path d="M23.5118 36.4707C23.5695 36.3735 23.604 36.1488 23.2799 36.0269L23.0647 36.0878C23.0784 36.1272 23.0779 36.2241 22.9668 36.2963L23.0265 36.4316C23.3003 36.6692 23.4641 36.5567 23.5118 36.4707Z" fill="white" stroke="black" stroke-width="0.0779385"/>
<path d="M23.2865 35.6288C23.1651 35.5937 22.827 35.6578 22.7453 35.9987C22.9286 35.9765 23.0236 36.0591 23.0481 36.1032C23.6944 35.9156 23.3935 35.657 23.2865 35.6288Z" fill="white" stroke="black" stroke-width="0.0779385"/>
<path d="M22.3846 35.6238C22.2628 35.6579 21.8362 35.9229 22.3677 36.1031C22.3841 36.073 22.4824 36.0072 22.7442 35.9847L22.8024 35.853C22.7291 35.5613 22.49 35.5915 22.3846 35.6238Z" fill="white" stroke="black" stroke-width="0.0779385"/>
<path d="M22.7453 35.9769C22.884 35.9834 22.971 36.0147 23.0727 36.0949C23.0918 36.206 23.0089 36.4059 22.5243 36.3171C22.4097 36.2129 22.3605 36.1931 22.3605 36.0949C22.3605 35.9908 22.5857 35.9695 22.7453 35.9769Z" fill="#FCD25A" stroke="black" stroke-width="0.0779385"/>
<path d="M27.9282 36.8737C27.7999 36.8714 27.347 36.7903 27.6253 36.3799C27.6744 36.4007 27.825 36.4369 28.0346 36.4147L28.1164 36.4912C28.2343 36.8083 28.04 36.8784 27.9282 36.8737Z" fill="white" stroke="black" stroke-width="0.0779385"/>
<path d="M28.603 36.5637C28.6629 36.4675 28.7026 36.2433 28.3813 36.1161L28.2313 36.1841C28.2314 36.2564 28.1007 36.3578 28.0353 36.3995C28.33 36.7473 28.5533 36.6489 28.603 36.5637Z" fill="white" stroke="black" stroke-width="0.0779385"/>
<path d="M27.0717 36.5605C27.0139 36.4634 26.9795 36.2386 27.3035 36.1167L27.5187 36.1777C27.5051 36.2171 27.5055 36.3139 27.6166 36.3862L27.5569 36.5214C27.2831 36.7591 27.1193 36.6465 27.0717 36.5605Z" fill="white" stroke="black" stroke-width="0.0779385"/>
<path d="M27.2968 35.7177C27.4182 35.6825 27.7563 35.7467 27.838 36.0876C27.6547 36.0654 27.5597 36.148 27.5352 36.1921C26.8889 36.0045 27.1898 35.7459 27.2968 35.7177Z" fill="white" stroke="black" stroke-width="0.0779385"/>
<path d="M28.1987 35.7117C28.3205 35.7458 28.7472 36.0108 28.2156 36.191C28.1992 36.1609 28.1009 36.0951 27.8391 36.0726L27.7809 35.9409C27.8542 35.6492 28.0933 35.6794 28.1987 35.7117Z" fill="white" stroke="black" stroke-width="0.0779385"/>
<path d="M27.838 36.0668C27.6993 36.0732 27.6124 36.1046 27.5106 36.1848C27.4915 36.2959 27.5744 36.4958 28.059 36.4069C28.1737 36.3028 28.2228 36.283 28.2228 36.1848C28.2228 36.0807 27.9976 36.0593 27.838 36.0668Z" fill="#FCD25A" stroke="black" stroke-width="0.0779385"/>
<path d="M20.495 36.8737C20.3668 36.8714 19.9139 36.7903 20.1922 36.3799C20.2413 36.4007 20.3919 36.4369 20.6015 36.4147L20.6833 36.4912C20.8012 36.8083 20.6069 36.8784 20.495 36.8737Z" fill="white" stroke="black" stroke-width="0.0779385"/>
<path d="M21.1699 36.5637C21.2298 36.4675 21.2695 36.2433 20.9482 36.1161L20.7982 36.1841C20.7983 36.2564 20.6676 36.3578 20.6022 36.3995C20.8969 36.7473 21.1202 36.6489 21.1699 36.5637Z" fill="white" stroke="black" stroke-width="0.0779385"/>
<path d="M19.6383 36.5596C19.5806 36.4624 19.5461 36.2376 19.8702 36.1157L20.0854 36.1767C20.0717 36.2161 20.0722 36.313 20.1833 36.3852L20.1236 36.5204C19.8497 36.7581 19.686 36.6455 19.6383 36.5596Z" fill="white" stroke="black" stroke-width="0.0779385"/>
<path d="M19.8638 35.7177C19.9852 35.6825 20.3233 35.7467 20.4049 36.0876C20.2217 36.0654 20.1267 36.148 20.1021 36.1921C19.4558 36.0045 19.7568 35.7459 19.8638 35.7177Z" fill="white" stroke="black" stroke-width="0.0779385"/>
<path d="M20.7656 35.7127C20.8874 35.7468 21.314 36.0118 20.7825 36.192C20.7661 36.1619 20.6678 36.096 20.406 36.0736L20.3478 35.9419C20.4211 35.6502 20.6602 35.6804 20.7656 35.7127Z" fill="white" stroke="black" stroke-width="0.0779385"/>
<path d="M20.4049 36.0668C20.2662 36.0732 20.1793 36.1046 20.0775 36.1848C20.0584 36.2959 20.1413 36.4958 20.6259 36.4069C20.7405 36.3028 20.7897 36.283 20.7897 36.1848C20.7897 36.0807 20.5645 36.0593 20.4049 36.0668Z" fill="#FCD25A" stroke="black" stroke-width="0.0779385"/>
<g clip-path="url(#clip0_2166_1679)">
<path d="M17.6143 22.9186L17.6143 22.9187C17.3962 23.0516 17.1687 23.1605 16.9317 23.246L16.7572 23.309L16.7655 23.4696L17.0526 29.0118C17.0654 29.2592 16.9752 29.4711 16.7743 29.6599C16.5747 29.847 16.3388 29.9389 16.051 29.9445L16.051 29.9445L16.0461 29.9447L15.3952 29.9674L15.3944 29.9674C15.0961 29.9786 14.8388 29.8994 14.6094 29.7218L14.6091 29.7216C14.3816 29.5459 14.2647 29.3333 14.2511 29.0717L13.963 23.5093L13.9552 23.358L13.7887 23.3063C13.5429 23.23 13.3084 23.1301 13.0848 23.0063C12.8576 22.8801 12.6467 22.7394 12.452 22.5844C11.602 21.9076 11.1587 21.0978 11.1097 20.1452L11.1097 20.1451C11.0601 19.193 11.4183 18.372 12.1913 17.6684C12.5905 17.3051 12.9632 17.0713 13.3076 16.9496L13.3078 16.9495C13.651 16.8279 13.8255 16.8698 13.9311 16.954C13.991 17.0016 14.0331 17.0512 14.0614 17.1025C14.0891 17.1537 14.1057 17.2111 14.1091 17.2773L14.3779 17.2648L14.1091 17.2773L14.2249 19.5143L14.2363 19.7341L14.4947 19.7311L15.8337 19.7152L16.114 19.7119L16.1016 19.4734L15.9858 17.2363C15.9825 17.1733 15.994 17.1163 16.0187 17.063L16.0187 17.063L16.0191 17.0622C16.045 17.0056 16.0832 16.9538 16.1357 16.906C16.2237 16.8259 16.3904 16.7712 16.7586 16.879C17.1207 16.985 17.5206 17.2036 17.9578 17.5517C18.8077 18.2284 19.2514 19.0383 19.301 19.9908C19.3501 20.9429 18.9915 21.764 18.2185 22.4676C18.0345 22.635 17.8332 22.7853 17.6143 22.9186ZM13.2067 16.7379C13.5986 16.5991 13.9016 16.615 14.116 16.7857C14.1984 16.8513 14.2617 16.9241 14.3056 17.0039L13.2067 16.7379Z" fill="#CCCCCC" stroke="black" stroke-width="0.5"/>
</g>
<defs>
<clipPath id="clip0_2166_1679">
<rect width="15.1759" height="16.3766" fill="white" transform="matrix(0.782296 0.622907 -0.739519 0.673136 15.3842 12.7832)"/>
</clipPath>
</defs>
</svg>
