<svg width="22" height="21" viewBox="0 0 22 21" fill="none" xmlns="http://www.w3.org/2000/svg">
<path d="M11.9725 1.01745C11.5919 0.327518 10.4083 0.327518 10.0277 1.01745L0.127896 18.9514C0.0391155 19.1121 -0.00479974 19.2922 0.000415903 19.4741C0.00563155 19.6559 0.0598008 19.8334 0.157662 19.9893C0.255524 20.1451 0.393751 20.2741 0.558918 20.3636C0.724085 20.453 0.910577 20.5 1.10028 20.5H20.8999C21.0896 20.5004 21.2762 20.4536 21.4414 20.3642C21.6067 20.2749 21.7449 20.146 21.8428 19.9901C21.9406 19.8342 21.9946 19.6567 21.9996 19.4749C22.0046 19.293 21.9604 19.113 21.8712 18.9524L11.9725 1.01745ZM12.1001 17.3352H9.90013V15.2253H12.1001V17.3352ZM9.90013 13.1154V7.84077H12.1001L12.1012 13.1154H9.90013Z" fill="#DADADA"/>
</svg>
