<svg width="21" height="21" viewBox="0 0 21 21" fill="none" xmlns="http://www.w3.org/2000/svg">
<path d="M18.2621 8.81574C19.581 7.52558 19.0745 6.82077 18.6564 6.62964C18.0471 6.37878 16.9433 6.31427 17.402 8.06315L18.2621 8.81574Z" fill="#FDDFBD" stroke="black" stroke-width="0.358378" stroke-linecap="round"/>
<path d="M5.89811 7.81227C5.33665 8.45735 4.16356 9.74751 3.96287 9.74751C3.71201 9.74751 0.701633 11.7544 1.02417 13.833C1.28221 15.4959 1.52591 15.3024 2.06347 16.1625C2.14759 15.854 2.41081 15.1208 2.52937 14.8006L2.60104 14.6214C2.60104 14.6214 2.20682 17.381 4.93049 18.4561C4.84687 17.8349 4.7298 16.5065 4.93049 16.1625C5.22914 17.3451 6.59337 19.8251 9.66108 20.2838C11.5247 20.5625 13.2902 19.8342 14.3917 18.707C15.5566 17.5148 16.0044 15.9116 16.0044 15.9116C16.1119 16.3417 16.1764 18.2554 16.0044 18.4561C16.6168 18.3103 18.0946 17.6638 18.6922 16.485C19.3186 15.2495 19.0506 13.4788 19.0506 13.2954C19.2776 13.6299 19.71 14.5498 19.624 15.5532C20.3407 15.1112 20.6827 13.1357 20.4124 11.5752C20.0532 9.50106 17.5359 8.77971 17.0699 7.34638C17.0671 7.33767 17.0643 7.32898 17.0616 7.32031C16.9863 7.01594 17.6529 6.66046 17.6529 6.48627L17.5812 5.19611C17.4737 3.69092 7.69001 2.40076 7.54666 3.90595C7.42724 5.15981 6.55514 7.02384 5.89811 7.81227Z" fill="#D9D9D9"/>
<path d="M2.60104 14.6214C2.60104 14.6214 2.20682 17.381 4.93049 18.4561C4.84687 17.8349 4.7298 16.5065 4.93049 16.1625C5.22914 17.3451 6.59337 19.8251 9.66108 20.2838C11.5247 20.5625 13.2902 19.8342 14.3917 18.707C15.5566 17.5148 16.0044 15.9116 16.0044 15.9116C16.1119 16.3417 16.1764 18.2554 16.0044 18.4561C16.6168 18.3103 18.0946 17.6638 18.6922 16.485C19.3186 15.2495 19.0506 13.4788 19.0506 13.2954C19.2776 13.6299 19.71 14.5498 19.624 15.5532C20.3407 15.1112 20.6827 13.1357 20.4124 11.5752C20.0532 9.50106 17.5359 8.77971 17.0699 7.34638M2.60104 14.6214C2.60104 14.6214 2.51104 14.729 2.52937 14.8006M2.60104 14.6214L2.52937 14.8006M17.0078 6.37876C16.9401 6.59985 16.9456 6.85166 17.0078 7.12351C17.0245 7.19642 17.0453 7.27078 17.0699 7.34638M17.0699 7.34638C16.9476 7.03649 17.6529 6.66546 17.6529 6.48627L17.5812 5.19611C17.4737 3.69092 7.69001 2.40076 7.54666 3.90595C7.42724 5.15981 6.55514 7.02384 5.89811 7.81227C5.33665 8.45735 4.16356 9.74751 3.96287 9.74751C3.71201 9.74751 0.701634 11.7544 1.02417 13.833C1.28221 15.4959 1.52591 15.3024 2.06347 16.1625C2.14759 15.854 2.41081 15.1208 2.52937 14.8006" stroke="black" stroke-width="0.358378" stroke-linecap="round"/>
<path d="M9.15939 14.2272C15.1515 14.6573 16.0044 7.97952 15.6819 4.58687L15.3093 3.45601C14.8263 1.99032 13.4573 1 11.9141 1C11.0056 1 10.1312 1.3459 9.46859 1.9674L9.15939 2.25742C6.66269 6.06817 3.16731 13.7972 9.15939 14.2272Z" fill="#FDDFBD" stroke="black" stroke-width="0.358378" stroke-linecap="round"/>
<path d="M11.064 12.8312C9.24353 13.6524 7.83382 12.0091 8.224 12.0758C9.58164 12.4369 10.2298 11.6452 10.4605 11.3357C10.7073 11.1047 11.3587 10.9145 11.6841 11.4757C12.0095 12.0369 11.4062 12.6132 11.064 12.8312Z" fill="white" stroke="black" stroke-width="0.286702"/>
<path d="M11.3275 1.92548C11.2198 2.42721 13.4716 3.83339 14.0153 3.10812C14.7102 2.18121 11.393 1.10972 11.3275 1.92548Z" fill="#DDD3D2" stroke="black" stroke-width="0.358378" stroke-linecap="round"/>
<path d="M9.33258 1.92548C9.70863 2.57907 6.64475 4.63224 6.64474 3.10813C6.64474 2.11318 8.84852 1.1814 9.33258 1.92548Z" fill="#DDD3D2" stroke="black" stroke-width="0.358378" stroke-linecap="round"/>
<path d="M10.2703 10.3568C10.8079 9.8192 11.214 8.88742 11.2379 8.45737C12.5042 9.22191 15.4811 10.5575 16.8286 9.64001C18.513 8.4932 14.4633 13.7972 10.2703 10.3568Z" fill="#D9D9D9" stroke="black" stroke-width="0.358378" stroke-linecap="round"/>
<path d="M7.18829 8.60072C6.93231 9.49666 7.90505 10.6918 7.72586 10.751C4.34277 11.8691 1.84846 9.28164 2.52938 9.17412C5.21721 10.3568 7.54667 7.3464 7.18829 8.60072Z" fill="#D9D9D9" stroke="black" stroke-width="0.358378" stroke-linecap="round"/>
<circle cx="2.32946" cy="2.32946" r="2.32946" transform="matrix(-1 0 0 1 10.1987 4.19266)" fill="white" stroke="black" stroke-width="0.358378"/>
<circle cx="0.573405" cy="0.573405" r="0.573405" transform="matrix(-1 0 0 1 8.47845 5.98454)" fill="black"/>
<path d="M7.86919 10.7151C9.23369 12.1335 10.7959 10.082 11.3455 8.63654C10.9274 8.23038 10.1126 7.33205 10.1986 6.98801C10.1628 7.20303 5.14552 7.88395 7.86919 10.7151Z" fill="#EA8283" stroke="black" stroke-width="0.358378" stroke-linecap="round"/>
<circle cx="2.32946" cy="2.32946" r="2.32946" transform="matrix(-1 0 0 1 14.7859 4.19266)" fill="white" stroke="black" stroke-width="0.358378"/>
<circle cx="0.573405" cy="0.573405" r="0.573405" transform="matrix(-1 0 0 1 13.0657 5.98454)" fill="black"/>
<path d="M9.85501 5.37729C8.24947 4.51719 6.53404 5.09059 5.87701 5.48481C5.81728 5.52065 6.6419 4.25282 7.77641 4.19465C9.17408 4.12298 9.92668 5.4157 9.85501 5.37729Z" fill="#FDDFBD" stroke="black" stroke-width="0.286702"/>
<path d="M14.3706 5.37729C12.765 4.51719 11.0496 5.09059 10.3926 5.48481C10.3328 5.52065 11.1575 4.25282 12.292 4.19465C13.6896 4.12298 14.4422 5.4157 14.3706 5.37729Z" fill="#FDDFBD" stroke="black" stroke-width="0.286702"/>
</svg>
