<svg width="22" height="32" viewBox="0 0 22 32" fill="none" xmlns="http://www.w3.org/2000/svg">
<path d="M18.2602 19.8136C19.5789 18.5236 19.0724 17.8189 18.6544 17.6278C18.0452 17.3769 16.9415 17.3124 17.4002 19.0611L18.2602 19.8136Z" fill="#FDDFBD" stroke="currentColor" stroke-width="0.36" stroke-linecap="round"/>
<path d="M5.89756 18.8103C5.33616 19.4553 4.16321 20.7453 3.96254 20.7453C3.7117 20.7453 0.701664 22.752 1.02417 24.8304C1.28217 26.493 1.52584 26.2995 2.06335 27.1596C2.14746 26.8512 2.41065 26.118 2.52919 25.7979L2.60085 25.6187C2.60085 25.6187 2.20668 28.3779 4.93005 29.4529C4.84644 28.8318 4.72938 27.5036 4.93005 27.1596C5.22866 28.3421 6.59274 30.8218 9.66011 31.2804C11.5235 31.5591 13.2888 30.8308 14.3902 29.7038C15.555 28.5117 16.0027 26.9087 16.0027 26.9087C16.1102 27.3387 16.1747 29.2523 16.0027 29.4529C16.615 29.3071 18.0927 28.6607 18.6902 27.4821C19.3165 26.2467 19.0486 24.4762 19.0486 24.2929C19.2755 24.6273 19.7079 25.547 19.6219 26.5504C20.3386 26.1084 20.6805 24.1332 20.4102 22.5728C20.0511 20.4989 17.534 19.7776 17.0681 18.3444C17.0653 18.3357 17.0625 18.3271 17.0598 18.3184C16.9845 18.0141 17.651 17.6586 17.651 17.4844L17.5794 16.1944C17.4719 14.6894 7.68925 13.3994 7.54592 14.9044C7.42651 16.1581 6.55451 18.0219 5.89756 18.8103Z" fill="#D9D9D9"/>
<path d="M2.60085 25.6187C2.60085 25.6187 2.20668 28.3779 4.93005 29.4529C4.84644 28.8318 4.72938 27.5036 4.93005 27.1596C5.22866 28.3421 6.59274 30.8218 9.66011 31.2804C11.5235 31.5591 13.2888 30.8308 14.3902 29.7038C15.555 28.5117 16.0027 26.9087 16.0027 26.9087C16.1102 27.3387 16.1747 29.2523 16.0027 29.4529C16.615 29.3071 18.0927 28.6607 18.6902 27.4821C19.3165 26.2467 19.0486 24.4762 19.0486 24.2929C19.2755 24.6273 19.7079 25.547 19.6219 26.5504C20.3386 26.1084 20.6805 24.1331 20.4102 22.5728C20.0511 20.4989 17.534 19.7776 17.0681 18.3444M2.60085 25.6187C2.60085 25.6187 2.51086 25.7262 2.52919 25.7979M2.60085 25.6187L2.52919 25.7979M17.006 17.3769C16.9384 17.598 16.9438 17.8498 17.006 18.1216C17.0227 18.1945 17.0435 18.2689 17.0681 18.3444M17.0681 18.3444C16.9458 18.0346 17.651 17.6636 17.651 17.4844L17.5794 16.1944C17.4719 14.6894 7.68925 13.3994 7.54592 14.9044C7.42651 16.1581 6.55451 18.0219 5.89756 18.8103C5.33616 19.4553 4.16321 20.7453 3.96254 20.7453C3.7117 20.7453 0.701664 22.752 1.02417 24.8304C1.28217 26.493 1.52585 26.2995 2.06335 27.1596C2.14745 26.8512 2.41065 26.118 2.52919 25.7979" stroke="currentColor" stroke-width="0.36" stroke-linecap="round"/>
<path d="M9.15854 25.2245C15.1499 25.6545 16.0028 18.9775 15.6803 15.5852L9.15854 13.256C6.66212 17.0664 3.16714 24.7945 9.15854 25.2245Z" fill="#FDDFBD" stroke="currentColor" stroke-width="0.36" stroke-linecap="round"/>
<path d="M11.0625 23.8286C9.2423 24.6497 7.83274 23.0067 8.22288 23.0734C9.58037 23.4344 10.2285 22.6427 10.4591 22.3333C10.7059 22.1023 11.3572 21.9121 11.6826 22.4733C12.0079 23.0344 11.4048 23.6107 11.0625 23.8286Z" fill="white" stroke="currentColor" stroke-width="0.36"/>
<path d="M7.47414 14.9761C9.7675 13.6574 15.2262 15.2508 17.5793 16.2302C17.3881 12.3623 17.0633 4.6185 17.2926 4.58736C19.1656 3.29243 21.5841 1.43089 21.3776 1.43089C12.1469 -1.26381 8.26248 9.33821 7.47414 14.9761Z" fill="#C7253A"/>
<path d="M15.2142 5.80262C15.3587 5.86452 16.2394 5.31552 17.2926 4.58736M17.2926 4.58736C19.1656 3.29243 21.5841 1.43089 21.3776 1.43089C12.1469 -1.26381 8.26248 9.33821 7.47414 14.9761C9.7675 13.6574 15.2262 15.2508 17.5793 16.2302C17.3881 12.3623 17.0633 4.6185 17.2926 4.58736Z" stroke="currentColor" stroke-width="0.36" stroke-linecap="round"/>
<path d="M11.3262 12.9241C11.2186 13.4258 13.4701 14.8318 14.0138 14.1067C14.7086 13.1798 11.3917 12.1085 11.3262 12.9241Z" fill="#DDD3D2" stroke="currentColor" stroke-width="0.36" stroke-linecap="round"/>
<path d="M9.33142 12.9241C9.70743 13.5777 6.64389 15.6306 6.64389 14.1067C6.64389 13.1118 8.84742 12.1801 9.33142 12.9241Z" fill="#DDD3D2" stroke="currentColor" stroke-width="0.36" stroke-linecap="round"/>
<path d="M10.2692 21.3545C10.8067 20.817 11.2128 19.8853 11.2367 19.4553C12.5028 20.2197 15.4794 21.5551 16.8268 20.6378C18.511 19.4911 14.4618 24.7945 10.2692 21.3545Z" fill="#D9D9D9" stroke="currentColor" stroke-width="0.36" stroke-linecap="round"/>
<path d="M7.1875 19.5986C6.93155 20.4945 7.90418 21.6894 7.72501 21.7486C4.3423 22.8667 1.84827 20.2795 2.52911 20.172C5.21665 21.3545 7.54584 18.3444 7.1875 19.5986Z" fill="#D9D9D9" stroke="currentColor" stroke-width="0.36" stroke-linecap="round"/>
<ellipse cx="2.32919" cy="2.3292" rx="2.32919" ry="2.3292" transform="matrix(-1 0 0 1 10.1974 15.1911)" fill="white" stroke="currentColor" stroke-width="0.36"/>
<ellipse cx="0.57334" cy="0.573341" rx="0.57334" ry="0.573341" transform="matrix(-1 0 0 1 8.47729 16.9828)" fill="black"/>
<path d="M7.86836 21.7128C9.23271 23.131 10.7948 21.0798 11.3442 19.6345C10.9262 19.2283 10.1116 18.3301 10.1976 17.9861C10.1617 18.2011 5.145 18.882 7.86836 21.7128Z" fill="#EA8283" stroke="currentColor" stroke-width="0.36" stroke-linecap="round"/>
<ellipse cx="2.32919" cy="2.3292" rx="2.32919" ry="2.3292" transform="matrix(-1 0 0 1 14.7842 15.1911)" fill="white" stroke="currentColor" stroke-width="0.36"/>
<ellipse cx="0.57334" cy="0.573341" rx="0.57334" ry="0.573341" transform="matrix(-1 0 0 1 13.0642 16.9828)" fill="black"/>
<path d="M9.85376 16.3756C8.24841 15.5156 6.53317 16.0889 5.87622 16.4831C5.81649 16.5189 6.64102 15.2512 7.77541 15.1931C9.17292 15.1214 9.92544 16.414 9.85376 16.3756Z" fill="#FDDFBD" stroke="currentColor" stroke-width="0.36"/>
<path d="M14.3689 16.3756C12.7635 15.5156 11.0483 16.0889 10.3914 16.4831C10.3316 16.5189 11.1562 15.2512 12.2905 15.1931C13.6881 15.1214 14.4406 16.414 14.3689 16.3756Z" fill="#FDDFBD" stroke="currentColor" stroke-width="0.36"/>
</svg>
