<svg width="21" height="21" viewBox="0 0 21 21" fill="none" xmlns="http://www.w3.org/2000/svg">
<path d="M3.242 8.07395C1.92348 6.70115 2.42987 5.9512 2.84788 5.74782C3.45697 5.48088 4.56052 5.41224 4.1019 7.27315L3.242 8.07395Z" fill="#FDDFBD" stroke="currentColor" stroke-width="0.36" stroke-linecap="round"/>
<path d="M15.6031 7.00621C16.1644 7.69261 17.3372 9.06541 17.5379 9.06541C17.7887 9.06541 20.7983 11.2009 20.4759 13.4126C20.2179 15.182 19.9742 14.9761 19.4368 15.8913C19.3527 15.5631 19.0895 14.7829 18.971 14.4422L18.8994 14.2516C18.8994 14.2516 19.2935 17.1878 16.5705 18.3318C16.6541 17.6708 16.7711 16.2574 16.5705 15.8913C16.2719 17.1497 14.908 19.7885 11.841 20.2766C9.97779 20.5732 8.21275 19.7982 7.11152 18.5988C5.94684 17.3302 5.4992 15.6244 5.4992 15.6244C5.39171 16.082 5.32722 18.1183 5.4992 18.3318C4.88692 18.1767 3.40945 17.4887 2.812 16.2345C2.1858 14.9199 2.45371 13.0358 2.45371 12.8406C2.22679 13.1965 1.79445 14.1753 1.88044 15.243C1.16385 14.7727 0.821996 12.6707 1.09219 11.0102C1.45133 8.80318 3.96803 8.03562 4.43392 6.51048C4.43674 6.50121 4.43952 6.49197 4.44225 6.48274C4.51746 6.15888 3.85105 5.78062 3.85105 5.59527L3.92271 4.22247C4.0302 2.62087 13.8116 1.24807 13.9549 2.84967C14.0743 4.18385 14.9462 6.16728 15.6031 7.00621Z" fill="#D9D9D9"/>
<path d="M18.8994 14.2516C18.8994 14.2516 19.2935 17.1878 16.5705 18.3318C16.6541 17.6708 16.7711 16.2574 16.5705 15.8913C16.2719 17.1497 14.908 19.7885 11.841 20.2766C9.9778 20.5731 8.21275 19.7982 7.11152 18.5988C5.94684 17.3302 5.4992 15.6244 5.4992 15.6244C5.39171 16.082 5.32722 18.1183 5.4992 18.3318C4.88692 18.1767 3.40945 17.4887 2.812 16.2345C2.1858 14.9199 2.45371 13.0358 2.45371 12.8406C2.22679 13.1965 1.79445 14.1753 1.88044 15.243C1.16385 14.7727 0.821996 12.6707 1.09219 11.0102C1.45133 8.80318 3.96803 8.03562 4.43392 6.51048M18.8994 14.2516C18.8994 14.2516 18.9893 14.366 18.971 14.4422M18.8994 14.2516L18.971 14.4422M4.49598 5.48087C4.56365 5.71613 4.55825 5.98407 4.49598 6.27333C4.47928 6.35092 4.45849 6.43004 4.43392 6.51048M4.43392 6.51048C4.55625 6.18074 3.85105 5.78594 3.85105 5.59527L3.92271 4.22247C4.0302 2.62087 13.8116 1.24807 13.9549 2.84967C14.0743 4.18385 14.9462 6.16728 15.6031 7.00621C16.1644 7.69261 17.3372 9.06541 17.5379 9.06541C17.7887 9.06541 20.7983 11.2009 20.4759 13.4126C20.2179 15.182 19.9742 14.9761 19.4368 15.8913C19.3527 15.5631 19.0895 14.7829 18.971 14.4422" stroke="currentColor" stroke-width="0.36" stroke-linecap="round"/>
<path d="M12.3426 13.8321C6.35191 14.2897 5.5226 6.64936 5.84506 3.0394C5.1858 3.0394 4.28051 3.67495 3.91028 3.99273C5.25985 2.20046 8.96221 -0.659539 12.9751 2.2386C15.4712 6.29345 18.3332 13.3745 12.3426 13.8321Z" fill="#FDDFBD" stroke="currentColor" stroke-width="0.36" stroke-linecap="round"/>
<path d="M11.2319 9.71368C10.6944 9.14168 10.2884 8.15022 10.2645 7.69262C8.99853 8.50613 6.0223 9.92723 4.67512 8.95102C2.99114 7.73075 7.03986 13.3745 11.2319 9.71368Z" fill="#D9D9D9" stroke="currentColor" stroke-width="0.36" stroke-linecap="round"/>
<path d="M14.3132 7.84517C14.5691 8.7985 13.5966 10.0702 13.7757 10.1332C17.158 11.3229 19.6517 8.5697 18.971 8.4553C16.2838 9.7137 13.9549 6.5105 14.3132 7.84517Z" fill="#D9D9D9" stroke="currentColor" stroke-width="0.36" stroke-linecap="round"/>
<ellipse cx="13.6324" cy="5.63341" rx="2.32891" ry="2.47867" fill="white" stroke="currentColor" stroke-width="0.36"/>
<ellipse cx="14.7432" cy="5.67155" rx="0.573269" ry="0.610134" fill="black"/>
<path d="M13.6324 10.095C12.2683 11.6042 10.7064 9.42133 10.157 7.88329C10.575 7.45111 11.3895 6.49523 11.3035 6.12915C11.3393 6.35795 16.3555 7.08249 13.6324 10.095Z" fill="#EA8283" stroke="currentColor" stroke-width="0.36" stroke-linecap="round"/>
<ellipse cx="9.04631" cy="5.63341" rx="2.32891" ry="2.47867" fill="white" stroke="currentColor" stroke-width="0.36"/>
<ellipse cx="10.2287" cy="5.67155" rx="0.573269" ry="0.610134" fill="black"/>
<path d="M8.35914 3.10662C8.25152 3.64049 9.61088 4.90905 11.0463 4.36502C12.1374 3.95151 8.34253 2.40339 8.35914 3.10662Z" fill="#DDD3D2" stroke="currentColor" stroke-width="0.36" stroke-linecap="round"/>
<path d="M14.4621 3.10662C14.5698 3.64049 13.2104 4.90905 11.7749 4.36502C10.6839 3.95151 14.4788 2.40339 14.4621 3.10662Z" fill="#DDD3D2" stroke="currentColor" stroke-width="0.36" stroke-linecap="round"/>
<path d="M10.2288 11.9982C11.0409 11.4008 12.959 10.5873 14.1342 12.1126" stroke="currentColor" stroke-width="0.36" stroke-linecap="round"/>
</svg>
