<svg width="22" height="32" viewBox="0 0 22 32" fill="none" xmlns="http://www.w3.org/2000/svg">
<path d="M18.2621 19.8157C19.581 18.5256 19.0745 17.8208 18.6564 17.6296C18.0471 17.3788 16.9433 17.3143 17.402 19.0632L18.2621 19.8157Z" fill="#FDDFBD" stroke="black" stroke-width="0.358378" stroke-linecap="round"/>
<path d="M5.89811 18.8123C5.33665 19.4574 4.16356 20.7475 3.96287 20.7475C3.71201 20.7475 0.701633 22.7544 1.02417 24.833C1.28221 26.4959 1.52591 26.3024 2.06347 27.1625C2.14759 26.8541 2.41081 26.1208 2.52937 25.8007L2.60104 25.6215C2.60104 25.6215 2.20682 28.381 4.93049 29.4561C4.84687 28.8349 4.7298 27.5065 4.93049 27.1625C5.22914 28.3451 6.59337 30.8251 9.66108 31.2838C11.5247 31.5625 13.2902 30.8342 14.3917 29.707C15.5566 28.5148 16.0044 26.9116 16.0044 26.9116C16.1119 27.3417 16.1764 29.2554 16.0044 29.4561C16.6168 29.3103 18.0946 28.6638 18.6922 27.485C19.3186 26.2496 19.0506 24.4789 19.0506 24.2955C19.2776 24.63 19.71 25.5498 19.624 26.5532C20.3407 26.1112 20.6827 24.1357 20.4124 22.5753C20.0532 20.5011 17.5359 19.7797 17.0699 18.3464C17.0671 18.3377 17.0643 18.329 17.0616 18.3203C16.9863 18.016 17.6529 17.6605 17.6529 17.4863L17.5812 16.1961C17.4737 14.6909 7.69001 13.4008 7.54666 14.906C7.42724 16.1598 6.55514 18.0239 5.89811 18.8123Z" fill="#D9D9D9"/>
<path d="M2.60104 25.6215C2.60104 25.6215 2.20682 28.381 4.93049 29.4561C4.84687 28.8349 4.7298 27.5065 4.93049 27.1625C5.22914 28.3451 6.59337 30.8251 9.66108 31.2838C11.5247 31.5625 13.2902 30.8342 14.3917 29.707C15.5566 28.5148 16.0044 26.9116 16.0044 26.9116C16.1119 27.3417 16.1764 29.2554 16.0044 29.4561C16.6168 29.3103 18.0946 28.6638 18.6922 27.485C19.3186 26.2496 19.0506 24.4789 19.0506 24.2955C19.2776 24.63 19.71 25.5498 19.624 26.5532C20.3407 26.1112 20.6827 24.1357 20.4124 22.5753C20.0532 20.5011 17.5359 19.7797 17.0699 18.3464M2.60104 25.6215C2.60104 25.6215 2.51104 25.729 2.52937 25.8007M2.60104 25.6215L2.52937 25.8007M17.0078 17.3788C16.9401 17.5999 16.9456 17.8517 17.0078 18.1235C17.0245 18.1964 17.0453 18.2708 17.0699 18.3464M17.0699 18.3464C16.9476 18.0365 17.6529 17.6655 17.6529 17.4863L17.5812 16.1961C17.4737 14.6909 7.69001 13.4008 7.54666 14.906C7.42724 16.1598 6.55514 18.0239 5.89811 18.8123C5.33665 19.4574 4.16356 20.7475 3.96287 20.7475C3.71201 20.7475 0.701634 22.7544 1.02417 24.833C1.28221 26.4959 1.52591 26.3024 2.06347 27.1625C2.14759 26.8541 2.41081 26.1208 2.52937 25.8007" stroke="black" stroke-width="0.358378" stroke-linecap="round"/>
<path d="M9.15933 25.2272C15.1514 25.6573 16.0043 18.9795 15.6818 15.5869L9.15933 13.2574C6.66263 17.0682 3.16725 24.7972 9.15933 25.2272Z" fill="#FDDFBD" stroke="black" stroke-width="0.358378" stroke-linecap="round"/>
<path d="M11.0639 23.8312C9.24347 24.6524 7.83376 23.0091 8.22394 23.0758C9.58158 23.4369 10.2298 22.6452 10.4604 22.3357C10.7073 22.1047 11.3586 21.9145 11.684 22.4757C12.0094 23.0369 11.4062 23.6132 11.0639 23.8312Z" fill="white" stroke="black" stroke-width="0.286702"/>
<path d="M7.47495 14.9776C9.76857 13.6588 15.2279 15.2524 17.5812 16.2319C17.3901 12.3635 17.0651 4.6189 17.2945 4.58776C19.1677 3.29268 21.5865 1.43094 21.38 1.43094C12.1482 -1.26406 8.26339 9.33915 7.47495 14.9776Z" fill="#C7253A"/>
<path d="M15.2159 5.80315C15.3604 5.86507 16.2412 5.316 17.2945 4.58776M17.2945 4.58776C19.1677 3.29268 21.5865 1.43094 21.38 1.43094C12.1482 -1.26406 8.26339 9.33915 7.47495 14.9776C9.76857 13.6588 15.2279 15.2524 17.5812 16.2319C17.3901 12.3635 17.0651 4.6189 17.2945 4.58776Z" stroke="black" stroke-width="0.358378" stroke-linecap="round"/>
<path d="M11.3275 12.9255C11.2198 13.4272 13.4716 14.8334 14.0153 14.1081C14.7102 13.1812 11.393 12.1097 11.3275 12.9255Z" fill="#DDD3D2" stroke="black" stroke-width="0.358378" stroke-linecap="round"/>
<path d="M9.33252 12.9255C9.70857 13.5791 6.64469 15.6322 6.64468 14.1081C6.64468 13.1132 8.84846 12.1814 9.33252 12.9255Z" fill="#DDD3D2" stroke="black" stroke-width="0.358378" stroke-linecap="round"/>
<path d="M10.2703 21.3568C10.8079 20.8192 11.214 19.8874 11.2379 19.4574C12.5042 20.2219 15.4811 21.5575 16.8286 20.64C18.513 19.4932 14.4633 24.7972 10.2703 21.3568Z" fill="#D9D9D9" stroke="black" stroke-width="0.358378" stroke-linecap="round"/>
<path d="M7.18829 19.6007C6.93231 20.4967 7.90505 21.6918 7.72586 21.751C4.34277 22.8691 1.84846 20.2816 2.52938 20.1741C5.21721 21.3568 7.54667 18.3464 7.18829 19.6007Z" fill="#D9D9D9" stroke="black" stroke-width="0.358378" stroke-linecap="round"/>
<circle cx="2.32946" cy="2.32946" r="2.32946" transform="matrix(-1 0 0 1 10.1986 15.1927)" fill="white" stroke="black" stroke-width="0.358378"/>
<circle cx="0.573405" cy="0.573405" r="0.573405" transform="matrix(-1 0 0 1 8.47839 16.9846)" fill="black"/>
<path d="M7.86919 21.7151C9.23369 23.1335 10.7959 21.082 11.3455 19.6365C10.9274 19.2304 10.1126 18.332 10.1986 17.988C10.1628 18.203 5.14552 18.884 7.86919 21.7151Z" fill="#EA8283" stroke="black" stroke-width="0.358378" stroke-linecap="round"/>
<circle cx="2.32946" cy="2.32946" r="2.32946" transform="matrix(-1 0 0 1 14.7859 15.1927)" fill="white" stroke="black" stroke-width="0.358378"/>
<circle cx="0.573405" cy="0.573405" r="0.573405" transform="matrix(-1 0 0 1 13.0657 16.9846)" fill="black"/>
<path d="M9.85501 16.3773C8.24947 15.5172 6.53404 16.0906 5.87701 16.4848C5.81728 16.5206 6.6419 15.2528 7.77641 15.1946C9.17408 15.123 9.92668 16.4157 9.85501 16.3773Z" fill="#FDDFBD" stroke="black" stroke-width="0.286702"/>
<path d="M14.3706 16.3773C12.765 15.5172 11.0496 16.0906 10.3926 16.4848C10.3328 16.5206 11.1575 15.2528 12.292 15.1946C13.6896 15.123 14.4422 16.4157 14.3706 16.3773Z" fill="#FDDFBD" stroke="black" stroke-width="0.286702"/>
</svg>
