<svg width="121" height="133" viewBox="0 0 121 133" fill="none" xmlns="http://www.w3.org/2000/svg">
<path d="M27.4882 82.044C21.7919 76.4715 23.9796 73.4272 25.7855 72.6016C28.417 71.5181 33.1846 71.2395 31.2033 78.7934L27.4882 82.044Z" fill="#FDDFBD" stroke="black" stroke-width="1.54793" stroke-linecap="round"/>
<path d="M80.7223 78.7847C86.4186 73.2121 84.2309 70.1679 82.425 69.3423C79.7935 68.2588 75.0259 67.9801 77.0072 75.534L80.7223 78.7847Z" fill="#FDDFBD" stroke="black" stroke-width="1.54793" stroke-linecap="round"/>
<path d="M80.8918 77.7098C83.3168 80.4961 88.3837 86.0686 89.2506 86.0686C90.3341 86.0686 103.337 94.737 101.944 103.715C100.829 110.897 99.7765 110.061 97.4546 113.777C97.0913 112.444 95.9543 109.277 95.4423 107.894L95.1327 107.12C95.1327 107.12 96.8354 119.039 85.0712 123.683C85.4324 121 85.938 115.263 85.0712 113.777C83.7812 118.885 77.8888 129.596 64.6385 131.578C56.589 132.781 48.9635 129.636 44.2059 124.767C39.1741 119.618 37.2402 112.693 37.2402 112.693C36.7758 114.55 36.4972 122.816 37.2402 123.683C34.595 123.053 28.2119 120.261 25.6307 115.17C22.9254 109.833 24.0828 102.185 24.0828 101.393C23.1024 102.838 21.2346 106.811 21.6061 111.145C18.5102 109.236 17.0333 100.703 18.2007 93.963C19.7523 85.0041 30.6251 81.8884 32.6379 75.6975C32.6501 75.6599 32.6621 75.6224 32.6739 75.5849C32.9988 74.2703 30.1197 72.7348 30.1197 71.9825L30.4293 66.4099C30.8937 59.9086 73.1521 54.3361 73.7713 60.8374C74.2871 66.2531 78.0539 74.3044 80.8918 77.7098Z" fill="#D9D9D9"/>
<path d="M95.1327 107.12C95.1327 107.12 96.8354 119.039 85.0712 123.683C85.4323 121 85.938 115.263 85.0712 113.777C83.7812 118.885 77.8888 129.596 64.6385 131.578C56.589 132.781 48.9635 129.636 44.2059 124.767C39.1741 119.618 37.2402 112.693 37.2402 112.693C36.7758 114.55 36.4972 122.816 37.2402 123.683C34.595 123.053 28.2119 120.261 25.6307 115.17C22.9254 109.833 24.0828 102.185 24.0828 101.393C23.1024 102.838 21.2346 106.811 21.6061 111.145C18.5102 109.236 17.0333 100.703 18.2007 93.963C19.7523 85.0041 30.6251 81.8884 32.6379 75.6975M95.1327 107.12C95.1327 107.12 95.5214 107.585 95.4423 107.894M95.1327 107.12L95.4423 107.894M32.906 71.5181C33.1983 72.4731 33.175 73.5607 32.906 74.7349C32.8338 75.0498 32.744 75.371 32.6379 75.6975M32.6379 75.6975C33.1664 74.359 30.1197 72.7564 30.1197 71.9825L30.4293 66.4099C30.8937 59.9086 73.1521 54.3361 73.7713 60.8374C74.2871 66.2531 78.0539 74.3044 80.8918 77.7098C83.3168 80.4961 88.3837 86.0686 89.2506 86.0686C90.3341 86.0686 103.337 94.737 101.944 103.715C100.829 110.897 99.7765 110.061 97.4546 113.777C97.0913 112.444 95.9543 109.277 95.4423 107.894" stroke="black" stroke-width="1.54793" stroke-linecap="round"/>
<path d="M59.9412 106.652C32.6864 107.757 33.936 79.3571 35.3292 64.7034L69.2288 56.035C80.0127 72.4946 82.8505 105.723 59.9412 106.652Z" fill="#FDDFBD" stroke="black" stroke-width="1.54793" stroke-linecap="round"/>
<path d="M74.0808 61.1469C64.1741 55.4506 40.594 62.3337 30.4293 66.5647C31.2417 50.1209 32.6139 17.4617 31.7129 16.3017C31.6978 16.2913 31.6827 16.2808 31.6676 16.2704C23.5769 10.6766 13.1295 2.63527 14.0212 2.63527C53.8959 -9.00515 70.6754 36.7929 74.0808 61.1469Z" fill="#C7253A"/>
<path d="M40.6456 21.52C40.0216 21.7874 36.2172 19.4159 31.6676 16.2704M31.6676 16.2704C23.5769 10.6766 13.1295 2.63527 14.0212 2.63527C53.8959 -9.00515 70.6754 36.7929 74.0808 61.1469C64.1741 55.4506 40.594 62.3337 30.4293 66.5647C31.2548 49.856 32.6583 16.4049 31.6676 16.2704Z" stroke="black" stroke-width="1.54793" stroke-linecap="round"/>
<path d="M49.0286 54.1368C49.4936 56.3039 43.6207 61.4533 37.4192 59.245C32.7053 57.5664 49.1004 51.2822 49.0286 54.1368Z" fill="#DDD3D2" stroke="black" stroke-width="1.54793" stroke-linecap="round"/>
<path d="M62.289 54.1368C61.8241 56.3039 67.6969 61.4533 73.8985 59.245C78.6123 57.5664 62.2173 51.2822 62.289 54.1368Z" fill="#DDD3D2" stroke="black" stroke-width="1.54793" stroke-linecap="round"/>
<path d="M62.8234 81.6856C63.929 85.5555 59.7275 90.7174 60.5015 90.9732C75.1139 95.8027 85.8875 84.6267 82.9464 84.1623C71.337 89.2705 61.2754 76.2679 62.8234 81.6856Z" fill="#D9D9D9" stroke="black" stroke-width="1.54793" stroke-linecap="round"/>
<path d="M50.0561 81.9953C48.9504 85.8651 53.1519 91.0271 52.378 91.2829C37.7655 96.1124 26.992 84.9364 29.933 84.472C41.5425 89.5802 51.604 76.5776 50.0561 81.9953Z" fill="#D9D9D9" stroke="black" stroke-width="1.54793" stroke-linecap="round"/>
<path d="M55.2021 93.2018C46.7225 92.6013 49.2032 81.7433 52.4765 75.9211C54.9751 76.1833 60.1918 76.3991 61.1114 75.1707C61.1132 75.1679 61.1151 75.1652 61.1172 75.1628C61.1153 75.1655 61.1133 75.1681 61.1114 75.1707C60.5821 76.0027 72.0708 94.3965 55.2021 93.2018Z" fill="#EA8283" stroke="black" stroke-width="1.54793" stroke-linecap="round"/>
<circle cx="66.4288" cy="72.1373" r="10.0615" fill="white" stroke="black" stroke-width="1.54793"/>
<ellipse cx="68.6096" cy="70.4306" rx="5.41775" ry="5.88213" fill="black"/>
<circle cx="69.6932" cy="67.954" r="2.47668" fill="white"/>
<circle cx="46.6153" cy="72.1373" r="10.0615" fill="white" stroke="black" stroke-width="1.54793"/>
<ellipse cx="48.7962" cy="70.4306" rx="5.41775" ry="5.88213" fill="black"/>
<ellipse cx="48.7962" cy="70.4306" rx="5.41775" ry="5.88213" fill="black"/>
<circle cx="49.8797" cy="67.954" r="2.47668" fill="white"/>
<circle cx="49.8797" cy="67.954" r="2.47668" fill="white"/>
<path d="M66.567 94.7795C57.7439 97.8753 49.385 94.7795 49.5398 95.0227C50.159 97.8827 52.7595 103.479 58.2082 102.983C65.0191 102.364 66.9736 94.5362 66.567 94.7795Z" fill="black" stroke="black" stroke-width="1.54793" stroke-linecap="round"/>
<path d="M16.3266 95.7985C16.3266 98.0213 15.5526 100.597 13.3855 100.597C11.2184 100.597 10.4445 98.0213 10.4445 95.7985C10.4445 93.5758 11.7612 91.7739 13.3855 91.7739C15.0098 91.7739 16.3266 93.5758 16.3266 95.7985Z" fill="#FDDFBD" stroke="black" stroke-width="1.23834"/>
<path d="M20.3932 100.034C19.6381 102.125 18.0351 104.284 15.9969 103.548C13.9587 102.812 14.1058 100.126 14.8609 98.0358C15.6161 95.9453 17.4667 94.6979 18.9943 95.2497C20.522 95.8015 21.1483 97.9436 20.3932 100.034Z" fill="#FDDFBD" stroke="black" stroke-width="1.23834"/>
<path d="M10.7541 95.7985C10.7541 98.0213 9.98011 100.597 7.81301 100.597C5.64591 100.597 4.87195 98.0213 4.87195 95.7985C4.87195 93.5758 6.18871 91.7739 7.81301 91.7739C9.43731 91.7739 10.7541 93.5758 10.7541 95.7985Z" fill="#FDDFBD" stroke="black" stroke-width="1.23834"/>
<path d="M5.64588 97.4361C5.64588 99.3664 4.97375 101.603 3.0918 101.603C1.20985 101.603 0.53772 99.3664 0.53772 97.4361C0.53772 95.5058 1.68122 93.941 3.0918 93.941C4.50238 93.941 5.64588 95.5058 5.64588 97.4361Z" fill="#FDDFBD" stroke="black" stroke-width="1.0754"/>
<path d="M103.972 96.7985C103.972 99.0213 104.746 101.597 106.913 101.597C109.08 101.597 109.854 99.0213 109.854 96.7985C109.854 94.5758 108.537 92.7739 106.913 92.7739C105.288 92.7739 103.972 94.5758 103.972 96.7985Z" fill="#FDDFBD" stroke="black" stroke-width="1.23834"/>
<path d="M99.9049 101.034C100.66 103.125 102.263 105.284 104.301 104.548C106.34 103.812 106.192 101.126 105.437 99.0359C104.682 96.9453 102.832 95.698 101.304 96.2498C99.7761 96.8016 99.1498 98.9436 99.9049 101.034Z" fill="#FDDFBD" stroke="black" stroke-width="1.23834"/>
<path d="M109.544 96.7985C109.544 99.0213 110.318 101.597 112.485 101.597C114.652 101.597 115.426 99.0213 115.426 96.7985C115.426 94.5758 114.11 92.7739 112.485 92.7739C110.861 92.7739 109.544 94.5758 109.544 96.7985Z" fill="#FDDFBD" stroke="black" stroke-width="1.23834"/>
<path d="M114.652 98.4361C114.652 100.366 115.324 102.603 117.206 102.603C119.088 102.603 119.76 100.366 119.76 98.4361C119.76 96.5058 118.617 94.941 117.206 94.941C115.796 94.941 114.652 96.5058 114.652 98.4361Z" fill="#FDDFBD" stroke="black" stroke-width="1.0754"/>
</svg>
