<svg width="294" height="525" viewBox="0 0 294 525" fill="none" xmlns="http://www.w3.org/2000/svg">
<path d="M298.646 365.73L304.899 407.533C313.501 411.506 345.344 407.841 344.216 407.556L344.273 383.557C320.107 382.257 303.786 371.131 298.646 365.73Z" fill="#385A80" stroke="black" stroke-width="3" stroke-linecap="round"/>
<path d="M302.357 408.091C302.146 407.738 333.576 411.413 347.819 406.364C348.331 406.183 348.77 415.67 347.288 421.539C353.023 424.188 355.433 433.742 319.196 450.766C306.451 457.253 281.037 462.321 281.339 430.699C281.128 430.346 287.858 431.985 294.188 429.742C293.182 426.986 293.235 420.916 301.484 418.677L302.357 408.091Z" fill="#51323B"/>
<path d="M347.288 421.539C348.77 415.67 348.331 406.183 347.819 406.364C333.576 411.413 302.146 407.738 302.357 408.091L301.484 418.677M347.288 421.539C338.323 423.854 319.46 427.985 315.732 425.991M347.288 421.539C353.023 424.188 355.433 433.742 319.196 450.766C306.451 457.253 281.037 462.321 281.339 430.699C281.128 430.346 287.858 431.985 294.188 429.742C293.182 426.986 293.235 420.916 301.484 418.677M301.484 418.677C305.095 419.511 311.861 421.956 315.732 425.991M318.187 429.799C317.692 428.403 316.828 427.133 315.732 425.991" stroke="black" stroke-width="3" stroke-linecap="round"/>
<path d="M294.188 429.741C296.956 429.24 305.538 435.909 309.482 439.307C312.519 438.773 319.091 436.067 318.187 429.799C317.423 424.503 303.32 418.54 300.92 418.534C297.741 419.632 291.944 423.411 294.188 429.741Z" fill="#F9E083" stroke="black" stroke-width="3" stroke-linecap="round"/>
<path d="M167.895 368.689C156.743 368.491 130.554 370.422 134.163 359.625C134.14 358.519 136.156 356.704 144.399 358.292C146.026 358.606 131.824 354.597 133.183 349.177C133.575 347.616 136.438 345.146 144.665 346.721C140.721 345.459 133.388 342.243 134.887 337.603C137.039 330.941 149.525 334.274 155.499 336.773C155.711 337.126 153.406 326.993 155.932 325.48C156.992 324.845 158.971 321.741 176.037 339.826L167.895 368.689Z" fill="#FDDFBD" stroke="black" stroke-width="3" stroke-linecap="round"/>
<path d="M177.661 339.333C172.367 340.105 165.847 370.875 169.093 372.29L203.037 381.706L207.304 343.17L177.661 339.333Z" fill="#B4D9E9" stroke="black" stroke-width="3" stroke-linecap="round"/>
<path d="M286.598 223.398C282.02 202.71 272.074 203.372 267.673 206.289C261.53 210.708 254.204 221.079 274.04 227.218L286.598 223.398Z" fill="#FDDFBD" stroke="black" stroke-width="3" stroke-linecap="round"/>
<path d="M197.953 314.411C197.625 324.227 196.522 344.223 194.734 345.677C192.499 347.495 180.22 387.191 198.157 403.374C212.506 416.32 213.275 412.83 224.297 416.598C222.811 413.24 219.843 404.799 218.58 401.088L217.92 398.972C217.92 398.972 234.404 426.415 266.463 416.257C261.216 411.329 250.547 400.341 249.842 395.822C261.073 404.195 291.199 416.405 321.856 398.262C340.48 387.24 350.933 367.957 352.578 349.932C354.319 330.868 346.691 313.339 346.691 313.339C350.765 316.392 365.208 332.976 365.129 336.01C369.529 330.273 378.011 313.804 374.794 298.971C371.422 283.424 356.203 269.589 354.874 267.955C359.32 269.291 369.839 274.353 376.344 283.917C379.527 274.784 368.258 254.705 354.542 242.76C336.311 226.882 308.655 238.697 294.116 229.303C294.028 229.246 293.94 229.189 293.853 229.131C290.977 226.964 294.34 218.967 293.078 217.415L283.09 206.439C271.225 193.807 174.704 253.21 184.334 267.66C192.356 279.697 198.094 302.625 197.953 314.411Z" fill="#D9D9D9"/>
<path d="M217.92 398.972C217.92 398.972 234.404 426.415 266.463 416.257C261.216 411.329 250.547 400.341 249.842 395.822C261.073 404.195 291.199 416.405 321.856 398.262C340.48 387.24 350.933 367.957 352.578 349.932C354.319 330.868 346.691 313.339 346.691 313.339C350.765 316.392 365.208 332.976 365.129 336.01C369.529 330.273 378.011 313.804 374.794 298.971C371.422 283.424 356.203 269.589 354.874 267.955C359.32 269.291 369.839 274.353 376.344 283.917C379.527 274.784 368.258 254.705 354.542 242.76C336.311 226.882 308.655 238.697 294.116 229.303M217.92 398.972C217.92 398.972 217.897 400.582 218.58 401.088M217.92 398.972L218.58 401.088M286.551 221.131C287.55 223.592 289.423 225.796 291.948 227.767C292.625 228.296 293.349 228.807 294.116 229.303M294.116 229.303C290.78 227.429 294.376 219.011 293.078 217.415L283.09 206.439C271.225 193.807 174.704 253.21 184.334 267.66C192.356 279.697 198.094 302.625 197.953 314.411C197.625 324.227 196.522 344.223 194.734 345.677C192.499 347.495 180.22 387.191 198.157 403.374C212.506 416.32 213.275 412.83 224.297 416.598C222.811 413.24 219.843 404.799 218.58 401.088" stroke="black" stroke-width="3" stroke-linecap="round"/>
<path d="M269.749 353.187C321.609 307.683 269.615 242.97 239.284 218.233C244.604 212.844 253.315 210.399 258.743 209.782C234.085 207.225 185.716 215.669 175.592 270.45C186.594 321.602 217.888 398.692 269.749 353.187Z" fill="#FDDFBD" stroke="black" stroke-width="3" stroke-linecap="round"/>
<path d="M248.19 315.219C249.483 306.585 246.872 295.207 244.157 291.072C261.07 289.487 297.68 281.495 303.86 263.822C311.585 241.731 310.401 318.362 248.19 315.219Z" fill="#D9D9D9" stroke="black" stroke-width="3" stroke-linecap="round"/>
<path d="M207.737 320.046C211.49 330.068 228.633 334.463 227.383 336.233C203.775 369.658 163.074 362.793 168.628 357.151C201.525 349.721 202.482 306.016 207.737 320.046Z" fill="#D9D9D9" stroke="black" stroke-width="3" stroke-linecap="round"/>
<path d="M177.927 286.73C186.205 253.788 249.555 217.399 279.562 204.31C242.776 172.251 170.211 108.059 169.594 103.744C169.603 103.69 169.611 103.636 169.62 103.582C174.371 74.7436 178.757 35.8229 176.917 37.7341C69.7887 99.268 132.953 229.371 177.927 286.73Z" fill="#C7253A"/>
<path d="M162.305 133.615C164.163 132.827 166.949 119.799 169.62 103.582M169.62 103.582C174.371 74.7436 178.757 35.8229 176.917 37.7341C69.7887 99.268 132.953 229.371 177.927 286.73C186.205 253.788 249.555 217.399 279.562 204.31C242.183 171.734 167.863 105.982 169.62 103.582Z" stroke="black" stroke-width="3" stroke-linecap="round"/>
<circle cx="26.753" cy="26.753" r="26.753" transform="matrix(-0.804091 0.594507 0.594507 0.804091 205.442 258.784)" fill="white" stroke="black" stroke-width="3"/>
<circle cx="6.58536" cy="6.58536" r="6.58536" transform="matrix(-0.804091 0.594507 0.594507 0.804091 200.664 287.623)" fill="black"/>
<path d="M228.464 334.922C250.749 338.704 251.169 309.092 246.374 291.992C239.754 291.098 226.141 288.374 224.538 284.622C224.535 284.614 224.532 284.606 224.528 284.598C224.531 284.606 224.535 284.614 224.538 284.622C225.382 287.104 184.133 327.399 228.464 334.922Z" fill="#EA8283" stroke="black" stroke-width="3" stroke-linecap="round"/>
<circle cx="26.753" cy="26.753" r="26.753" transform="matrix(-0.804091 0.594507 0.594507 0.804091 247.804 227.464)" fill="white" stroke="black" stroke-width="3"/>
<circle cx="6.58536" cy="6.58536" r="6.58536" transform="matrix(-0.804091 0.594507 0.594507 0.804091 242.364 256.793)" fill="black"/>
<path d="M261.868 348.58C243.977 361.296 235.876 351.213 234.063 344.582C232.381 338.434 244.21 343.077 253.082 336.861C262.9 329.501 258.177 317.786 266.563 319.345C280.187 323.078 269.867 342.002 261.868 348.58Z" fill="#512D3E" stroke="black" stroke-width="3" stroke-linecap="round" stroke-linejoin="round"/>
<path d="M254.247 344.432C247.903 344.394 242.799 349.819 241.571 352.192C242.199 353.029 249.429 355.454 259.954 348.435C268.374 342.82 271.261 334.437 271.652 330.948C264.227 331.633 256.955 340.223 254.247 344.432Z" fill="#E13A50" stroke="black" stroke-width="2" stroke-linecap="round" stroke-linejoin="round"/>
<path d="M208.952 242.717C206.527 237.346 218.898 220.665 236.256 222.921C249.45 224.636 210.369 250.176 208.952 242.717Z" fill="#DDD3D2" stroke="black" stroke-width="3" stroke-linecap="round"/>
<path d="M198.042 257.477C194.998 252.431 174.242 253.143 166.243 268.712C160.164 280.547 203.378 262.879 198.042 257.477Z" fill="#DDD3D2" stroke="black" stroke-width="3" stroke-linecap="round"/>
</svg>
