<svg width="233" height="388" viewBox="0 0 233 388" fill="none" xmlns="http://www.w3.org/2000/svg">
<path d="M5.02755 238.577L-14.5307 269.786C-22.7856 269.963 -46.9422 255.941 -45.9414 256.107L-37.6258 236.918C-17.8715 244.299 -0.959255 241.099 5.02755 238.577Z" fill="#385A80" stroke="black" stroke-width="3" stroke-linecap="round"/>
<path d="M-12.6945 271.118C-12.4029 270.91 -38.7871 262.894 -48.4038 253.9C-48.7501 253.576 -52.4061 261.001 -53.2671 266.205C-58.7704 266.323 -64.0238 273.114 -41.0117 299.336C-33.0925 308.958 -14.5602 321.86 -3.78373 296.499C-3.49213 296.29 -9.43871 295.254 -13.7128 291.257C-11.95 289.407 -9.87675 284.54 -15.6859 279.877L-12.6945 271.118Z" fill="#51323B"/>
<path d="M-53.2671 266.205C-52.4061 261.001 -48.7501 253.576 -48.4038 253.9C-38.7871 262.894 -12.4029 270.91 -12.6945 271.118L-15.6859 279.877M-53.2671 266.205C-46.9128 271.178 -33.2862 281.049 -29.6143 280.755M-53.2671 266.205C-58.7704 266.323 -64.0238 273.114 -41.0117 299.336C-33.0925 308.958 -14.5602 321.86 -3.78373 296.499C-3.49213 296.29 -9.43871 295.254 -13.7128 291.257C-11.95 289.407 -9.87675 284.54 -15.6859 279.877M-15.6859 279.877C-18.8604 279.285 -25.1162 278.881 -29.6143 280.755M-32.9012 282.942C-32.0195 281.999 -30.8873 281.286 -29.6143 280.755" stroke="black" stroke-width="3" stroke-linecap="round"/>
<path d="M69.9106 281.769C75.3067 289.853 86.2221 309.965 92.4392 302.235C93.2607 301.731 93.6423 299.398 88.5966 294.102C87.6007 293.057 97.2271 301.583 100.561 298.034C101.521 297.011 101.984 293.749 96.9562 288.458C99.7378 290.756 105.549 294.618 108.245 291.334C112.117 286.62 104.427 278.584 99.9324 274.824L87.2402 262.209L69.9106 281.769Z" fill="#FDDFBD" stroke="black" stroke-width="3" stroke-linecap="round"/>
<path d="M86.8367 260.786C88.7636 265.032 69.272 284.3 66.7066 282.587L43.8196 262.132L70.0662 240.857L86.8367 260.786Z" fill="#B4D9E9" stroke="black" stroke-width="3" stroke-linecap="round"/>
<path d="M116.313 260.185C115.886 259.684 115.067 259.291 113.597 259.297C112.136 259.303 110.243 259.711 108.021 260.553C103.59 262.232 98.1631 265.519 92.8405 270.05C87.518 274.581 83.4063 279.414 81.0415 283.52C79.8558 285.579 79.1517 287.382 78.9127 288.823C78.6721 290.274 78.9294 291.145 79.3558 291.646C79.7823 292.147 80.6007 292.539 82.0708 292.533C83.5321 292.527 85.4241 292.12 87.6458 291.278C92.0767 289.599 97.5039 286.312 102.826 281.781C108.149 277.25 112.261 272.417 114.625 268.311C115.811 266.252 116.516 264.449 116.755 263.007C116.995 261.557 116.739 260.686 116.313 260.185Z" fill="#875E35" stroke="black" stroke-width="3"/>
<circle cx="20.2457" cy="20.2457" r="18.7457" transform="matrix(-0.660205 -0.751085 -0.751085 0.660205 152.672 254.669)" fill="#C9E6EB" stroke="black" stroke-width="3"/>
<path d="M90.0706 263.066C84.9281 268.099 85.7813 274.548 90.9113 275.21C90.9113 275.21 93.5114 276.046 96.5727 272.53C99.5464 269.114 100.07 267.966 100.07 267.966C101.796 265.366 96.2417 257.025 90.0706 263.066Z" fill="#FDDFBD" stroke="black" stroke-width="3"/>
<path d="M38.9731 112.442C48.255 96.4809 56.3359 99.6661 59.2161 103.254C63.1447 108.549 66.4786 119.1 48.385 118.94L38.9731 112.442Z" fill="#FDDFBD" stroke="black" stroke-width="3" stroke-linecap="round"/>
<path d="M83.7604 200.396C81.976 208.766 78.7088 225.908 79.9156 227.514C81.424 229.521 83.4706 265.671 64.9029 275.589C50.0488 283.524 50.1315 280.411 40.0185 281.282C41.98 278.755 46.2633 272.24 48.1114 269.366L49.1139 267.715C49.1139 267.715 29.4089 287.462 4.43059 272.138C9.90277 269.072 21.2335 262.021 22.779 258.347C11.5223 263.069 -16.5201 267.067 -38.636 245.285C-52.0714 232.052 -56.8608 213.549 -54.4666 197.959C-51.9345 181.471 -41.8017 168.25 -41.8017 168.25C-45.8885 169.975 -61.5858 180.967 -62.157 183.55C-64.673 177.774 -68.3872 162.064 -62.5508 150.195C-56.4336 137.756 -40.6571 129.252 -39.19 128.15C-43.2306 128.345 -53.1894 130.417 -60.6996 137.139C-61.4736 128.747 -47.7261 114.133 -33.6174 106.911C-14.8645 97.3131 6.04275 113.113 20.3111 108.223C20.3978 108.193 20.484 108.163 20.5698 108.132C23.4569 106.904 22.2927 99.4342 23.6861 98.3868L34.4381 91.2024C47.1258 83.0117 116.276 153.521 105.097 163.719C95.7848 172.214 86.117 190.399 83.7604 200.396Z" fill="#D9D9D9"/>
<path d="M49.1139 267.715C49.1139 267.715 29.4089 287.462 4.43058 272.138C9.90277 269.072 21.2335 262.021 22.779 258.347C11.5223 263.069 -16.52 267.067 -38.636 245.285C-52.0714 232.052 -56.8608 213.549 -54.4666 197.959C-51.9345 181.471 -41.8017 168.25 -41.8017 168.25C-45.8885 169.975 -61.5858 180.967 -62.157 183.55C-64.673 177.774 -68.3872 162.064 -62.5508 150.195C-56.4336 137.756 -40.6571 129.252 -39.19 128.15C-43.2306 128.345 -53.1894 130.417 -60.6996 137.139C-61.4736 128.747 -47.7261 114.133 -33.6174 106.911C-14.8645 97.3131 6.04275 113.113 20.3111 108.223M49.1139 267.715C49.1139 267.715 48.795 269.082 48.1114 269.366M49.1139 267.715L48.1114 269.366M28.4251 102.901C27.0634 104.772 25.0165 106.243 22.4673 107.379C21.7835 107.684 21.0636 107.965 20.3111 108.223M20.3111 108.223C23.5258 107.338 22.2527 99.4642 23.6861 98.3868L34.4381 91.2024C47.1258 83.0117 116.277 153.521 105.097 163.719C95.7848 172.214 86.117 190.399 83.7604 200.396C81.976 208.766 78.7088 225.908 79.9156 227.514C81.424 229.521 83.4706 265.671 64.9029 275.589C50.0488 283.524 50.1315 280.411 40.0185 281.282C41.9801 278.755 46.2633 272.24 48.1114 269.366" stroke="black" stroke-width="3" stroke-linecap="round"/>
<path d="M14.8981 218.11C-19.4026 168.734 38.1607 124.927 69.0072 110.378C65.6398 104.703 58.7869 100.805 54.3254 99.1432C75.7157 102.16 114.848 119.461 111.904 167.915C91.8556 208.864 49.1989 267.486 14.8981 218.11Z" fill="#FDDFBD" stroke="black" stroke-width="3" stroke-linecap="round"/>
<path d="M41.106 190.529C41.8253 182.955 46.4233 173.881 49.5884 170.955C35.6175 166.062 6.33518 151.613 4.8209 135.369C2.92806 115.065 -12.1664 180.12 41.106 190.529Z" fill="#D9D9D9" stroke="black" stroke-width="3" stroke-linecap="round"/>
<path d="M74.3026 203.107C69.0235 210.794 53.6028 210.91 54.2884 212.67C67.2329 245.895 103.095 248.639 99.5834 242.701C73.3238 229.508 81.6932 192.345 74.3026 203.107Z" fill="#D9D9D9" stroke="black" stroke-width="3" stroke-linecap="round"/>
<circle cx="85.9934" cy="184.6" r="23.3124" transform="rotate(50.4251 85.9934 184.6)" fill="white" stroke="black" stroke-width="3"/>
<circle cx="83.8686" cy="198.911" r="5.73843" transform="rotate(50.4251 83.8686 198.911)" fill="black"/>
<path d="M53.6497 211.334C34.0091 209.852 39.8734 184.721 47.5199 171.266C53.3063 171.9 65.3908 172.456 67.5345 169.62C67.5387 169.614 67.5433 169.607 67.5481 169.602C67.5436 169.608 67.5391 169.614 67.5345 169.62C66.2994 171.542 92.7208 214.283 53.6497 211.334Z" fill="#EA8283" stroke="black" stroke-width="3" stroke-linecap="round"/>
<circle cx="56.7467" cy="149.215" r="23.3124" transform="rotate(50.4251 56.7467 149.215)" fill="white" stroke="black" stroke-width="3"/>
<circle cx="55.079" cy="164.079" r="5.73843" transform="rotate(50.4251 55.079 164.079)" fill="black"/>
<path d="M136.947 126.95C134.954 115.312 129.111 103.365 119.252 94.2518C99.247 75.7595 70.1774 75.6105 55.6997 88.0996L54.8338 88.8467L53.8843 88.2102C48.6241 84.6837 44.2098 82.1516 40.9094 80.7672C39.2506 80.0715 37.9596 79.7035 37.0302 79.6075C36.0561 79.507 35.825 79.7327 35.8128 79.7459C35.796 79.7644 35.5705 80.0533 35.806 81.1483C36.0291 82.1856 36.5992 83.5961 37.5637 85.3736C39.4829 88.9107 42.7837 93.5775 47.2435 99.0591C55.8555 109.644 68.6373 123.083 83.6473 136.958C96.9955 149.297 109.865 159.909 120.451 167.563C127.273 172.495 133.1 176.165 137.473 178.285C139.67 179.35 141.417 179.982 142.695 180.217C144.07 180.469 144.412 180.18 144.436 180.155C144.454 180.136 144.698 179.818 144.411 178.611C144.143 177.481 143.491 175.951 142.414 174.034C140.27 170.22 136.628 165.192 131.75 159.313L131.02 158.432L131.675 157.495C137.054 149.807 138.945 138.613 136.947 126.95Z" fill="#E5D7A2" stroke="black" stroke-width="3"/>
<path d="M123.362 170.745C119.474 174.099 102.477 167.887 100.07 152.825C98.2409 141.377 129.245 167.716 123.362 170.745Z" fill="#DDD3D2" stroke="black" stroke-width="3" stroke-linecap="round"/>
<path d="M66.7302 115.79C63.8896 120.069 72.1848 136.153 87.4294 136.651C99.0169 137.03 68.9966 109.575 66.7302 115.79Z" fill="#DDD3D2" stroke="black" stroke-width="3" stroke-linecap="round"/>
<path d="M16.6684 201.777C14.2555 204.326 18.4371 214.132 24.8092 220.164C31.1814 226.197 42.795 228.898 45.208 226.349C47.6209 223.8 41.799 216.696 35.4269 210.663C29.0548 204.631 19.0813 199.228 16.6684 201.777Z" fill="black"/>
</svg>
