<svg width="362" height="102" viewBox="0 0 362 102" fill="none" xmlns="http://www.w3.org/2000/svg">
<path d="M12.1043 53.0639C12.1043 53.8134 11.9419 54.338 11.6171 54.6378C11.3173 54.9127 10.7927 55.0501 10.0432 55.0501H2.0611C1.31161 55.0501 0.774473 54.9127 0.449694 54.6378C0.149898 54.338 0 53.8134 0 53.0639V7.30753C0 6.58302 0.124915 6.0334 0.374745 5.65865C1.49898 4.00977 3.07291 2.27345 5.09653 0.449694C5.47128 0.149898 5.79606 0 6.07087 0C6.37067 0 6.68295 0.149898 7.00773 0.449694C8.10699 1.39905 9.03136 2.31093 9.78085 3.18533C10.5303 4.03476 11.1799 4.8592 11.7295 5.65865C11.9794 6.05838 12.1043 6.60801 12.1043 7.30753V22.8595H12.9662C16.0891 22.8595 18.6248 22.4347 20.5735 21.5853C22.5222 20.7109 24.0212 19.5492 25.0704 18.1002C26.1197 16.6262 26.8318 14.9898 27.2065 13.191C27.6062 11.3923 27.8061 9.556 27.8061 7.68228V7.30753C27.8061 6.58302 27.931 6.0334 28.1808 5.65865C29.3051 4.00977 30.879 2.27345 32.9026 0.449694C33.2774 0.149898 33.6021 0 33.877 0C34.1768 0 34.489 0.149898 34.8138 0.449694C35.9131 1.39905 36.8374 2.31093 37.5869 3.18533C38.3364 4.03476 38.986 4.8592 39.5356 5.65865C39.7854 6.05838 39.9104 6.60801 39.9104 7.30753V7.68228C39.9104 9.7059 39.7105 11.8045 39.3108 13.978C38.911 16.1265 38.199 18.1626 37.1747 20.0863C36.1754 22.01 34.7514 23.6589 32.9026 25.033C31.0789 26.3821 28.718 27.269 25.8199 27.6937V27.956C28.4182 28.7804 30.7291 30.1545 32.7527 32.0782C34.8013 33.9769 36.5626 36.1504 38.0366 38.5987C39.5356 41.0471 40.7598 43.5079 41.7091 45.9812C42.6585 48.4545 43.333 50.6655 43.7328 52.6142C43.9326 53.5386 43.9326 54.1757 43.7328 54.5254C43.5329 54.8752 43.0582 55.0501 42.3087 55.0501H33.1275C31.8533 55.0501 31.1038 54.463 30.879 53.2888C30.5043 51.39 29.7673 49.254 28.668 46.8806C27.5937 44.4822 26.2446 42.1713 24.6208 39.9478C22.9969 37.7243 21.1856 35.8881 19.187 34.4391C17.2133 32.9901 15.1397 32.2656 12.9662 32.2656H12.1043V53.0639Z" fill="black"/>
<path d="M63.6692 53.0639C63.6692 53.8134 63.5068 54.338 63.182 54.6378C62.8822 54.9127 62.3576 55.0501 61.6081 55.0501H53.626C52.8765 55.0501 52.3394 54.9127 52.0146 54.6378C51.7148 54.338 51.5649 53.8134 51.5649 53.0639V11.3548C51.5649 8.85648 51.7898 6.88282 52.2395 5.4338C52.7141 3.95981 53.6135 2.91052 54.9376 2.28595C56.2867 1.63639 58.2479 1.31161 60.8211 1.31161H70.7519C83.793 1.31161 90.3136 6.3207 90.3136 16.3389C90.3136 19.3868 89.8014 21.8851 88.7771 23.8338C87.7528 25.7825 86.4787 27.3064 84.9547 28.4057C83.4308 29.4799 81.9318 30.2919 80.4578 30.8415V31.0289C82.1316 32.1282 83.7181 33.5772 85.217 35.3759C86.741 37.1497 88.1151 39.0859 89.3392 41.1845C90.5634 43.2581 91.6002 45.3192 92.4496 47.3678C93.299 49.3914 93.8861 51.2027 94.2109 52.8016C94.3608 53.5511 94.3608 54.1132 94.2109 54.4879C94.086 54.8627 93.6613 55.0501 92.9368 55.0501H84.2802C83.6306 55.0501 83.056 54.9127 82.5564 54.6378C82.0817 54.363 81.6445 53.726 81.2447 52.7266C79.346 47.9549 77.16 44.07 74.6867 41.0721C72.2134 38.0491 69.8275 35.6258 67.5291 33.802C66.0551 32.6278 65.3181 31.7909 65.3181 31.2912C65.3181 30.8915 65.5554 30.3419 66.0301 29.6423C66.3299 29.2176 66.7671 28.7055 67.3417 28.1059C67.9163 27.5063 68.416 27.0566 68.8407 26.7568C69.2654 26.457 69.6027 26.2696 69.8525 26.1947C70.1273 26.1197 70.5395 26.0823 71.0891 26.0823C72.9379 26.0823 74.4743 25.4452 75.6985 24.1711C76.9477 22.8969 77.5722 20.8858 77.5722 18.1377C77.5722 15.5394 76.9102 13.6407 75.5861 12.4415C74.287 11.2174 72.4882 10.6053 70.1898 10.6053H67.9413C66.2924 10.6053 65.1682 10.955 64.5686 11.6546C63.969 12.3541 63.6692 13.5533 63.6692 15.2521V53.0639Z" fill="black"/>
<path d="M131.685 4.27209C133.06 6.19579 134.459 8.6816 135.883 11.7295C137.332 14.7525 138.731 18.0752 140.08 21.6977C141.429 25.3203 142.64 29.0303 143.715 32.8277C144.814 36.6001 145.713 40.2351 146.413 43.7328C147.112 47.2304 147.512 50.3408 147.612 53.0639C147.637 54.388 147.037 55.0501 145.813 55.0501H136.744C135.57 55.0501 134.958 54.463 134.908 53.2888C134.808 50.4907 134.359 47.093 133.559 43.0957H113.098C112.399 46.993 111.999 50.3907 111.899 53.2888C111.849 54.463 111.212 55.0501 109.988 55.0501H101.106C100.657 55.0501 100.282 54.9251 99.982 54.6753C99.6822 54.4005 99.5448 53.9383 99.5698 53.2888C99.6947 50.5156 100.094 47.3678 100.769 43.8452C101.468 40.2976 102.368 36.6251 103.467 32.8277C104.566 29.0303 105.791 25.3203 107.14 21.6977C108.489 18.0502 109.888 14.715 111.337 11.692C112.786 8.6691 114.197 6.19579 115.571 4.27209C116.296 3.24779 117.058 2.4983 117.857 2.02362C118.682 1.54895 119.694 1.31161 120.893 1.31161H126.289C127.513 1.31161 128.538 1.54895 129.362 2.02362C130.186 2.4983 130.961 3.24779 131.685 4.27209ZM119.843 11.8794C121.642 14.8774 120.056 18.9121 118.682 22.5597C117.308 26.2072 116.121 29.9546 115.122 33.802C115.122 33.802 118.045 32.2656 123.441 32.2656C128.837 32.2656 131.386 33.802 131.386 33.802C130.336 29.9546 129.125 26.2072 127.751 22.5597C126.377 18.9121 124.64 15.1397 123.441 13.6782C122.242 12.2167 119.843 11.8794 119.843 11.8794Z" fill="black"/>
<path d="M170.959 55.9494C167.786 55.9494 165.15 55.6621 163.052 55.0875C160.978 54.5129 159.304 53.8009 158.03 52.9515C156.781 52.0771 155.819 51.2152 155.144 50.3657C154.92 50.041 154.72 49.7287 154.545 49.4289C154.37 49.1291 154.245 48.7918 154.17 48.4171C154.07 47.9174 153.97 47.2679 153.87 46.4684C153.77 45.644 153.758 44.6946 153.833 43.6203C153.858 43.1706 153.945 42.8584 154.095 42.6835C154.27 42.4836 154.557 42.3337 154.957 42.2338C155.682 42.0589 156.618 41.909 157.768 41.7841C158.942 41.6342 159.779 41.5592 160.278 41.5592C160.803 41.5592 161.228 41.6592 161.553 41.859C161.877 42.0589 162.265 42.3962 162.714 42.8708C163.214 43.3955 164.076 44.07 165.3 44.8945C166.524 45.6939 168.41 46.0937 170.959 46.0937C173.407 46.0937 175.256 45.5815 176.505 44.5572C177.754 43.5329 178.379 42.1089 178.379 40.2851C178.379 39.3108 178.079 38.3989 177.479 37.5495C176.905 36.6751 175.843 35.8131 174.294 34.9637C172.745 34.0893 170.534 33.1774 167.661 32.2281C162.914 30.6292 159.492 28.643 157.393 26.2696C155.294 23.8962 154.245 20.5985 154.245 16.3764C154.245 12.8787 155.095 9.95573 156.793 7.60733C158.492 5.25892 160.841 3.48513 163.839 2.28595C166.837 1.08676 170.297 0.487169 174.219 0.487169C177.242 0.487169 179.74 0.849422 181.714 1.57393C183.713 2.27345 185.262 3.07291 186.361 3.9723C187.46 4.8467 188.172 5.55872 188.497 6.10835C188.697 6.43312 188.822 6.68295 188.872 6.85784C188.946 7.00773 188.996 7.22009 189.021 7.4949C189.096 8.26938 189.121 9.13129 189.096 10.0806C189.071 11.03 188.984 12.1043 188.834 13.3035C188.759 13.7032 188.622 13.978 188.422 14.1279C188.247 14.2528 187.972 14.3153 187.597 14.3153C185.174 14.3652 183.3 14.2403 181.976 13.9405C181.452 13.8156 181.102 13.6907 180.927 13.5658C180.752 13.4409 180.527 13.241 180.252 12.9662C179.853 12.4915 179.216 11.9419 178.341 11.3173C177.492 10.6677 176.118 10.343 174.219 10.343C171.596 10.343 169.735 10.9426 168.635 12.1417C167.536 13.3159 166.986 14.64 166.986 16.114C166.986 17.8629 167.798 19.2369 169.422 20.2362C171.046 21.2106 173.607 22.3223 177.105 23.5715C180.028 24.5958 182.538 25.7075 184.637 26.9067C186.736 28.1059 188.334 29.6423 189.434 31.5161C190.558 33.3898 191.12 35.8631 191.12 38.936C191.12 42.7584 190.233 45.9313 188.459 48.4545C186.711 50.9778 184.312 52.864 181.264 54.1132C178.241 55.3374 174.806 55.9494 170.959 55.9494Z" fill="black"/>
<path d="M211.918 53.0639C211.918 53.8134 211.768 54.338 211.469 54.6378C211.194 54.9127 210.694 55.0501 209.97 55.0501H202.437C201.738 55.0501 201.238 54.9127 200.938 54.6378C200.639 54.338 200.489 53.8134 200.489 53.0639V5.5837C200.489 4.1097 200.776 3.03544 201.351 2.36089C201.925 1.66137 202.937 1.31161 204.386 1.31161H207.871C209.145 1.31161 210.344 1.48649 211.469 1.83625C212.618 2.16103 213.83 2.91052 215.104 4.08472C216.403 5.25892 217.902 7.08268 219.601 9.556C221.324 12.0043 223.398 15.3521 225.821 19.5992C228.145 23.6464 230.006 26.8817 231.405 29.3051C232.829 31.7284 233.928 33.5772 234.703 34.8513C235.477 36.1254 236.052 37.0373 236.427 37.5869C236.826 38.1366 237.151 38.5863 237.401 38.936V7.30753C237.401 6.58302 237.513 6.0334 237.738 5.65865C238.813 4.00977 240.299 2.27345 242.198 0.449694C242.573 0.149898 242.885 0 243.135 0C243.409 0 243.709 0.149898 244.034 0.449694C245.058 1.39905 245.92 2.31093 246.62 3.18533C247.344 4.03476 247.969 4.8592 248.493 5.65865C248.718 6.05838 248.831 6.60801 248.831 7.30753V51.9397C248.831 53.0639 248.618 53.8634 248.194 54.338C247.769 54.8127 246.995 55.0501 245.87 55.0501H242.273C241.198 55.0501 240.099 54.8752 238.975 54.5254C237.851 54.1507 236.577 53.3262 235.153 52.0521C233.729 50.753 232.042 48.7418 230.094 46.0187C228.145 43.2956 225.796 39.5731 223.048 34.8513C220.725 30.829 218.864 27.6312 217.465 25.2578C216.091 22.8844 215.041 21.0982 214.317 19.899C213.592 18.6748 213.068 17.8254 212.743 17.3507C212.418 16.851 212.143 16.4763 211.918 16.2265V53.0639Z" fill="black"/>
<path d="M323.742 55.0501C321.169 55.0501 319.208 54.7253 317.859 54.0757C316.535 53.4262 315.635 52.3644 315.161 50.8904C314.711 49.4164 314.486 47.4552 314.486 45.0069V7.30753C314.486 6.58302 314.611 6.0334 314.861 5.65865C315.985 4.00977 317.559 2.27345 319.583 0.449694C319.957 0.149898 320.282 0 320.557 0C320.857 0 321.169 0.149898 321.494 0.449694C322.593 1.39905 323.517 2.31093 324.267 3.18533C325.016 4.03476 325.666 4.8592 326.216 5.65865C326.465 6.05838 326.59 6.60801 326.59 7.30753V40.5474C326.59 42.2213 326.89 43.4205 327.49 44.145C328.089 44.8695 329.214 45.2317 330.862 45.2317L342.367 45.1943C342.967 45.1943 343.416 45.2942 343.716 45.4941C344.366 45.9438 345.04 46.4809 345.74 47.1055C346.439 47.73 347.176 48.4795 347.951 49.3539C348.201 49.6787 348.326 49.941 348.326 50.1409C348.326 50.3657 348.201 50.6156 347.951 50.8904C347.176 51.7648 346.439 52.5143 345.74 53.1389C345.04 53.7634 344.366 54.3006 343.716 54.7503C343.366 54.9501 342.917 55.0501 342.367 55.0501H323.742Z" fill="black"/>
<path d="M289.943 4.15967C291.317 6.08336 292.716 8.56917 294.14 11.6171C295.589 14.64 296.988 17.9628 298.337 21.5853C299.687 25.2079 300.898 28.9178 301.973 32.7152C303.072 36.4877 303.971 40.1227 304.671 43.6203C305.37 47.118 305.77 50.2283 305.87 52.9515C305.895 54.2756 305.295 54.9376 304.071 54.9376H295.002C293.828 54.9376 293.216 54.3505 293.166 53.1763C293.066 50.3782 292.616 46.9805 291.817 42.9833H271.356C270.656 46.8806 270.257 50.2783 270.157 53.1763C270.107 54.3505 269.47 54.9376 268.245 54.9376H259.364C258.914 54.9376 258.54 54.8127 258.24 54.5629C257.94 54.2881 257.803 53.8259 257.828 53.1763C257.952 50.4032 258.352 47.2554 259.027 43.7328C259.726 40.1852 260.626 36.5127 261.725 32.7152C262.824 28.9178 264.048 25.2079 265.397 21.5853C266.746 17.9378 268.146 14.6026 269.595 11.5796C271.044 8.55668 272.455 6.08336 273.829 4.15967C274.554 3.13537 275.316 2.38588 276.115 1.9112C276.94 1.43652 277.951 1.19918 279.151 1.19918H284.547C285.771 1.19918 286.795 1.43652 287.62 1.9112C288.444 2.38588 289.219 3.13537 289.943 4.15967ZM278.101 11.767C279.9 14.765 278.314 18.7997 276.94 22.4472C275.565 26.0948 274.379 29.8422 273.379 33.6896C273.379 33.6896 276.302 32.1531 281.699 32.1531C287.095 32.1531 289.643 33.6896 289.643 33.6896C288.594 29.8422 287.382 26.0948 286.008 22.4472C284.634 18.7997 282.898 15.0273 281.699 13.5658C280.5 12.1043 278.101 11.767 278.101 11.767Z" fill="black"/>
<rect x="296" y="56.1531" width="58.9908" height="46.2381" rx="23.119" transform="rotate(-8.92608 296 56.1531)" fill="#D6484A"/>
<path d="M327.702 82.7353C327.519 82.9133 327.182 83.1725 326.691 83.513C326.207 83.8436 325.518 84.1801 324.624 84.5225C323.73 84.8649 322.584 85.1458 321.187 85.3652C319.311 85.6599 317.643 85.6058 316.184 85.2029C314.732 84.79 313.532 83.9467 312.586 82.673C311.638 81.3907 310.984 79.6014 310.623 77.3051C310.143 74.2461 310.557 71.7666 311.865 69.8666C313.172 67.958 315.227 66.7837 318.029 66.3437C319.365 66.1337 320.452 66.0947 321.289 66.2266C322.127 66.3585 322.778 66.5635 323.243 66.8416C323.708 67.1198 324.042 67.3746 324.245 67.6061C324.32 67.6909 324.376 67.7699 324.414 67.843C324.451 67.9075 324.485 68.0162 324.518 68.1691C324.576 68.3707 324.628 68.6699 324.672 69.0667C324.726 69.4622 324.75 69.814 324.746 70.1219C324.741 70.3158 324.705 70.4488 324.637 70.5209C324.608 70.5606 324.553 70.6 324.472 70.6391C324.39 70.6783 324.263 70.7113 324.092 70.7383C323.818 70.7813 323.495 70.8232 323.124 70.8639C322.76 70.8948 322.49 70.9108 322.315 70.912C322.104 70.91 321.947 70.8864 321.843 70.8413C321.747 70.7862 321.636 70.6982 321.512 70.5772C321.387 70.4563 321.221 70.32 321.013 70.1683C320.803 70.008 320.503 69.884 320.112 69.7962C319.729 69.7071 319.216 69.713 318.574 69.8139C317.16 70.036 316.131 70.7243 315.487 71.8791C314.842 73.0252 314.67 74.558 314.971 76.4773C315.287 78.4909 315.943 79.9551 316.939 80.8699C317.942 81.7834 319.228 82.117 320.796 81.8707C321.585 81.7469 322.154 81.6004 322.505 81.4311C322.864 81.2519 323.089 81.1243 323.183 81.0482L322.555 77.051C322.516 76.8025 322.529 76.6072 322.595 76.4653C322.891 75.8392 323.338 75.1589 323.933 74.4244C324.046 74.3014 324.149 74.2324 324.243 74.2176C324.346 74.2015 324.461 74.2361 324.589 74.3214C325.017 74.5878 325.383 74.8508 325.687 75.1103C325.99 75.3612 326.257 75.609 326.489 75.8536C326.596 75.9772 326.669 76.159 326.706 76.3989L327.702 82.7353Z" fill="black"/>
<path fill-rule="evenodd" clip-rule="evenodd" d="M334.51 82.2322C335.938 82.7105 337.542 82.8096 339.325 82.5297C341.175 82.239 342.719 81.641 343.955 80.7356C345.19 79.8217 346.06 78.5964 346.565 77.0596C347.068 75.5143 347.148 73.6449 346.803 71.4513C346.316 68.3495 345.169 66.1328 343.362 64.8011C341.554 63.4609 339.308 63.0014 336.626 63.4226C333.765 63.8721 331.66 65.0324 330.312 66.9035C328.962 68.7661 328.545 71.3382 329.061 74.6199C329.385 76.685 330.016 78.3507 330.952 79.6172C331.897 80.8823 333.083 81.754 334.51 82.2322ZM335.264 72.7454C335.567 70.3359 335.899 67.697 334.38 66.1492C334.38 66.1492 335.909 66.0024 336.864 66.726C337.82 67.4496 339.448 69.5184 340.835 71.5638C342.221 73.6092 343.522 75.7403 344.738 77.9569C344.738 77.9569 342.94 77.3866 339.613 78.1848C336.287 78.9829 334.712 80.3625 334.712 80.3625C334.759 77.8428 334.936 75.3571 335.244 72.9052C335.25 72.8521 335.257 72.7988 335.264 72.7454Z" fill="black"/>
</svg>
