<svg width="94" height="75" viewBox="0 0 94 75" fill="none" xmlns="http://www.w3.org/2000/svg">
<path d="M29.4193 43.6079L25.6768 52.8872C26.9548 54.7306 33.8916 57.8056 33.6956 57.6119L36.5884 52.7224C31.814 49.556 29.8197 45.3267 29.4193 43.6079Z" fill="#385A80" stroke="black" stroke-width="0.97" stroke-linecap="round"/>
<path d="M25.091 52.696C25.0904 52.5986 31.0618 57.1216 34.5737 57.8014C34.7001 57.8259 33.6507 59.8142 32.6437 60.8338C33.4957 62.0627 32.8405 64.3012 23.4035 63.4242C20.0245 63.2177 14.2309 61.2009 18.0887 54.7854C18.0881 54.688 19.2643 55.8304 20.8251 56.1325C20.9508 55.4497 21.6902 54.2175 23.6422 54.7511L25.091 52.696Z" fill="#51323B"/>
<path d="M32.6437 60.8338C33.6507 59.8142 34.7001 57.8259 34.5737 57.8014C31.0618 57.1216 25.0904 52.5986 25.091 52.696L23.6422 54.7511M32.6437 60.8338C30.5367 60.2297 26.1924 58.808 25.6711 57.9538M32.6437 60.8338C33.4957 62.0627 32.8405 64.3012 23.4035 63.4242C20.0245 63.2177 14.2309 61.2009 18.0887 54.7854C18.0881 54.688 19.2643 55.8304 20.8251 56.1325C20.9508 55.4497 21.6902 54.2175 23.6422 54.7511M23.6422 54.7511C24.2788 55.3547 25.3656 56.6658 25.6711 57.9538M25.7147 59.0253C25.7814 58.6811 25.7575 58.3184 25.6711 57.9538" stroke="black" stroke-width="0.97" stroke-linecap="round"/>
<path d="M20.8251 56.1325C21.4501 56.3625 22.4003 58.7535 22.7972 59.9203C23.4808 60.1759 25.1466 60.4129 25.7147 59.0253C26.1946 57.8532 24.0331 54.9435 23.5441 54.6542C22.7637 54.4967 21.1273 54.5717 20.8251 56.1325Z" fill="#F9E083" stroke="black" stroke-width="0.97" stroke-linecap="round"/>
<path d="M32.1189 44.1126L33.0456 54.0752C35.0263 55.1278 42.601 54.6815 42.338 54.5992L42.668 48.9276C36.9735 48.3016 33.2625 45.4568 32.1189 44.1126Z" fill="#385A80" stroke="black" stroke-width="0.97" stroke-linecap="round"/>
<path d="M32.4373 54.1738C32.3921 54.0875 39.7725 55.3705 43.2053 54.3652C43.3289 54.329 43.3076 56.5772 42.8798 57.9448C44.2004 58.6466 44.644 60.9364 35.8546 64.4822C32.7567 65.8474 26.6832 66.7103 27.1714 59.2402C27.1262 59.1539 28.6953 59.6301 30.221 59.1833C30.0197 58.5188 30.1121 57.0848 32.0916 56.6643L32.4373 54.1738Z" fill="#51323B"/>
<path d="M42.8798 57.9448C43.3076 56.5772 43.3289 54.329 43.2053 54.3652C39.7725 55.3705 32.3921 54.0875 32.4373 54.1738L32.0916 56.6643M42.8798 57.9448C40.7303 58.3737 36.2175 59.1013 35.3627 58.581M42.8798 57.9448C44.2004 58.6466 44.644 60.9364 35.8546 64.4822C32.7567 65.8474 26.6832 66.7103 27.1714 59.2402C27.1262 59.1539 28.6953 59.6301 30.221 59.1833C30.0197 58.5188 30.1121 57.0848 32.0916 56.6643M32.0916 56.6643C32.934 56.909 34.5009 57.5762 35.3627 58.581M35.8926 59.5133C35.7941 59.1768 35.6066 58.8654 35.3627 58.581" stroke="black" stroke-width="0.97" stroke-linecap="round"/>
<path d="M30.2211 59.1833C30.882 59.1013 32.8223 60.7909 33.7099 61.6459C34.4346 61.5598 36.0237 61.0069 35.8927 59.5133C35.782 58.2516 32.5273 56.6562 31.9601 56.6232C31.1942 56.8409 29.7742 57.6576 30.2211 59.1833Z" fill="#F9E083" stroke="black" stroke-width="0.97" stroke-linecap="round"/>
<path d="M84.8386 74.0282C81.2944 67.769 90.3075 62.6508 93.0129 56.2704C83.107 59.259 67.4557 59.8996 67.0838 59.3047C67.0795 59.2933 67.0773 59.2874 67.0773 59.2874C63.5901 54.1717 47.6467 53.5301 47.643 54.0913C68.8389 76.2493 69.5237 71.7835 84.8386 74.0282Z" fill="#C7253A"/>
<path d="M67.0773 59.2874C63.5901 54.1717 47.6467 53.5301 47.643 54.0913C68.8389 76.2493 69.5237 71.7835 84.8386 74.0282C81.2944 67.769 90.3075 62.6508 93.0129 56.2704C83.0129 59.2874 67.1579 59.9115 67.0773 59.2874ZM67.0773 59.2874C67.0773 59.2874 70.0129 67.2704 74.5129 67.2704" stroke="black" stroke-width="0.97" stroke-linecap="round"/>
<path d="M21.0074 50.638C20.9198 53.277 21.281 59.483 18.7387 58.5892C18.4768 58.5905 18.0547 58.1068 18.4607 56.1615C18.5409 55.7775 17.5401 59.1245 16.2622 58.7828C15.8941 58.6844 15.3198 57.9977 15.7227 56.0562C15.4097 56.985 14.6216 58.7089 13.5287 58.3372C11.9599 57.8035 12.5839 54.847 13.0827 53.3352L14.2055 48.6053L21.0074 50.638Z" fill="#FDDFBD" stroke="black" stroke-width="0.97" stroke-linecap="round"/>
<path d="M14.0948 48.2191C14.2581 49.4751 21.5174 51.131 21.8641 50.3679L24.2172 42.3679L15.1114 41.2167L14.0948 48.2191Z" fill="#B4D9E9" stroke="black" stroke-width="0.97" stroke-linecap="round"/>
<path d="M13.6747 49.2085C15.5827 49.6337 16.3095 51.2445 15.2201 52.1321C15.2201 52.1321 14.7398 52.6977 13.5295 52.3244C12.3537 51.9619 12.0685 51.772 12.0685 51.772C11.2976 51.4191 11.385 48.6981 13.6747 49.2085Z" fill="#FDDFBD" stroke="black" stroke-width="0.97"/>
<path d="M49.2181 48.9397C50.5776 51.2032 54.251 56.2183 51.6308 56.8484C51.4117 56.9916 50.7945 56.8147 50.0791 54.9607C49.9379 54.5948 50.9151 57.9487 49.6564 58.3558C49.2939 58.473 48.4388 58.2082 47.7228 56.3592C47.9643 57.3091 48.2387 59.1846 47.1191 59.4659C45.512 59.8698 44.6144 56.9451 44.3666 55.4323C44.4109 55.3456 42.6659 57.0797 42.0452 56.7623C41.7849 56.6292 40.9135 56.6214 42.4026 50.9265L49.2181 48.9397Z" fill="#FDDFBD" stroke="black" stroke-width="0.97" stroke-linecap="round"/>
<path d="M42.0999 50.6623C42.9192 51.6283 49.9141 49.0766 49.7908 48.2476L47.4224 40.2522L39.151 44.2304L42.0999 50.6623Z" fill="#B4D9E9" stroke="black" stroke-width="0.97" stroke-linecap="round"/>
<path d="M44.048 13.1221C45.5977 8.35163 43.489 7.29273 42.2409 7.35958C40.4572 7.5236 37.7172 8.76009 41.0274 12.394L44.048 13.1221Z" fill="#FDDFBD" stroke="black" stroke-width="0.97" stroke-linecap="round"/>
<path d="M15.0362 21.049C13.7909 23.0123 11.1653 26.9596 10.6259 27.0417C9.95163 27.1442 2.68091 33.7692 4.39764 39.2241C5.77103 43.5881 6.34693 42.9683 8.14343 45.0603C8.24342 44.1969 8.65111 42.1184 8.83888 41.2095L8.95825 40.6986C8.95825 40.6986 9.02689 48.2767 16.7871 50.0529C16.3084 48.4174 15.4506 44.8949 15.8494 43.8881C17.1356 46.9447 21.8163 53.0526 30.2492 53.0313C35.3721 53.0184 39.8196 50.339 42.3193 46.859C44.963 43.1784 45.511 38.6864 45.511 38.6864C45.9758 39.7983 46.9316 44.9156 46.5513 45.5254C48.1377 44.8831 51.8455 42.5412 52.9698 39.1286C54.1481 35.5519 52.7039 30.9022 52.629 30.4093C53.3758 31.2155 54.9142 33.511 55.0932 36.2433C56.839 34.7622 56.9504 29.3127 55.586 25.2289C53.7725 19.8009 46.7116 18.8912 44.8731 15.2292C44.8619 15.207 44.8509 15.1848 44.84 15.1626C44.5134 14.3753 46.1596 13.1473 46.0884 12.6791L45.3683 9.24072C44.4639 5.23906 17.64 5.7714 17.87 9.87562C18.0617 13.2945 16.4798 18.6612 15.0362 21.049Z" fill="#D9D9D9"/>
<path d="M8.95825 40.6986C8.95825 40.6986 9.02689 48.2767 16.7871 50.0529C16.3084 48.4174 15.4506 44.8949 15.8494 43.8881C17.1356 46.9447 21.8163 53.0526 30.2492 53.0313C35.3721 53.0184 39.8196 50.339 42.3193 46.859C44.963 43.1784 45.511 38.6864 45.511 38.6864C45.9758 39.7983 46.9316 44.9156 46.5513 45.5254C48.1377 44.8831 51.8455 42.5412 52.9698 39.1286C54.1481 35.5519 52.7039 30.9022 52.629 30.4093C53.3758 31.2155 54.9142 33.511 55.0932 36.2433C56.839 34.7622 56.9504 29.3127 55.586 25.2289C53.7725 19.8009 46.7116 18.8912 44.8731 15.2292M8.95825 40.6986C8.95825 40.6986 8.76031 41.0243 8.83888 41.2095M8.95825 40.6986L8.83888 41.2095M44.3106 12.6539C44.2191 13.2758 44.3366 13.9504 44.6151 14.6556C44.6898 14.8447 44.7761 15.0361 44.8731 15.2292M44.8731 15.2292C44.4175 14.4464 46.1617 13.1607 46.0884 12.6791L45.3683 9.24072C44.4639 5.23906 17.64 5.7714 17.87 9.87562C18.0617 13.2945 16.4798 18.6612 15.0362 21.049C13.7909 23.0123 11.1653 26.9596 10.6259 27.0417C9.95163 27.1442 2.68091 33.7692 4.39764 39.2241C5.77103 43.5881 6.34693 42.9683 8.14343 45.0603C8.24342 44.1969 8.65111 42.1184 8.83888 41.2095" stroke="black" stroke-width="0.97" stroke-linecap="round"/>
<path d="M25.0292 37.5796C41.0729 34.5213 38.2336 15.0763 35.0149 6.38822C36.7474 5.92733 39.5439 6.86372 40.7256 7.38953C36.0018 3.90763 24.3935 -0.565816 15.7516 9.39558C11.8555 21.1527 8.98552 40.6378 25.0292 37.5796Z" fill="#FDDFBD" stroke="black" stroke-width="0.97" stroke-linecap="round"/>
<path d="M25.1885 27.2449C26.4891 25.6386 27.3223 23.0037 27.2646 21.8342C30.9057 23.5412 39.3345 26.3056 42.717 23.4418C46.945 19.8621 37.504 35.3546 25.1885 27.2449Z" fill="#D9D9D9" stroke="black" stroke-width="0.97" stroke-linecap="round"/>
<path d="M16.356 23.3735C15.9187 25.8688 18.8886 28.8234 18.421 29.0345C9.59184 33.0199 2.11189 26.7332 3.92237 26.2489C11.526 28.6821 16.9682 19.8802 16.356 23.3735Z" fill="#D9D9D9" stroke="black" stroke-width="0.97" stroke-linecap="round"/>
<circle cx="6.3331" cy="6.3331" r="6.3331" transform="matrix(-0.994514 0.104608 0.104608 0.994514 23.2422 10.5988)" fill="white" stroke="black" stroke-width="0.97"/>
<circle cx="1.55892" cy="1.55892" r="1.55892" transform="matrix(-0.994514 0.104608 0.104608 0.994514 16 16.2591)" fill="black"/>
<path d="M18.7989 28.8967C22.8916 32.3436 26.5321 26.3525 27.6068 22.288C26.3635 21.3109 23.913 19.121 24.0364 18.163C24.0369 18.161 24.0371 18.1589 24.0373 18.1569C24.037 18.1589 24.0367 18.161 24.0364 18.163C23.9106 18.7708 10.6573 22.0399 18.7989 28.8967Z" fill="#EA8283" stroke="black" stroke-width="0.97" stroke-linecap="round"/>
<circle cx="6.3331" cy="6.3331" r="6.3331" transform="matrix(-0.994514 0.104608 0.104608 0.994514 35.6451 9.29431)" fill="white" stroke="black" stroke-width="0.97"/>
<circle cx="1.55892" cy="1.55892" r="1.55892" transform="matrix(-0.994514 0.104608 0.104608 0.994514 28.209 14.975)" fill="black"/>
<path d="M35.6858 9.22295C35.4204 10.5926 30.7492 12.1255 27.7029 9.31665C25.3874 7.18166 36.4317 7.58765 35.6858 9.22295Z" fill="#DDD3D2" stroke="black" stroke-width="0.97" stroke-linecap="round"/>
<path d="M12.3146 11.067C12.7475 12.3932 17.5726 13.336 20.2477 10.1716C22.2811 7.76638 11.372 9.53662 12.3146 11.067Z" fill="#DDD3D2" stroke="black" stroke-width="0.97" stroke-linecap="round"/>
<path d="M29.8742 33.663C27.626 32.1958 22.3568 30.2564 19.2656 34.2372" stroke="black" stroke-width="0.97" stroke-linecap="round"/>
</svg>
