<svg width="73" height="76" viewBox="0 0 73 76" fill="none" xmlns="http://www.w3.org/2000/svg">
<path d="M33.6625 52.8735L30.8876 62.4867C32.3472 64.1898 39.5619 66.5401 39.3471 66.3674L41.7252 61.2079C36.6523 58.5459 34.2364 54.5425 33.6625 52.8735Z" fill="#385A80" stroke="black" stroke-width="0.97" stroke-linecap="round"/>
<path d="M30.2851 62.3564C30.2746 62.2595 36.6769 66.1488 40.2398 66.4662C40.3681 66.4777 39.5273 68.5628 38.6298 69.6799C39.6029 70.8153 39.1798 73.1091 29.7025 73.2008C26.3201 73.3406 20.3508 71.9263 23.5329 65.1502C23.5224 65.0534 24.8092 66.0697 26.3927 66.2108C26.448 65.5187 27.0576 64.2173 29.0539 64.5487L30.2851 62.3564Z" fill="#51323B"/>
<path d="M38.6298 69.6799C39.5273 68.5628 40.3681 66.4777 40.2398 66.4662C36.6769 66.1488 30.2746 62.2595 30.2851 62.3564L29.0539 64.5487M38.6298 69.6799C36.472 69.2943 32.0052 68.3239 31.3994 67.5274M38.6298 69.6799C39.6029 70.8153 39.1798 73.1091 29.7025 73.2008C26.3201 73.3406 20.3508 71.9263 23.5329 65.1502C23.5224 65.0534 24.8092 66.0697 26.3927 66.2108C26.448 65.5187 27.0576 64.2173 29.0539 64.5487M29.0539 64.5487C29.7488 65.0841 30.9639 66.2773 31.3994 67.5274M31.5523 68.5889C31.5834 68.2396 31.5226 67.8812 31.3994 67.5274" stroke="black" stroke-width="0.97" stroke-linecap="round"/>
<path d="M26.3929 66.2107C27.0381 66.3756 28.2276 68.6571 28.7416 69.7772C29.4478 69.9616 31.1291 70.0271 31.5524 68.5888C31.9101 67.3738 29.4626 64.7002 28.9467 64.4623C28.1542 64.3853 26.534 64.6272 26.3929 66.2107Z" fill="#F9E083" stroke="black" stroke-width="0.97" stroke-linecap="round"/>
<path d="M49.0943 53.5268L50.8982 63.3686C49.2762 64.9179 41.8634 66.538 42.0943 66.3877L40.2418 61.017C45.5545 58.8733 48.3571 55.1304 49.0943 53.5268Z" fill="#385A80" stroke="black" stroke-width="0.97" stroke-linecap="round"/>
<path d="M51.5103 63.2988C51.5304 63.2035 44.7727 66.4359 41.1959 66.397C41.067 66.3956 41.696 68.5542 42.4779 69.7551C41.3966 70.7879 41.5891 73.1124 51.0102 74.1474C54.3619 74.6233 60.4423 73.8104 57.9508 66.7511C57.9709 66.6558 56.5893 67.5389 54.9996 67.5216C55.0135 66.8275 54.5365 65.4719 52.5171 65.6028L51.5103 63.2988Z" fill="#51323B"/>
<path d="M42.4779 69.7551C41.696 68.5542 41.067 66.3956 41.1959 66.397C44.7727 66.4359 51.5304 63.2035 51.5103 63.2988L52.5171 65.6028M42.4779 69.7551C44.6633 69.5862 49.2046 69.0654 49.8867 68.3332M42.4779 69.7551C41.3966 70.7879 41.5891 73.1124 51.0102 74.1474C54.3619 74.6233 60.4423 73.8104 57.9508 66.7511C57.9709 66.6558 56.5893 67.5389 54.9996 67.5216C55.0135 66.8275 54.5365 65.4719 52.5171 65.6028M52.5171 65.6028C51.7723 66.0664 50.4445 67.1327 49.8867 68.3332M49.6289 69.3742C49.6327 69.0235 49.7288 68.673 49.8867 68.3332" stroke="black" stroke-width="0.97" stroke-linecap="round"/>
<path d="M54.9997 67.5216C54.3413 67.6215 52.9306 69.7731 52.3075 70.8365C51.5865 70.9497 49.9071 70.8475 49.629 69.3742C49.3941 68.1295 52.0957 65.7129 52.6328 65.5277C53.4289 65.5299 55.017 65.9319 54.9997 67.5216Z" fill="#F9E083" stroke="black" stroke-width="0.97" stroke-linecap="round"/>
<path d="M13.5814 47.645C11.087 48.5111 5.42497 51.0773 5.34589 48.3837C5.25062 48.1398 5.55043 47.572 7.51176 47.2522C7.89887 47.1891 4.4158 47.4573 4.27569 46.142C4.23533 45.7631 4.66994 44.9805 6.62652 44.6591C5.64731 44.7006 3.7554 44.5843 3.70976 43.4309C3.64423 41.775 6.6276 41.2954 8.21766 41.2179L13.0353 40.5668L13.5814 47.645Z" fill="#FDDFBD" stroke="black" stroke-width="0.97" stroke-linecap="round"/>
<path d="M13.3559 40.3248C12.2424 40.9284 13.3045 48.298 14.1412 48.3474L22.4525 47.6699L20.2561 38.7583L13.3559 40.3248Z" fill="#B4D9E9" stroke="black" stroke-width="0.97" stroke-linecap="round"/>
<path d="M7.09025 35.4518C7.22785 35.4214 7.44171 35.455 7.74766 35.6885C8.05118 35.9203 8.38763 36.3087 8.72753 36.8501C9.40487 37.9292 10.0379 39.5204 10.446 41.3669C10.8542 43.2134 10.9509 44.9232 10.7915 46.1872C10.7115 46.8215 10.5701 47.3155 10.3925 47.6536C10.2135 47.9944 10.0337 48.115 9.89612 48.1454C9.75852 48.1758 9.54466 48.1422 9.23871 47.9087C8.93519 47.6769 8.59874 47.2885 8.25884 46.7471C7.5815 45.668 6.94848 44.0767 6.54033 42.2303C6.13217 40.3838 6.03551 38.674 6.19491 37.4099C6.27492 36.7757 6.41631 36.2816 6.59387 35.9436C6.77287 35.6028 6.95265 35.4822 7.09025 35.4518Z" fill="#875E35" stroke="black"/>
<circle cx="6.58993" cy="32.4912" r="5" transform="rotate(-11.5562 6.58993 32.4912)" fill="#C9E6EB" stroke="black"/>
<path d="M12.2817 40.2881C12.5701 42.2216 11.3279 43.4785 10.1083 42.7806C10.1083 42.7806 9.40788 42.5355 9.32148 41.2718C9.23754 40.0443 9.31232 39.7099 9.31232 39.7099C9.36473 38.8637 11.9355 37.968 12.2817 40.2881Z" fill="#FDDFBD" stroke="black" stroke-width="0.97"/>
<path d="M58.1589 54.2327C60.0408 56.085 64.8504 60.0235 62.4707 61.2881C62.2943 61.4815 61.6525 61.4644 60.4966 59.8479C60.2685 59.5288 62.0525 62.5323 60.9354 63.2408C60.6137 63.4449 59.7195 63.4021 58.5643 61.7906C59.0355 62.65 59.7696 64.3975 58.7558 64.9496C57.3005 65.7421 55.7009 63.1344 55.083 61.7314C55.1043 61.6363 53.8477 63.7513 53.1674 63.5991C52.8821 63.5353 52.0364 63.7453 52.0558 57.859L58.1589 54.2327Z" fill="#FDDFBD" stroke="black" stroke-width="0.97" stroke-linecap="round"/>
<path d="M51.6967 57.6788C52.7312 58.4095 58.867 54.1915 58.5405 53.4195L54.2501 46.2691L47.2346 52.1873L51.6967 57.6788Z" fill="#B4D9E9" stroke="black" stroke-width="0.97" stroke-linecap="round"/>
<path d="M53.048 23.1513C54.5977 18.3809 52.4889 17.322 51.2409 17.3888C49.4571 17.5528 46.7172 18.7893 50.0274 22.4232L53.048 23.1513Z" fill="#FDDFBD" stroke="black" stroke-width="0.97" stroke-linecap="round"/>
<path d="M26.341 30.0179C24.9698 31.8955 22.0913 35.6623 21.5477 35.7089C20.8682 35.767 13.1791 41.9015 14.5349 47.4572C15.6195 51.9017 16.2348 51.321 17.8904 53.5262C18.0467 52.6712 18.5897 50.6239 18.8366 49.7292L18.9892 49.2272C18.9892 49.2272 18.5613 56.7935 26.1885 59.0742C25.8179 57.4109 25.1927 53.8397 25.6566 52.8612C26.7398 55.9955 31.0104 62.3968 39.4266 62.928C44.5394 63.2506 49.1528 60.8683 51.8751 57.5594C54.7542 54.0599 55.5952 49.6134 55.5952 49.6134C55.9862 50.7534 56.6048 55.9223 56.1853 56.5059C57.8105 55.9688 61.6636 53.8748 63.009 50.5432C64.4191 47.0514 63.2825 42.3171 63.24 41.8203C63.9324 42.6737 65.3171 45.065 65.3169 47.8031C67.1559 46.4396 67.624 41.0091 66.53 36.8447C65.0759 31.3095 58.0897 29.9394 56.495 26.1648C56.4853 26.1419 56.4758 26.119 56.4664 26.0962C56.192 25.2891 57.9152 24.1716 57.8748 23.6998L57.3814 20.2216C56.7411 16.1693 29.9398 14.9436 29.9006 19.0541C29.8679 22.4783 27.9379 27.7298 26.341 30.0179Z" fill="#D9D9D9"/>
<path d="M18.9892 49.2272C18.9892 49.2272 18.5613 56.7935 26.1885 59.0742C25.8179 57.4109 25.1927 53.8397 25.6566 52.8612C26.7398 55.9955 31.0104 62.3968 39.4266 62.928C44.5394 63.2506 49.1528 60.8683 51.8751 57.5594C54.7542 54.0599 55.5952 49.6134 55.5952 49.6134C55.9862 50.7534 56.6048 55.9223 56.1853 56.5059C57.8105 55.9688 61.6636 53.8748 63.009 50.5432C64.4191 47.0514 63.2825 42.3171 63.24 41.8203C63.9324 42.6737 65.3171 45.065 65.3169 47.8031C67.1559 46.4396 67.624 41.0091 66.53 36.8447C65.0759 31.3095 58.0897 29.9394 56.495 26.1648M18.9892 49.2272C18.9892 49.2272 18.7703 49.5393 18.8366 49.7292M18.9892 49.2272L18.8366 49.7292M56.1025 23.5582C55.9704 24.1728 56.0434 24.8536 56.2752 25.5755C56.3373 25.7692 56.4109 25.9658 56.495 26.1648M56.495 26.1648C56.0917 25.3538 57.9163 24.1852 57.8748 23.6998L57.3814 20.2216C56.7411 16.1693 29.9398 14.9436 29.9006 19.0541C29.8679 22.4783 27.9379 27.7298 26.341 30.0179C24.9698 31.8955 22.0913 35.6623 21.5477 35.7089C20.8682 35.767 13.1791 41.9015 14.5349 47.4572C15.6195 51.9017 16.2348 51.321 17.8904 53.5262C18.0467 52.6712 18.5897 50.6239 18.8366 49.7292" stroke="black" stroke-width="0.97" stroke-linecap="round"/>
<path d="M35.2299 47.1675C51.4394 45.1666 49.8798 25.5774 47.2371 16.6972C48.996 16.3507 51.0264 17.032 52.1711 17.6341C47.6855 13.8503 37.0939 9.06238 27.8181 18.4364C23.1603 29.9131 19.0203 49.1683 35.2299 47.1675Z" fill="#FDDFBD" stroke="black" stroke-width="0.97" stroke-linecap="round"/>
<path d="M36.0657 36.8655C37.4687 35.3478 38.4727 32.7732 38.4917 31.6023C42.0132 33.5442 50.2429 36.8547 53.8056 34.2186C58.259 30.9235 47.8236 45.7644 36.0657 36.8655Z" fill="#D9D9D9" stroke="black" stroke-width="0.97" stroke-linecap="round"/>
<path d="M27.5056 32.4239C26.9058 34.8851 29.6758 38.0279 29.1954 38.2079C20.1242 41.6065 13.072 34.8434 14.9103 34.4787C22.3383 37.4047 28.3453 28.9781 27.5056 32.4239Z" fill="#D9D9D9" stroke="black" stroke-width="0.97" stroke-linecap="round"/>
<circle cx="6.3331" cy="6.3331" r="6.3331" transform="matrix(-0.99923 0.0392458 0.0392458 0.99923 35.2139 20.1276)" fill="white" stroke="black" stroke-width="0.97"/>
<circle cx="1.55892" cy="1.55892" r="1.55892" transform="matrix(-0.99923 0.0392458 0.0392458 0.99923 27.6165 25.3014)" fill="black"/>
<path d="M29.5815 38.0952C33.4396 41.8028 37.4648 36.063 38.8033 32.0776C37.6267 31.0211 35.3249 28.6754 35.5108 27.7276C35.5113 27.7256 35.5118 27.7235 35.512 27.7215C35.5116 27.7236 35.5112 27.7256 35.5108 27.7276C35.3455 28.3258 21.9065 30.7198 29.5815 38.0952Z" fill="#EA8283" stroke="black" stroke-width="0.97" stroke-linecap="round"/>
<circle cx="6.3331" cy="6.3331" r="6.3331" transform="matrix(-0.99923 0.0392458 0.0392458 0.99923 47.6755 19.6382)" fill="white" stroke="black" stroke-width="0.97"/>
<circle cx="1.55892" cy="1.55892" r="1.55892" transform="matrix(-0.99923 0.0392458 0.0392458 0.99923 39.8835 24.8196)" fill="black"/>
<path d="M31.6233 6.0243C34.3245 4.32953 37.7814 3.35331 41.3904 3.69602C48.7199 4.39227 53.972 10.2192 54.0654 15.3573L54.0726 15.7382L54.4411 15.8325C56.1057 16.258 57.4115 16.6913 58.2817 17.1048C58.7195 17.3129 59.0187 17.5031 59.1968 17.665C59.3109 17.7688 59.3447 17.8324 59.3547 17.8578C59.34 17.8817 59.2893 17.9483 59.123 18.0432C58.8837 18.1795 58.5048 18.317 57.974 18.4428C56.9185 18.6931 55.3824 18.87 53.4671 18.9601C49.7698 19.134 44.7381 18.9817 39.2132 18.4569C34.3 17.9902 29.8234 17.3077 26.3605 16.5522C24.1284 16.0651 22.3356 15.5517 21.1217 15.0535C20.5112 14.803 20.0759 14.5668 19.8067 14.3581C19.6003 14.198 19.5536 14.1041 19.5429 14.0758C19.5594 14.0497 19.618 13.9776 19.8078 13.8747C20.0741 13.7304 20.4923 13.5874 21.072 13.459C22.2245 13.2036 23.896 13.0303 25.9676 12.953L26.3485 12.9389L26.436 12.5675C27.0108 10.1158 28.9149 7.72369 31.6233 6.0243Z" fill="#E5D7A2" stroke="black"/>
<path d="M25.1696 16.6294C25.1948 18.0243 29.5317 20.3398 33.0168 18.0984C35.6658 16.3947 24.7169 14.8899 25.1696 16.6294Z" fill="#DDD3D2" stroke="black" stroke-width="0.97" stroke-linecap="round"/>
<path d="M46.554 18.1388C46.2024 19.4889 41.4436 20.7233 38.5811 17.7275C36.4052 15.4503 47.4017 16.554 46.554 18.1388Z" fill="#DDD3D2" stroke="black" stroke-width="0.97" stroke-linecap="round"/>
<path d="M35.9995 44.5563C35.9538 45.1067 34.3652 45.6453 32.9892 45.5311C31.6132 45.4168 30.0779 44.3384 30.1236 43.7881C30.1693 43.2377 31.6132 43.1749 32.9892 43.2891C34.3652 43.4033 36.0452 44.0059 35.9995 44.5563Z" fill="black"/>
</svg>
