<svg width="72" height="76" viewBox="0 0 72 76" fill="none" xmlns="http://www.w3.org/2000/svg">
<path d="M53.8945 40.6393C57.4142 37.8073 56.0625 36.2602 54.9466 35.8406C53.3207 35.2899 50.3748 35.1483 51.5991 38.9873L53.8945 40.6393Z" fill="#FDDFBD" stroke="black" stroke-width="0.505525" stroke-linecap="round"/>
<path d="M23.2444 73.548C32.5252 73.0102 32.8033 71.1409 31.7822 70.2735C31.6168 68.8628 32.68 66.6132 33.2323 65.6647L33.041 64.6421L29.0239 63.7767C27.2386 62.8851 23.7252 61.4482 23.9548 62.8327C24.1843 64.2172 23.349 66.3465 22.9027 67.2381L22.0939 66.6068C20.1181 66.4375 19.5983 67.5161 19.5853 68.0766C18.0253 68.0404 16.72 67.3168 16.72 67.3619C14.0054 72.9786 19.9385 73.8263 23.2444 73.548Z" fill="#FDDFBD" stroke="black" stroke-width="0.505525" stroke-linecap="round"/>
<path d="M19.5849 68.0764C20.2269 68.1778 21.5282 69.9582 22.0985 70.8357C22.4621 71.4196 23.1509 72.7761 22.9979 73.5313L25.7716 73.2953C25.8481 72.0366 25.1437 70.401 24.7819 69.7405C23.6674 67.8673 22.5028 66.7088 21.9831 66.5424C21.202 66.5191 19.6289 66.7934 19.5849 68.0764Z" fill="#6ABDF0" stroke="black" stroke-width="0.505525" stroke-linecap="round"/>
<path d="M25.1981 73.3739C19.2299 74.1921 16.8451 72.4562 16.3988 71.4859C21.2958 73.3739 28.7688 71.4859 31.8932 70.3059C32.5627 71.5646 32.6584 72.3513 25.1981 73.3739Z" fill="#6ABDF0" stroke="black" stroke-width="0.505525"/>
<path d="M47.8469 73.7627C38.5661 73.2249 38.2881 71.3556 39.3092 70.4882C39.4746 69.0775 38.4113 66.8279 37.859 65.8794L38.0503 64.8568L40.8606 60.2715C42.646 59.3799 46.1593 57.9429 45.9298 59.3275C45.7002 60.712 47.7423 66.5612 48.1886 67.4528L48.9974 66.8215C50.9732 66.6522 51.4931 67.7308 51.506 68.2913C53.066 68.2551 54.3713 67.5315 54.3713 67.5766C57.086 73.1934 51.1528 74.041 47.8469 73.7627Z" fill="#FDDFBD" stroke="black" stroke-width="0.505525" stroke-linecap="round"/>
<path d="M51.5063 68.2914C50.8643 68.3927 49.563 70.1732 48.9927 71.0507C48.6291 71.6346 47.9402 72.9911 48.0933 73.7463L45.3196 73.5103C45.2431 72.2516 45.9475 70.6159 46.3092 69.9554C47.4238 68.0822 48.5884 66.9238 49.1081 66.7574C49.8892 66.7341 51.4623 67.0083 51.5063 68.2914Z" fill="#6ABDF0" stroke="black" stroke-width="0.505525" stroke-linecap="round"/>
<path d="M45.8936 73.5892C51.8618 74.4073 54.2465 72.6714 54.6929 71.7011C49.7959 73.5892 42.3229 71.7011 39.1985 70.5211C38.529 71.7798 38.4333 72.5665 45.8936 73.5892Z" fill="#6ABDF0" stroke="black" stroke-width="0.505525"/>
<path d="M7.1706 43.0299C4.95885 41.9185 -0.516688 39.7036 1.47668 38.2728C1.60224 38.0883 2.21966 37.9842 3.68479 39.0433C3.97396 39.2524 1.59934 37.2177 2.50945 36.4558C2.77159 36.2364 3.63599 36.106 5.09936 37.1614C4.45747 36.572 3.3663 35.3326 4.21254 34.7125C5.42736 33.8225 7.53758 35.5797 8.44085 36.5696C8.44168 36.6482 9.17183 34.7548 9.85618 34.7497C10.1431 34.7476 10.9049 34.4273 12.1976 39.0594L20.7018 43.2458L15.6322 47.3369L7.1706 43.0299Z" fill="#FDDFBD" stroke="black" stroke-width="0.505525" stroke-linecap="round"/>
<path d="M64.6926 43.8171C66.9044 42.7056 72.3802 40.4902 70.387 39.0596C70.2615 38.8751 69.6441 38.771 68.1788 39.8302C67.8896 40.0393 70.2644 38.0045 69.3544 37.2427C69.0923 37.0232 68.2279 36.893 66.7644 37.9484C67.4064 37.359 68.4977 36.1195 67.6515 35.4995C66.4368 34.6096 64.3264 36.3669 63.423 37.3568C63.4222 37.4355 62.6922 35.5421 62.0079 35.5371C61.7209 35.535 60.9592 35.2148 59.6659 39.847L51.1613 44.034L56.2305 48.1247L64.6926 43.8171Z" fill="#FDDFBD" stroke="black" stroke-width="0.505525" stroke-linecap="round"/>
<path d="M20.7672 38.519C19.2688 39.935 16.138 42.767 15.6024 42.767C14.9329 42.767 6.89875 47.1724 7.75955 51.7351C8.44819 55.3853 9.09858 54.9605 10.5332 56.8485C10.7577 56.1715 11.4602 54.5619 11.7766 53.8592L11.9679 53.4658C11.9679 53.4658 10.9158 59.5232 18.1848 61.8833C17.9616 60.5197 17.6492 57.6037 18.1848 56.8485C18.9818 59.4446 22.6227 64.8884 30.8099 65.8953C35.7836 66.507 40.4953 64.9083 43.435 62.4339C46.544 59.817 47.7389 56.2979 47.7389 56.2979C48.0259 57.2419 48.198 61.4427 47.7389 61.8833C49.3734 61.5632 53.3174 60.144 54.9123 57.5565C56.5839 54.8446 55.8687 50.9577 55.8687 50.5551C56.4745 51.2894 57.6286 53.3085 57.399 55.5112C59.3119 54.541 60.2245 50.2045 59.5032 46.7791C58.5445 42.2261 51.8263 40.6426 50.5827 37.4963C50.5751 37.4772 50.5677 37.4581 50.5604 37.4391C50.3597 36.771 52.1386 35.9907 52.1386 35.6083L51.9473 32.7763C51.6604 29.4722 25.5494 26.6402 25.1669 29.9442C24.8482 32.6966 22.5207 36.7883 20.7672 38.519Z" fill="#D9D9D9"/>
<path d="M11.9679 53.4658C11.9679 53.4658 10.9158 59.5232 18.1848 61.8833C17.9616 60.5197 17.6492 57.6037 18.1848 56.8485C18.9818 59.4446 22.6227 64.8884 30.8099 65.8953C35.7836 66.507 40.4953 64.9083 43.435 62.4339C46.544 59.817 47.7389 56.2979 47.7389 56.2979C48.0259 57.2419 48.198 61.4427 47.7389 61.8833C49.3734 61.5632 53.3174 60.144 54.9123 57.5565C56.5839 54.8446 55.8687 50.9577 55.8687 50.5551C56.4745 51.2894 57.6286 53.3085 57.399 55.5112C59.3119 54.541 60.2245 50.2045 59.5032 46.7791C58.5445 42.2261 51.8263 40.6426 50.5827 37.4963M11.9679 53.4658C11.9679 53.4658 11.7277 53.7018 11.7766 53.8592M11.9679 53.4658L11.7766 53.8592M50.417 35.3723C50.2364 35.8576 50.2508 36.4104 50.417 37.0071C50.4616 37.1672 50.5171 37.3304 50.5827 37.4963M50.5827 37.4963C50.2561 36.8161 52.1386 36.0016 52.1386 35.6083L51.9473 32.7763C51.6604 29.4722 25.5494 26.6402 25.1669 29.9442C24.8482 32.6966 22.5207 36.7883 20.7672 38.519C19.2688 39.935 16.138 42.767 15.6024 42.767C14.9329 42.767 6.89875 47.1724 7.75955 51.7351C8.44819 55.3853 9.09858 54.9605 10.5332 56.8485C10.7577 56.1715 11.4602 54.5619 11.7766 53.8592" stroke="black" stroke-width="0.505525" stroke-linecap="round"/>
<path d="M28.959 51.7573C44.9507 52.7013 47.2271 38.0429 46.3663 30.5957L28.959 25.4823C22.2958 33.8473 12.9672 50.8133 28.959 51.7573Z" fill="#FDDFBD" stroke="black" stroke-width="0.505525" stroke-linecap="round"/>
<path d="M51.8829 32.4834C34.6669 27.134 28.992 28.7598 25.1981 29.6514C27.1748 20.4735 34.3035 1.89747 47.0051 1.0164C50.2251 0.780394 57.2008 2.99882 59.3432 13.7605L51.2134 10.4565L51.8829 32.4834Z" fill="#C7253A"/>
<path d="M51.2134 10.4565L51.8829 32.4834C34.6669 27.134 28.992 28.7598 25.1981 29.6514C27.1748 20.4735 34.3035 1.89747 47.0051 1.0164C50.2251 0.780394 57.2008 2.99882 59.3432 13.7605L51.2134 10.4565ZM51.2134 10.4565C51.2134 10.4565 48.6485 9.49759 47.0051 8.88315" stroke="black" stroke-width="0.505525" stroke-linecap="round" stroke-linejoin="round"/>
<path d="M32.6719 43.1431C34.1066 41.9631 35.1905 39.9178 35.2543 38.9738C38.6337 40.652 46.5786 43.5837 50.1748 41.5698C54.6701 39.0524 43.8623 50.6952 32.6719 43.1431Z" fill="#D9D9D9" stroke="black" stroke-width="0.505525" stroke-linecap="round"/>
<path d="M24.4464 39.288C23.7632 41.2547 26.3593 43.878 25.881 44.008C16.8522 46.4625 10.1953 40.7827 12.0126 40.5467C19.1859 43.1427 25.4028 36.5346 24.4464 39.288Z" fill="#D9D9D9" stroke="black" stroke-width="0.505525" stroke-linecap="round"/>
<ellipse cx="6.21689" cy="5.11339" rx="6.21689" ry="5.11339" transform="matrix(-1 0 0 1 32.9453 30.3593)" fill="white" stroke="black" stroke-width="0.505525"/>
<ellipse cx="1.53031" cy="1.25868" rx="1.53031" ry="1.25868" transform="matrix(-1 0 0 1 29.6933 33.8209)" fill="black"/>
<path d="M26.1158 44.2047C29.7574 47.3182 33.9268 42.8149 35.3933 39.642C34.2798 38.7524 32.1124 36.787 32.3312 36.0282C32.3319 36.0265 32.3324 36.0249 32.3327 36.0233C32.3322 36.0249 32.3317 36.0266 32.3312 36.0282C32.146 36.5056 18.8716 38.0112 26.1158 44.2047Z" fill="#EA8283" stroke="black" stroke-width="0.505525" stroke-linecap="round"/>
<ellipse cx="6.21689" cy="5.11339" rx="6.21689" ry="5.11339" transform="matrix(-1 0 0 1 44.6138 30.6741)" fill="white" stroke="black" stroke-width="0.505525"/>
<ellipse cx="1.53031" cy="1.25868" rx="1.53031" ry="1.25868" transform="matrix(-1 0 0 1 40.0233 34.45)" fill="black"/>
<path d="M29.8847 50.1949C24.0695 50.069 23.9547 47.1531 24.6242 45.7109C25.2451 44.3735 27.0154 46.8122 29.8847 46.8909C33.1366 46.8908 33.9974 44.1375 35.5277 45.5535C37.8232 48.0709 32.6265 50.09 29.8847 50.1949Z" fill="#512D3E" stroke="black" stroke-width="0.505525" stroke-linecap="round" stroke-linejoin="round"/>
<path d="M28.9279 48.4152C27.5889 47.5498 25.6441 47.8383 25.0065 48.1005C25.0065 48.3365 26.1542 49.7525 29.5018 49.9099C32.1798 50.0357 34.1246 48.9134 34.7622 48.3365C33.0789 47.4554 30.1713 48.0219 28.9279 48.4152Z" fill="#E13A50" stroke="black" stroke-width="0.20221" stroke-linecap="round" stroke-linejoin="round"/>
<path d="M35.4958 24.7641C35.2085 25.8655 41.218 28.9522 42.6691 27.3601C44.5237 25.3255 35.6706 22.9734 35.4958 24.7641Z" fill="#DDD3D2" stroke="black" stroke-width="0.505525" stroke-linecap="round"/>
<path d="M30.1716 24.7645C31.1752 26.1992 22.9983 30.7061 22.9983 27.3605C22.9982 25.1765 28.8797 23.1311 30.1716 24.7645Z" fill="#DDD3D2" stroke="black" stroke-width="0.505525" stroke-linecap="round"/>
</svg>
